<?xml version="1.0" encoding="UTF-8"?>
<svg version="1.1" xmlns="http://www.w3.org/2000/svg" width="891" height="891">
<path d="M0 0 C294.03 0 588.06 0 891 0 C891 294.03 891 588.06 891 891 C596.97 891 302.94 891 0 891 C0 596.97 0 302.94 0 0 Z " fill="#FEFEFE" transform="translate(0,0)"/>
<path d="M0 0 C1.41154022 1.25940501 2.81660672 2.52605519 4.22119141 3.79321289 C5.59534582 4.96087541 6.97023996 6.1276685 8.34619141 7.29321289 C38.91518579 34.4015664 59.12366506 71.89158637 67.22119141 111.79321289 C67.40810547 112.70377441 67.59501953 113.61433594 67.78759766 114.55249023 C69.64706298 124.88082396 69.61851871 135.20888781 69.59619141 145.66821289 C69.59537567 147.10151947 69.59537567 147.10151947 69.59454346 148.56378174 C69.55676823 162.9893857 68.88404481 176.77276058 65.22119141 190.79321289 C64.99093262 191.7066748 64.76067383 192.62013672 64.5234375 193.5612793 C55.05877413 230.55027556 34.06484688 266.44441966 4.22119141 290.79321289 C3.17925836 291.6822237 2.13761831 292.57157796 1.09619141 293.46118164 C-13.6001364 305.816033 -30.15269104 315.26696883 -47.77880859 322.79321289 C-48.39546387 323.06327148 -49.01211914 323.33333008 -49.64746094 323.61157227 C-67.50512903 331.32814263 -87.71425348 335.85317572 -107.15771484 336.03149414 C-108.03898041 336.04128799 -108.92024597 336.05108185 -109.82821655 336.06117249 C-146.56335237 336.38559936 -146.56335237 336.38559936 -163.77880859 331.79321289 C-164.65456543 331.5629541 -165.53032227 331.33269531 -166.43261719 331.09545898 C-172.28187392 329.519236 -178.0411294 327.73422682 -183.77880859 325.79321289 C-185.52871094 325.20926758 -185.52871094 325.20926758 -187.31396484 324.61352539 C-212.45734423 315.57811025 -234.72283884 299.21574321 -253.77880859 280.79321289 C-254.50326172 280.12032227 -255.22771484 279.44743164 -255.97412109 278.75415039 C-271.19383366 264.27385706 -282.57929029 245.50534622 -291.77880859 226.79321289 C-292.32279297 225.68977539 -292.86677734 224.58633789 -293.42724609 223.44946289 C-300.69093642 207.61538662 -305.30503741 190.0144661 -307.77880859 172.79321289 C-307.87162109 172.15907471 -307.96443359 171.52493652 -308.06005859 170.87158203 C-310.61218266 151.25440697 -309.54392071 130.16609219 -305.77880859 110.79321289 C-305.60720215 109.90988281 -305.4355957 109.02655273 -305.25878906 108.11645508 C-299.30139674 78.61165773 -285.84598969 51.04704841 -266.77880859 27.79321289 C-266.31071777 27.21684082 -265.84262695 26.64046875 -265.36035156 26.04663086 C-236.72224663 -9.02571229 -196.10411765 -31.85564193 -151.77880859 -40.20678711 C-150.21453125 -40.5180957 -150.21453125 -40.5180957 -148.61865234 -40.83569336 C-97.53385663 -49.37970013 -39.12936733 -34.28472182 0 0 Z " fill="#FAFAFA" transform="translate(564.77880859375,298.206787109375)"/>
<path d="M0 0 C10.56 0 21.12 0 32 0 C32 0.66 32 1.32 32 2 C36.29 2 40.58 2 45 2 C45 2.66 45 3.32 45 4 C47.31 4 49.62 4 52 4 C52 4.66 52 5.32 52 6 C53.98 6 55.96 6 58 6 C58 6.66 58 7.32 58 8 C59.32 8 60.64 8 62 8 C62 8.99 62 9.98 62 11 C63.65 11 65.3 11 67 11 C67 11.66 67 12.32 67 13 C68.32 13 69.64 13 71 13 C71 13.66 71 14.32 71 15 C72.32 15 73.64 15 75 15 C75 15.66 75 16.32 75 17 C76.32 17 77.64 17 79 17 C79 17.66 79 18.32 79 19 C79.99 19 80.98 19 82 19 C82 19.66 82 20.32 82 21 C82.66 21 83.32 21 84 21 C84 21.66 84 22.32 84 23 C85.32 23 86.64 23 88 23 C88 23.99 88 24.98 88 26 C88.66 26 89.32 26 90 26 C90 26.66 90 27.32 90 28 C90.66 28 91.32 28 92 28 C92 28.66 92 29.32 92 30 C92.66 30 93.32 30 94 30 C94 30.66 94 31.32 94 32 C94.66 32 95.32 32 96 32 C96 32.66 96 33.32 96 34 C96.99 34 97.98 34 99 34 C99 34.66 99 35.32 99 36 C99.66 36 100.32 36 101 36 C101 36.66 101 37.32 101 38 C101.66 38 102.32 38 103 38 C103 38.99 103 39.98 103 41 C103.66 41 104.32 41 105 41 C105 42.32 105 43.64 105 45 C105.66 45 106.32 45 107 45 C107 45.66 107 46.32 107 47 C107.66 47 108.32 47 109 47 C109 48.32 109 49.64 109 51 C109.66 51 110.32 51 111 51 C111 52.32 111 53.64 111 55 C111.66 55 112.32 55 113 55 C113.12375 55.639375 113.2475 56.27875 113.375 56.9375 C113.58125 57.618125 113.7875 58.29875 114 59 C114.66 59.33 115.32 59.66 116 60 C116 60.66 116 61.32 116 62 C116.66 62 117.32 62 118 62 C118 63.32 118 64.64 118 66 C118.66 66 119.32 66 120 66 C120 67.98 120 69.96 120 72 C120.66 72 121.32 72 122 72 C122 75.63 122 79.26 122 83 C122.66 83 123.32 83 124 83 C124 86.63 124 90.26 124 94 C124.66 94 125.32 94 126 94 C126 102.91 126 111.82 126 121 C125.34 121 124.68 121 124 121 C124 125.95 124 130.9 124 136 C123.34 136 122.68 136 122 136 C122 137.65 122 139.3 122 141 C121.34 141 120.68 141 120 141 C120 142.98 120 144.96 120 147 C119.34 147 118.68 147 118 147 C118 148.32 118 149.64 118 151 C117.34 151 116.68 151 116 151 C115.67 152.65 115.34 154.3 115 156 C114.34 156 113.68 156 113 156 C113 157.32 113 158.64 113 160 C112.34 160 111.68 160 111 160 C111 161.32 111 162.64 111 164 C110.34 164 109.68 164 109 164 C109 165.32 109 166.64 109 168 C108.34 168 107.68 168 107 168 C107 168.66 107 169.32 107 170 C106.34 170 105.68 170 105 170 C105 170.99 105 171.98 105 173 C104.34 173 103.68 173 103 173 C103 174.32 103 175.64 103 177 C102.34 177 101.68 177 101 177 C101 177.66 101 178.32 101 179 C100.34 179 99.68 179 99 179 C99 179.66 99 180.32 99 181 C98.01 181 97.02 181 96 181 C96 181.66 96 182.32 96 183 C95.34 183 94.68 183 94 183 C94 183.66 94 184.32 94 185 C93.34 185 92.68 185 92 185 C92 185.66 92 186.32 92 187 C91.34 187 90.68 187 90 187 C90 187.99 90 188.98 90 190 C89.34 190 88.68 190 88 190 C88 190.66 88 191.32 88 192 C86.68 192 85.36 192 84 192 C84 192.66 84 193.32 84 194 C83.34 194 82.68 194 82 194 C82 194.66 82 195.32 82 196 C81.01 196 80.02 196 79 196 C79 196.66 79 197.32 79 198 C77.68 198 76.36 198 75 198 C75 198.66 75 199.32 75 200 C73.68 200 72.36 200 71 200 C71 200.99 71 201.98 71 203 C68.35261084 204.4606285 67.10551666 205 64 205 C64 205.66 64 206.32 64 207 C62.02 207 60.04 207 58 207 C58 207.66 58 208.32 58 209 C56.02 209 54.04 209 52 209 C52 209.66 52 210.32 52 211 C49.03 211 46.06 211 43 211 C43 211.66 43 212.32 43 213 C39.37 213 35.74 213 32 213 C32 213.66 32 214.32 32 215 C22.43 215 12.86 215 3 215 C3 214.34 3 213.68 3 213 C-0.63 213 -4.26 213 -8 213 C-8 212.34 -8 211.68 -8 211 C-10.97 211 -13.94 211 -17 211 C-17 210.34 -17 209.68 -17 209 C-18.98 209 -20.96 209 -23 209 C-23 208.34 -23 207.68 -23 207 C-24.32 207 -25.64 207 -27 207 C-27 206.34 -27 205.68 -27 205 C-27.7425 204.855625 -28.485 204.71125 -29.25 204.5625 C-31.52027739 204.09812508 -33.75759479 203.58136431 -36 203 C-36 202.01 -36 201.02 -36 200 C-37.32 200 -38.64 200 -40 200 C-40 199.34 -40 198.68 -40 198 C-40.66 198 -41.32 198 -42 198 C-42 197.34 -42 196.68 -42 196 C-43.32 196 -44.64 196 -46 196 C-46 195.34 -46 194.68 -46 194 C-46.99 194 -47.98 194 -49 194 C-49 193.34 -49 192.68 -49 192 C-49.66 192 -50.32 192 -51 192 C-51 191.34 -51 190.68 -51 190 C-52.32 189.67 -53.64 189.34 -55 189 C-55 188.34 -55 187.68 -55 187 C-55.66 187 -56.32 187 -57 187 C-57 186.34 -57 185.68 -57 185 C-57.66 185 -58.32 185 -59 185 C-59 184.34 -59 183.68 -59 183 C-59.66 183 -60.32 183 -61 183 C-61 182.34 -61 181.68 -61 181 C-61.66 181 -62.32 181 -63 181 C-63 180.34 -63 179.68 -63 179 C-63.66 179 -64.32 179 -65 179 C-65.495 177.02 -65.495 177.02 -66 175 C-66.66 175 -67.32 175 -68 175 C-68 174.34 -68 173.68 -68 173 C-68.66 173 -69.32 173 -70 173 C-70 172.01 -70 171.02 -70 170 C-70.66 170 -71.32 170 -72 170 C-72 168.68 -72 167.36 -72 166 C-72.66 166 -73.32 166 -74 166 C-74 164.68 -74 163.36 -74 162 C-74.66 162 -75.32 162 -76 162 C-76 161.34 -76 160.68 -76 160 C-76.66 160 -77.32 160 -78 160 C-78 157.69 -78 155.38 -78 153 C-78.66 153 -79.32 153 -80 153 C-80 152.34 -80 151.68 -80 151 C-80.99 151 -81.98 151 -83 151 C-83 149.02 -83 147.04 -83 145 C-83.66 145 -84.32 145 -85 145 C-85 143.35 -85 141.7 -85 140 C-85.66 140 -86.32 140 -87 140 C-87 136.7 -87 133.4 -87 130 C-87.66 130 -88.32 130 -89 130 C-89 125.71 -89 121.42 -89 117 C-89.66 117 -90.32 117 -91 117 C-91 109.41 -91 101.82 -91 94 C-90.34 94 -89.68 94 -89 94 C-89 91.03 -89 88.06 -89 85 C-88.34 85 -87.68 85 -87 85 C-87 82.36 -87 79.72 -87 77 C-86.34 77 -85.68 77 -85 77 C-85 74.69 -85 72.38 -85 70 C-84.34 70 -83.68 70 -83 70 C-83 68.68 -83 67.36 -83 66 C-82.01 66 -81.02 66 -80 66 C-80 64.02 -80 62.04 -80 60 C-79.34 60 -78.68 60 -78 60 C-78 58.68 -78 57.36 -78 56 C-77.34 56 -76.68 56 -76 56 C-76 54.35 -76 52.7 -76 51 C-75.34 51 -74.68 51 -74 51 C-74 50.34 -74 49.68 -74 49 C-73.34 49 -72.68 49 -72 49 C-72 47.68 -72 46.36 -72 45 C-71.34 45 -70.68 45 -70 45 C-70 44.34 -70 43.68 -70 43 C-69.01 43 -68.02 43 -67 43 C-66.34 40.69 -65.68 38.38 -65 36 C-64.34 36 -63.68 36 -63 36 C-63 35.34 -63 34.68 -63 34 C-62.34 34 -61.68 34 -61 34 C-61 33.34 -61 32.68 -61 32 C-60.34 32 -59.68 32 -59 32 C-59 31.34 -59 30.68 -59 30 C-58.34 30 -57.68 30 -57 30 C-57 29.34 -57 28.68 -57 28 C-56.34 28 -55.68 28 -55 28 C-55 27.34 -55 26.68 -55 26 C-53.68 25.67 -52.36 25.34 -51 25 C-51 24.34 -51 23.68 -51 23 C-50.34 23 -49.68 23 -49 23 C-49 22.34 -49 21.68 -49 21 C-48.01 21 -47.02 21 -46 21 C-46 20.34 -46 19.68 -46 19 C-44.68 19 -43.36 19 -42 19 C-42 18.34 -42 17.68 -42 17 C-41.34 17 -40.68 17 -40 17 C-40 16.34 -40 15.68 -40 15 C-38.68 15 -37.36 15 -36 15 C-36 14.34 -36 13.68 -36 13 C-32.5647952 10.70986347 -31.014669 10.82157027 -27 11 C-27 10.01 -27 9.02 -27 8 C-25.68 8 -24.36 8 -23 8 C-23 7.34 -23 6.68 -23 6 C-21.02 6 -19.04 6 -17 6 C-17 5.34 -17 4.68 -17 4 C-15.35 4 -13.7 4 -12 4 C-12 3.34 -12 2.68 -12 2 C-8.04 2 -4.08 2 0 2 C0 1.34 0 0.68 0 0 Z " fill="#010101" transform="translate(432,336)"/>
<path d="M0 0 C1.41154022 1.25940501 2.81660672 2.52605519 4.22119141 3.79321289 C5.59534582 4.96087541 6.97023996 6.1276685 8.34619141 7.29321289 C38.91518579 34.4015664 59.12366506 71.89158637 67.22119141 111.79321289 C67.40810547 112.70377441 67.59501953 113.61433594 67.78759766 114.55249023 C69.64706298 124.88082396 69.61851871 135.20888781 69.59619141 145.66821289 C69.59537567 147.10151947 69.59537567 147.10151947 69.59454346 148.56378174 C69.55676823 162.9893857 68.88404481 176.77276058 65.22119141 190.79321289 C64.99093262 191.7066748 64.76067383 192.62013672 64.5234375 193.5612793 C55.05877413 230.55027556 34.06484688 266.44441966 4.22119141 290.79321289 C3.17925836 291.6822237 2.13761831 292.57157796 1.09619141 293.46118164 C-13.6001364 305.816033 -30.15269104 315.26696883 -47.77880859 322.79321289 C-48.39546387 323.06327148 -49.01211914 323.33333008 -49.64746094 323.61157227 C-67.50512903 331.32814263 -87.71425348 335.85317572 -107.15771484 336.03149414 C-108.03898041 336.04128799 -108.92024597 336.05108185 -109.82821655 336.06117249 C-146.56335237 336.38559936 -146.56335237 336.38559936 -163.77880859 331.79321289 C-164.65456543 331.5629541 -165.53032227 331.33269531 -166.43261719 331.09545898 C-172.28187392 329.519236 -178.0411294 327.73422682 -183.77880859 325.79321289 C-185.52871094 325.20926758 -185.52871094 325.20926758 -187.31396484 324.61352539 C-212.45734423 315.57811025 -234.72283884 299.21574321 -253.77880859 280.79321289 C-254.50326172 280.12032227 -255.22771484 279.44743164 -255.97412109 278.75415039 C-271.19383366 264.27385706 -282.57929029 245.50534622 -291.77880859 226.79321289 C-292.32279297 225.68977539 -292.86677734 224.58633789 -293.42724609 223.44946289 C-300.69093642 207.61538662 -305.30503741 190.0144661 -307.77880859 172.79321289 C-307.87162109 172.15907471 -307.96443359 171.52493652 -308.06005859 170.87158203 C-310.61218266 151.25440697 -309.54392071 130.16609219 -305.77880859 110.79321289 C-305.60720215 109.90988281 -305.4355957 109.02655273 -305.25878906 108.11645508 C-299.30139674 78.61165773 -285.84598969 51.04704841 -266.77880859 27.79321289 C-266.31071777 27.21684082 -265.84262695 26.64046875 -265.36035156 26.04663086 C-236.72224663 -9.02571229 -196.10411765 -31.85564193 -151.77880859 -40.20678711 C-150.21453125 -40.5180957 -150.21453125 -40.5180957 -148.61865234 -40.83569336 C-97.53385663 -49.37970013 -39.12936733 -34.28472182 0 0 Z M-229.77880859 2.79321289 C-230.31376953 3.21538086 -230.84873047 3.63754883 -231.39990234 4.07250977 C-265.97498691 31.64137216 -288.63576029 68.56346025 -297.77880859 111.79321289 C-297.99537109 112.79352539 -298.21193359 113.79383789 -298.43505859 114.82446289 C-299.89060303 122.10218509 -300.51776278 129.38317567 -300.77880859 136.79321289 C-300.81280762 137.74292969 -300.84680664 138.69264648 -300.88183594 139.67114258 C-301.38046396 156.13852298 -300.37784071 171.70243526 -296.77880859 187.79321289 C-296.5804541 188.68169922 -296.38209961 189.57018555 -296.17773438 190.4855957 C-287.07530954 229.45874643 -263.15125357 265.21355012 -231.77880859 289.79321289 C-230.96694092 290.43564941 -230.96694092 290.43564941 -230.13867188 291.09106445 C-211.44732839 305.77136698 -190.10514903 316.41943214 -167.15380859 322.60571289 C-166.47568115 322.78859863 -165.79755371 322.97148438 -165.09887695 323.15991211 C-149.75967966 326.99870648 -134.7944957 328.34477361 -119.02880859 328.23071289 C-118.10682678 328.22700684 -117.18484497 328.22330078 -116.23492432 328.21948242 C-102.41912304 328.14050935 -89.13481945 327.63871167 -75.77880859 323.79321289 C-74.35592529 323.39054199 -74.35592529 323.39054199 -72.90429688 322.97973633 C-47.59572365 315.60878273 -23.79482479 304.12882344 -3.77880859 286.79321289 C-2.98603516 286.11000977 -2.19326172 285.42680664 -1.37646484 284.72290039 C1.19731691 282.45406908 3.71616016 280.13771308 6.22119141 277.79321289 C7.62691406 276.48610352 7.62691406 276.48610352 9.06103516 275.15258789 C29.94471191 255.28627667 44.15307996 229.9669117 53.22119141 202.79321289 C53.58212891 201.72200195 53.94306641 200.65079102 54.31494141 199.54711914 C59.81089119 182.53881999 61.42112441 165.98101286 61.46142578 148.25512695 C61.47109191 145.69456999 61.50217918 143.13483119 61.53369141 140.57446289 C61.60191828 129.92129592 60.58234028 120.1903428 58.22119141 109.79321289 C57.90105516 108.22052498 57.58181343 106.6476542 57.26416016 105.07446289 C52.23632296 82.85096332 42.82730892 61.14688408 29.22119141 42.79321289 C28.48771484 41.77743164 27.75423828 40.76165039 26.99853516 39.71508789 C8.83253707 15.00782762 -14.38737038 -3.60684226 -41.77880859 -17.20678711 C-42.63732422 -17.65280273 -43.49583984 -18.09881836 -44.38037109 -18.55834961 C-102.57433893 -47.19347664 -179.40897796 -37.24275814 -229.77880859 2.79321289 Z " fill="#C7C7C7" transform="translate(564.77880859375,298.206787109375)"/>
<path d="M0 0 C2.64 0 5.28 0 8 0 C8 0.66 8 1.32 8 2 C8.66 2 9.32 2 10 2 C10 2.66 10 3.32 10 4 C10.66 4 11.32 4 12 4 C12 5.98 12 7.96 12 10 C12.66 10 13.32 10 14 10 C15.49821059 13.37097383 16 15.20442119 16 19 C16.99 19 17.98 19 19 19 C19 20.98 19 22.96 19 25 C19.66 25 20.32 25 21 25 C21 26.32 21 27.64 21 29 C21.66 29 22.32 29 23 29 C23 31.31 23 33.62 23 36 C23.66 36 24.32 36 25 36 C25 37.32 25 38.64 25 40 C25.66 40 26.32 40 27 40 C27 41.32 27 42.64 27 44 C27.66 44 28.32 44 29 44 C29 46.31 29 48.62 29 51 C29.66 51 30.32 51 31 51 C31 52.98 31 54.96 31 57 C31.66 57 32.32 57 33 57 C33.495 58.98 33.495 58.98 34 61 C34.66 61 35.32 61 36 61 C36 62.65 36 64.3 36 66 C36.66 66 37.32 66 38 66 C38 67.32 38 68.64 38 70 C38.66 70 39.32 70 40 70 C40 71.98 40 73.96 40 76 C40.66 76 41.32 76 42 76 C42 77.65 42 79.3 42 81 C42.66 81 43.32 81 44 81 C44 82.32 44 83.64 44 85 C44.66 85 45.32 85 46 85 C46.33 86.98 46.66 88.96 47 91 C47.66 91 48.32 91 49 91 C49 92.32 49 93.64 49 95 C49.66 95 50.32 95 51 95 C51 96.65 51 98.3 51 100 C51.66 100 52.32 100 53 100 C53 101.98 53 103.96 53 106 C53.66 106 54.32 106 55 106 C55 108.97 55 111.94 55 115 C54.34 115 53.68 115 53 115 C53 115.66 53 116.32 53 117 C52.34 117 51.68 117 51 117 C51 117.66 51 118.32 51 119 C48.03 119 45.06 119 42 119 C42 118.34 42 117.68 42 117 C41.34 117 40.68 117 40 117 C40 116.34 40 115.68 40 115 C39.01 115 38.02 115 37 115 C35.6256709 113.70896357 34.29103643 112.3743291 33 111 C32.34 110.67 31.68 110.34 31 110 C31 109.34 31 108.68 31 108 C30.34 108 29.68 108 29 108 C29 107.34 29 106.68 29 106 C28.34 106 27.68 106 27 106 C27 105.34 27 104.68 27 104 C26.34 104 25.68 104 25 104 C25 103.34 25 102.68 25 102 C23.68 102 22.36 102 21 102 C21 101.34 21 100.68 21 100 C20.01 100 19.02 100 18 100 C18 99.34 18 98.68 18 98 C17.34 98 16.68 98 16 98 C16 97.34 16 96.68 16 96 C15.34 96 14.68 96 14 96 C14 95.01 14 94.02 14 93 C12.68 93 11.36 93 10 93 C10 92.34 10 91.68 10 91 C9.34 91 8.68 91 8 91 C8 90.34 8 89.68 8 89 C7.34 89 6.68 89 6 89 C6 88.34 6 87.68 6 87 C5.34 87 4.68 87 4 87 C4 86.34 4 85.68 4 85 C2.68 85 1.36 85 0 85 C0 84.34 0 83.68 0 83 C-0.99 83 -1.98 83 -3 83 C-3 82.34 -3 81.68 -3 81 C-3.66 81 -4.32 81 -5 81 C-5 80.34 -5 79.68 -5 79 C-5.66 79 -6.32 79 -7 79 C-7 78.01 -7 77.02 -7 76 C-8.32 76 -9.64 76 -11 76 C-11 75.34 -11 74.68 -11 74 C-11.66 74 -12.32 74 -13 74 C-13 73.34 -13 72.68 -13 72 C-13.99 72 -14.98 72 -16 72 C-16.433125 73.546875 -16.433125 73.546875 -16.875 75.125 C-17.82308798 78.45007997 -18.88256594 81.72751453 -20 85 C-20.66 85 -21.32 85 -22 85 C-22 86.32 -22 87.64 -22 89 C-22.66 89 -23.32 89 -24 89 C-24 90.98 -24 92.96 -24 95 C-24.66 95 -25.32 95 -26 95 C-26 96.65 -26 98.3 -26 100 C-26.66 100 -27.32 100 -28 100 C-28 101.32 -28 102.64 -28 104 C-28.66 104 -29.32 104 -30 104 C-30.33 105.98 -30.66 107.96 -31 110 C-31.66 110 -32.32 110 -33 110 C-33 112.31 -33 114.62 -33 117 C-38.28 117 -43.56 117 -49 117 C-48.67 115.35 -48.34 113.7 -48 112 C-47.66055205 110.00102872 -47.32578384 108.00124361 -47 106 C-46.34 106 -45.68 106 -45 106 C-45 104.02 -45 102.04 -45 100 C-44.34 100 -43.68 100 -43 100 C-43 98.68 -43 97.36 -43 96 C-42.34 96 -41.68 96 -41 96 C-41 94.35 -41 92.7 -41 91 C-40.34 91 -39.68 91 -39 91 C-39 89.02 -39 87.04 -39 85 C-38.34 85 -37.68 85 -37 85 C-37 83.35 -37 81.7 -37 80 C-36.34 80 -35.68 80 -35 80 C-35 78.02 -35 76.04 -35 74 C-34.34 74 -33.68 74 -33 74 C-33 72.68 -33 71.36 -33 70 C-32.01 70 -31.02 70 -30 70 C-30 68.68 -30 67.36 -30 66 C-29.34 66 -28.68 66 -28 66 C-28 65.01 -28 64.02 -28 63 C-27.34 63 -26.68 63 -26 63 C-26 60.36 -26 57.72 -26 55 C-25.34 55 -24.68 55 -24 55 C-24 53.68 -24 52.36 -24 51 C-23.34 51 -22.68 51 -22 51 C-22 48.69 -22 46.38 -22 44 C-21.34 44 -20.68 44 -20 44 C-20 42.68 -20 41.36 -20 40 C-19.34 40 -18.68 40 -18 40 C-18 38.02 -18 36.04 -18 34 C-17.01 34 -16.02 34 -15 34 C-14.855625 33.2575 -14.71125 32.515 -14.5625 31.75 C-14.09812508 29.47972261 -13.58136431 27.24240521 -13 25 C-12.34 25 -11.68 25 -11 25 C-11 23.02 -11 21.04 -11 19 C-10.34 19 -9.68 19 -9 19 C-9 17.35 -9 15.7 -9 14 C-8.34 14 -7.68 14 -7 14 C-7 12.68 -7 11.36 -7 10 C-6.34 10 -5.68 10 -5 10 C-5 8.02 -5 6.04 -5 4 C-4.34 4 -3.68 4 -3 4 C-3 3.34 -3 2.68 -3 2 C-2.01 2 -1.02 2 0 2 C0 1.34 0 0.68 0 0 Z " fill="#F4F4F4" transform="translate(448,379)"/>
<path d="M0 0 C1.32 0 2.64 0 4 0 C4 1.65 4 3.3 4 5 C4.66 5 5.32 5 6 5 C6 6.32 6 7.64 6 9 C6.66 9 7.32 9 8 9 C8 10.98 8 12.96 8 15 C8.66 15 9.32 15 10 15 C10 16.32 10 17.64 10 19 C10.66 19 11.32 19 12 19 C12 21.31 12 23.62 12 26 C12.99 26 13.98 26 15 26 C15 26.66 15 27.32 15 28 C15.66 28 16.32 28 17 28 C17 29.98 17 31.96 17 34 C17.66 34 18.32 34 19 34 C19 36.31 19 38.62 19 41 C19.66 41 20.32 41 21 41 C21 42.32 21 43.64 21 45 C21.66 45 22.32 45 23 45 C23 46.98 23 48.96 23 51 C23.66 51 24.32 51 25 51 C25 52.65 25 54.3 25 56 C25.66 56 26.32 56 27 56 C27 57.32 27 58.64 27 60 C25.68 60 24.36 60 23 60 C23 59.34 23 58.68 23 58 C22.34 58 21.68 58 21 58 C21 57.34 21 56.68 21 56 C20.34 56 19.68 56 19 56 C19 55.34 19 54.68 19 54 C17.35 54 15.7 54 14 54 C14 53.34 14 52.68 14 52 C13.34 52 12.68 52 12 52 C12 51.01 12 50.02 12 49 C11.34 49 10.68 49 10 49 C10 48.34 10 47.68 10 47 C8.68 47 7.36 47 6 47 C6 46.34 6 45.68 6 45 C5.34 45 4.68 45 4 45 C4 44.34 4 43.68 4 43 C3.34 43 2.68 43 2 43 C2 42.34 2 41.68 2 41 C1.34 41 0.68 41 0 41 C0 40.34 0 39.68 0 39 C-1.65 39 -3.3 39 -5 39 C-5 38.34 -5 37.68 -5 37 C-5.66 37 -6.32 37 -7 37 C-7 36.01 -7 35.02 -7 34 C-7.66 34 -8.32 34 -9 34 C-9 33.34 -9 32.68 -9 32 C-9.66 32 -10.32 32 -11 32 C-11 30.02 -11 28.04 -11 26 C-10.34 26 -9.68 26 -9 26 C-9 23.69 -9 21.38 -9 19 C-8.34 19 -7.68 19 -7 19 C-7 17.68 -7 16.36 -7 15 C-6.34 15 -5.68 15 -5 15 C-4.855625 14.0925 -4.71125 13.185 -4.5625 12.25 C-4.13590527 9.78523044 -3.64925779 7.41152893 -3 5 C-2.01 5 -1.02 5 0 5 C0 3.35 0 1.7 0 0 Z " fill="#090909" transform="translate(450,406)"/>
<path d="M0 0 C0.66 0 1.32 0 2 0 C2.33 1.98 2.66 3.96 3 6 C3.66 6 4.32 6 5 6 C5 7.32 5 8.64 5 10 C5.66 10 6.32 10 7 10 C7 11.65 7 13.3 7 15 C7.66 15 8.32 15 9 15 C9 16.98 9 18.96 9 21 C9.66 21 10.32 21 11 21 C11 23.97 11 26.94 11 30 C10.34 30 9.68 30 9 30 C9 30.66 9 31.32 9 32 C8.34 32 7.68 32 7 32 C7 32.66 7 33.32 7 34 C4.03 34 1.06 34 -2 34 C-2 33.34 -2 32.68 -2 32 C1.3 31.67 4.6 31.34 8 31 C7.6659404 23.98474842 7.09400075 18.32252328 4 12 C4 11.01 4 10.02 4 9 C3.34 9 2.68 9 2 9 C2 7.35 2 5.7 2 4 C1.34 4 0.68 4 0 4 C0 2.68 0 1.36 0 0 Z " fill="#B6B6B6" transform="translate(492,464)"/>
<path d="M0 0 C0.66 0 1.32 0 2 0 C5.46102067 8.63369231 5.35401111 17.00563669 5.1875 26.125 C5.17241768 27.57290266 5.15873558 29.02082062 5.14648438 30.46875 C5.11377849 33.97948994 5.06219511 37.48964399 5 41 C4.67 41 4.34 41 4 41 C4 32.42 4 23.84 4 15 C3.34 15 2.68 15 2 15 C2 11.37 2 7.74 2 4 C1.34 4 0.68 4 0 4 C0 2.68 0 1.36 0 0 Z " fill="#AFAFAF" transform="translate(554,415)"/>
<path d="M0 0 C1.65 0 3.3 0 5 0 C5 0.99 5 1.98 5 3 C0.71 3 -3.58 3 -8 3 C-8 3.66 -8 4.32 -8 5 C-12.1196377 6.29243536 -15.66831683 7.26252625 -20 7 C-20 7.66 -20 8.32 -20 9 C-22.31 9 -24.62 9 -27 9 C-25.68 8.67 -24.36 8.34 -23 8 C-23 7.34 -23 6.68 -23 6 C-21.02 6 -19.04 6 -17 6 C-17 5.34 -17 4.68 -17 4 C-15.35 4 -13.7 4 -12 4 C-12 3.34 -12 2.68 -12 2 C-8.04 2 -4.08 2 0 2 C0 1.34 0 0.68 0 0 Z " fill="#5B5B5B" transform="translate(432,336)"/>
<path d="M0 0 C0 3 0 3 -1 7 C3.62 7 8.24 7 13 7 C13 7.66 13 8.32 13 9 C7.39 9 1.78 9 -4 9 C-4 7.68 -4 6.36 -4 5 C-3.34 5 -2.68 5 -2 5 C-1.7834375 4.0409375 -1.7834375 4.0409375 -1.5625 3.0625 C-1 1 -1 1 0 0 Z " fill="#717171" transform="translate(400,489)"/>
<path d="M0 0 C0.33 0 0.66 0 1 0 C1 7.59 1 15.18 1 23 C1.66 23 2.32 23 3 23 C3 25.97 3 28.94 3 32 C2.34 32 1.68 32 1 32 C0.09183202 28.13792926 -0.11643845 24.56851344 -0.09765625 20.60546875 C-0.09443359 19.40341797 -0.09121094 18.20136719 -0.08789062 16.96289062 C-0.07951172 15.71701172 -0.07113281 14.47113281 -0.0625 13.1875 C-0.05798828 11.92228516 -0.05347656 10.65707031 -0.04882812 9.35351562 C-0.03706251 6.2356289 -0.02062272 3.11783867 0 0 Z " fill="#D6D6D6" transform="translate(340,430)"/>
<path d="M0 0 C2.31 0 4.62 0 7 0 C7 0.66 7 1.32 7 2 C15.91 2 24.82 2 34 2 C34 2.33 34 2.66 34 3 C29.96151684 3.02481344 25.92306353 3.0429136 21.88452148 3.05493164 C20.51211778 3.05994454 19.13971938 3.06675658 17.76733398 3.07543945 C15.78892349 3.08763857 13.8104732 3.09272248 11.83203125 3.09765625 C10.04889526 3.10551147 10.04889526 3.10551147 8.22973633 3.11352539 C5.35262513 3.01239479 2.79326587 2.66550193 0 2 C0 1.34 0 0.68 0 0 Z " fill="#ADADAD" transform="translate(428,549)"/>
<path d="M0 0 C0.33 0.66 0.66 1.32 1 2 C1.66 2 2.32 2 3 2 C3 3.98 3 5.96 3 8 C3.66 8 4.32 8 5 8 C5 10.31 5 12.62 5 15 C5.66 15 6.32 15 7 15 C7 16.32 7 17.64 7 19 C7.66 19 8.32 19 9 19 C9 19.66 9 20.32 9 21 C8.01 21 7.02 21 6 21 C6 19.68 6 18.36 6 17 C5.34 17 4.68 17 4 17 C3.566875 15.453125 3.566875 15.453125 3.125 13.875 C2.44725011 11.47867004 1.70539758 9.16529314 0.875 6.8125 C0 4 0 4 0 0 Z " fill="#3C3C3C" transform="translate(464,432)"/>
<path d="M0 0 C0.66 0 1.32 0 2 0 C2.33 1.98 2.66 3.96 3 6 C3.66 6 4.32 6 5 6 C5 7.32 5 8.64 5 10 C5.66 10 6.32 10 7 10 C7 11.65 7 13.3 7 15 C7.66 15 8.32 15 9 15 C9 15.66 9 16.32 9 17 C8.01 17 7.02 17 6 17 C4.74335022 14.09399739 4 12.20395416 4 9 C3.34 9 2.68 9 2 9 C2 7.35 2 5.7 2 4 C1.34 4 0.68 4 0 4 C0 2.68 0 1.36 0 0 Z " fill="#6E6E6E" transform="translate(492,464)"/>
<path d="M0 0 C0.66 0 1.32 0 2 0 C1.67 2.64 1.34 5.28 1 8 C0.34 8 -0.32 8 -1 8 C-1 9.65 -1 11.3 -1 13 C-1.66 13 -2.32 13 -3 13 C-3 14.32 -3 15.64 -3 17 C-3.99 17 -4.98 17 -6 17 C-6 16.34 -6 15.68 -6 15 C-5.34 15 -4.68 15 -4 15 C-4 13.35 -4 11.7 -4 10 C-3.34 10 -2.68 10 -2 10 C-2 8.02 -2 6.04 -2 4 C-1.34 4 -0.68 4 0 4 C0 2.68 0 1.36 0 0 Z " fill="#979797" transform="translate(415,449)"/>
<path d="M0 0 C0.66 0 1.32 0 2 0 C2 1.32 2 2.64 2 4 C2.66 4 3.32 4 4 4 C4 5.98 4 7.96 4 10 C4.66 10 5.32 10 6 10 C6 10.99 6 11.98 6 13 C5.01 13 4.02 13 3 13 C2.01 8.71 1.02 4.42 0 0 Z " fill="#5F5F5F" transform="translate(548,398)"/>
<path d="M0 0 C0.33 0.66 0.66 1.32 1 2 C1.66 2 2.32 2 3 2 C3 4.31 3 6.62 3 9 C3.66 9 4.32 9 5 9 C5 9.66 5 10.32 5 11 C5.66 11 6.32 11 7 11 C7 11.66 7 12.32 7 13 C6.01 13 5.02 13 4 13 C4 12.34 4 11.68 4 11 C3.34 11 2.68 11 2 11 C0.80712589 7.12315913 0 4.08378077 0 0 Z " fill="#8F8F8F" transform="translate(351,487)"/>
<path d="M0 0 C0.66 0 1.32 0 2 0 C1.67 2.64 1.34 5.28 1 8 C0.34 8 -0.32 8 -1 8 C-1.12375 8.78375 -1.2475 9.5675 -1.375 10.375 C-2 13 -2 13 -4 15 C-4 13.35 -4 11.7 -4 10 C-3.34 10 -2.68 10 -2 10 C-2 8.68 -2 7.36 -2 6 C-1.34 6 -0.68 6 0 6 C0 4.02 0 2.04 0 0 Z " fill="#979797" transform="translate(430,413)"/>
<path d="M0 0 C0.66 0 1.32 0 2 0 C2 1.32 2 2.64 2 4 C1.34 4 0.68 4 0 4 C0 5.65 0 7.3 0 9 C-0.66 9 -1.32 9 -2 9 C-2.33 9.66 -2.66 10.32 -3 11 C-3 9.35 -3 7.7 -3 6 C-2.34 6 -1.68 6 -1 6 C-0.67 4.02 -0.34 2.04 0 0 Z " fill="#6F6F6F" transform="translate(418,483)"/>
<path d="M0 0 C1.65 0 3.3 0 5 0 C5 0.99 5 1.98 5 3 C0.71 3 -3.58 3 -8 3 C-8 2.67 -8 2.34 -8 2 C-5.36 2 -2.72 2 0 2 C0 1.34 0 0.68 0 0 Z " fill="#333333" transform="translate(432,336)"/>
<path d="M0 0 C0.66 0 1.32 0 2 0 C2 1.32 2 2.64 2 4 C1.34 4 0.68 4 0 4 C0 4.99 0 5.98 0 7 C-0.66 7 -1.32 7 -2 7 C-2.33 8.32 -2.66 9.64 -3 11 C-3 9.02 -3 7.04 -3 5 C-2.34 5 -1.68 5 -1 5 C-0.67 3.35 -0.34 1.7 0 0 Z " fill="#646464" transform="translate(420,438)"/>
<path d="M0 0 C0.33 0.66 0.66 1.32 1 2 C1.66 2 2.32 2 3 2 C3 3.98 3 5.96 3 8 C3.66 8 4.32 8 5 8 C5 8.66 5 9.32 5 10 C4.01 10 3.02 10 2 10 C0.68373308 6.38026598 0 3.90432869 0 0 Z " fill="#838383" transform="translate(464,432)"/>
<path d="M0 0 C0.6875 1.8125 0.6875 1.8125 1 4 C-0.1875 5.8125 -0.1875 5.8125 -2 7 C-4.1875 6.6875 -4.1875 6.6875 -6 6 C-5.34 6 -4.68 6 -4 6 C-4 5.34 -4 4.68 -4 4 C-3.34 4 -2.68 4 -2 4 C-2 3.34 -2 2.68 -2 2 C-1.34 2 -0.68 2 0 2 C0 1.34 0 0.68 0 0 Z " fill="#B9B9B9" transform="translate(528,517)"/>
<path d="M0 0 C0.66 0 1.32 0 2 0 C2 1.32 2 2.64 2 4 C1.34 4 0.68 4 0 4 C0 4.99 0 5.98 0 7 C-0.66 7 -1.32 7 -2 7 C-2.33 7.66 -2.66 8.32 -3 9 C-3 7.68 -3 6.36 -3 5 C-2.34 5 -1.68 5 -1 5 C-0.67 3.35 -0.34 1.7 0 0 Z " fill="#909090" transform="translate(548,487)"/>
<path d="M0 0 C0.66 0 1.32 0 2 0 C2.66 2.97 3.32 5.94 4 9 C3.34 9 2.68 9 2 9 C2 7.35 2 5.7 2 4 C1.34 4 0.68 4 0 4 C0 2.68 0 1.36 0 0 Z " fill="#9B9B9B" transform="translate(492,464)"/>
<path d="M0 0 C0.66 0 1.32 0 2 0 C1.67 2.64 1.34 5.28 1 8 C0.01 8 -0.98 8 -2 8 C-2 6.68 -2 5.36 -2 4 C-1.34 4 -0.68 4 0 4 C0 2.68 0 1.36 0 0 Z " fill="#787878" transform="translate(415,449)"/>
</svg>
