<?xml version="1.0" encoding="UTF-8"?>
<svg version="1.1" xmlns="http://www.w3.org/2000/svg" width="891" height="891">
<path d="M0 0 C294.03 0 588.06 0 891 0 C891 294.03 891 588.06 891 891 C596.97 891 302.94 891 0 891 C0 596.97 0 302.94 0 0 Z " fill="#FEFEFE" transform="translate(0,0)"/>
<path d="M0 0 C1.41154022 1.25940501 2.81660672 2.52605519 4.22119141 3.79321289 C5.59534582 4.96087541 6.97023996 6.1276685 8.34619141 7.29321289 C38.91518579 34.4015664 59.12366506 71.89158637 67.22119141 111.79321289 C67.40810547 112.70377441 67.59501953 113.61433594 67.78759766 114.55249023 C69.64706298 124.88082396 69.61851871 135.20888781 69.59619141 145.66821289 C69.59537567 147.10151947 69.59537567 147.10151947 69.59454346 148.56378174 C69.55676823 162.9893857 68.88404481 176.77276058 65.22119141 190.79321289 C64.99093262 191.7066748 64.76067383 192.62013672 64.5234375 193.5612793 C55.05877413 230.55027556 34.06484688 266.44441966 4.22119141 290.79321289 C3.17925836 291.6822237 2.13761831 292.57157796 1.09619141 293.46118164 C-13.6001364 305.816033 -30.15269104 315.26696883 -47.77880859 322.79321289 C-48.39546387 323.06327148 -49.01211914 323.33333008 -49.64746094 323.61157227 C-67.50512903 331.32814263 -87.71425348 335.85317572 -107.15771484 336.03149414 C-108.03898041 336.04128799 -108.92024597 336.05108185 -109.82821655 336.06117249 C-146.56335237 336.38559936 -146.56335237 336.38559936 -163.77880859 331.79321289 C-164.65456543 331.5629541 -165.53032227 331.33269531 -166.43261719 331.09545898 C-172.28187392 329.519236 -178.0411294 327.73422682 -183.77880859 325.79321289 C-185.52871094 325.20926758 -185.52871094 325.20926758 -187.31396484 324.61352539 C-212.45734423 315.57811025 -234.72283884 299.21574321 -253.77880859 280.79321289 C-254.50326172 280.12032227 -255.22771484 279.44743164 -255.97412109 278.75415039 C-271.19383366 264.27385706 -282.57929029 245.50534622 -291.77880859 226.79321289 C-292.32279297 225.68977539 -292.86677734 224.58633789 -293.42724609 223.44946289 C-300.69093642 207.61538662 -305.30503741 190.0144661 -307.77880859 172.79321289 C-307.87162109 172.15907471 -307.96443359 171.52493652 -308.06005859 170.87158203 C-310.61493965 151.23321503 -309.49879386 130.19112966 -305.77880859 110.79321289 C-305.56200439 109.66254395 -305.56200439 109.66254395 -305.34082031 108.5090332 C-299.3645369 78.58128835 -286.17998745 51.32153857 -266.77880859 27.79321289 C-266.31361816 27.22119141 -265.84842773 26.64916992 -265.36914062 26.05981445 C-236.72934677 -9.01986622 -196.11152161 -31.85424698 -151.77880859 -40.20678711 C-150.21453125 -40.5180957 -150.21453125 -40.5180957 -148.61865234 -40.83569336 C-97.53385663 -49.37970013 -39.12936733 -34.28472182 0 0 Z " fill="#F7F7F7" transform="translate(564.77880859375,298.206787109375)"/>
<path d="M0 0 C0.71353638 0.00202423 1.42707275 0.00404846 2.16223145 0.00613403 C2.89091431 0.00517731 3.61959717 0.00422058 4.37036133 0.00323486 C5.91377855 0.00255318 7.45719861 0.00440666 9.00061035 0.00857544 C11.37095544 0.01392391 13.74111104 0.00863011 16.1114502 0.00222778 C17.60754437 0.00288857 19.10363842 0.00416973 20.59973145 0.00613403 C21.67003601 0.00309769 21.67003601 0.00309769 22.76196289 0 C27.76602953 0.02399462 27.76602953 0.02399462 28.88098145 1.13894653 C28.97515917 3.22513676 28.99841022 5.3145513 28.99450684 7.40286255 C28.99465286 8.0564978 28.99479889 8.71013306 28.99494934 9.38357544 C28.99425027 11.55336782 28.98645822 13.72307532 28.9786377 15.89285278 C28.97677349 17.39357964 28.9753496 18.89430711 28.97434998 20.39503479 C28.97052497 24.3521288 28.96069484 28.30918632 28.949646 32.26626587 C28.9394315 36.30129503 28.93485227 40.33633006 28.92980957 44.37136841 C28.91907255 52.29391123 28.90199635 60.21642435 28.88098145 68.13894653 C29.68841797 68.13370972 30.49585449 68.1284729 31.32775879 68.12307739 C34.97049182 68.10234724 38.61321247 68.08929904 42.25598145 68.07644653 C43.52699707 68.06806763 44.7980127 68.05968872 46.10754395 68.05105591 C47.3192627 68.04783325 48.53098145 68.0446106 49.77941895 68.04129028 C50.90009766 68.03605347 52.02077637 68.03081665 53.17541504 68.02542114 C55.88098145 68.13894653 55.88098145 68.13894653 57.88098145 69.13894653 C57.88098145 80.68894653 57.88098145 92.23894653 57.88098145 104.13894653 C73.0648041 103.92806011 84.37852574 102.12646736 97.88098145 95.13894653 C97.68762207 94.54468872 97.4942627 93.95043091 97.29504395 93.33816528 C92.36337589 77.63983579 89.06052978 58.8356366 96.39660645 43.41629028 C98.00175626 40.95365254 99.65650782 39.05948218 101.88098145 37.13894653 C104.76615395 36.90501363 106.23971987 37.64531352 108.5098877 39.39285278 C117.45684189 47.69930914 124.83409083 59.83798185 125.88098145 72.13894653 C126.63314941 71.89918091 126.63314941 71.89918091 127.4005127 71.65457153 C135.9251117 69.88252891 147.17410412 69.82751721 154.88098145 74.13894653 C157.39032646 75.97882077 159.67461409 77.94676804 161.88098145 80.13894653 C159.39426838 90.15684775 153.76916069 97.55405355 145.45910645 103.63113403 C137.16042482 108.48460541 128.35264112 109.82227268 118.88098145 109.13894653 C118.57160645 110.96425903 118.57160645 110.96425903 118.25598145 112.82644653 C116.83854233 119.3508354 113.81025173 125.17907901 110.88098145 131.13894653 C122.85719733 130.96329537 131.65000656 129.44682393 140.88098145 121.13894653 C143.88098145 126.88894653 143.88098145 126.88894653 143.88098145 129.13894653 C144.56160645 129.40707153 145.24223145 129.67519653 145.94348145 129.95144653 C149.27808954 131.29947959 152.57841382 132.71430952 155.88098145 134.13894653 C155.88098145 134.46894653 155.88098145 134.79894653 155.88098145 135.13894653 C140.04098145 135.13894653 124.20098145 135.13894653 107.88098145 135.13894653 C107.22098145 137.11894653 106.56098145 139.09894653 105.88098145 141.13894653 C96.72815204 157.39276227 84.32315128 173.31829268 69.88098145 185.13894653 C68.87293457 185.98457153 67.8648877 186.83019653 66.82629395 187.70144653 C51.57625568 200.26875092 34.73172629 208.47190463 15.75598145 213.88894653 C15.06456055 214.08778442 14.37313965 214.28662231 13.6607666 214.4914856 C2.59969941 217.49013808 -8.43635809 218.50703741 -19.86901855 218.45144653 C-21.70544922 218.44298706 -21.70544922 218.44298706 -23.57897949 218.43435669 C-49.680666 218.08610433 -72.61634528 210.09527554 -91.11901855 191.13894653 C-104.46550586 177.0384204 -115.11901855 154.66780926 -115.11901855 135.13894653 C-126.66901855 135.13894653 -138.21901855 135.13894653 -150.11901855 135.13894653 C-148.14335668 133.16328466 -146.59564762 132.24315581 -144.11901855 131.01394653 C-143.06714355 130.48414185 -143.06714355 130.48414185 -141.99401855 129.94363403 C-140.11901855 129.13894653 -140.11901855 129.13894653 -138.11901855 129.13894653 C-137.83026855 128.37582153 -137.54151855 127.61269653 -137.24401855 126.82644653 C-136.11901855 124.13894653 -136.11901855 124.13894653 -134.11901855 121.13894653 C-133.1754248 121.84470825 -133.1754248 121.84470825 -132.21276855 122.56472778 C-131.35683105 123.18734497 -130.50089355 123.80996216 -129.61901855 124.45144653 C-128.78370605 125.06632935 -127.94839355 125.68121216 -127.08776855 126.31472778 C-123.5269006 128.50278744 -120.06376104 129.76924428 -116.11901855 131.13894653 C-116.12425537 130.35656616 -116.12949219 129.57418579 -116.1348877 128.76809692 C-116.15558961 125.2458882 -116.16865694 121.72369223 -116.18151855 118.20144653 C-116.18989746 116.96974731 -116.19827637 115.7380481 -116.20690918 114.46902466 C-116.21013184 113.29920044 -116.21335449 112.12937622 -116.2166748 110.92410278 C-116.22191162 109.84008179 -116.22714844 108.75606079 -116.23254395 107.63919067 C-116.11901855 105.13894653 -116.11901855 105.13894653 -115.11901855 104.13894653 C-113.41129498 104.05180822 -111.70003207 104.03194646 -109.9901123 104.04129028 C-108.95563965 104.04451294 -107.92116699 104.0477356 -106.85534668 104.05105591 C-105.7667334 104.05943481 -104.67812012 104.06781372 -103.55651855 104.07644653 C-101.91779785 104.08321411 -101.91779785 104.08321411 -100.24597168 104.09011841 C-97.5369336 104.10194827 -94.82800256 104.1184311 -92.11901855 104.13894653 C-92.12425537 103.08392944 -92.12949219 102.02891235 -92.1348877 100.94192505 C-92.15293756 97.04138024 -92.1644505 93.14083914 -92.1739502 89.24026489 C-92.17899045 87.54950338 -92.1858226 85.85874624 -92.19445801 84.16799927 C-92.20653712 81.74293946 -92.21224978 79.31793709 -92.2166748 76.89285278 C-92.22183609 76.13243179 -92.22699738 75.3720108 -92.23231506 74.58854675 C-92.23251093 72.77162083 -92.18099132 70.95481526 -92.11901855 69.13894653 C-91.11901855 68.13894653 -91.11901855 68.13894653 -88.43518066 68.02542114 C-87.26737061 68.03065796 -86.09956055 68.03589478 -84.8963623 68.04129028 C-83.00627441 68.04612427 -83.00627441 68.04612427 -81.07800293 68.05105591 C-79.73750747 68.0594125 -78.39701268 68.06787746 -77.05651855 68.07644653 C-75.71211914 68.08145993 -74.36771796 68.08602312 -73.02331543 68.09011841 C-69.72183915 68.10195166 -66.42045052 68.11843682 -63.11901855 68.13894653 C-63.12949219 67.18004517 -63.13996582 66.2211438 -63.15075684 65.23318481 C-63.18691184 61.68113934 -63.20990248 58.12911019 -63.22888184 54.57693481 C-63.23894973 53.03849555 -63.25260502 51.50007546 -63.26989746 49.96170044 C-63.29411172 47.75250521 -63.30549346 45.54356258 -63.31433105 43.33425903 C-63.32465363 42.64462067 -63.3349762 41.9549823 -63.34561157 41.2444458 C-63.34601334 39.54093747 -63.24092881 37.83808711 -63.11901855 36.13894653 C-61.11901855 34.13894653 -61.11901855 34.13894653 -58.79049683 33.8984375 C-57.81786896 33.90287872 -56.84524109 33.90731995 -55.84313965 33.91189575 C-54.19165421 33.91212234 -54.19165421 33.91212234 -52.50680542 33.91235352 C-51.31407013 33.92267609 -50.12133484 33.93299866 -48.89245605 33.94363403 C-47.67450348 33.94646393 -46.4565509 33.94929382 -45.20169067 33.95220947 C-41.29903472 33.96343397 -37.39660553 33.98854281 -33.49401855 34.01394653 C-30.85339686 34.02397339 -28.21277158 34.03309975 -25.57214355 34.04129028 C-19.08769076 34.06338072 -12.60337085 34.09688061 -6.11901855 34.13894653 C-6.12425537 33.14451538 -6.12949219 32.15008423 -6.1348877 31.1255188 C-6.15293897 27.44860732 -6.16445102 23.77169979 -6.1739502 20.09475708 C-6.17899013 18.50100039 -6.18582205 16.90724834 -6.19445801 15.31350708 C-6.20653854 13.02744401 -6.21225011 10.74144186 -6.2166748 8.45535278 C-6.22183609 7.73867935 -6.22699738 7.02200592 -6.23231506 6.28361511 C-6.23251118 4.56830981 -6.18093863 2.85313387 -6.11901855 1.13894653 C-4.41408974 -0.56598228 -2.27367595 0.01090233 0 0 Z " fill="#384C55" transform="translate(443.1190185546875,344.8610534667969)"/>
<path d="M0 0 C69.3 0 138.6 0 210 0 C208.31858426 5.04424722 206.48740034 8.75974938 203.5625 13.0625 C203.12147949 13.71516846 202.68045898 14.36783691 202.22607422 15.0402832 C197.60044465 21.76202846 192.50247688 27.98131137 187 34 C186.53368164 34.51159668 186.06736328 35.02319336 185.58691406 35.55029297 C167.60990424 55.00173839 144.69643928 67.83154908 119 74 C118.31615234 74.17499023 117.63230469 74.34998047 116.92773438 74.53027344 C90.22528498 81.19928281 61.80976149 77.96900321 37.8125 64.6875 C29.36069161 59.58327062 22.32544324 53.37452055 17 45 C17 44.67 17 44.34 17 44 C17.73412109 43.98541748 18.46824219 43.97083496 19.22460938 43.95581055 C43.35379341 44.11403873 43.35379341 44.11403873 66 37 C66 36.01 66 35.02 66 34 C61.36116318 34.59219193 56.86124462 35.43075356 52.30859375 36.5 C46.94265811 37.66216542 41.91254993 38.1196502 36.4140625 38.09765625 C35.71227875 38.0962413 35.010495 38.09482635 34.28744507 38.09336853 C32.06658496 38.0878129 29.84582916 38.07526892 27.625 38.0625 C26.11067855 38.05747926 24.5963555 38.05291736 23.08203125 38.04882812 C19.38798748 38.03785807 15.69400394 38.02062449 12 38 C10.89311656 35.50117273 9.78944889 33.00100271 8.6875 30.5 C8.2244043 29.45585937 8.2244043 29.45585937 7.75195312 28.390625 C6.81804488 26.26721257 5.90833224 24.13445702 5 22 C4.47019531 20.7934375 3.94039063 19.586875 3.39453125 18.34375 C1.49371341 12.42299526 0.87941395 6.15589768 0 0 Z " fill="#049AC5" transform="translate(334,480)"/>
<path d="M0 0 C1.41154022 1.25940501 2.81660672 2.52605519 4.22119141 3.79321289 C5.59534582 4.96087541 6.97023996 6.1276685 8.34619141 7.29321289 C38.91518579 34.4015664 59.12366506 71.89158637 67.22119141 111.79321289 C67.40810547 112.70377441 67.59501953 113.61433594 67.78759766 114.55249023 C69.64706298 124.88082396 69.61851871 135.20888781 69.59619141 145.66821289 C69.59537567 147.10151947 69.59537567 147.10151947 69.59454346 148.56378174 C69.55676823 162.9893857 68.88404481 176.77276058 65.22119141 190.79321289 C64.99093262 191.7066748 64.76067383 192.62013672 64.5234375 193.5612793 C55.05877413 230.55027556 34.06484688 266.44441966 4.22119141 290.79321289 C3.17925836 291.6822237 2.13761831 292.57157796 1.09619141 293.46118164 C-13.6001364 305.816033 -30.15269104 315.26696883 -47.77880859 322.79321289 C-48.39546387 323.06327148 -49.01211914 323.33333008 -49.64746094 323.61157227 C-67.50512903 331.32814263 -87.71425348 335.85317572 -107.15771484 336.03149414 C-108.03898041 336.04128799 -108.92024597 336.05108185 -109.82821655 336.06117249 C-146.56335237 336.38559936 -146.56335237 336.38559936 -163.77880859 331.79321289 C-164.65456543 331.5629541 -165.53032227 331.33269531 -166.43261719 331.09545898 C-172.28187392 329.519236 -178.0411294 327.73422682 -183.77880859 325.79321289 C-185.52871094 325.20926758 -185.52871094 325.20926758 -187.31396484 324.61352539 C-212.45734423 315.57811025 -234.72283884 299.21574321 -253.77880859 280.79321289 C-254.50326172 280.12032227 -255.22771484 279.44743164 -255.97412109 278.75415039 C-271.19383366 264.27385706 -282.57929029 245.50534622 -291.77880859 226.79321289 C-292.32279297 225.68977539 -292.86677734 224.58633789 -293.42724609 223.44946289 C-300.69093642 207.61538662 -305.30503741 190.0144661 -307.77880859 172.79321289 C-307.87162109 172.15907471 -307.96443359 171.52493652 -308.06005859 170.87158203 C-310.61493965 151.23321503 -309.49879386 130.19112966 -305.77880859 110.79321289 C-305.56200439 109.66254395 -305.56200439 109.66254395 -305.34082031 108.5090332 C-299.3645369 78.58128835 -286.17998745 51.32153857 -266.77880859 27.79321289 C-266.31361816 27.22119141 -265.84842773 26.64916992 -265.36914062 26.05981445 C-236.72934677 -9.01986622 -196.11152161 -31.85424698 -151.77880859 -40.20678711 C-150.21453125 -40.5180957 -150.21453125 -40.5180957 -148.61865234 -40.83569336 C-97.53385663 -49.37970013 -39.12936733 -34.28472182 0 0 Z M-170.77880859 -27.20678711 C-171.49101562 -26.99683105 -172.20322266 -26.786875 -172.93701172 -26.57055664 C-200.32789237 -18.32094101 -224.06789737 -3.888391 -244.77880859 15.79321289 C-245.28412109 16.27129395 -245.78943359 16.749375 -246.31005859 17.24194336 C-271.83772744 41.54999101 -289.30856937 73.36062186 -296.77880859 107.79321289 C-297.21 109.69393555 -297.21 109.69393555 -297.64990234 111.63305664 C-299.45973134 120.024082 -300.52822897 128.21903195 -300.77880859 136.79321289 C-300.81135742 137.73712891 -300.84390625 138.68104492 -300.87744141 139.65356445 C-302.42443085 190.51670212 -284.50263865 236.73645675 -249.68505859 273.78540039 C-225.18312601 299.3905786 -192.59623124 317.80938129 -157.77880859 324.79321289 C-157.1624353 324.91742615 -156.54606201 325.0416394 -155.91101074 325.1696167 C-144.38600751 327.43765867 -133.2610315 328.29051454 -121.52880859 328.16821289 C-120.72653839 328.16356018 -119.92426819 328.15890747 -119.09768677 328.15411377 C-98.66897842 328.01580983 -80.15185214 325.40758679 -60.77880859 318.79321289 C-60.09157715 318.56794922 -59.4043457 318.34268555 -58.69628906 318.1105957 C-40.97488659 312.2747019 -24.47549285 303.24075872 -9.77880859 291.79321289 C-8.89966797 291.13579102 -8.02052734 290.47836914 -7.11474609 289.80102539 C27.60238202 262.84543045 50.61852837 223.72092944 59.22119141 180.79321289 C59.39851807 179.9144751 59.57584473 179.0357373 59.75854492 178.13037109 C61.56724234 167.98269492 61.66223672 157.88152592 61.65869141 147.60571289 C61.65942657 146.67868561 61.66016174 145.75165833 61.66091919 144.79653931 C61.62870039 129.29328846 60.43525589 114.79349483 56.22119141 99.79321289 C55.83568115 98.40634277 55.83568115 98.40634277 55.44238281 96.99145508 C42.40517027 51.61331198 11.24062891 12.40130704 -29.71630859 -10.95678711 C-46.56926308 -20.27938699 -64.13757281 -26.94398701 -82.96630859 -30.95678711 C-84.44478271 -31.27329224 -84.44478271 -31.27329224 -85.953125 -31.59619141 C-113.82981028 -37.25465234 -143.5772753 -35.23639424 -170.77880859 -27.20678711 Z " fill="#C7C7C7" transform="translate(564.77880859375,298.206787109375)"/>
<path d="M0 0 C4.1547611 1.51082222 6.12269848 4.46583252 8.5 8 C8.89509766 8.58305908 9.29019531 9.16611816 9.69726562 9.7668457 C15.02640913 17.8389957 17.58737941 25.30341603 18 35 C22.15849585 34.32586584 22.15849585 34.32586584 26.28515625 33.484375 C35.42656453 31.85338992 43.93598473 32.22132428 52 37 C50.62167061 43.92297263 46.31493177 49.44171332 40.5625 53.375 C34.05288343 57.4749795 28.17203945 59.44382765 20.5625 59.6875 C19.83095703 59.72166016 19.09941406 59.75582031 18.34570312 59.79101562 C16.56430438 59.87251753 14.78218251 59.93795523 13 60 C12.67128906 60.83917969 12.67128906 60.83917969 12.3359375 61.6953125 C11.65556756 63.41559746 10.96727048 65.13275701 10.2734375 66.84765625 C9.60354143 68.50595726 8.9356317 70.16514741 8.28613281 71.83154297 C7.53836917 73.74787057 6.77063253 75.65527022 6 77.5625 C5.525625 78.76003906 5.05125 79.95757812 4.5625 81.19140625 C3 84 3 84 1.08984375 85.03125 C-1.56948689 84.99148431 -3.10359615 84.19546204 -5.4375 82.9375 C-8.83087475 81.23834415 -8.83087475 81.23834415 -12.5 81.5 C-13.325 81.995 -14.15 82.49 -15 83 C-16.44860097 83.70777652 -17.90818138 84.39329487 -19.375 85.0625 C-20.08398438 85.40410156 -20.79296875 85.74570312 -21.5234375 86.09765625 C-32.89830102 90.24212545 -50.94706415 89.85469306 -62 85 C-65.49166873 83.22337073 -68.90306055 81.4117164 -72 79 C-72 78.34 -72 77.68 -72 77 C-72.66 77 -73.32 77 -74 77 C-74.21140625 77.59554687 -74.4228125 78.19109375 -74.640625 78.8046875 C-76.50375661 81.81353798 -78.57473102 82.6163523 -81.75 84.125 C-82.77609375 84.62257813 -83.8021875 85.12015625 -84.859375 85.6328125 C-93.30613929 89.30988651 -101.27392095 90.63989483 -110.30078125 88.0546875 C-114.84695331 86.25433543 -118.8396193 84.40007747 -122.5 81.125 C-123.325 80.42375 -124.15 79.7225 -125 79 C-129.57769212 79.46670614 -133.66101724 82.38415101 -137.63671875 84.52734375 C-144.90166104 87.70839281 -152.07277758 88.36386885 -159.9375 88.3125 C-160.81559326 88.30831055 -161.69368652 88.30412109 -162.59838867 88.29980469 C-170.56835666 88.16061714 -176.96500152 86.92813467 -183.8125 82.75 C-186.7409295 80.80950172 -186.7409295 80.80950172 -189.375 81 C-192.60154458 82.22915984 -195.72560069 83.64730328 -198.8671875 85.078125 C-203.80884293 87.21407863 -207.46323669 87 -213 87 C-213 80.07 -213 73.14 -213 66 C-210.68469269 66.00079559 -208.36938538 66.00159119 -205.98391724 66.00241089 C-184.12122892 66.00706529 -162.25876173 65.97848466 -140.39615059 65.9197216 C-129.15744324 65.89030384 -117.91892393 65.87187367 -106.68017578 65.87988281 C-96.87725908 65.88684022 -87.07463377 65.87259812 -77.27178848 65.83356392 C-72.08770649 65.813644 -66.90408118 65.80388844 -61.71997452 65.81957626 C-56.82612722 65.8340493 -51.93314643 65.81987188 -47.03940964 65.78504753 C-45.25704737 65.77717227 -43.47460506 65.77917822 -41.692276 65.79260826 C-26.06823241 65.90024269 -10.42246629 63.24308624 2 53 C1.38493221 49.44909315 0.41034914 46.33656239 -0.9375 43 C-6.41641013 28.21690432 -6.51789185 14.22085494 0 0 Z " fill="#25B6E8" transform="translate(546,389)"/>
<path d="M0 0 C69.3 0 138.6 0 210 0 C208.31858426 5.04424722 206.48740034 8.75974938 203.5625 13.0625 C203.12147949 13.71516846 202.68045898 14.36783691 202.22607422 15.0402832 C197.60044465 21.76202846 192.50247688 27.98131137 187 34 C186.53368164 34.51159668 186.06736328 35.02319336 185.58691406 35.55029297 C163.43599378 59.51798399 134.12585455 72.84054725 102 77 C101.02289063 77.12761719 100.04578125 77.25523437 99.0390625 77.38671875 C92.21572469 77.85910368 88.11047829 75.34620856 83 71 C78.34309508 66.83111886 73.96567387 62.54452071 71 57 C71.33 56.01 71.66 55.02 72 54 C72.72888428 53.90501221 73.45776855 53.81002441 74.20874023 53.7121582 C117.82696349 47.92364862 153.59647926 30.6315892 187 2 C129.91 1.67 72.82 1.34 14 1 C16.97696371 13.96224317 16.97696371 13.96224317 22 25.6875 C22.33 26.33654297 22.66 26.98558594 23 27.65429688 C25.03166033 31.55492598 27.20645227 34.50806534 30 38 C24.06 38 18.12 38 12 38 C10.906875 35.525 9.81375 33.05 8.6875 30.5 C8.34936279 29.73751953 8.01122559 28.97503906 7.6628418 28.18945312 C6.75906541 26.13300008 5.87958383 24.06690217 5 22 C4.47019531 20.7934375 3.94039063 19.586875 3.39453125 18.34375 C1.49371341 12.42299526 0.87941395 6.15589768 0 0 Z " fill="#028AB6" transform="translate(334,480)"/>
<path d="M0 0 C0.24532471 0.51272461 0.49064941 1.02544922 0.7434082 1.55371094 C7.65973055 15.81752788 14.64645875 28.14617554 29 36 C29 36.33 29 36.66 29 37 C5.40161338 38.00418666 -17.45725348 32.79625331 -35.875 17.0625 C-39.76516229 13.43451623 -43.14213835 9.49412753 -46 5 C-46 4.67 -46 4.34 -46 4 C-45.26587891 3.98541748 -44.53175781 3.97083496 -43.77539062 3.95581055 C-24.67319621 3.54834723 -24.67319621 3.54834723 -5.84375 0.62109375 C-3 0 -3 0 0 0 Z " fill="#BCD8DD" transform="translate(397,520)"/>
<path d="M0 0 C7.41193989 -0.32746717 13.08480275 0.47574538 19.5 4.27734375 C18.12167061 11.20031638 13.81493177 16.71905707 8.0625 20.65234375 C1.55288343 24.75232325 -4.32796055 26.7211714 -11.9375 26.96484375 C-13.03481445 27.01608398 -13.03481445 27.01608398 -14.15429688 27.06835938 C-15.93569562 27.14986128 -17.71781749 27.21529898 -19.5 27.27734375 C-19.71914063 27.83679688 -19.93828125 28.39625 -20.1640625 28.97265625 C-20.84443244 30.69294121 -21.53272952 32.41010076 -22.2265625 34.125 C-22.89645857 35.78330101 -23.5643683 37.44249116 -24.21386719 39.10888672 C-24.96163083 41.02521432 -25.72936747 42.93261397 -26.5 44.83984375 C-27.2115625 46.63615234 -27.2115625 46.63615234 -27.9375 48.46875 C-29.5 51.27734375 -29.5 51.27734375 -31.390625 52.30078125 C-34.09115815 52.27077533 -35.82592954 51.51623088 -38.25 50.33984375 C-39.44882812 49.76943359 -39.44882812 49.76943359 -40.671875 49.1875 C-41.27515625 48.88714844 -41.8784375 48.58679688 -42.5 48.27734375 C-41.93550359 44.43008362 -40.24741405 42.69694433 -37.5625 39.96484375 C-33.81002887 35.89668855 -30.52005362 31.73382486 -27.4375 27.15234375 C-27.01597656 26.52642334 -26.59445312 25.90050293 -26.16015625 25.25561523 C-23.52296772 21.20236669 -21.45460574 17.09462095 -19.51538086 12.67041016 C-15.70447738 4.09953883 -15.70447738 4.09953883 -12.05078125 1.60546875 C-8.04452636 0.36557673 -4.15854985 0.32952795 0 0 Z " fill="#028AB5" transform="translate(578.5,421.72265625)"/>
<path d="M0 0 C69.3 0 138.6 0 210 0 C210 0.33 210 0.66 210 1 C145.32 1 80.64 1 14 1 C16.97696371 13.96224317 16.97696371 13.96224317 22 25.6875 C22.33 26.33654297 22.66 26.98558594 23 27.65429688 C25.03166033 31.55492598 27.20645227 34.50806534 30 38 C24.06 38 18.12 38 12 38 C10.906875 35.525 9.81375 33.05 8.6875 30.5 C8.34936279 29.73751953 8.01122559 28.97503906 7.6628418 28.18945312 C6.75906541 26.13300008 5.87958383 24.06690217 5 22 C4.47019531 20.7934375 3.94039063 19.586875 3.39453125 18.34375 C1.49371341 12.42299526 0.87941395 6.15589768 0 0 Z " fill="#0886AD" transform="translate(334,480)"/>
<path d="M0 0 C4.29 0 8.58 0 13 0 C13 6.27 13 12.54 13 19 C7 21 7 21 0 21 C0 14.07 0 7.14 0 0 Z " fill="#028AB6" transform="translate(333,455)"/>
<path d="M0 0 C0.84069415 1.60032137 1.67231505 3.20541171 2.5 4.8125 C2.9640625 5.70582031 3.428125 6.59914063 3.90625 7.51953125 C5 10 5 10 5 13 C-5.61199573 13.73186177 -16.13350869 10.91099421 -25 5 C-25 4.67 -25 4.34 -25 4 C-21.39662187 3.32902306 -17.79217704 2.66396043 -14.1875 2 C-13.16333984 1.80921875 -12.13917969 1.6184375 -11.08398438 1.421875 C-9.60961914 1.15117188 -9.60961914 1.15117188 -8.10546875 0.875 C-6.74651489 0.62363281 -6.74651489 0.62363281 -5.36010742 0.3671875 C-3 0 -3 0 0 0 Z " fill="#F6F9FA" transform="translate(397,520)"/>
<path d="M0 0 C3.45676331 0.79771461 4.4995922 1.54797676 6.4375 4.5625 C7.20101562 9.20529196 7.32473412 13.12927565 4.8125 17.1875 C1.74913508 18.96102706 -0.07615432 19.08174297 -3.5625 18.5625 C-6.12199546 16.70907225 -6.54168798 15.62493607 -7.5625 12.5625 C-8.05522512 8.12797395 -8.0803399 6.25788501 -5.375 2.625 C-2.5625 0.5625 -2.5625 0.5625 0 0 Z " fill="#E7F1F4" transform="translate(408.5625,495.4375)"/>
<path d="M0 0 C7.92 0 15.84 0 24 0 C24 0.33 24 0.66 24 1 C13.11 1.495 13.11 1.495 2 2 C2 10.91 2 19.82 2 29 C9.26 29 16.52 29 24 29 C23.67 29.66 23.34 30.32 23 31 C19.35418313 31.02887512 15.70839537 31.04675585 12.0625 31.0625 C10.50112305 31.07506836 10.50112305 31.07506836 8.90820312 31.08789062 C7.91884766 31.09111328 6.92949219 31.09433594 5.91015625 31.09765625 C4.53549194 31.10551147 4.53549194 31.10551147 3.13305664 31.11352539 C1 31 1 31 0 30 C-0.08783542 27.78144736 -0.10694609 25.56011504 -0.09765625 23.33984375 C-0.0962413 22.67537735 -0.09482635 22.01091095 -0.09336853 21.3263092 C-0.08775518 19.19666101 -0.07520054 17.06711661 -0.0625 14.9375 C-0.05748671 13.49674631 -0.05292351 12.05599097 -0.04882812 10.61523438 C-0.03863076 7.07675042 -0.0190583 3.53849187 0 0 Z " fill="#307189" transform="translate(356,419)"/>
<path d="M0 0 C0.99 0 1.98 0 3 0 C3.103125 0.639375 3.20625 1.27875 3.3125 1.9375 C3.539375 2.618125 3.76625 3.29875 4 4 C4.99 4.33 5.98 4.66 7 5 C6.67 7.31 6.34 9.62 6 12 C4.02 12.33 2.04 12.66 0 13 C-1.5625 11.4375 -1.5625 11.4375 -3 9 C-2.67272727 2.67272727 -2.67272727 2.67272727 0 0 Z " fill="#41535E" transform="translate(406,499)"/>
<path d="M0 0 C0 0.99 0 1.98 0 3 C-7.92 3 -15.84 3 -24 3 C-24 2.34 -24 1.68 -24 1 C-20.37503356 0.83259796 -16.7500216 0.66620297 -13.125 0.5 C-12.09246094 0.45230469 -11.05992187 0.40460938 -9.99609375 0.35546875 C-9.00996094 0.31035156 -8.02382813 0.26523437 -7.0078125 0.21875 C-6.09660645 0.17685547 -5.18540039 0.13496094 -4.24658203 0.09179688 C-2.83190448 0.03399218 -1.41585803 0 0 0 Z " fill="#307189" transform="translate(467,447)"/>
<path d="M0 0 C0.66 0 1.32 0 2 0 C2.226875 1.11375 2.45375 2.2275 2.6875 3.375 C3.60623658 7.16038373 3.60623658 7.16038373 6.625 8.4375 C7.40875 8.623125 8.1925 8.80875 9 9 C9 9.66 9 10.32 9 11 C6.35786868 11.21422686 4.58483133 11.33418933 2.25 10 C0.27115069 6.83384111 0.30303807 3.69706448 0 0 Z " fill="#F1F7F9" transform="translate(401,503)"/>
</svg>
