<?xml version="1.0" encoding="UTF-8"?>
<svg version="1.1" xmlns="http://www.w3.org/2000/svg" width="891" height="891">
<path d="M0 0 C294.03 0 588.06 0 891 0 C891 294.03 891 588.06 891 891 C596.97 891 302.94 891 0 891 C0 596.97 0 302.94 0 0 Z " fill="#FEFEFE" transform="translate(0,0)"/>
<path d="M0 0 C1.41154022 1.25940501 2.81660672 2.52605519 4.22119141 3.79321289 C5.59534582 4.96087541 6.97023996 6.1276685 8.34619141 7.29321289 C38.91518579 34.4015664 59.12366506 71.89158637 67.22119141 111.79321289 C67.40810547 112.70377441 67.59501953 113.61433594 67.78759766 114.55249023 C69.64706298 124.88082396 69.61851871 135.20888781 69.59619141 145.66821289 C69.59537567 147.10151947 69.59537567 147.10151947 69.59454346 148.56378174 C69.55676823 162.9893857 68.88404481 176.77276058 65.22119141 190.79321289 C64.99093262 191.7066748 64.76067383 192.62013672 64.5234375 193.5612793 C55.05877413 230.55027556 34.06484688 266.44441966 4.22119141 290.79321289 C3.17925836 291.6822237 2.13761831 292.57157796 1.09619141 293.46118164 C-13.6001364 305.816033 -30.15269104 315.26696883 -47.77880859 322.79321289 C-48.39546387 323.06327148 -49.01211914 323.33333008 -49.64746094 323.61157227 C-67.50512903 331.32814263 -87.71425348 335.85317572 -107.15771484 336.03149414 C-108.03898041 336.04128799 -108.92024597 336.05108185 -109.82821655 336.06117249 C-146.56335237 336.38559936 -146.56335237 336.38559936 -163.77880859 331.79321289 C-164.65456543 331.5629541 -165.53032227 331.33269531 -166.43261719 331.09545898 C-172.28187392 329.519236 -178.0411294 327.73422682 -183.77880859 325.79321289 C-185.52871094 325.20926758 -185.52871094 325.20926758 -187.31396484 324.61352539 C-212.45734423 315.57811025 -234.72283884 299.21574321 -253.77880859 280.79321289 C-254.50326172 280.12032227 -255.22771484 279.44743164 -255.97412109 278.75415039 C-271.19383366 264.27385706 -282.57929029 245.50534622 -291.77880859 226.79321289 C-292.32279297 225.68977539 -292.86677734 224.58633789 -293.42724609 223.44946289 C-300.69093642 207.61538662 -305.30503741 190.0144661 -307.77880859 172.79321289 C-307.87162109 172.15907471 -307.96443359 171.52493652 -308.06005859 170.87158203 C-310.61493965 151.23321503 -309.49879386 130.19112966 -305.77880859 110.79321289 C-305.56200439 109.66254395 -305.56200439 109.66254395 -305.34082031 108.5090332 C-299.3645369 78.58128835 -286.17998745 51.32153857 -266.77880859 27.79321289 C-266.31361816 27.22119141 -265.84842773 26.64916992 -265.36914062 26.05981445 C-236.72934677 -9.01986622 -196.11152161 -31.85424698 -151.77880859 -40.20678711 C-150.21453125 -40.5180957 -150.21453125 -40.5180957 -148.61865234 -40.83569336 C-97.53385663 -49.37970013 -39.12936733 -34.28472182 0 0 Z " fill="#F7F7F7" transform="translate(564.77880859375,298.206787109375)"/>
<path d="M0 0 C7.50821204 3.66298063 13.32858296 9.9010451 19.13793945 15.74975586 C20.11736974 16.72511166 21.097435 17.69983018 22.07807922 18.67396545 C24.71696687 21.29928148 27.34640295 23.93387094 29.97372842 26.57075191 C32.73531163 29.33998041 35.50426402 32.10182546 38.27201843 34.86488342 C42.91469649 39.50211986 47.55104998 44.14560897 52.18383789 48.79272461 C57.52977777 54.15500716 62.8864648 59.50637131 68.24882346 64.85223097 C72.86688893 69.45665905 77.47905338 74.06693679 82.08638352 78.68210703 C84.83202916 81.43241433 87.57962497 84.18069108 90.33257484 86.92368889 C92.91924319 89.50165631 95.49839608 92.0869193 98.07206535 94.67786217 C99.46178898 96.07340748 100.85885485 97.46162926 102.25616455 98.84957886 C113.54804044 110.25600379 113.54804044 110.25600379 113.625 117.875 C113.13561208 127.70724827 105.0222373 134.42030963 98.390625 140.91015625 C96 143 96 143 94 143 C93.7628125 143.56203125 93.525625 144.1240625 93.28125 144.703125 C91.71052303 147.51894042 89.78528536 149.47955416 87.5 151.75 C86.30890625 152.94882812 86.30890625 152.94882812 85.09375 154.171875 C83 156 83 156 81 156 C80.773125 156.55171875 80.54625 157.1034375 80.3125 157.671875 C78.61274074 160.68692417 76.45195184 162.81230369 74 165.25 C72.6696875 166.58804688 72.6696875 166.58804688 71.3125 167.953125 C69 170 69 170 67 170 C66.7628125 170.56203125 66.525625 171.1240625 66.28125 171.703125 C64.71052303 174.51894042 62.78528536 176.47955416 60.5 178.75 C59.30890625 179.94882812 59.30890625 179.94882812 58.09375 181.171875 C56 183 56 183 54 183 C53.773125 183.55171875 53.54625 184.1034375 53.3125 184.671875 C51.61274074 187.68692417 49.45195184 189.81230369 47 192.25 C45.6696875 193.58804688 45.6696875 193.58804688 44.3125 194.953125 C42 197 42 197 40 197 C39.7628125 197.56203125 39.525625 198.1240625 39.28125 198.703125 C37.71052303 201.51894042 35.78528536 203.47955416 33.5 205.75 C32.30890625 206.94882812 32.30890625 206.94882812 31.09375 208.171875 C29 210 29 210 27 210 C26.773125 210.55171875 26.54625 211.1034375 26.3125 211.671875 C24.61274074 214.68692417 22.45195184 216.81230369 20 219.25 C18.6696875 220.58804688 18.6696875 220.58804688 17.3125 221.953125 C15 224 15 224 13 224 C12.73960937 224.59554687 12.47921875 225.19109375 12.2109375 225.8046875 C10.92148412 228.14234169 9.66460378 229.42384575 7.625 231.125 C7.03976562 231.62257813 6.45453125 232.12015625 5.8515625 232.6328125 C0.7386887 236.40814125 -3.77426288 236.916247 -10 236 C-17.51711632 232.40724226 -23.34946033 226.0779361 -29.13793945 220.25024414 C-30.11736974 219.27488834 -31.097435 218.30016982 -32.07807922 217.32603455 C-34.71696687 214.70071852 -37.34640295 212.06612906 -39.97372842 209.42924809 C-42.73531163 206.66001959 -45.50426402 203.89817454 -48.27201843 201.13511658 C-52.91469649 196.49788014 -57.55104998 191.85439103 -62.18383789 187.20727539 C-67.52977777 181.84499284 -72.8864648 176.49362869 -78.24882346 171.14776903 C-82.86688893 166.54334095 -87.47905338 161.93306321 -92.08638352 157.31789297 C-94.83202916 154.56758567 -97.57962497 151.81930892 -100.33257484 149.07631111 C-102.91924319 146.49834369 -105.49839608 143.9130807 -108.07206535 141.32213783 C-109.46178898 139.92659252 -110.85885485 138.53837074 -112.25616455 137.15042114 C-122.1611373 127.14496862 -122.1611373 127.14496862 -123.53125 120.375 C-123.5209375 119.59125 -123.510625 118.8075 -123.5 118 C-123.5103125 117.21625 -123.520625 116.4325 -123.53125 115.625 C-122.09555093 108.53095753 -117.09374735 103.66937364 -112.12011719 98.77954102 C-111.43678314 98.09576889 -110.7534491 97.41199677 -110.04940796 96.70750427 C-107.80560611 94.46578011 -105.55139178 92.23484961 -103.296875 90.00390625 C-101.73251976 88.44515057 -100.16882878 86.88572798 -98.60577393 85.32566833 C-94.50245403 81.23376876 -90.39020318 77.15096123 -86.27600098 73.07000732 C-82.07438259 68.89915031 -77.8813093 64.71972202 -73.6875 60.54101562 C-65.46665487 52.35228503 -57.23634533 44.17313804 -49 36 C-43.41021386 38.6366076 -39.28107029 42.96575884 -34.87158203 47.20849609 C-33.79739104 48.22964062 -32.70914022 49.23621125 -31.60693359 50.22705078 C-22.42071484 58.49768123 -22.42071484 58.49768123 -21.37353516 64.72607422 C-21.4296875 68.4765625 -21.4296875 68.4765625 -21.81201172 71.91650391 C-22.05682112 75.93201391 -20.91654677 78.12054356 -18.6796875 81.3515625 C-16.92611706 83.21846965 -16.92611706 83.21846965 -13.93759155 84.70172119 C-11 87 -11 87 -10.2784729 89.94866943 C-10.29179657 91.094505 -10.30512024 92.24034058 -10.31884766 93.42089844 C-10.31952744 95.37246857 -10.31952744 95.37246857 -10.32022095 97.36346436 C-10.35085888 98.77878196 -10.38215483 100.19408545 -10.4140625 101.609375 C-10.42525775 103.06095628 -10.43379639 104.51256028 -10.43978882 105.96417236 C-10.46266248 109.77881831 -10.52156943 113.59208629 -10.5880127 117.40618896 C-10.64946899 121.30055093 -10.67681074 125.1951363 -10.70703125 129.08984375 C-10.77131724 136.7271897 -10.87367501 144.36340154 -11 152 C-12.74357096 152.93994141 -14.48714193 153.87988281 -16.23071289 154.81982422 C-19.3265834 156.88487707 -20.88418362 159.55409648 -22 163 C-22.92048359 168.32317395 -22.59225646 172.6527776 -19.875 177.375 C-17.31930459 180.88198204 -15.03436897 183.20694712 -11 185 C-5.14771357 185.84995385 0.49995749 185.82593291 5.49609375 182.3828125 C9.98706919 178.25344807 12.28531367 174.01005738 12.5625 167.875 C12.30731712 163.25335442 11.10644351 160.52623318 8 157 C7.13901199 156.42018372 6.27802399 155.84036743 5.39094543 155.24298096 C3 153 3 153 2.39872742 150.0133667 C2.40983047 148.84976624 2.42093353 147.68616577 2.43237305 146.48730469 C2.43164291 145.84298492 2.43091278 145.19866516 2.43016052 144.53482056 C2.43363384 142.41297101 2.47247461 140.29333909 2.51171875 138.171875 C2.52104799 136.69786783 2.52816358 135.22384513 2.53315735 133.74981689 C2.55221903 129.87618971 2.60131082 126.00350474 2.65667725 122.13024902 C2.70788875 118.17550401 2.73067533 114.22060625 2.75585938 110.265625 C2.80943196 102.5099878 2.89473263 94.75512608 3 87 C28.12224896 108.48798749 28.12224896 108.48798749 29.02734375 115.04296875 C28.875 118.6875 28.875 118.6875 28.390625 122.06640625 C27.97834553 125.16262507 28.14362922 126.4300447 29.625 129.125 C33.00565531 133.21737222 35.39246508 135.68480347 40.84375 136.34375 C46.53878912 136.51290958 51.24106162 136.45023032 56 133 C59.88448797 128.89970714 61.74070608 125.29042965 62.375 119.6875 C61.77803879 113.81738142 59.71204009 109.62852594 55.4375 105.5625 C52.68660926 103.7991085 50.83306073 102.96643891 47.5456543 103.09887695 C40.61751128 103.2820381 36.44353872 101.51470335 31.39453125 96.85546875 C29.7185523 95.23406452 28.08268481 93.58553717 26.46850586 91.90258789 C24.8136207 90.18866068 23.10796014 88.54161114 21.38867188 86.89257812 C16.39948057 81.9355707 12.41425567 77.86622901 11.92578125 70.4921875 C11.97001221 69.55616699 12.01424316 68.62014648 12.05981445 67.65576172 C11.95129266 62.83739393 9.26382493 59.36743842 6 56 C2.80627194 53.9960922 0.49953565 52.92449293 -3.31274414 53.11645508 C-9.15504005 53.32018586 -12.63101699 51.9688433 -16.91093445 48.17037964 C-19.18928271 45.98909905 -21.39770982 43.75384954 -23.56591797 41.46313477 C-25.2617452 39.67511629 -26.99519631 37.93131502 -28.73828125 36.18945312 C-29.83313135 35.0700528 -30.92566884 33.94838484 -32.015625 32.82421875 C-32.53312317 32.30115646 -33.05062134 31.77809418 -33.58380127 31.23918152 C-36.98194942 27.60796347 -36.98194942 27.60796347 -37.06201172 24.91137695 C-35.67223252 22.41009389 -34.01313475 20.62386155 -31.9921875 18.59375 C-31.16976562 17.76746094 -30.34734375 16.94117188 -29.5 16.08984375 C-28.63375 15.23519531 -27.7675 14.38054687 -26.875 13.5 C-26.03195312 12.64535156 -25.18890625 11.79070312 -24.3203125 10.91015625 C-16.96987037 3.59395531 -10.87205695 -1.89031515 0 0 Z " fill="#EE523D" transform="translate(452,333)"/>
<path d="M0 0 C1.41154022 1.25940501 2.81660672 2.52605519 4.22119141 3.79321289 C5.59534582 4.96087541 6.97023996 6.1276685 8.34619141 7.29321289 C38.91518579 34.4015664 59.12366506 71.89158637 67.22119141 111.79321289 C67.40810547 112.70377441 67.59501953 113.61433594 67.78759766 114.55249023 C69.64706298 124.88082396 69.61851871 135.20888781 69.59619141 145.66821289 C69.59537567 147.10151947 69.59537567 147.10151947 69.59454346 148.56378174 C69.55676823 162.9893857 68.88404481 176.77276058 65.22119141 190.79321289 C64.99093262 191.7066748 64.76067383 192.62013672 64.5234375 193.5612793 C55.05877413 230.55027556 34.06484688 266.44441966 4.22119141 290.79321289 C3.17925836 291.6822237 2.13761831 292.57157796 1.09619141 293.46118164 C-13.6001364 305.816033 -30.15269104 315.26696883 -47.77880859 322.79321289 C-48.39546387 323.06327148 -49.01211914 323.33333008 -49.64746094 323.61157227 C-67.50512903 331.32814263 -87.71425348 335.85317572 -107.15771484 336.03149414 C-108.03898041 336.04128799 -108.92024597 336.05108185 -109.82821655 336.06117249 C-146.56335237 336.38559936 -146.56335237 336.38559936 -163.77880859 331.79321289 C-164.65456543 331.5629541 -165.53032227 331.33269531 -166.43261719 331.09545898 C-172.28187392 329.519236 -178.0411294 327.73422682 -183.77880859 325.79321289 C-185.52871094 325.20926758 -185.52871094 325.20926758 -187.31396484 324.61352539 C-212.45734423 315.57811025 -234.72283884 299.21574321 -253.77880859 280.79321289 C-254.50326172 280.12032227 -255.22771484 279.44743164 -255.97412109 278.75415039 C-271.19383366 264.27385706 -282.57929029 245.50534622 -291.77880859 226.79321289 C-292.32279297 225.68977539 -292.86677734 224.58633789 -293.42724609 223.44946289 C-300.69093642 207.61538662 -305.30503741 190.0144661 -307.77880859 172.79321289 C-307.87162109 172.15907471 -307.96443359 171.52493652 -308.06005859 170.87158203 C-310.61493965 151.23321503 -309.49879386 130.19112966 -305.77880859 110.79321289 C-305.56200439 109.66254395 -305.56200439 109.66254395 -305.34082031 108.5090332 C-299.3645369 78.58128835 -286.17998745 51.32153857 -266.77880859 27.79321289 C-266.31361816 27.22119141 -265.84842773 26.64916992 -265.36914062 26.05981445 C-236.72934677 -9.01986622 -196.11152161 -31.85424698 -151.77880859 -40.20678711 C-150.21453125 -40.5180957 -150.21453125 -40.5180957 -148.61865234 -40.83569336 C-97.53385663 -49.37970013 -39.12936733 -34.28472182 0 0 Z M-170.77880859 -27.20678711 C-171.49101562 -26.99683105 -172.20322266 -26.786875 -172.93701172 -26.57055664 C-200.32789237 -18.32094101 -224.06789737 -3.888391 -244.77880859 15.79321289 C-245.28412109 16.27129395 -245.78943359 16.749375 -246.31005859 17.24194336 C-271.83772744 41.54999101 -289.30856937 73.36062186 -296.77880859 107.79321289 C-297.21 109.69393555 -297.21 109.69393555 -297.64990234 111.63305664 C-299.45973134 120.024082 -300.52822897 128.21903195 -300.77880859 136.79321289 C-300.81135742 137.73712891 -300.84390625 138.68104492 -300.87744141 139.65356445 C-302.42443085 190.51670212 -284.50263865 236.73645675 -249.68505859 273.78540039 C-225.18312601 299.3905786 -192.59623124 317.80938129 -157.77880859 324.79321289 C-157.1624353 324.91742615 -156.54606201 325.0416394 -155.91101074 325.1696167 C-144.38600751 327.43765867 -133.2610315 328.29051454 -121.52880859 328.16821289 C-120.72653839 328.16356018 -119.92426819 328.15890747 -119.09768677 328.15411377 C-98.66897842 328.01580983 -80.15185214 325.40758679 -60.77880859 318.79321289 C-60.09157715 318.56794922 -59.4043457 318.34268555 -58.69628906 318.1105957 C-40.97488659 312.2747019 -24.47549285 303.24075872 -9.77880859 291.79321289 C-8.89966797 291.13579102 -8.02052734 290.47836914 -7.11474609 289.80102539 C27.60238202 262.84543045 50.61852837 223.72092944 59.22119141 180.79321289 C59.39851807 179.9144751 59.57584473 179.0357373 59.75854492 178.13037109 C61.56724234 167.98269492 61.66223672 157.88152592 61.65869141 147.60571289 C61.65942657 146.67868561 61.66016174 145.75165833 61.66091919 144.79653931 C61.62870039 129.29328846 60.43525589 114.79349483 56.22119141 99.79321289 C55.83568115 98.40634277 55.83568115 98.40634277 55.44238281 96.99145508 C42.40517027 51.61331198 11.24062891 12.40130704 -29.71630859 -10.95678711 C-46.56926308 -20.27938699 -64.13757281 -26.94398701 -82.96630859 -30.95678711 C-84.44478271 -31.27329224 -84.44478271 -31.27329224 -85.953125 -31.59619141 C-113.82981028 -37.25465234 -143.5772753 -35.23639424 -170.77880859 -27.20678711 Z " fill="#C7C7C7" transform="translate(564.77880859375,298.206787109375)"/>
<path d="M0 0 C3.83431234 1.55543379 6.04069707 3.94928414 8.81640625 6.97265625 C9.75459192 7.96539205 10.69408857 8.95689024 11.63476562 9.94726562 C13.09997028 11.49858684 14.55592829 13.05526315 15.99047852 14.63500977 C22.65265994 22.14216915 22.65265994 22.14216915 31.9453125 25.08984375 C32.8130127 25.06656006 33.68071289 25.04327637 34.57470703 25.01928711 C38.70866552 24.98641186 41.79168061 26.4781769 45 29 C48.28603407 32.38648052 50.94171939 35.81946698 51.07128906 40.66723633 C51.03229492 41.60849365 50.99330078 42.54975098 50.953125 43.51953125 C51.48383265 51.47100641 56.21155245 55.8784702 61.67016602 61.10424805 C63.31179562 62.68682096 64.88617112 64.31982628 66.46289062 65.96679688 C71.33803443 70.87484571 75.30772488 74.56883809 82.54296875 75.09765625 C83.97225708 75.05330444 83.97225708 75.05330444 85.43041992 75.00805664 C89.62120545 74.99491689 91.68222428 76.51166821 95 79 C98.88849997 83.09868915 100.74017234 86.70485568 101.375 92.3125 C100.76351366 98.32544896 98.537704 102.95677484 93.9375 106.9375 C88.38280691 110.83760366 82.58655577 110.74226729 76 110 C71.39258863 108.17827529 67.93318246 104.61355927 65.59008789 100.25268555 C64.79305749 97.2099882 65.28754777 94.64048989 65.62109375 91.51953125 C65.68143344 86.20239746 65.01861957 83.16638978 61.45179749 79.11723328 C58.8947097 76.50389603 56.22669741 74.06226939 53.5 71.625 C49.705 68.11875 45.91 64.6125 42 61 C41.67 82.45 41.34 103.9 41 126 C42.32 126.66 43.64 127.32 45 128 C48.87889924 131.84753348 51.15438116 135.14347047 51.375 140.625 C51.31818861 146.24121162 49.59458947 149.7589721 46 154 C40.81227878 158.81716971 36.59868729 159.35377902 29.7265625 159.28125 C24.6571531 158.75833098 22.03655966 156.15173296 18.75 152.5 C14.92854995 147.04078565 14.01561387 142.63217727 15 136 C16.8899003 131.51995746 19.62163693 127.33512697 24 125 C24.99 125 25.98 125 27 125 C27.00830348 116.59372162 26.98448835 108.18840843 26.9197216 99.78240585 C26.89065486 95.87902646 26.87263351 91.97624819 26.87988281 88.07275391 C26.8864729 84.30513773 26.86401236 80.5387097 26.82144547 76.77133942 C26.81030804 75.33448771 26.80962007 73.89751559 26.81957626 72.46065521 C26.83173796 70.44737969 26.80322574 68.43398302 26.77294922 66.42089844 C26.768508 65.27506287 26.76406677 64.12922729 26.75949097 62.94866943 C26.24474707 59.7096116 26.24474707 59.7096116 23.05667114 57.70172119 C22.04796967 57.1401532 21.03926819 56.57858521 20 56 C17.5523421 53.59787993 16.17229782 51.22321596 15 48 C15.15164926 45.83407546 15.36340939 43.67196989 15.6171875 41.515625 C15.70304553 35.97525667 14.89552205 33.03362353 11.31912231 28.9826355 C8.64077988 26.25188991 5.847611 23.67717932 3 21.125 C1.84057037 20.03592726 0.68428494 18.943497 -0.46875 17.84765625 C-3.27773289 15.19165967 -6.12537876 12.58473811 -9 10 C-7.50427507 6.82516623 -6.10891525 4.97763465 -3.375 2.75 C-2.74335938 2.22921875 -2.11171875 1.7084375 -1.4609375 1.171875 C-0.73777344 0.59179688 -0.73777344 0.59179688 0 0 Z " fill="#FEFDFC" transform="translate(414,360)"/>
</svg>
