<?xml version="1.0" encoding="UTF-8"?>
<svg version="1.1" xmlns="http://www.w3.org/2000/svg" width="891" height="891">
<path d="M0 0 C294.03 0 588.06 0 891 0 C891 294.03 891 588.06 891 891 C596.97 891 302.94 891 0 891 C0 596.97 0 302.94 0 0 Z " fill="#FEFEFE" transform="translate(0,0)"/>
<path d="M0 0 C1.41154022 1.25940501 2.81660672 2.52605519 4.22119141 3.79321289 C5.59534582 4.96087541 6.97023996 6.1276685 8.34619141 7.29321289 C38.91518579 34.4015664 59.12366506 71.89158637 67.22119141 111.79321289 C67.40810547 112.70377441 67.59501953 113.61433594 67.78759766 114.55249023 C69.64706298 124.88082396 69.61851871 135.20888781 69.59619141 145.66821289 C69.59537567 147.10151947 69.59537567 147.10151947 69.59454346 148.56378174 C69.55676823 162.9893857 68.88404481 176.77276058 65.22119141 190.79321289 C64.99093262 191.7066748 64.76067383 192.62013672 64.5234375 193.5612793 C55.05877413 230.55027556 34.06484688 266.44441966 4.22119141 290.79321289 C3.17925836 291.6822237 2.13761831 292.57157796 1.09619141 293.46118164 C-13.6001364 305.816033 -30.15269104 315.26696883 -47.77880859 322.79321289 C-48.39546387 323.06327148 -49.01211914 323.33333008 -49.64746094 323.61157227 C-67.50512903 331.32814263 -87.71425348 335.85317572 -107.15771484 336.03149414 C-108.03898041 336.04128799 -108.92024597 336.05108185 -109.82821655 336.06117249 C-146.56335237 336.38559936 -146.56335237 336.38559936 -163.77880859 331.79321289 C-164.65456543 331.5629541 -165.53032227 331.33269531 -166.43261719 331.09545898 C-172.28187392 329.519236 -178.0411294 327.73422682 -183.77880859 325.79321289 C-185.52871094 325.20926758 -185.52871094 325.20926758 -187.31396484 324.61352539 C-212.45734423 315.57811025 -234.72283884 299.21574321 -253.77880859 280.79321289 C-254.50326172 280.12032227 -255.22771484 279.44743164 -255.97412109 278.75415039 C-271.19383366 264.27385706 -282.57929029 245.50534622 -291.77880859 226.79321289 C-292.32279297 225.68977539 -292.86677734 224.58633789 -293.42724609 223.44946289 C-300.69093642 207.61538662 -305.30503741 190.0144661 -307.77880859 172.79321289 C-307.87162109 172.15907471 -307.96443359 171.52493652 -308.06005859 170.87158203 C-310.61493965 151.23321503 -309.49879386 130.19112966 -305.77880859 110.79321289 C-305.56200439 109.66254395 -305.56200439 109.66254395 -305.34082031 108.5090332 C-299.3645369 78.58128835 -286.17998745 51.32153857 -266.77880859 27.79321289 C-266.31361816 27.22119141 -265.84842773 26.64916992 -265.36914062 26.05981445 C-236.72934677 -9.01986622 -196.11152161 -31.85424698 -151.77880859 -40.20678711 C-150.21453125 -40.5180957 -150.21453125 -40.5180957 -148.61865234 -40.83569336 C-97.53385663 -49.37970013 -39.12936733 -34.28472182 0 0 Z " fill="#F7F7F7" transform="translate(564.77880859375,298.206787109375)"/>
<path d="M0 0 C14.72771258 11.52603594 26.09075435 29.20925336 31.1875 47.1875 C32.85220547 51.83362713 36.48170226 53.95336493 40.3125 56.83203125 C52.96671482 67.04000977 61.94456298 84.95889097 64 101 C64.86760696 111.80641052 65.03605297 122.7968581 61 133 C60.63648438 133.9796875 60.27296875 134.959375 59.8984375 135.96875 C52.25520368 155.49597964 39.35712968 169.58066419 20.34752846 178.55823612 C9.98120748 183.02295907 0.12241179 184.59324139 -11.09521484 184.53344727 C-12.4407698 184.54052974 -13.7863168 184.54928437 -15.1318512 184.55955505 C-18.74161933 184.58180051 -22.35094392 184.57916831 -25.96075392 184.57023358 C-28.99456338 184.56507338 -32.0282931 184.57245667 -35.06209433 184.57970566 C-42.22962012 184.59662633 -49.39693262 184.59321913 -56.56445312 184.57641602 C-63.91391241 184.55950713 -71.26277714 184.57532974 -78.61217153 184.6076389 C-84.96428781 184.63448703 -91.31622077 184.64156996 -97.66838801 184.63312382 C-101.44372619 184.62823803 -105.21870738 184.63016989 -108.99399948 184.65091133 C-130.58410022 184.75742363 -149.21019799 183.79117679 -167 170 C-165.8829081 166.98385187 -164.3874224 165.35491331 -161.9375 163.375 C-158.99175287 161.32880603 -158.99175287 161.32880603 -158 159 C-157.34 159 -156.68 159 -156 159 C-155.75378906 158.41476562 -155.50757813 157.82953125 -155.25390625 157.2265625 C-153.80626232 154.65597983 -152.20757518 153.24544307 -149.9375 151.375 C-147.02124288 149.04514448 -147.02124288 149.04514448 -145 146 C-144.34 146 -143.68 146 -143 146 C-142.773125 145.4225 -142.54625 144.845 -142.3125 144.25 C-140.67083893 141.43572387 -138.56440947 139.97262267 -136 138 C-135.67 137.34 -135.34 136.68 -135 136 C-135.680625 135.814375 -136.36125 135.62875 -137.0625 135.4375 C-143.77146885 132.15438758 -147.8929435 126.79377469 -150.3359375 119.8046875 C-152.37363722 111.1984028 -151.80469745 103.75238255 -147.34375 96.08203125 C-146.9003125 95.39496094 -146.456875 94.70789063 -146 94 C-145.4225 93.071875 -144.845 92.14375 -144.25 91.1875 C-137.06338014 84.20050847 -129.09944906 82.56219726 -119.390625 82.66015625 C-111.44525955 83.45652352 -105.74123029 87.68717008 -100.27734375 93.25390625 C-98.87001969 95.1776795 -98.511645 96.69744885 -98 99 C-91.40639479 93.44237456 -85.21564771 87.49778911 -79.08764648 81.43774414 C-77.97667167 80.34353503 -76.86033414 79.25474722 -75.73901367 78.17114258 C-74.10423323 76.59079959 -72.48622657 74.99491862 -70.87109375 73.39453125 C-70.3660582 72.91216507 -69.86102264 72.42979889 -69.34068298 71.93281555 C-67.78388499 70.42415278 -67.78388499 70.42415278 -66 68 C-66.1867282 62.96170305 -70.58882295 59.88951455 -73.9921875 56.59765625 C-83.47174674 48.41076418 -95.49318493 41.74984894 -108 40 C-105.34910116 33.12325654 -97.18620718 28.64653688 -90.85546875 25.375 C-75.25397775 18.64573046 -61.16511773 18.43261172 -45 24 C-42.30422583 25.17742418 -39.72393764 26.43277821 -37.1484375 27.8515625 C-34.82376274 29.09420683 -32.45209755 30.03788701 -30 31 C-25.88508307 26.90975967 -21.77342906 22.81627791 -17.66479492 18.71972656 C-16.26595345 17.32592098 -14.86621674 15.93301328 -13.46557617 14.54101562 C-11.45517001 12.54270748 -9.44798114 10.54121682 -7.44140625 8.5390625 C-6.49763878 7.60303696 -6.49763878 7.60303696 -5.5348053 6.64810181 C-4.95427902 6.06765106 -4.37375275 5.48720032 -3.77563477 4.88916016 C-3.26267349 4.37841949 -2.74971222 3.86767883 -2.22120667 3.34146118 C-0.88433197 1.99484031 -0.88433197 1.99484031 0 0 Z " fill="#4385F3" transform="translate(512,368)"/>
<path d="M0 0 C2.0390625 1.859375 2.0390625 1.859375 4.0390625 5.859375 C-10.8109375 20.709375 -10.8109375 20.709375 -25.9609375 35.859375 C-29.35268994 34.50267402 -32.19321594 33.21562863 -35.3359375 31.484375 C-50.01279056 24.13504442 -64.60596209 22.94133265 -80.30859375 27.52734375 C-88.2345241 30.41797717 -99.97097144 35.87944289 -103.9609375 43.859375 C-103.12949219 43.7975 -102.29804688 43.735625 -101.44140625 43.671875 C-97.28196821 43.89595247 -94.0143312 45.1662089 -90.2734375 46.859375 C-89.21842041 47.33250122 -89.21842041 47.33250122 -88.14208984 47.81518555 C-77.9167107 52.56593546 -67.73297056 59.72644968 -60.9609375 68.859375 C-61.32446955 72.12467592 -62.51023282 73.78372754 -64.79663086 76.06738281 C-65.68776833 76.96786346 -65.68776833 76.96786346 -66.59690857 77.88653564 C-67.24168655 78.52210388 -67.88646454 79.15767212 -68.55078125 79.8125 C-69.54036583 80.80283234 -69.54036583 80.80283234 -70.54994202 81.81317139 C-71.94433542 83.20522622 -73.34241844 84.59359363 -74.74389648 85.97851562 C-76.89550558 88.1064753 -79.03343092 90.24749821 -81.16992188 92.390625 C-82.52525019 93.74037855 -83.8813441 95.08936386 -85.23828125 96.4375 C-85.881035 97.08116516 -86.52378876 97.72483032 -87.1860199 98.38800049 C-87.7832637 98.97571228 -88.38050751 99.56342407 -88.99584961 100.16894531 C-89.78408363 100.95026825 -89.78408363 100.95026825 -90.58824158 101.74737549 C-91.9609375 102.859375 -91.9609375 102.859375 -93.9609375 102.859375 C-94.87677756 101.4347349 -95.79189522 100.00962458 -96.703125 98.58203125 C-100.36447713 93.56757073 -105.8440485 89.2124711 -111.9609375 87.859375 C-121.65712335 86.83002893 -130.03104776 87.91546321 -137.7734375 94.109375 C-144.73303775 102.85858675 -146.86076118 109.58586975 -145.9609375 120.859375 C-144.31263555 128.05828412 -140.80047387 133.35166272 -134.9609375 137.859375 C-133.64662965 138.56280737 -132.31721566 139.2407218 -130.9609375 139.859375 C-132.45989421 143.67490117 -134.7596231 145.39682546 -137.9609375 147.859375 C-138.2909375 148.519375 -138.6209375 149.179375 -138.9609375 149.859375 C-139.6209375 149.859375 -140.2809375 149.859375 -140.9609375 149.859375 C-141.2909375 150.849375 -141.6209375 151.839375 -141.9609375 152.859375 C-143.73828125 154.578125 -143.73828125 154.578125 -145.8984375 156.359375 C-148.47068942 158.48813521 -150.08354513 160.04328645 -151.9609375 162.859375 C-152.6209375 162.859375 -153.2809375 162.859375 -153.9609375 162.859375 C-154.2909375 163.849375 -154.6209375 164.839375 -154.9609375 165.859375 C-156.80859375 167.68359375 -156.80859375 167.68359375 -159.0234375 169.546875 C-159.75691406 170.16949219 -160.49039062 170.79210937 -161.24609375 171.43359375 C-161.81199219 171.90410156 -162.37789063 172.37460937 -162.9609375 172.859375 C-176.71908037 165.77184685 -184.29760414 150.21424607 -189.22265625 136.29296875 C-195.04196487 117.03820373 -192.42866468 97.64242676 -183.4296875 79.828125 C-178.334054 70.50215425 -171.60186488 62.14368582 -162.9609375 55.859375 C-162.3009375 55.859375 -161.6409375 55.859375 -160.9609375 55.859375 C-160.71472656 54.56644531 -160.46851563 53.27351563 -160.21484375 51.94140625 C-159.06728112 46.80598817 -157.17691702 42.27442839 -154.8984375 37.546875 C-154.50140625 36.71873291 -154.104375 35.89059082 -153.6953125 35.03735352 C-150.19006332 27.94323229 -146.09741229 21.90281474 -140.9609375 15.859375 C-139.91679687 14.57353516 -139.91679687 14.57353516 -138.8515625 13.26171875 C-126.07987619 -1.81726125 -108.86297827 -11.91534881 -89.9609375 -17.140625 C-88.88457031 -17.4603125 -87.80820312 -17.78 -86.69921875 -18.109375 C-56.04155048 -25.80049735 -25.12330135 -18.36809343 0 0 Z " fill="#FABC06" transform="translate(507.9609375,364.140625)"/>
<path d="M0 0 C12.30997545 9.74157521 22.65793244 21.98586283 25 38 C25.30216838 43.33448305 25.18079175 48.66329529 25 54 C26.11375 54.061875 27.2275 54.12375 28.375 54.1875 C36.77493551 55.28766855 43.4001828 59.3699262 48.59375 65.984375 C53.67156828 73.2625812 54.04220217 80.2338135 53 89 C50.20086246 97.70842791 44.80938046 103.37812177 37 108 C31.13388337 110.6349313 25.21755376 110.30272248 18.91113281 110.30639648 C17.69736969 110.31472 16.48360657 110.32304352 15.23306274 110.33161926 C11.91459989 110.35154863 8.59638757 110.36235313 5.27788639 110.36744571 C3.2003096 110.3710987 1.12275658 110.37734366 -0.9548111 110.3844471 C-8.21532746 110.40891721 -15.47577265 110.42198784 -22.73632812 110.42553711 C-29.48359894 110.42916876 -36.23041389 110.45904329 -42.9775455 110.50094169 C-48.78670756 110.53573922 -54.59571924 110.55108719 -60.40498471 110.55178314 C-63.86731581 110.55257287 -67.32918217 110.56116899 -70.79140472 110.58978081 C-74.65896394 110.62102954 -78.52587819 110.61185664 -82.39355469 110.59936523 C-83.52636871 110.61419952 -84.65918274 110.62903381 -85.82632446 110.64431763 C-95.07905904 110.55951161 -101.89786019 107.91288174 -108.875 101.8125 C-115.07987297 94.99154036 -116.74542343 87.24515072 -116.45703125 78.1875 C-115.73216991 73.13205682 -113.74468708 69.25266923 -111 65 C-110.4225 64.071875 -109.845 63.14375 -109.25 62.1875 C-102.06338014 55.20050847 -94.09944906 53.56219726 -84.390625 53.66015625 C-76.44525955 54.45652352 -70.74123029 58.68717008 -65.27734375 64.25390625 C-63.87001969 66.1776795 -63.511645 67.69744885 -63 70 C-56.40639479 64.44237456 -50.21564771 58.49778911 -44.08764648 52.43774414 C-42.97667167 51.34353503 -41.86033414 50.25474722 -40.73901367 49.17114258 C-39.10423323 47.59079959 -37.48622657 45.99491862 -35.87109375 44.39453125 C-35.3660582 43.91216507 -34.86102264 43.42979889 -34.34068298 42.93281555 C-32.78388499 41.42415278 -32.78388499 41.42415278 -31 39 C-31.1867282 33.96170305 -35.58882295 30.88951455 -38.9921875 27.59765625 C-48.47174674 19.41076418 -60.49318493 12.74984894 -73 11 C-70.34910116 4.12325654 -62.18620718 -0.35346312 -55.85546875 -3.625 C-37.5747057 -11.50989908 -17.08923113 -11.26919248 0 0 Z " fill="#F7F7F7" transform="translate(477,397)"/>
<path d="M0 0 C1.41154022 1.25940501 2.81660672 2.52605519 4.22119141 3.79321289 C5.59534582 4.96087541 6.97023996 6.1276685 8.34619141 7.29321289 C38.91518579 34.4015664 59.12366506 71.89158637 67.22119141 111.79321289 C67.40810547 112.70377441 67.59501953 113.61433594 67.78759766 114.55249023 C69.64706298 124.88082396 69.61851871 135.20888781 69.59619141 145.66821289 C69.59537567 147.10151947 69.59537567 147.10151947 69.59454346 148.56378174 C69.55676823 162.9893857 68.88404481 176.77276058 65.22119141 190.79321289 C64.99093262 191.7066748 64.76067383 192.62013672 64.5234375 193.5612793 C55.05877413 230.55027556 34.06484688 266.44441966 4.22119141 290.79321289 C3.17925836 291.6822237 2.13761831 292.57157796 1.09619141 293.46118164 C-13.6001364 305.816033 -30.15269104 315.26696883 -47.77880859 322.79321289 C-48.39546387 323.06327148 -49.01211914 323.33333008 -49.64746094 323.61157227 C-67.50512903 331.32814263 -87.71425348 335.85317572 -107.15771484 336.03149414 C-108.03898041 336.04128799 -108.92024597 336.05108185 -109.82821655 336.06117249 C-146.56335237 336.38559936 -146.56335237 336.38559936 -163.77880859 331.79321289 C-164.65456543 331.5629541 -165.53032227 331.33269531 -166.43261719 331.09545898 C-172.28187392 329.519236 -178.0411294 327.73422682 -183.77880859 325.79321289 C-185.52871094 325.20926758 -185.52871094 325.20926758 -187.31396484 324.61352539 C-212.45734423 315.57811025 -234.72283884 299.21574321 -253.77880859 280.79321289 C-254.50326172 280.12032227 -255.22771484 279.44743164 -255.97412109 278.75415039 C-271.19383366 264.27385706 -282.57929029 245.50534622 -291.77880859 226.79321289 C-292.32279297 225.68977539 -292.86677734 224.58633789 -293.42724609 223.44946289 C-300.69093642 207.61538662 -305.30503741 190.0144661 -307.77880859 172.79321289 C-307.87162109 172.15907471 -307.96443359 171.52493652 -308.06005859 170.87158203 C-310.61493965 151.23321503 -309.49879386 130.19112966 -305.77880859 110.79321289 C-305.56200439 109.66254395 -305.56200439 109.66254395 -305.34082031 108.5090332 C-299.3645369 78.58128835 -286.17998745 51.32153857 -266.77880859 27.79321289 C-266.31361816 27.22119141 -265.84842773 26.64916992 -265.36914062 26.05981445 C-236.72934677 -9.01986622 -196.11152161 -31.85424698 -151.77880859 -40.20678711 C-150.21453125 -40.5180957 -150.21453125 -40.5180957 -148.61865234 -40.83569336 C-97.53385663 -49.37970013 -39.12936733 -34.28472182 0 0 Z M-170.77880859 -27.20678711 C-171.49101562 -26.99683105 -172.20322266 -26.786875 -172.93701172 -26.57055664 C-200.32789237 -18.32094101 -224.06789737 -3.888391 -244.77880859 15.79321289 C-245.28412109 16.27129395 -245.78943359 16.749375 -246.31005859 17.24194336 C-271.83772744 41.54999101 -289.30856937 73.36062186 -296.77880859 107.79321289 C-297.21 109.69393555 -297.21 109.69393555 -297.64990234 111.63305664 C-299.45973134 120.024082 -300.52822897 128.21903195 -300.77880859 136.79321289 C-300.81135742 137.73712891 -300.84390625 138.68104492 -300.87744141 139.65356445 C-302.42443085 190.51670212 -284.50263865 236.73645675 -249.68505859 273.78540039 C-225.18312601 299.3905786 -192.59623124 317.80938129 -157.77880859 324.79321289 C-157.1624353 324.91742615 -156.54606201 325.0416394 -155.91101074 325.1696167 C-144.38600751 327.43765867 -133.2610315 328.29051454 -121.52880859 328.16821289 C-120.72653839 328.16356018 -119.92426819 328.15890747 -119.09768677 328.15411377 C-98.66897842 328.01580983 -80.15185214 325.40758679 -60.77880859 318.79321289 C-60.09157715 318.56794922 -59.4043457 318.34268555 -58.69628906 318.1105957 C-40.97488659 312.2747019 -24.47549285 303.24075872 -9.77880859 291.79321289 C-8.89966797 291.13579102 -8.02052734 290.47836914 -7.11474609 289.80102539 C27.60238202 262.84543045 50.61852837 223.72092944 59.22119141 180.79321289 C59.39851807 179.9144751 59.57584473 179.0357373 59.75854492 178.13037109 C61.56724234 167.98269492 61.66223672 157.88152592 61.65869141 147.60571289 C61.65942657 146.67868561 61.66016174 145.75165833 61.66091919 144.79653931 C61.62870039 129.29328846 60.43525589 114.79349483 56.22119141 99.79321289 C55.83568115 98.40634277 55.83568115 98.40634277 55.44238281 96.99145508 C42.40517027 51.61331198 11.24062891 12.40130704 -29.71630859 -10.95678711 C-46.56926308 -20.27938699 -64.13757281 -26.94398701 -82.96630859 -30.95678711 C-84.44478271 -31.27329224 -84.44478271 -31.27329224 -85.953125 -31.59619141 C-113.82981028 -37.25465234 -143.5772753 -35.23639424 -170.77880859 -27.20678711 Z " fill="#C7C7C7" transform="translate(564.77880859375,298.206787109375)"/>
<path d="M0 0 C2.0390625 1.859375 2.0390625 1.859375 4.0390625 5.859375 C-10.8109375 20.709375 -10.8109375 20.709375 -25.9609375 35.859375 C-29.35268994 34.50267402 -32.19321594 33.21562863 -35.3359375 31.484375 C-50.01070544 24.13608853 -64.61305299 22.93471088 -80.3125 27.53125 C-86.53500777 29.79640272 -93.04259926 32.73520723 -97.62939453 37.64550781 C-100.54350611 40.66862226 -102.64392614 42.64106935 -106.87280273 43.34204102 C-110.25706852 43.3685268 -113.5842886 43.21042484 -116.9609375 42.984375 C-128.17803353 42.6094177 -136.64278257 43.37271662 -146.9609375 47.859375 C-147.90888184 48.26808838 -147.90888184 48.26808838 -148.87597656 48.68505859 C-152.62057206 50.31375936 -156.30533427 52.03783298 -159.9609375 53.859375 C-159.44545965 47.82667327 -157.57995292 43.10174107 -154.9609375 37.671875 C-154.35862305 36.41612671 -154.35862305 36.41612671 -153.74414062 35.13500977 C-150.22026348 28.00410627 -146.12424485 21.93438522 -140.9609375 15.859375 C-140.26484375 15.00214844 -139.56875 14.14492188 -138.8515625 13.26171875 C-126.07987619 -1.81726125 -108.86297827 -11.91534881 -89.9609375 -17.140625 C-88.88457031 -17.4603125 -87.80820312 -17.78 -86.69921875 -18.109375 C-56.04155048 -25.80049735 -25.12330135 -18.36809343 0 0 Z " fill="#EA4436" transform="translate(507.9609375,364.140625)"/>
<path d="M0 0 C0.89024368 0.21435196 1.78048737 0.42870392 2.69770813 0.64955139 C4.81280431 0.76136146 6.93069716 0.82516446 9.04853821 0.85487366 C10.30946793 0.87481888 11.57039764 0.8947641 12.86953735 0.91531372 C14.2354368 0.93229407 15.60133751 0.94917302 16.96723938 0.96595764 C18.37257472 0.98654613 19.77790413 1.00754309 21.18322754 1.02893066 C24.87058186 1.08395574 28.55799025 1.13345073 32.24543762 1.18177795 C36.01277941 1.23213643 39.78004427 1.28769686 43.5473175 1.34291077 C50.93072159 1.45074224 58.31417066 1.54991709 65.69770813 1.64955139 C65.69770813 16.49955139 65.69770813 31.34955139 65.69770813 46.64955139 C49.11940027 46.85009544 49.11940027 46.85009544 41.95161438 46.89369202 C37.09569854 46.92336911 32.24026215 46.95814136 27.38471985 47.02674866 C23.46186136 47.08181879 19.53951824 47.11112615 15.61630249 47.12393761 C14.13342188 47.13304527 12.65056351 47.15082199 11.16790771 47.17820168 C-5.58190398 47.47468749 -20.86724629 43.06479315 -34.30229187 32.64955139 C-33.18519997 29.63340326 -31.68971427 28.0044647 -29.23979187 26.02455139 C-26.29404474 23.97835743 -26.29404474 23.97835743 -25.30229187 21.64955139 C-24.64229187 21.64955139 -23.98229187 21.64955139 -23.30229187 21.64955139 C-23.05608093 21.06431702 -22.80987 20.47908264 -22.55619812 19.87611389 C-21.10855419 17.30553122 -19.50986705 15.89499446 -17.23979187 14.02455139 C-14.32353475 11.69469587 -14.32353475 11.69469587 -12.30229187 8.64955139 C-11.64229187 8.64955139 -10.98229187 8.64955139 -10.30229187 8.64955139 C-9.99291687 7.81423889 -9.99291687 7.81423889 -9.67729187 6.96205139 C-7.53437819 3.35806021 -4.51351595 -0.68703513 0 0 Z " fill="#35A853" transform="translate(379.3022918701172,505.35044860839844)"/>
</svg>
