<?xml version="1.0" encoding="UTF-8"?>
<svg version="1.1" xmlns="http://www.w3.org/2000/svg" width="891" height="891">
<path d="M0 0 C294.03 0 588.06 0 891 0 C891 294.03 891 588.06 891 891 C596.97 891 302.94 891 0 891 C0 596.97 0 302.94 0 0 Z " fill="#FEFEFE" transform="translate(0,0)"/>
<path d="M0 0 C1.41154022 1.25940501 2.81660672 2.52605519 4.22119141 3.79321289 C5.59534582 4.96087541 6.97023996 6.1276685 8.34619141 7.29321289 C38.91518579 34.4015664 59.12366506 71.89158637 67.22119141 111.79321289 C67.40810547 112.70377441 67.59501953 113.61433594 67.78759766 114.55249023 C69.64706298 124.88082396 69.61851871 135.20888781 69.59619141 145.66821289 C69.59537567 147.10151947 69.59537567 147.10151947 69.59454346 148.56378174 C69.55676823 162.9893857 68.88404481 176.77276058 65.22119141 190.79321289 C64.99093262 191.7066748 64.76067383 192.62013672 64.5234375 193.5612793 C55.05877413 230.55027556 34.06484688 266.44441966 4.22119141 290.79321289 C3.17925836 291.6822237 2.13761831 292.57157796 1.09619141 293.46118164 C-13.6001364 305.816033 -30.15269104 315.26696883 -47.77880859 322.79321289 C-48.39546387 323.06327148 -49.01211914 323.33333008 -49.64746094 323.61157227 C-67.50512903 331.32814263 -87.71425348 335.85317572 -107.15771484 336.03149414 C-108.03898041 336.04128799 -108.92024597 336.05108185 -109.82821655 336.06117249 C-146.56335237 336.38559936 -146.56335237 336.38559936 -163.77880859 331.79321289 C-164.65456543 331.5629541 -165.53032227 331.33269531 -166.43261719 331.09545898 C-172.28187392 329.519236 -178.0411294 327.73422682 -183.77880859 325.79321289 C-185.52871094 325.20926758 -185.52871094 325.20926758 -187.31396484 324.61352539 C-212.45734423 315.57811025 -234.72283884 299.21574321 -253.77880859 280.79321289 C-254.50326172 280.12032227 -255.22771484 279.44743164 -255.97412109 278.75415039 C-271.19383366 264.27385706 -282.57929029 245.50534622 -291.77880859 226.79321289 C-292.32279297 225.68977539 -292.86677734 224.58633789 -293.42724609 223.44946289 C-300.69093642 207.61538662 -305.30503741 190.0144661 -307.77880859 172.79321289 C-307.87162109 172.15907471 -307.96443359 171.52493652 -308.06005859 170.87158203 C-310.61493965 151.23321503 -309.49879386 130.19112966 -305.77880859 110.79321289 C-305.56200439 109.66254395 -305.56200439 109.66254395 -305.34082031 108.5090332 C-299.3645369 78.58128835 -286.17998745 51.32153857 -266.77880859 27.79321289 C-266.31361816 27.22119141 -265.84842773 26.64916992 -265.36914062 26.05981445 C-236.72934677 -9.01986622 -196.11152161 -31.85424698 -151.77880859 -40.20678711 C-150.21453125 -40.5180957 -150.21453125 -40.5180957 -148.61865234 -40.83569336 C-97.53385663 -49.37970013 -39.12936733 -34.28472182 0 0 Z " fill="#F7F7F7" transform="translate(564.77880859375,298.206787109375)"/>
<path d="M0 0 C0.99 0 1.98 0 3 0 C2.82597656 1.06347656 2.82597656 1.06347656 2.6484375 2.1484375 C1.75602283 12.67893057 5.28280445 20.6283585 9.2121582 30.23413086 C14.26422063 42.74645061 15.83765333 54.60933866 17 68 C17.14248169 66.88310791 17.14248169 66.88310791 17.2878418 65.74365234 C21.92510797 30.14816231 21.92510797 30.14816231 32 19 C33.39539424 23.18618271 32.96976726 27.09944808 32.83984375 31.48046875 C33.16784153 38.68841993 35.45994177 44.4418352 38.8125 50.75 C47.44437906 67.53812397 53.7902678 84.02035049 48.3125 102.9375 C46.02006751 109.50478881 42.84351058 115.23473412 39 121 C40.21042969 120.56171875 41.42085938 120.1234375 42.66796875 119.671875 C48.77193802 117.64000742 55.00121204 116.44910924 61.3125 115.25 C63.06143555 114.90001953 63.06143555 114.90001953 64.84570312 114.54296875 C66.5250293 114.22005859 66.5250293 114.22005859 68.23828125 113.890625 C69.24930908 113.69500977 70.26033691 113.49939453 71.30200195 113.29785156 C73.89903301 113.01114648 75.54909007 113.1695294 78 114 C74.86059601 122.28976261 71.17597038 129.78434638 66 137 C65.36470367 138.02405441 64.72940735 139.04810883 64.07485962 140.10319519 C61.63665135 142.97751233 59.78822414 143.49157454 56.06893921 143.82246399 C54.03284437 143.88547305 51.99556196 143.91531882 49.95849609 143.91918945 C48.844021 143.94416 47.7295459 143.96913055 46.58129883 143.99485779 C42.89502546 144.06716995 39.21034501 144.09347436 35.5234375 144.11328125 C32.95618212 144.14018546 30.38893155 144.16755109 27.82168579 144.19535828 C22.43647675 144.24484302 17.0519071 144.26802827 11.66650391 144.27661133 C5.46340995 144.28749682 -0.73521138 144.37700736 -6.93693984 144.50282508 C-12.92432921 144.61998638 -18.909266 144.65339872 -24.89793015 144.65678978 C-27.43455589 144.66937241 -29.97118815 144.70658364 -32.50706863 144.76934242 C-51.76059859 145.20779462 -51.76059859 145.20779462 -57.13256073 141.54656601 C-61.15436679 137.62284643 -63.67910739 133.06394926 -66 128 C-66.57714752 126.87100784 -67.15429504 125.74201569 -67.74893188 124.57881165 C-69.62887082 120.79956779 -71.07208548 117.11880426 -72 113 C-62.56408337 114.61073153 -53.18946049 116.31542228 -43.85546875 118.44921875 C-40.83008319 119.12626359 -40.83008319 119.12626359 -37 119 C-37.39832031 118.38253906 -37.79664063 117.76507813 -38.20703125 117.12890625 C-46.2423232 104.28416949 -48.74166063 91.5415492 -45.64868164 76.66918945 C-44.61449525 72.4137285 -43.14111848 68.35370307 -41.625 64.25 C-34.77941358 46.1076147 -34.77941358 46.1076147 -35 27 C-31.31492091 27.84230379 -29.50175499 29.26740336 -27.4375 32.3125 C-22.57766324 40.75972414 -20.43633018 50.33528661 -20 60 C-19.20558928 58.12616097 -18.41460026 56.25087114 -17.625 54.375 C-17.18414062 53.33085937 -16.74328125 52.28671875 -16.2890625 51.2109375 C-15.86367188 50.15132813 -15.43828125 49.09171875 -15 48 C-14.63519531 47.10023438 -14.27039063 46.20046875 -13.89453125 45.2734375 C-12.3872037 39.75754016 -12.24812689 34.09497627 -11.87695312 28.40625 C-11.26113661 20.37289587 -10.2456571 11.9078009 -4.9375 5.5 C-4.43089844 4.8709375 -3.92429687 4.241875 -3.40234375 3.59375 C-2.31263238 2.35530365 -1.16645193 1.16645193 0 0 Z " fill="#E6532D" transform="translate(443,330)"/>
<path d="M0 0 C1.41154022 1.25940501 2.81660672 2.52605519 4.22119141 3.79321289 C5.59534582 4.96087541 6.97023996 6.1276685 8.34619141 7.29321289 C38.91518579 34.4015664 59.12366506 71.89158637 67.22119141 111.79321289 C67.40810547 112.70377441 67.59501953 113.61433594 67.78759766 114.55249023 C69.64706298 124.88082396 69.61851871 135.20888781 69.59619141 145.66821289 C69.59537567 147.10151947 69.59537567 147.10151947 69.59454346 148.56378174 C69.55676823 162.9893857 68.88404481 176.77276058 65.22119141 190.79321289 C64.99093262 191.7066748 64.76067383 192.62013672 64.5234375 193.5612793 C55.05877413 230.55027556 34.06484688 266.44441966 4.22119141 290.79321289 C3.17925836 291.6822237 2.13761831 292.57157796 1.09619141 293.46118164 C-13.6001364 305.816033 -30.15269104 315.26696883 -47.77880859 322.79321289 C-48.39546387 323.06327148 -49.01211914 323.33333008 -49.64746094 323.61157227 C-67.50512903 331.32814263 -87.71425348 335.85317572 -107.15771484 336.03149414 C-108.03898041 336.04128799 -108.92024597 336.05108185 -109.82821655 336.06117249 C-146.56335237 336.38559936 -146.56335237 336.38559936 -163.77880859 331.79321289 C-164.65456543 331.5629541 -165.53032227 331.33269531 -166.43261719 331.09545898 C-172.28187392 329.519236 -178.0411294 327.73422682 -183.77880859 325.79321289 C-185.52871094 325.20926758 -185.52871094 325.20926758 -187.31396484 324.61352539 C-212.45734423 315.57811025 -234.72283884 299.21574321 -253.77880859 280.79321289 C-254.50326172 280.12032227 -255.22771484 279.44743164 -255.97412109 278.75415039 C-271.19383366 264.27385706 -282.57929029 245.50534622 -291.77880859 226.79321289 C-292.32279297 225.68977539 -292.86677734 224.58633789 -293.42724609 223.44946289 C-300.69093642 207.61538662 -305.30503741 190.0144661 -307.77880859 172.79321289 C-307.87162109 172.15907471 -307.96443359 171.52493652 -308.06005859 170.87158203 C-310.61493965 151.23321503 -309.49879386 130.19112966 -305.77880859 110.79321289 C-305.56200439 109.66254395 -305.56200439 109.66254395 -305.34082031 108.5090332 C-299.3645369 78.58128835 -286.17998745 51.32153857 -266.77880859 27.79321289 C-266.31361816 27.22119141 -265.84842773 26.64916992 -265.36914062 26.05981445 C-236.72934677 -9.01986622 -196.11152161 -31.85424698 -151.77880859 -40.20678711 C-150.21453125 -40.5180957 -150.21453125 -40.5180957 -148.61865234 -40.83569336 C-97.53385663 -49.37970013 -39.12936733 -34.28472182 0 0 Z M-170.77880859 -27.20678711 C-171.49101562 -26.99683105 -172.20322266 -26.786875 -172.93701172 -26.57055664 C-200.32789237 -18.32094101 -224.06789737 -3.888391 -244.77880859 15.79321289 C-245.28412109 16.27129395 -245.78943359 16.749375 -246.31005859 17.24194336 C-271.83772744 41.54999101 -289.30856937 73.36062186 -296.77880859 107.79321289 C-297.21 109.69393555 -297.21 109.69393555 -297.64990234 111.63305664 C-299.45973134 120.024082 -300.52822897 128.21903195 -300.77880859 136.79321289 C-300.81135742 137.73712891 -300.84390625 138.68104492 -300.87744141 139.65356445 C-302.42443085 190.51670212 -284.50263865 236.73645675 -249.68505859 273.78540039 C-225.18312601 299.3905786 -192.59623124 317.80938129 -157.77880859 324.79321289 C-157.1624353 324.91742615 -156.54606201 325.0416394 -155.91101074 325.1696167 C-144.38600751 327.43765867 -133.2610315 328.29051454 -121.52880859 328.16821289 C-120.72653839 328.16356018 -119.92426819 328.15890747 -119.09768677 328.15411377 C-98.66897842 328.01580983 -80.15185214 325.40758679 -60.77880859 318.79321289 C-60.09157715 318.56794922 -59.4043457 318.34268555 -58.69628906 318.1105957 C-40.97488659 312.2747019 -24.47549285 303.24075872 -9.77880859 291.79321289 C-8.89966797 291.13579102 -8.02052734 290.47836914 -7.11474609 289.80102539 C27.60238202 262.84543045 50.61852837 223.72092944 59.22119141 180.79321289 C59.39851807 179.9144751 59.57584473 179.0357373 59.75854492 178.13037109 C61.56724234 167.98269492 61.66223672 157.88152592 61.65869141 147.60571289 C61.65942657 146.67868561 61.66016174 145.75165833 61.66091919 144.79653931 C61.62870039 129.29328846 60.43525589 114.79349483 56.22119141 99.79321289 C55.83568115 98.40634277 55.83568115 98.40634277 55.44238281 96.99145508 C42.40517027 51.61331198 11.24062891 12.40130704 -29.71630859 -10.95678711 C-46.56926308 -20.27938699 -64.13757281 -26.94398701 -82.96630859 -30.95678711 C-84.44478271 -31.27329224 -84.44478271 -31.27329224 -85.953125 -31.59619141 C-113.82981028 -37.25465234 -143.5772753 -35.23639424 -170.77880859 -27.20678711 Z " fill="#C7C7C7" transform="translate(564.77880859375,298.206787109375)"/>
<path d="M0 0 C37.62 0 75.24 0 114 0 C114 6.93 114 13.86 114 21 C76.38 21 38.76 21 0 21 C0 14.07 0 7.14 0 0 Z " fill="#E6552F" transform="translate(389,484)"/>
<path d="M0 0 C23.1 0 46.2 0 70 0 C68.74616155 8.77686917 66.72837307 14.09216023 60 20 C58.88625 21.0209375 58.88625 21.0209375 57.75 22.0625 C48.62262648 28.49314953 38.98423693 29.91430935 28 29 C17.84367209 26.51562575 10.07288597 21.46930402 3.8125 13.0625 C1.17022279 8.59796265 0 5.19748873 0 0 Z " fill="#E65530" transform="translate(411,514)"/>
</svg>
