<?xml version="1.0" encoding="UTF-8"?>
<svg version="1.1" xmlns="http://www.w3.org/2000/svg" width="891" height="891">
<path d="M0 0 C294.03 0 588.06 0 891 0 C891 294.03 891 588.06 891 891 C596.97 891 302.94 891 0 891 C0 596.97 0 302.94 0 0 Z " fill="#FEFEFE" transform="translate(0,0)"/>
<path d="M0 0 C1.41154022 1.25940501 2.81660672 2.52605519 4.22119141 3.79321289 C5.59534582 4.96087541 6.97023996 6.1276685 8.34619141 7.29321289 C38.91518579 34.4015664 59.12366506 71.89158637 67.22119141 111.79321289 C67.40810547 112.70377441 67.59501953 113.61433594 67.78759766 114.55249023 C69.64706298 124.88082396 69.61851871 135.20888781 69.59619141 145.66821289 C69.59537567 147.10151947 69.59537567 147.10151947 69.59454346 148.56378174 C69.55676823 162.9893857 68.88404481 176.77276058 65.22119141 190.79321289 C64.99093262 191.7066748 64.76067383 192.62013672 64.5234375 193.5612793 C55.05877413 230.55027556 34.06484688 266.44441966 4.22119141 290.79321289 C3.17925836 291.6822237 2.13761831 292.57157796 1.09619141 293.46118164 C-13.6001364 305.816033 -30.15269104 315.26696883 -47.77880859 322.79321289 C-48.39546387 323.06327148 -49.01211914 323.33333008 -49.64746094 323.61157227 C-67.50512903 331.32814263 -87.71425348 335.85317572 -107.15771484 336.03149414 C-108.03898041 336.04128799 -108.92024597 336.05108185 -109.82821655 336.06117249 C-146.56335237 336.38559936 -146.56335237 336.38559936 -163.77880859 331.79321289 C-164.65456543 331.5629541 -165.53032227 331.33269531 -166.43261719 331.09545898 C-172.28187392 329.519236 -178.0411294 327.73422682 -183.77880859 325.79321289 C-185.52871094 325.20926758 -185.52871094 325.20926758 -187.31396484 324.61352539 C-212.45734423 315.57811025 -234.72283884 299.21574321 -253.77880859 280.79321289 C-254.50326172 280.12032227 -255.22771484 279.44743164 -255.97412109 278.75415039 C-271.19383366 264.27385706 -282.57929029 245.50534622 -291.77880859 226.79321289 C-292.32279297 225.68977539 -292.86677734 224.58633789 -293.42724609 223.44946289 C-300.69093642 207.61538662 -305.30503741 190.0144661 -307.77880859 172.79321289 C-307.87162109 172.15907471 -307.96443359 171.52493652 -308.06005859 170.87158203 C-310.61493965 151.23321503 -309.49879386 130.19112966 -305.77880859 110.79321289 C-305.56200439 109.66254395 -305.56200439 109.66254395 -305.34082031 108.5090332 C-299.3645369 78.58128835 -286.17998745 51.32153857 -266.77880859 27.79321289 C-266.31361816 27.22119141 -265.84842773 26.64916992 -265.36914062 26.05981445 C-236.72934677 -9.01986622 -196.11152161 -31.85424698 -151.77880859 -40.20678711 C-150.21453125 -40.5180957 -150.21453125 -40.5180957 -148.61865234 -40.83569336 C-97.53385663 -49.37970013 -39.12936733 -34.28472182 0 0 Z " fill="#F6F7F6" transform="translate(564.77880859375,298.206787109375)"/>
<path d="M0 0 C1.41154022 1.25940501 2.81660672 2.52605519 4.22119141 3.79321289 C5.59534582 4.96087541 6.97023996 6.1276685 8.34619141 7.29321289 C38.91518579 34.4015664 59.12366506 71.89158637 67.22119141 111.79321289 C67.40810547 112.70377441 67.59501953 113.61433594 67.78759766 114.55249023 C69.64706298 124.88082396 69.61851871 135.20888781 69.59619141 145.66821289 C69.59537567 147.10151947 69.59537567 147.10151947 69.59454346 148.56378174 C69.55676823 162.9893857 68.88404481 176.77276058 65.22119141 190.79321289 C64.99093262 191.7066748 64.76067383 192.62013672 64.5234375 193.5612793 C55.05877413 230.55027556 34.06484688 266.44441966 4.22119141 290.79321289 C3.17925836 291.6822237 2.13761831 292.57157796 1.09619141 293.46118164 C-13.6001364 305.816033 -30.15269104 315.26696883 -47.77880859 322.79321289 C-48.39546387 323.06327148 -49.01211914 323.33333008 -49.64746094 323.61157227 C-67.50512903 331.32814263 -87.71425348 335.85317572 -107.15771484 336.03149414 C-108.03898041 336.04128799 -108.92024597 336.05108185 -109.82821655 336.06117249 C-146.56335237 336.38559936 -146.56335237 336.38559936 -163.77880859 331.79321289 C-164.65456543 331.5629541 -165.53032227 331.33269531 -166.43261719 331.09545898 C-172.28187392 329.519236 -178.0411294 327.73422682 -183.77880859 325.79321289 C-185.52871094 325.20926758 -185.52871094 325.20926758 -187.31396484 324.61352539 C-212.45734423 315.57811025 -234.72283884 299.21574321 -253.77880859 280.79321289 C-254.50326172 280.12032227 -255.22771484 279.44743164 -255.97412109 278.75415039 C-271.19383366 264.27385706 -282.57929029 245.50534622 -291.77880859 226.79321289 C-292.32279297 225.68977539 -292.86677734 224.58633789 -293.42724609 223.44946289 C-300.69093642 207.61538662 -305.30503741 190.0144661 -307.77880859 172.79321289 C-307.87162109 172.15907471 -307.96443359 171.52493652 -308.06005859 170.87158203 C-310.61493965 151.23321503 -309.49879386 130.19112966 -305.77880859 110.79321289 C-305.56200439 109.66254395 -305.56200439 109.66254395 -305.34082031 108.5090332 C-299.3645369 78.58128835 -286.17998745 51.32153857 -266.77880859 27.79321289 C-266.31361816 27.22119141 -265.84842773 26.64916992 -265.36914062 26.05981445 C-236.72934677 -9.01986622 -196.11152161 -31.85424698 -151.77880859 -40.20678711 C-150.21453125 -40.5180957 -150.21453125 -40.5180957 -148.61865234 -40.83569336 C-97.53385663 -49.37970013 -39.12936733 -34.28472182 0 0 Z M-170.77880859 -27.20678711 C-171.49101562 -26.99683105 -172.20322266 -26.786875 -172.93701172 -26.57055664 C-198.83401693 -18.77086806 -224.96390832 -5.04265096 -243.77880859 14.79321289 C-243.77880859 15.45321289 -243.77880859 16.11321289 -243.77880859 16.79321289 C-243.16005859 17.06133789 -242.54130859 17.32946289 -241.90380859 17.60571289 C-239.77880859 18.79321289 -239.77880859 18.79321289 -237.77880859 21.79321289 C-237.45153587 27.13866744 -237.45153587 27.13866744 -238.77880859 29.79321289 C-244.04040319 30.43487077 -246.46473709 28.9989829 -250.45849609 25.88696289 C-250.89419922 25.52602539 -251.32990234 25.16508789 -251.77880859 24.79321289 C-267.15881957 30.92419676 -278.26741354 57.65595842 -284.77880859 71.79321289 C-285.32279297 72.9649707 -285.86677734 74.13672852 -286.42724609 75.34399414 C-295.03667333 94.63872573 -300.28741528 115.62118093 -300.77880859 136.79321289 C-300.80990723 137.72842773 -300.84100586 138.66364258 -300.87304688 139.62719727 C-302.42676662 190.50175934 -284.51174098 236.72677108 -249.68505859 273.78540039 C-225.18312601 299.3905786 -192.59623124 317.80938129 -157.77880859 324.79321289 C-157.1624353 324.91742615 -156.54606201 325.0416394 -155.91101074 325.1696167 C-144.38600751 327.43765867 -133.2610315 328.29051454 -121.52880859 328.16821289 C-120.72653839 328.16356018 -119.92426819 328.15890747 -119.09768677 328.15411377 C-98.66897842 328.01580983 -80.15185214 325.40758679 -60.77880859 318.79321289 C-60.09157715 318.56794922 -59.4043457 318.34268555 -58.69628906 318.1105957 C-40.97488659 312.2747019 -24.47549285 303.24075872 -9.77880859 291.79321289 C-8.89966797 291.13579102 -8.02052734 290.47836914 -7.11474609 289.80102539 C27.60238202 262.84543045 50.61852837 223.72092944 59.22119141 180.79321289 C59.39851807 179.9144751 59.57584473 179.0357373 59.75854492 178.13037109 C61.56724234 167.98269492 61.66223672 157.88152592 61.65869141 147.60571289 C61.65942657 146.67868561 61.66016174 145.75165833 61.66091919 144.79653931 C61.62870039 129.29328846 60.43525589 114.79349483 56.22119141 99.79321289 C55.83568115 98.40634277 55.83568115 98.40634277 55.44238281 96.99145508 C42.40517027 51.61331198 11.24062891 12.40130704 -29.71630859 -10.95678711 C-46.56926308 -20.27938699 -64.13757281 -26.94398701 -82.96630859 -30.95678711 C-84.44478271 -31.27329224 -84.44478271 -31.27329224 -85.953125 -31.59619141 C-113.82981028 -37.25465234 -143.5772753 -35.23639424 -170.77880859 -27.20678711 Z " fill="#C7C7C7" transform="translate(564.77880859375,298.206787109375)"/>
<path d="M0 0 C3.6875 0.4375 3.6875 0.4375 6.4375 2.5625 C8.6875 5.4375 8.6875 5.4375 10.0703125 8.3046875 C14.71136454 17.29532454 22.73430264 23.96090132 31.6875 28.4375 C35.73892119 28.69610135 37.23087669 28.74191554 40.6875 26.4375 C41.6775 26.4375 42.6675 26.4375 43.6875 26.4375 C44.08839844 27.23671875 44.48929687 28.0359375 44.90234375 28.859375 C49.12409064 37.01567511 53.88177938 44.28070106 59.6875 51.4375 C60.42097656 52.34886719 61.15445313 53.26023437 61.91015625 54.19921875 C69.34926861 62.97658413 78.62365269 69.31319428 90.23828125 70.75390625 C102.58139684 71.3076495 112.62730988 66.39924099 122.68798828 59.79150391 C127.17235605 56.93800913 130.2058056 55.68072346 135.6875 56.4375 C137.98046875 57.49609375 137.98046875 57.49609375 139.875 58.875 C144.85525586 62.43522364 149.59767945 63.11527073 155.6875 62.4375 C163.84044045 60.60374802 171.51923531 56.87080727 179.125 53.5 C180.08486816 53.08121582 181.04473633 52.66243164 182.03369141 52.23095703 C187.15168868 49.91016186 190.98909056 47.80134296 194.6875 43.4375 C195.30753906 42.756875 195.92757812 42.07625 196.56640625 41.375 C197.12199219 40.735625 197.67757812 40.09625 198.25 39.4375 C198.848125 38.756875 199.44625 38.07625 200.0625 37.375 C201.83864734 35.31989971 201.83864734 35.31989971 203.75 32.4375 C205.6875 30.4375 205.6875 30.4375 208.75 29.875 C211.6875 30.4375 211.6875 30.4375 213.625 32.125 C214.99866244 35.1147359 214.80931262 36.36450046 213.6875 39.4375 C211.24609375 40.7734375 211.24609375 40.7734375 208.125 41.8125 C200.09688231 44.90170443 194.81938352 48.55259423 190.9375 56.375 C188.73860228 61.68471289 187.3658674 67.16180129 186.20605469 72.77905273 C184.68010578 79.75270875 181.58710529 84.43542857 175.6875 88.4375 C148.56649294 102.06614676 109.98064266 102.80158425 81.35302734 93.60009766 C66.50545584 88.4095433 58.84787064 78.76016688 50.9375 65.75 C45.46852696 56.95256362 39.65001256 49.08261183 32.6875 41.4375 C31.45685384 39.98041495 30.22750332 38.52223368 29 37.0625 C25.53080435 33.13725985 21.68817501 29.80784358 17.6875 26.4375 C16.58479775 25.48569385 15.48333515 24.53245047 14.3828125 23.578125 C13.17209932 22.53099058 11.9611569 21.48412116 10.75 20.4375 C9.84568237 19.65475708 9.84568237 19.65475708 8.9230957 18.85620117 C4.82962877 15.3406224 0.62613492 12.07747835 -3.8359375 9.03515625 C-5.3125 7.4375 -5.3125 7.4375 -5.6640625 4.87109375 C-5.09411759 0.92580843 -3.85722306 0.50944456 0 0 Z " fill="#43BF49" transform="translate(336.3125,332.5625)"/>
<path d="M0 0 C1.45703125 1.609375 1.45703125 1.609375 2.8125 3.75 C3.27269531 4.44609375 3.73289062 5.1421875 4.20703125 5.859375 C5 8 5 8 4.23828125 10.1875 C2.63471408 12.53467718 1.72697738 13.13884925 -1 14 C-3.6912795 14.15467124 -6.29937883 14.09002071 -9 14 C-8.505 14.61875 -8.01 15.2375 -7.5 15.875 C-5.36028674 20.33273597 -5.22951831 24.14003854 -6 29 C-8.03330443 34.42214514 -11.55475112 38.18878881 -16.546875 41.046875 C-20.59267051 42.61880829 -24.74706713 43.02755866 -29.046875 43.4453125 C-32.19498419 44.03662401 -33.72209647 44.77738539 -36 47 C-36 47.66 -36 48.32 -36 49 C-34.74445312 49.01417969 -33.48890625 49.02835938 -32.1953125 49.04296875 C-13.86820536 49.4730107 -13.86820536 49.4730107 -7 55 C-2.98432034 59.33042212 -1.66796087 63.95471973 -1.796875 69.8203125 C-2.33902638 75.63801381 -4.30943003 79.72497684 -8.5 83.8125 C-17.56534846 90.99264941 -29.89984748 91.23304031 -41 90 C-48.60710155 88.23795655 -53.02688716 84.7932819 -57.8125 78.6875 C-59.48437678 74.90377886 -59.2704845 72.12488865 -59 68 C-58.505 67.01 -58.505 67.01 -58 66 C-53.05 66 -48.1 66 -43 66 C-42.54427083 68.31119792 -42.08854167 70.62239583 -41.6328125 72.93359375 C-41.42398438 73.61550781 -41.21515625 74.29742188 -41 75 C-38.0129054 76.4935473 -34.9626552 76.30631228 -31.6875 76.375 C-29.71330078 76.44847656 -29.71330078 76.44847656 -27.69921875 76.5234375 C-23.15654072 75.88065096 -21.74470584 74.6034142 -19 71 C-18.5 67.83333333 -18.5 67.83333333 -20 65 C-26.58315102 61.27219159 -32.94856955 61.56573331 -40.34960938 61.56054688 C-46.70140939 61.42812258 -50.3942247 60.6057753 -55 56 C-55.44171515 52.94585527 -55.47209366 50.05045134 -55 47 C-52.47031526 43.71824682 -50.92268669 42.30756223 -47 41 C-47.55429687 40.56429687 -48.10859375 40.12859375 -48.6796875 39.6796875 C-56.14760263 33.54058289 -56.14760263 33.54058289 -57 28 C-57.4968562 21.737737 -57.83073656 16.26726277 -54 11 C-48.81328652 5.70102 -44.35173627 1.97855827 -36.71484375 1.76953125 C-35.12233634 1.77348943 -33.52982511 1.78808178 -31.9375 1.8125 C-31.13505859 1.81314453 -30.33261719 1.81378906 -29.50585938 1.81445312 C-25.80173285 1.8421188 -22.58936856 2.04546463 -19 3 C-11.73923141 3.62303625 -6.55502444 0 0 0 Z " fill="#44C04A" transform="translate(565,483)"/>
<path d="M0 0 C2.68359375 0.41015625 2.68359375 0.41015625 4.7109375 2.7890625 C5.65646484 4.36494141 5.65646484 4.36494141 6.62109375 5.97265625 C13.67621647 17.31764996 13.67621647 17.31764996 24.68359375 24.41015625 C31.66821904 25.49201397 37.79296342 24.51666012 44.49609375 22.47265625 C52.48436166 20.08622401 60.25391735 19.85998825 68.55981445 19.73852539 C69.55327881 19.72039795 70.54674316 19.70227051 71.5703125 19.68359375 C72.45936279 19.67763184 73.34841309 19.67166992 74.2644043 19.66552734 C76.86164181 19.39136139 78.47304473 18.77804891 80.68359375 17.41015625 C84.21357067 12.45392602 85.92319106 6.17147416 87.68359375 0.41015625 C88.67359375 0.41015625 89.66359375 0.41015625 90.68359375 0.41015625 C90.7815625 0.98121094 90.87953125 1.55226563 90.98046875 2.140625 C92.53690275 10.58025417 94.20929054 19.31209156 98.68359375 26.72265625 C103.50607768 29.43530346 108.28708661 29.10577115 113.68359375 28.41015625 C117.10334294 27.12020832 117.10334294 27.12020832 119.68359375 25.41015625 C121.00359375 25.08015625 122.32359375 24.75015625 123.68359375 24.41015625 C124.67359375 28.04015625 125.66359375 31.67015625 126.68359375 35.41015625 C130.51017761 36.55813141 132.49749488 36.47432827 136.30859375 35.16015625 C147.03526265 29.18945763 155.25532451 19.29548163 161.1796875 8.74609375 C162.68359375 6.41015625 162.68359375 6.41015625 165.68359375 4.41015625 C172.24963149 4.97619399 172.24963149 4.97619399 173.68359375 6.41015625 C174.12109375 9.16015625 174.12109375 9.16015625 173.68359375 12.41015625 C171.69834719 14.44764614 170.00375811 15.828226 167.68359375 17.41015625 C166.88695312 17.96832031 166.0903125 18.52648437 165.26953125 19.1015625 C163.53464547 20.31493428 161.79895775 21.52716019 160.0625 22.73828125 C154.86349464 26.39209782 151.28442977 29.84803213 147.37109375 34.84765625 C143.3298778 39.89408222 139.34786616 43.33288118 133.68359375 46.41015625 C133.07644531 46.75949219 132.46929688 47.10882813 131.84375 47.46875 C127.35449996 49.75918369 123.41261079 49.79811029 118.68359375 48.41015625 C116.89817659 47.63022516 115.12799089 46.81486726 113.37109375 45.97265625 C107.85872329 43.33829136 102.74110227 42.06953671 96.68359375 41.41015625 C95.82636719 41.30316406 94.96914063 41.19617188 94.0859375 41.0859375 C87.83737498 40.65133887 84.78640843 42.33994649 79.82421875 45.9921875 C76.47114639 48.213292 73.67349815 48.87025333 69.68359375 48.41015625 C66.80888475 47.5448314 64.05240755 46.5079445 61.26171875 45.40234375 C57.99193375 44.14397195 55.18672588 43.64765673 51.68359375 43.41015625 C50.65492188 43.33539063 49.62625 43.260625 48.56640625 43.18359375 C39.20186175 42.7942582 31.09472343 44.33510797 23.46875 50.078125 C21.68359375 51.41015625 21.68359375 51.41015625 19.74609375 51.41015625 C14.72972946 48.97797962 11.32485769 44.18474876 8.68359375 39.41015625 C9.03515625 37.4921875 9.03515625 37.4921875 9.68359375 35.41015625 C10.75890942 30.11323092 11.18677485 25.39438376 9.04296875 20.328125 C6.68747576 17.00471392 3.38653063 15.07085585 -0.0390625 12.953125 C-2.31640625 11.41015625 -2.31640625 11.41015625 -4.31640625 8.41015625 C-3.6470626 0.64576994 -3.6470626 0.64576994 0 0 Z " fill="#45C04B" transform="translate(383.31640625,332.58984375)"/>
<path d="M0 0 C6.45119206 1.81439777 12.52544753 7.33542658 16 13 C16.98270654 18.27385843 16.74017424 23.50188223 14.125 28.25 C3.2681152 42.92469044 -18.99263672 47.95720337 -36 51 C-37.05445313 51.20109375 -38.10890625 51.4021875 -39.1953125 51.609375 C-42.1237701 52.1360186 -45.05501736 52.57604363 -48 53 C-49.10601562 53.185625 -50.21203125 53.37125 -51.3515625 53.5625 C-88.47750513 59.00663008 -137.97364968 57.41527486 -169.56640625 34.953125 C-174.73149537 30.80778862 -178.61291386 26.4192609 -179.375 19.6875 C-178.61433363 12.20761406 -174.26184649 7.90308423 -169 3 C-168.34 3.33 -167.68 3.66 -167 4 C-167.06960938 4.97839844 -167.06960938 4.97839844 -167.140625 5.9765625 C-167.386302 11.92545565 -167.17509215 15.41758179 -163 20 C-147.29385802 35.70614198 -118.48013578 40.2575183 -97.296875 40.37109375 C-96.2165802 40.38012222 -95.1362854 40.3891507 -94.02325439 40.39845276 C-91.747627 40.41286259 -89.47195904 40.42181869 -87.19628906 40.42553711 C-83.79937325 40.43732861 -80.404341 40.48652173 -77.0078125 40.53710938 C-52.34227636 40.71822736 -23.72503107 36.92838556 -3.5 21.5 C0.54294375 17.45705625 2.15426415 14.05287465 2.3125 8.375 C2.29495942 5.04228951 1.64651407 2.89943912 0 0 Z " fill="#46C04B" transform="translate(540,401)"/>
<path d="M0 0 C7.89900152 4.11180901 12.66349278 10.53295162 15.3984375 18.91015625 C17.94865352 30.70132356 16.51118925 42.85404991 10.80859375 53.53125 C7.35896123 58.68167628 3.05809735 62.30279487 -2.90625 64.125 C-13.33582717 65.28013954 -20.68405193 64.51347266 -29.03125 58.1875 C-35.219789 52.36015977 -37.79704585 45.63353894 -38.3125 37.21875 C-38.36205441 35.45875348 -38.39325031 33.69814602 -38.40625 31.9375 C-38.41269531 31.10645752 -38.41914063 30.27541504 -38.42578125 29.41918945 C-38.24052387 20.43687829 -35.8275803 11.91984751 -29.234375 5.49609375 C-20.97441055 -1.82844737 -10.63545661 -3.20207296 0 0 Z " fill="#44C04A" transform="translate(488.90625,485.875)"/>
<path d="M0 0 C5.08971452 0 8.01766374 0.16936773 12.66015625 1.42578125 C22.60262353 3.86575235 32.81533923 4.46470663 43 5 C42.67 7.64 42.34 10.28 42 13 C33.42 13 24.84 13 16 13 C16 19.6 16 26.2 16 33 C22.93 33 29.86 33 37 33 C37 37.62 37 42.24 37 47 C30.07 47 23.14 47 16 47 C16 59.54 16 72.08 16 85 C10.72 85 5.44 85 0 85 C0 56.95 0 28.9 0 0 Z " fill="#41BF47" transform="translate(375,464)"/>
<path d="M0 0 C5.61 0 11.22 0 17 0 C17.06796393 10.38837356 17.12292432 20.77659777 17.15543652 31.16514397 C17.17104617 35.98973777 17.19219796 40.81417066 17.22631836 45.63867188 C17.25908023 50.30062553 17.27688831 54.96242506 17.28463173 59.62448502 C17.29014517 61.39695789 17.30091111 63.16942299 17.31719017 64.94182968 C17.51914 87.8551 17.51914 87.8551 10 97 C5.76157413 101.29288102 2.03642242 104.64180495 -4 106 C-6.31 103.36 -8.62 100.72 -11 98 C-9.56770833 96.4375 -8.13541667 94.875 -6.703125 93.3125 C-2.24446495 87.25853957 -0.40370624 81.95976727 -0.45410156 74.47265625 C-0.44376389 73.66194168 -0.43342621 72.85122711 -0.42277527 72.01594543 C-0.3935277 69.36458986 -0.39185197 66.71400365 -0.390625 64.0625 C-0.37563111 62.21303874 -0.35890144 60.3635908 -0.34051514 58.51416016 C-0.29696501 53.66777912 -0.27686995 48.82157869 -0.26177979 43.97503662 C-0.2421641 39.02101009 -0.20019916 34.06717733 -0.16015625 29.11328125 C-0.08498762 19.40888131 -0.03668327 9.70462181 0 0 Z " fill="#45C04B" transform="translate(349,463)"/>
<path d="M0 0 C1.1875 3.5625 1.1875 3.5625 2 7 C2.55429687 6.50628906 3.10859375 6.01257813 3.6796875 5.50390625 C4.40414063 4.86324219 5.12859375 4.22257812 5.875 3.5625 C6.59429687 2.92441406 7.31359375 2.28632813 8.0546875 1.62890625 C11.6758513 -1.40327307 14.34205284 -1.16635526 19 -1 C19.66 -0.67 20.32 -0.34 21 0 C19.07289294 10.55808656 19.07289294 10.55808656 17 15 C14.11914062 14.8046875 14.11914062 14.8046875 11.23828125 14.609375 C7.75113698 15.21795166 6.40529399 16.38368103 4 19 C3.22874272 22.40003544 3.27878783 25.75941491 3.29296875 29.234375 C3.27784744 30.22753723 3.26272614 31.22069946 3.24714661 32.24395752 C3.20419423 35.41286794 3.19542413 38.5808272 3.1875 41.75 C3.16436163 43.899765 3.13899768 46.04950729 3.11132812 48.19921875 C3.0484009 53.4662302 3.01612455 58.7326457 3 64 C-2.28 64 -7.56 64 -13 64 C-13.02505615 62.47189697 -13.0501123 60.94379395 -13.07592773 59.36938477 C-13.17046628 53.67204139 -13.27057165 47.97480679 -13.37231445 42.27758789 C-13.4154883 39.81700189 -13.45717489 37.35638932 -13.49731445 34.89575195 C-13.55544442 31.34838875 -13.61901349 27.80115719 -13.68359375 24.25390625 C-13.70030624 23.1629213 -13.71701874 22.07193634 -13.73423767 20.94789124 C-13.85018359 14.89982323 -14.22829244 9.00064417 -15 3 C-4.44 -1.48 -4.44 -1.48 0 0 Z " fill="#43BF49" transform="translate(432,485)"/>
<path d="M0 0 C5.40197771 4.14252785 10.15678039 8.18408595 11.37890625 15.1640625 C11.79908022 23.05248988 8.43069749 28.66532028 3.42114258 34.54370117 C-7.63170202 45.86997123 -28.34469719 50.47666076 -43.49072266 51.15673828 C-47.0793883 51.19532608 -50.66152664 51.17565163 -54.25 51.125 C-55.48363281 51.11597656 -56.71726562 51.10695313 -57.98828125 51.09765625 C-60.99240024 51.07436851 -63.99608943 51.04166756 -67 51 C-64.35058626 49.58707797 -61.89957341 48.61263172 -58.98046875 47.921875 C-58.21283203 47.73375244 -57.44519531 47.54562988 -56.65429688 47.35180664 C-55.84025391 47.15321045 -55.02621094 46.95461426 -54.1875 46.75 C-36.38306896 42.21898313 -14.50830376 35.16045757 -4.4375 18.6875 C-1.94578657 14.19112195 -0.8592239 10.43343303 -0.4375 5.3125 C-0.31181641 3.82169922 -0.31181641 3.82169922 -0.18359375 2.30078125 C-0.12300781 1.54152344 -0.06242188 0.78226562 0 0 Z " fill="#46C04C" transform="translate(569,413)"/>
<path d="M0 0 C1.9375 0.39453125 1.9375 0.39453125 4.375 2.76953125 C7.7577171 8.45249598 7.15935693 13.61533999 7.1875 20.14453125 C7.208125 21.3253125 7.22875 22.50609375 7.25 23.72265625 C7.29898386 34.5970737 7.29898386 34.5970737 3.9375 39.39453125 C1.9375 41.39453125 1.9375 41.39453125 -1.9375 41.76953125 C-4.84558275 41.67470246 -5.91418312 41.48820507 -8.4375 39.89453125 C-12.33956997 33.89134668 -12.40285369 26.83566978 -12.375 19.89453125 C-12.39111328 19.09144531 -12.40722656 18.28835938 -12.42382812 17.4609375 C-12.42842461 11.78887533 -11.49377236 7.54176829 -9.0625 2.39453125 C-5.84671083 0.2506718 -3.830544 -0.07745585 0 0 Z " fill="#F4F7F5" transform="translate(480.0625,496.60546875)"/>
<path d="M0 0 C-0.6290625 0.40089844 -1.258125 0.80179687 -1.90625 1.21484375 C-9.57202171 6.30611683 -18.13890572 12.88026198 -21 22 C-21.56950627 28.66602422 -21.29027706 34.70173809 -19 41 C-24.60237801 38.25373627 -27.92747161 35.47214766 -31 30 C-32.51957671 25.44126987 -33.1257174 21.34042432 -31.01171875 16.9453125 C-25.4079254 8.83165114 -10.28800772 -3.42933591 0 0 Z " fill="#4CC251" transform="translate(371,390)"/>
<path d="M0 0 C3 1.375 3 1.375 5 4 C5.58011342 7.40816631 5.68016518 10.60484215 5 14 C3.08770952 16.48486583 2.04951938 16.98349354 -1 18 C-7.99117276 18.55485498 -7.99117276 18.55485498 -11.5 16.625 C-13.84441584 12.52227227 -13.86354572 8.60048252 -13 4 C-9.56452824 -0.50905668 -5.31966325 -1.00816199 0 0 Z " fill="#F4F6F4" transform="translate(537,497)"/>
<path d="M0 0 C4.22833644 1.2610828 5.95986047 2.51344609 8.5625 6.0625 C9.14241403 10.20474306 8.90799674 11.54425489 6.5625 15.0625 C2.56277491 15.8066349 0.09116464 15.06869555 -3.25 12.9375 C-5.78094499 10.95211426 -6.41767985 10.11361513 -7.625 7 C-7.4375 4.0625 -7.4375 4.0625 -5.9375 1.625 C-3.4375 0.0625 -3.4375 0.0625 0 0 Z " fill="#47C04D" transform="translate(319.4375,313.9375)"/>
<path d="M0 0 C1.875 1.1875 1.875 1.1875 3 3 C2.91848066 6.1792542 2.21997188 7.70670416 0.3125 10.25 C-2.54183351 12.41003617 -4.43209776 12.92408719 -8 13 C-9.9375 11.9375 -9.9375 11.9375 -11 10 C-11 6.07860203 -10.46224977 4.48793031 -7.75 1.625 C-4.75564827 -0.14438966 -3.4010575 -0.62651059 0 0 Z " fill="#4BC250" transform="translate(570,319)"/>
<path d="M0 0 C6.72 0.72 6.72 0.72 8 2 C8.04063832 3.66617115 8.042721 5.33388095 8 7 C6.3125 8.1875 6.3125 8.1875 4 9 C1.25 7.9375 1.25 7.9375 -1 6 C-1.375 3.375 -1.375 3.375 -1 1 C-0.67 0.67 -0.34 0.34 0 0 Z " fill="#4BC250" transform="translate(371,319)"/>
<path d="M0 0 C4.55555556 0.55555556 4.55555556 0.55555556 6 2 C6.30232139 4.87205324 6.37392386 6.43911421 4.75 8.875 C3 10 3 10 0.8125 9.6875 C0.214375 9.460625 -0.38375 9.23375 -1 9 C-1.625 5.625 -1.625 5.625 -2 2 C-1.34 1.34 -0.68 0.68 0 0 Z " fill="#51C456" transform="translate(471,317)"/>
<path d="M0 0 C2.93453261 0.36681658 3.86437246 0.86437246 6 3 C5.625 5.625 5.625 5.625 5 8 C2.6875 8.625 2.6875 8.625 0 9 C-0.99 8.34 -1.98 7.68 -3 7 C-2.25 2.25 -2.25 2.25 0 0 Z " fill="#4FC355" transform="translate(560,355)"/>
<path d="M0 0 C1.67542976 0.28604898 3.34385343 0.61781233 5 1 C5.38133299 2.9914056 5.71325582 4.99279077 6 7 C5 8 5 8 2.5625 8.1875 C0 8 0 8 -2 6 C-1.44444444 1.44444444 -1.44444444 1.44444444 0 0 Z " fill="#50C355" transform="translate(363,342)"/>
</svg>
