<?xml version="1.0" encoding="UTF-8"?>
<svg version="1.1" xmlns="http://www.w3.org/2000/svg" width="892" height="898">
<path d="M0 0 C294.36 0 588.72 0 892 0 C892 296.34 892 592.68 892 898 C597.64 898 303.28 898 0 898 C0 601.66 0 305.32 0 0 Z " fill="#FEFEFE" transform="translate(0,0)"/>
<path d="M0 0 C1.41154022 1.25940501 2.81660672 2.52605519 4.22119141 3.79321289 C5.59534582 4.96087541 6.97023996 6.1276685 8.34619141 7.29321289 C38.91518579 34.4015664 59.12366506 71.89158637 67.22119141 111.79321289 C67.40810547 112.70377441 67.59501953 113.61433594 67.78759766 114.55249023 C69.64706298 124.88082396 69.61851871 135.20888781 69.59619141 145.66821289 C69.59537567 147.10151947 69.59537567 147.10151947 69.59454346 148.56378174 C69.55676823 162.9893857 68.88404481 176.77276058 65.22119141 190.79321289 C64.99093262 191.7066748 64.76067383 192.62013672 64.5234375 193.5612793 C55.05877413 230.55027556 34.06484688 266.44441966 4.22119141 290.79321289 C3.17925836 291.6822237 2.13761831 292.57157796 1.09619141 293.46118164 C-13.6001364 305.816033 -30.15269104 315.26696883 -47.77880859 322.79321289 C-48.39546387 323.06327148 -49.01211914 323.33333008 -49.64746094 323.61157227 C-67.50512903 331.32814263 -87.71425348 335.85317572 -107.15771484 336.03149414 C-108.03898041 336.04128799 -108.92024597 336.05108185 -109.82821655 336.06117249 C-146.56335237 336.38559936 -146.56335237 336.38559936 -163.77880859 331.79321289 C-164.65456543 331.5629541 -165.53032227 331.33269531 -166.43261719 331.09545898 C-172.28187392 329.519236 -178.0411294 327.73422682 -183.77880859 325.79321289 C-185.52871094 325.20926758 -185.52871094 325.20926758 -187.31396484 324.61352539 C-212.45734423 315.57811025 -234.72283884 299.21574321 -253.77880859 280.79321289 C-254.50326172 280.12032227 -255.22771484 279.44743164 -255.97412109 278.75415039 C-271.19383366 264.27385706 -282.57929029 245.50534622 -291.77880859 226.79321289 C-292.32279297 225.68977539 -292.86677734 224.58633789 -293.42724609 223.44946289 C-300.69093642 207.61538662 -305.30503741 190.0144661 -307.77880859 172.79321289 C-307.87162109 172.15907471 -307.96443359 171.52493652 -308.06005859 170.87158203 C-310.61493965 151.23321503 -309.49879386 130.19112966 -305.77880859 110.79321289 C-305.56200439 109.66254395 -305.56200439 109.66254395 -305.34082031 108.5090332 C-299.3645369 78.58128835 -286.17998745 51.32153857 -266.77880859 27.79321289 C-266.31361816 27.22119141 -265.84842773 26.64916992 -265.36914062 26.05981445 C-236.72934677 -9.01986622 -196.11152161 -31.85424698 -151.77880859 -40.20678711 C-150.21453125 -40.5180957 -150.21453125 -40.5180957 -148.61865234 -40.83569336 C-97.53385663 -49.37970013 -39.12936733 -34.28472182 0 0 Z " fill="#F7F7F7" transform="translate(564.77880859375,298.206787109375)"/>
<path d="M0 0 C1.41154022 1.25940501 2.81660672 2.52605519 4.22119141 3.79321289 C5.59534582 4.96087541 6.97023996 6.1276685 8.34619141 7.29321289 C38.91518579 34.4015664 59.12366506 71.89158637 67.22119141 111.79321289 C67.40810547 112.70377441 67.59501953 113.61433594 67.78759766 114.55249023 C69.64706298 124.88082396 69.61851871 135.20888781 69.59619141 145.66821289 C69.59537567 147.10151947 69.59537567 147.10151947 69.59454346 148.56378174 C69.55676823 162.9893857 68.88404481 176.77276058 65.22119141 190.79321289 C64.99093262 191.7066748 64.76067383 192.62013672 64.5234375 193.5612793 C55.05877413 230.55027556 34.06484688 266.44441966 4.22119141 290.79321289 C3.17925836 291.6822237 2.13761831 292.57157796 1.09619141 293.46118164 C-13.6001364 305.816033 -30.15269104 315.26696883 -47.77880859 322.79321289 C-48.39546387 323.06327148 -49.01211914 323.33333008 -49.64746094 323.61157227 C-67.50512903 331.32814263 -87.71425348 335.85317572 -107.15771484 336.03149414 C-108.03898041 336.04128799 -108.92024597 336.05108185 -109.82821655 336.06117249 C-146.56335237 336.38559936 -146.56335237 336.38559936 -163.77880859 331.79321289 C-164.65456543 331.5629541 -165.53032227 331.33269531 -166.43261719 331.09545898 C-172.28187392 329.519236 -178.0411294 327.73422682 -183.77880859 325.79321289 C-185.52871094 325.20926758 -185.52871094 325.20926758 -187.31396484 324.61352539 C-212.45734423 315.57811025 -234.72283884 299.21574321 -253.77880859 280.79321289 C-254.50326172 280.12032227 -255.22771484 279.44743164 -255.97412109 278.75415039 C-271.19383366 264.27385706 -282.57929029 245.50534622 -291.77880859 226.79321289 C-292.32279297 225.68977539 -292.86677734 224.58633789 -293.42724609 223.44946289 C-300.69093642 207.61538662 -305.30503741 190.0144661 -307.77880859 172.79321289 C-307.87162109 172.15907471 -307.96443359 171.52493652 -308.06005859 170.87158203 C-310.61493965 151.23321503 -309.49879386 130.19112966 -305.77880859 110.79321289 C-305.56200439 109.66254395 -305.56200439 109.66254395 -305.34082031 108.5090332 C-299.3645369 78.58128835 -286.17998745 51.32153857 -266.77880859 27.79321289 C-266.31361816 27.22119141 -265.84842773 26.64916992 -265.36914062 26.05981445 C-236.72934677 -9.01986622 -196.11152161 -31.85424698 -151.77880859 -40.20678711 C-150.21453125 -40.5180957 -150.21453125 -40.5180957 -148.61865234 -40.83569336 C-97.53385663 -49.37970013 -39.12936733 -34.28472182 0 0 Z M-170.77880859 -27.20678711 C-171.49101562 -26.99683105 -172.20322266 -26.786875 -172.93701172 -26.57055664 C-200.32789237 -18.32094101 -224.06789737 -3.888391 -244.77880859 15.79321289 C-245.28412109 16.27129395 -245.78943359 16.749375 -246.31005859 17.24194336 C-271.83772744 41.54999101 -289.30856937 73.36062186 -296.77880859 107.79321289 C-297.21 109.69393555 -297.21 109.69393555 -297.64990234 111.63305664 C-299.45973134 120.024082 -300.52822897 128.21903195 -300.77880859 136.79321289 C-300.81135742 137.73712891 -300.84390625 138.68104492 -300.87744141 139.65356445 C-302.42443085 190.51670212 -284.50263865 236.73645675 -249.68505859 273.78540039 C-225.18312601 299.3905786 -192.59623124 317.80938129 -157.77880859 324.79321289 C-157.1624353 324.91742615 -156.54606201 325.0416394 -155.91101074 325.1696167 C-144.38600751 327.43765867 -133.2610315 328.29051454 -121.52880859 328.16821289 C-120.72653839 328.16356018 -119.92426819 328.15890747 -119.09768677 328.15411377 C-98.66897842 328.01580983 -80.15185214 325.40758679 -60.77880859 318.79321289 C-60.09157715 318.56794922 -59.4043457 318.34268555 -58.69628906 318.1105957 C-40.97488659 312.2747019 -24.47549285 303.24075872 -9.77880859 291.79321289 C-8.89966797 291.13579102 -8.02052734 290.47836914 -7.11474609 289.80102539 C27.60238202 262.84543045 50.61852837 223.72092944 59.22119141 180.79321289 C59.39851807 179.9144751 59.57584473 179.0357373 59.75854492 178.13037109 C61.56724234 167.98269492 61.66223672 157.88152592 61.65869141 147.60571289 C61.65942657 146.67868561 61.66016174 145.75165833 61.66091919 144.79653931 C61.62870039 129.29328846 60.43525589 114.79349483 56.22119141 99.79321289 C55.83568115 98.40634277 55.83568115 98.40634277 55.44238281 96.99145508 C42.40517027 51.61331198 11.24062891 12.40130704 -29.71630859 -10.95678711 C-46.56926308 -20.27938699 -64.13757281 -26.94398701 -82.96630859 -30.95678711 C-84.44478271 -31.27329224 -84.44478271 -31.27329224 -85.953125 -31.59619141 C-113.82981028 -37.25465234 -143.5772753 -35.23639424 -170.77880859 -27.20678711 Z " fill="#C7C7C7" transform="translate(564.77880859375,298.206787109375)"/>
<path d="M0 0 C3.92754776 1.52662539 7.45987598 3.31870205 11.10546875 5.44140625 C11.67074783 5.76914536 12.23602692 6.09688446 12.81843567 6.43455505 C14.60997088 7.4740626 16.3988067 8.51811137 18.1875 9.5625 C19.98745409 10.60948812 21.78794841 11.65553969 23.58869934 12.70115662 C25.21525822 13.64625328 26.84045211 14.59369801 28.46557617 15.54125977 C29.95574971 16.39896007 31.46213993 17.23106996 33 18 C33 41.1 33 64.2 33 88 C28.31983839 86.43994613 24.93842884 84.98794064 20.76171875 82.55859375 C20.19548294 82.23085464 19.62924713 81.90311554 19.04585266 81.56544495 C17.86037498 80.87798401 16.67640359 80.1879195 15.49389648 79.49536133 C13.67817853 78.43204117 11.85811228 77.37650471 10.03710938 76.32226562 C1.17138732 71.17138732 1.17138732 71.17138732 0 70 C-0.09429342 67.82194281 -0.11742538 65.6407872 -0.11352539 63.46069336 C-0.11367142 62.77779739 -0.11381744 62.09490143 -0.1139679 61.39131165 C-0.11326876 59.12412386 -0.1054764 56.85701726 -0.09765625 54.58984375 C-0.09579207 53.02185613 -0.09436817 51.45386793 -0.09336853 49.88587952 C-0.08954334 45.75123497 -0.07971306 41.61662534 -0.06866455 37.48199463 C-0.05845044 33.26599602 -0.05387091 29.04999178 -0.04882812 24.83398438 C-0.03809079 16.55597353 -0.02101436 8.2779911 0 0 Z " fill="#1EAEFE" transform="translate(296,416)"/>
<path d="M0 0 C3.55656384 1.34715912 6.82208066 2.92418579 10.1328125 4.79296875 C11.10476563 5.34146484 12.07671875 5.88996094 13.078125 6.45507812 C14.08359375 7.02677734 15.0890625 7.59847656 16.125 8.1875 C17.10726563 8.73986328 18.08953125 9.29222656 19.1015625 9.86132812 C43.18255528 23.50194311 43.18255528 23.50194311 48 35 C48.42428485 38.0690439 48.42104005 41.10071242 48.3984375 44.1953125 C48.40130768 45.06517792 48.40417786 45.93504333 48.40713501 46.83126831 C48.4091686 48.66177017 48.40368822 50.49229411 48.39111328 52.32275391 C48.37501027 55.12321415 48.39100559 57.92223979 48.41015625 60.72265625 C48.40817445 62.50521151 48.4043321 64.28776588 48.3984375 66.0703125 C48.40754654 67.32353806 48.40754654 67.32353806 48.4168396 68.6020813 C48.37631288 71.94983004 48.23103746 74.4564862 46.91259766 77.55810547 C45 79 45 79 38 79 C33.38 76.36 28.76 73.72 24 71 C24 56.48 24 41.96 24 27 C22.35 26.34 20.7 25.68 19 25 C17.52292522 24.24330186 16.05908223 23.46023665 14.609375 22.65234375 C13.81789063 22.21212891 13.02640625 21.77191406 12.2109375 21.31835938 C11.39882813 20.86267578 10.58671875 20.40699219 9.75 19.9375 C8.92242187 19.47794922 8.09484375 19.01839844 7.2421875 18.54492188 C1.13705937 15.13705937 1.13705937 15.13705937 0 14 C-0.07271741 11.64686445 -0.08370868 9.29166332 -0.0625 6.9375 C-0.05347656 5.64714844 -0.04445313 4.35679687 -0.03515625 3.02734375 C-0.02355469 2.02832031 -0.01195312 1.02929688 0 0 Z " fill="#1F95DD" transform="translate(310,404)"/>
<path d="M0 0 C4.49625 -0.061875 8.9925 -0.12375 13.625 -0.1875 C15.03217285 -0.21481201 16.4393457 -0.24212402 17.88916016 -0.27026367 C19.01112793 -0.27775635 20.1330957 -0.28524902 21.2890625 -0.29296875 C23.00150146 -0.31653442 23.00150146 -0.31653442 24.74853516 -0.34057617 C29.51288926 0.15846828 32.7794346 1.92386818 36.34375 5.06640625 C38.75638009 9.33972039 38.58435142 13.11189567 38.5 17.9375 C38.51546875 18.81857422 38.5309375 19.69964844 38.546875 20.60742188 C38.51332111 26.20672663 37.82340934 29.62744749 34 34 C26.73175474 38.11410109 19.12837268 37.21772427 11 37 C11 42.94 11 48.88 11 55 C7.37 55 3.74 55 0 55 C0 36.85 0 18.7 0 0 Z " fill="#090909" transform="translate(392,427)"/>
<path d="M0 0 C3.34265361 2.59055655 5.34592165 4.89159313 6.5 8.9375 C6.82036016 13.66022875 6.68074788 18.19286813 6.5 22.9375 C-0.76 22.9375 -8.02 22.9375 -15.5 22.9375 C-14.29321679 29.30616419 -14.29321679 29.30616419 -12.5 30.9375 C-9.63732433 31.01075168 -6.799281 31.02988205 -3.9375 31 C-2.72803711 30.99323242 -2.72803711 30.99323242 -1.49414062 30.98632812 C0.50393756 30.97450518 2.50197783 30.95656914 4.5 30.9375 C4.83 33.2475 5.16 35.5575 5.5 37.9375 C-1.98405614 40.33239797 -11.00540634 41.71190089 -18.62890625 39.25 C-22.38424689 36.99114849 -23.95100217 33.90188428 -25.5 29.9375 C-25.95402539 26.26358944 -25.96447548 22.63559375 -25.9375 18.9375 C-25.95748047 17.96554687 -25.97746094 16.99359375 -25.99804688 15.9921875 C-25.99395508 9.9854314 -25.49974966 6.5023519 -21.5 1.9375 C-15.40759706 -2.63180221 -7.01361589 -2.12913339 0 0 Z " fill="#080808" transform="translate(566.5,442.0625)"/>
<path d="M0 0 C0.79470703 -0.02900391 1.58941406 -0.05800781 2.40820312 -0.08789062 C7.83046879 -0.14619456 10.90867398 0.67582551 15.1875 4.3125 C17.61619909 7.95554864 17.44425675 10.61972339 17.3828125 14.82421875 C17.3799826 15.55244339 17.37715271 16.28066803 17.37423706 17.03096008 C17.36305257 19.35414137 17.33795166 21.67693547 17.3125 24 C17.30246794 25.5761663 17.29334248 27.15233865 17.28515625 28.72851562 C17.26311896 32.58999267 17.22860141 36.45118071 17.1875 40.3125 C14.5475 40.3125 11.9075 40.3125 9.1875 40.3125 C9.1875 39.6525 9.1875 38.9925 9.1875 38.3125 C8.23875 38.8075 7.29 39.3025 6.3125 39.8125 C1.68703025 41.76798315 -2.86693148 42.23299499 -7.8125 41.3125 C-10.63674288 39.12227082 -12.22758603 37.48232793 -13.8125 34.3125 C-14.33697771 29.45463271 -14.52114378 25.55262661 -12.0625 21.25 C-8.0694569 17.81154622 -4.20088888 18.19861611 0.9375 18.25 C2.69320313 18.26353516 2.69320313 18.26353516 4.484375 18.27734375 C5.37640625 18.28894531 6.2684375 18.30054688 7.1875 18.3125 C7.06375 17.013125 6.94 15.71375 6.8125 14.375 C6.74289062 13.64410156 6.67328125 12.91320312 6.6015625 12.16015625 C6.46492188 11.55042969 6.32828125 10.94070313 6.1875 10.3125 C3.13740033 8.78745017 -0.03578155 9.25049037 -3.375 9.3125 C-5.86084777 9.3584067 -8.32514949 9.35948655 -10.8125 9.3125 C-11.8125 8.3125 -11.8125 8.3125 -11.875 4.75 C-11.854375 3.615625 -11.83375 2.48125 -11.8125 1.3125 C-7.83227513 -0.01424162 -4.16886239 0.04998636 0 0 Z " fill="#070707" transform="translate(447.8125,440.6875)"/>
<path d="M0 0 C1.30324219 0.02449219 2.60648437 0.04898437 3.94921875 0.07421875 C7.3125 0.3125 7.3125 0.3125 10.3125 1.3125 C9.9825 3.9525 9.6525 6.5925 9.3125 9.3125 C8.31347656 9.37308594 7.31445312 9.43367188 6.28515625 9.49609375 C4.34962891 9.62177734 4.34962891 9.62177734 2.375 9.75 C1.08722656 9.83121094 -0.20054687 9.91242188 -1.52734375 9.99609375 C-4.54773957 9.96169188 -4.54773957 9.96169188 -5.6875 11.3125 C-5.78761296 14.30116642 -5.82623975 17.26160453 -5.8125 20.25 C-5.81636719 21.08724609 -5.82023437 21.92449219 -5.82421875 22.78710938 C-5.82228516 23.98883789 -5.82228516 23.98883789 -5.8203125 25.21484375 C-5.81918457 25.95210693 -5.81805664 26.68937012 -5.81689453 27.44897461 C-5.80091854 29.40581601 -5.80091854 29.40581601 -4.6875 31.3125 C-1.41194392 31.78251033 -1.41194392 31.78251033 2.375 31.9375 C3.66535156 32.01226562 4.95570313 32.08703125 6.28515625 32.1640625 C7.78369141 32.23753906 7.78369141 32.23753906 9.3125 32.3125 C9.6425 34.9525 9.9725 37.5925 10.3125 40.3125 C3.25605606 41.88059865 -4.58197467 42.72905541 -11.25 39.6875 C-15.4392304 35.60568577 -16.85096146 31.86646608 -17.0859375 26.08984375 C-17.09385593 24.14322959 -17.08562665 22.19649288 -17.0625 20.25 C-17.07410156 19.26966797 -17.08570313 18.28933594 -17.09765625 17.27929688 C-17.06017037 8.07651398 -17.06017037 8.07651398 -13.6875 4.3125 C-9.11482489 0.43925283 -5.9251756 -0.17097522 0 0 Z " fill="#0A0A0A" transform="translate(487.6875,440.6875)"/>
<path d="M0 0 C0 18.81 0 37.62 0 57 C-3.3 57 -6.6 57 -10 57 C-10 38.52 -10 20.04 -10 1 C-5 0 -5 0 0 0 Z " fill="#070707" transform="translate(514,424)"/>
<path d="M0 0 C0.49054666 3.12723497 0.69572611 5.89519245 0 9 C-2.34888006 11.34888006 -4.92603256 12.77164755 -8 14 C-8.66 14 -9.32 14 -10 14 C-10 22.91 -10 31.82 -10 41 C-13.3 41 -16.6 41 -20 41 C-20 27.8 -20 14.6 -20 1 C-17.03 1 -14.06 1 -11 1 C-10.67 1.99 -10.34 2.98 -10 4 C-8.906875 3.34 -7.81375 2.68 -6.6875 2 C-4.06292462 0.41535071 -3.1743622 0 0 0 Z " fill="#0B0B0B" transform="translate(599,441)"/>
<path d="M0 0 C3.63 0 7.26 0 11 0 C8.94817214 5.12956966 6.34086734 9.3403363 3.36328125 13.96484375 C1.68353446 17.70456655 1.75987886 19.1136361 3 23 C4.36621927 25.70793397 5.93368386 28.25578247 7.5625 30.8125 C12 37.91654021 12 37.91654021 12 39 C7.92580725 40.27663293 5.03733302 40.49108864 1 39 C-1.52532511 36.36637041 -3.3801832 33.43466917 -5.25 30.3125 C-5.73960205 29.4973291 -6.2292041 28.6821582 -6.73364258 27.84228516 C-10.08179554 21.82448634 -10.08179554 21.82448634 -9.74926758 18.47265625 C-9.02628839 16.08675426 -8.17705717 14.16588777 -6.93359375 12.01171875 C-6.53076172 11.30595703 -6.12792969 10.60019531 -5.71289062 9.87304688 C-5.29201172 9.15181641 -4.87113281 8.43058594 -4.4375 7.6875 C-4.01275391 6.94693359 -3.58800781 6.20636719 -3.15039062 5.44335938 C-2.10648347 3.62531882 -1.05407808 1.81216252 0 0 Z " fill="#070707" transform="translate(526,442)"/>
<path d="M0 0 C3.6196875 -0.0928125 3.6196875 -0.0928125 7.3125 -0.1875 C8.44619019 -0.22846802 8.44619019 -0.22846802 9.6027832 -0.27026367 C12.3757813 -0.30480081 14.51128258 -0.27661406 16.953125 1.10546875 C18.51114499 3.92501985 18.43389625 6.29987212 18.4375 9.5 C18.46650391 11.21703125 18.46650391 11.21703125 18.49609375 12.96875 C18 16 18 16 16.42578125 17.89453125 C11.35977992 20.20319208 5.43126198 19.15086839 0 19 C0 12.73 0 6.46 0 0 Z " fill="#E9E9E9" transform="translate(402,436)"/>
<path d="M0 0 C0.99 0.66 1.98 1.32 3 2 C3 3.98 3 5.96 3 8 C-0.96 8 -4.92 8 -9 8 C-9 6.02 -9 4.04 -9 2 C-5.53001271 -0.31332486 -4.07490752 -0.33957563 0 0 Z " fill="#EDEDED" transform="translate(560,449)"/>
<path d="M0 0 C1.37478516 0.01740234 1.37478516 0.01740234 2.77734375 0.03515625 C3.69644531 0.04417969 4.61554688 0.05320312 5.5625 0.0625 C6.27277344 0.07410156 6.98304688 0.08570313 7.71484375 0.09765625 C7.71484375 2.40765625 7.71484375 4.71765625 7.71484375 7.09765625 C4.22100096 8.26227051 1.37828986 8.23333944 -2.28515625 8.09765625 C-3.28515625 7.09765625 -3.28515625 7.09765625 -3.41015625 4.09765625 C-3.24519906 0.13868372 -3.24519906 0.13868372 0 0 Z " fill="#E9E9E9" transform="translate(447.28515625,465.90234375)"/>
</svg>
