<?xml version="1.0" encoding="UTF-8"?>
<svg version="1.1" xmlns="http://www.w3.org/2000/svg" width="891" height="891">
<path d="M0 0 C294.03 0 588.06 0 891 0 C891 294.03 891 588.06 891 891 C596.97 891 302.94 891 0 891 C0 596.97 0 302.94 0 0 Z " fill="#FEFEFE" transform="translate(0,0)"/>
<path d="M0 0 C1.41154022 1.25940501 2.81660672 2.52605519 4.22119141 3.79321289 C5.59534582 4.96087541 6.97023996 6.1276685 8.34619141 7.29321289 C38.91518579 34.4015664 59.12366506 71.89158637 67.22119141 111.79321289 C67.40810547 112.70377441 67.59501953 113.61433594 67.78759766 114.55249023 C69.64706298 124.88082396 69.61851871 135.20888781 69.59619141 145.66821289 C69.59537567 147.10151947 69.59537567 147.10151947 69.59454346 148.56378174 C69.55676823 162.9893857 68.88404481 176.77276058 65.22119141 190.79321289 C64.99093262 191.7066748 64.76067383 192.62013672 64.5234375 193.5612793 C55.05877413 230.55027556 34.06484688 266.44441966 4.22119141 290.79321289 C3.17925836 291.6822237 2.13761831 292.57157796 1.09619141 293.46118164 C-13.6001364 305.816033 -30.15269104 315.26696883 -47.77880859 322.79321289 C-48.39546387 323.06327148 -49.01211914 323.33333008 -49.64746094 323.61157227 C-67.50512903 331.32814263 -87.71425348 335.85317572 -107.15771484 336.03149414 C-108.03898041 336.04128799 -108.92024597 336.05108185 -109.82821655 336.06117249 C-146.56335237 336.38559936 -146.56335237 336.38559936 -163.77880859 331.79321289 C-164.65456543 331.5629541 -165.53032227 331.33269531 -166.43261719 331.09545898 C-172.28187392 329.519236 -178.0411294 327.73422682 -183.77880859 325.79321289 C-185.52871094 325.20926758 -185.52871094 325.20926758 -187.31396484 324.61352539 C-212.45734423 315.57811025 -234.72283884 299.21574321 -253.77880859 280.79321289 C-254.50326172 280.12032227 -255.22771484 279.44743164 -255.97412109 278.75415039 C-271.19383366 264.27385706 -282.57929029 245.50534622 -291.77880859 226.79321289 C-292.32279297 225.68977539 -292.86677734 224.58633789 -293.42724609 223.44946289 C-300.69093642 207.61538662 -305.30503741 190.0144661 -307.77880859 172.79321289 C-307.87162109 172.15907471 -307.96443359 171.52493652 -308.06005859 170.87158203 C-310.61493965 151.23321503 -309.49879386 130.19112966 -305.77880859 110.79321289 C-305.56200439 109.66254395 -305.56200439 109.66254395 -305.34082031 108.5090332 C-299.3645369 78.58128835 -286.17998745 51.32153857 -266.77880859 27.79321289 C-266.31361816 27.22119141 -265.84842773 26.64916992 -265.36914062 26.05981445 C-236.72934677 -9.01986622 -196.11152161 -31.85424698 -151.77880859 -40.20678711 C-150.21453125 -40.5180957 -150.21453125 -40.5180957 -148.61865234 -40.83569336 C-97.53385663 -49.37970013 -39.12936733 -34.28472182 0 0 Z " fill="#F7F7F7" transform="translate(564.77880859375,298.206787109375)"/>
<path d="M0 0 C9.61079015 4.8968594 17.27359805 14.1762629 20.66796875 24.359375 C23.08991567 25.19854526 25.37020217 25.84943919 27.85546875 26.421875 C32.53285366 27.55813728 37.10734559 28.81010448 41.66796875 30.359375 C46.19624529 31.09369011 49.49078994 29.26307151 53.484375 27.33203125 C57.38479678 25.59463407 60.65877424 25.24083297 64.91796875 25.296875 C65.81 25.30589844 66.70203125 25.31492187 67.62109375 25.32421875 C68.2965625 25.33582031 68.97203125 25.34742188 69.66796875 25.359375 C70.31792172 26.77415635 70.96275597 28.19128987 71.60546875 29.609375 C72.14494141 30.79273438 72.14494141 30.79273438 72.6953125 32 C74.65443123 36.75223981 74.7932498 40.999963 74.73046875 46.109375 C74.72595703 46.80675781 74.72144531 47.50414062 74.71679688 48.22265625 C74.70506895 49.93493303 74.68713528 51.64716533 74.66796875 53.359375 C75.32796875 53.359375 75.98796875 53.359375 76.66796875 53.359375 C90.16744721 66.82648061 99.93278845 88.20214702 100.8515625 107.14453125 C100.85491223 110.22293054 100.80588505 113.28435237 100.66796875 116.359375 C99.34796875 116.359375 98.02796875 116.359375 96.66796875 116.359375 C96.47203125 115.67875 96.27609375 114.998125 96.07421875 114.296875 C91.98025025 101.0267702 86.13789633 88.63154323 76.66796875 78.359375 C75.89582031 77.50730469 75.12367188 76.65523438 74.328125 75.77734375 C60.25121555 60.94432858 40.88788393 51.86518552 20.453125 51.12109375 C-1.07944573 50.70285812 -19.92903945 54.12398817 -36.734375 68.7265625 C-52.1401961 84.34088343 -59.63750599 105.33365053 -59.83203125 127.046875 C-59.7468112 135.73931976 -58.88204802 143.32957517 -55.33203125 151.359375 C-54.85765625 152.5040625 -54.38328125 153.64875 -53.89453125 154.828125 C-46.95392265 170.17754786 -34.20390563 183.1546632 -18.33203125 189.359375 C-16.93017578 189.91625 -16.93017578 189.91625 -15.5 190.484375 C-7.93551129 193.06868431 -0.97352928 193.74627197 6.98046875 193.796875 C8.358396 193.81186035 8.358396 193.81186035 9.76416016 193.82714844 C15.90625276 193.74952676 20.98253967 192.65691632 26.66796875 190.359375 C28.01181641 189.82957031 28.01181641 189.82957031 29.3828125 189.2890625 C40.00736099 184.24753685 47.40962722 176.82660656 52.66796875 166.359375 C53.06886719 165.57175781 53.46976563 164.78414062 53.8828125 163.97265625 C58.53156302 154.22847811 59.34278915 141.96669177 57.01953125 131.4140625 C52.97875826 120.3969122 45.46465935 113.28216134 35.17578125 108.10546875 C26.58620156 104.44788808 17.20380009 103.56688041 8.25390625 106.46484375 C-1.11412529 110.80017348 -6.51072894 116.85511029 -10.33203125 126.359375 C-12.77556121 134.61850625 -11.32593736 141.84436164 -7.33203125 149.359375 C-3.66750593 155.19588342 0.96200401 158.65998788 7.66796875 160.359375 C13.51697303 160.94059681 18.42352722 161.1594707 23.66796875 158.359375 C25.91796875 158.734375 25.91796875 158.734375 27.66796875 159.359375 C27.29895158 161.86227405 26.95984891 163.08415301 25.09375 164.84375 C17.46229345 169.41416021 9.71913932 169.4762325 1.0859375 167.8828125 C-8.64614328 165.05352107 -16.02185036 158.88741008 -21.33203125 150.359375 C-22.61001464 147.69534345 -23.46381919 145.20518119 -24.33203125 142.359375 C-24.5125 141.77671875 -24.69296875 141.1940625 -24.87890625 140.59375 C-27.57999161 127.27460495 -24.40465693 115.23144713 -17.01953125 103.984375 C-9.26717339 93.70335106 1.09550832 87.30014364 13.66796875 84.359375 C16.44557934 84.14948686 19.08344399 84.02502809 21.85546875 84.046875 C22.97248169 84.05424683 22.97248169 84.05424683 24.11206055 84.06176758 C38.73662277 84.36890701 52.76612521 89.58735888 63.66796875 99.359375 C64.41820312 100.00519531 65.1684375 100.65101563 65.94140625 101.31640625 C76.14269493 110.69950284 83.9692337 124.66411389 84.80761719 138.69677734 C84.87964046 141.20920546 84.9331816 143.7213663 84.98046875 146.234375 C85.0314461 153.70136009 85.0314461 153.70136009 88.91796875 159.859375 C89.54316406 160.41367187 90.16835938 160.96796875 90.8125 161.5390625 C95.01350213 165.66046669 97.38410695 171.7433305 98.01171875 177.52734375 C97.66796875 180.359375 97.66796875 180.359375 96.234375 181.93359375 C88.41836425 186.27582194 81.68720206 188.85133318 72.66796875 188.359375 C72.44496094 189.06191406 72.22195313 189.76445313 71.9921875 190.48828125 C70.37463188 193.99537087 68.10343371 196.52474293 65.48046875 199.296875 C64.98796631 199.8340918 64.49546387 200.37130859 63.98803711 200.92480469 C61.40023017 203.70444219 58.90049331 205.99372817 55.73046875 208.109375 C51.6349731 211.37221669 51.23365665 216.31553586 50.22705078 221.17578125 C48.76817056 227.86964859 45.78522844 232.89516957 41.66796875 238.359375 C41.15621094 239.10703125 40.64445313 239.8546875 40.1171875 240.625 C38.66796875 242.359375 38.66796875 242.359375 36.04296875 242.859375 C26.8537471 241.49800883 16.57297297 235.54807579 10.66796875 228.359375 C10.66796875 227.699375 10.66796875 227.039375 10.66796875 226.359375 C10.1059375 226.39417969 9.54390625 226.42898438 8.96484375 226.46484375 C0.59455347 226.73443899 -7.42579986 225.43499359 -15.66015625 224.11328125 C-16.85535889 223.92536011 -16.85535889 223.92536011 -18.07470703 223.73364258 C-20.10814981 223.39649486 -22.13132696 222.99877995 -24.15234375 222.59375 C-27.87539587 222.31932355 -28.99051541 222.88226185 -31.95703125 225.046875 C-42.61603647 231.94387838 -52.99267689 232.97378269 -65.33203125 232.359375 C-67.45938506 227.39554945 -68.45731647 222.92264608 -68.46484375 217.5234375 C-68.46613281 216.62367188 -68.46742188 215.72390625 -68.46875 214.796875 C-68.46488281 213.86875 -68.46101563 212.940625 -68.45703125 211.984375 C-68.46283203 210.60378906 -68.46283203 210.60378906 -68.46875 209.1953125 C-68.46295718 205.14033752 -68.3755169 201.56371535 -67.52734375 197.578125 C-67.00700799 194.19646921 -67.00700799 194.19646921 -69.31640625 191.2265625 C-70.21840425 190.2111554 -71.14112758 189.21384029 -72.08203125 188.234375 C-80.33203125 179.2153072 -80.33203125 179.2153072 -80.33203125 175.359375 C-81.56953125 175.2975 -82.80703125 175.235625 -84.08203125 175.171875 C-98.63530577 173.50668842 -110.6827742 164.0643956 -121.41015625 154.7890625 C-123.33203125 152.359375 -123.33203125 152.359375 -123.2890625 149.87890625 C-118.35853825 136.8985465 -110.19568322 127.19019732 -98.96875 119.26953125 C-95.16448396 116.51355185 -93.1268946 114.84702292 -92.19921875 110.15625 C-92.03292969 109.34027344 -91.86664063 108.52429688 -91.6953125 107.68359375 C-91.53417969 106.83410156 -91.37304688 105.98460937 -91.20703125 105.109375 C-90.95373047 103.85833984 -90.95373047 103.85833984 -90.6953125 102.58203125 C-90.36776256 100.93912329 -90.05366941 99.29346802 -89.75390625 97.64526367 C-89.38318296 95.63653556 -88.95216674 93.63913145 -88.51171875 91.64453125 C-88.28302013 87.46332392 -89.41093176 85.59035649 -91.58203125 82.046875 C-99.01154961 69.14141682 -99.50236564 56.89457611 -99.33203125 42.359375 C-97.75003494 41.71027346 -96.16637401 41.06522806 -94.58203125 40.421875 C-93.7003125 40.06222656 -92.81859375 39.70257813 -91.91015625 39.33203125 C-85.77278236 37.01656746 -80.02548158 37.17575915 -73.51953125 37.171875 C-72.45154297 37.15962891 -71.38355469 37.14738281 -70.28320312 37.13476562 C-64.52159084 37.12407618 -59.78609036 37.52686908 -54.33203125 39.359375 C-48.34663748 39.359375 -44.23913972 36.8174095 -39.1875 33.92578125 C-34.28614613 31.23707687 -28.99915641 28.359375 -23.33203125 28.359375 C-23.23921875 27.1528125 -23.23921875 27.1528125 -23.14453125 25.921875 C-20.82705096 15.76061527 -13.23411011 6.86562156 -5.08203125 0.609375 C-2.33203125 -0.640625 -2.33203125 -0.640625 0 0 Z " fill="#F3831F" transform="translate(457.33203125,330.640625)"/>
<path d="M0 0 C1.41154022 1.25940501 2.81660672 2.52605519 4.22119141 3.79321289 C5.59534582 4.96087541 6.97023996 6.1276685 8.34619141 7.29321289 C38.91518579 34.4015664 59.12366506 71.89158637 67.22119141 111.79321289 C67.40810547 112.70377441 67.59501953 113.61433594 67.78759766 114.55249023 C69.64706298 124.88082396 69.61851871 135.20888781 69.59619141 145.66821289 C69.59537567 147.10151947 69.59537567 147.10151947 69.59454346 148.56378174 C69.55676823 162.9893857 68.88404481 176.77276058 65.22119141 190.79321289 C64.99093262 191.7066748 64.76067383 192.62013672 64.5234375 193.5612793 C55.05877413 230.55027556 34.06484688 266.44441966 4.22119141 290.79321289 C3.17925836 291.6822237 2.13761831 292.57157796 1.09619141 293.46118164 C-13.6001364 305.816033 -30.15269104 315.26696883 -47.77880859 322.79321289 C-48.39546387 323.06327148 -49.01211914 323.33333008 -49.64746094 323.61157227 C-67.50512903 331.32814263 -87.71425348 335.85317572 -107.15771484 336.03149414 C-108.03898041 336.04128799 -108.92024597 336.05108185 -109.82821655 336.06117249 C-146.56335237 336.38559936 -146.56335237 336.38559936 -163.77880859 331.79321289 C-164.65456543 331.5629541 -165.53032227 331.33269531 -166.43261719 331.09545898 C-172.28187392 329.519236 -178.0411294 327.73422682 -183.77880859 325.79321289 C-185.52871094 325.20926758 -185.52871094 325.20926758 -187.31396484 324.61352539 C-212.45734423 315.57811025 -234.72283884 299.21574321 -253.77880859 280.79321289 C-254.50326172 280.12032227 -255.22771484 279.44743164 -255.97412109 278.75415039 C-271.19383366 264.27385706 -282.57929029 245.50534622 -291.77880859 226.79321289 C-292.32279297 225.68977539 -292.86677734 224.58633789 -293.42724609 223.44946289 C-300.69093642 207.61538662 -305.30503741 190.0144661 -307.77880859 172.79321289 C-307.87162109 172.15907471 -307.96443359 171.52493652 -308.06005859 170.87158203 C-310.61493965 151.23321503 -309.49879386 130.19112966 -305.77880859 110.79321289 C-305.56200439 109.66254395 -305.56200439 109.66254395 -305.34082031 108.5090332 C-299.3645369 78.58128835 -286.17998745 51.32153857 -266.77880859 27.79321289 C-266.31361816 27.22119141 -265.84842773 26.64916992 -265.36914062 26.05981445 C-236.72934677 -9.01986622 -196.11152161 -31.85424698 -151.77880859 -40.20678711 C-150.21453125 -40.5180957 -150.21453125 -40.5180957 -148.61865234 -40.83569336 C-97.53385663 -49.37970013 -39.12936733 -34.28472182 0 0 Z M-170.77880859 -27.20678711 C-171.49101562 -26.99683105 -172.20322266 -26.786875 -172.93701172 -26.57055664 C-200.32789237 -18.32094101 -224.06789737 -3.888391 -244.77880859 15.79321289 C-245.28412109 16.27129395 -245.78943359 16.749375 -246.31005859 17.24194336 C-271.83772744 41.54999101 -289.30856937 73.36062186 -296.77880859 107.79321289 C-297.21 109.69393555 -297.21 109.69393555 -297.64990234 111.63305664 C-299.45973134 120.024082 -300.52822897 128.21903195 -300.77880859 136.79321289 C-300.81135742 137.73712891 -300.84390625 138.68104492 -300.87744141 139.65356445 C-302.42443085 190.51670212 -284.50263865 236.73645675 -249.68505859 273.78540039 C-225.18312601 299.3905786 -192.59623124 317.80938129 -157.77880859 324.79321289 C-157.1624353 324.91742615 -156.54606201 325.0416394 -155.91101074 325.1696167 C-144.38600751 327.43765867 -133.2610315 328.29051454 -121.52880859 328.16821289 C-120.72653839 328.16356018 -119.92426819 328.15890747 -119.09768677 328.15411377 C-98.66897842 328.01580983 -80.15185214 325.40758679 -60.77880859 318.79321289 C-60.09157715 318.56794922 -59.4043457 318.34268555 -58.69628906 318.1105957 C-40.97488659 312.2747019 -24.47549285 303.24075872 -9.77880859 291.79321289 C-8.89966797 291.13579102 -8.02052734 290.47836914 -7.11474609 289.80102539 C27.60238202 262.84543045 50.61852837 223.72092944 59.22119141 180.79321289 C59.39851807 179.9144751 59.57584473 179.0357373 59.75854492 178.13037109 C61.56724234 167.98269492 61.66223672 157.88152592 61.65869141 147.60571289 C61.65942657 146.67868561 61.66016174 145.75165833 61.66091919 144.79653931 C61.62870039 129.29328846 60.43525589 114.79349483 56.22119141 99.79321289 C55.83568115 98.40634277 55.83568115 98.40634277 55.44238281 96.99145508 C42.40517027 51.61331198 11.24062891 12.40130704 -29.71630859 -10.95678711 C-46.56926308 -20.27938699 -64.13757281 -26.94398701 -82.96630859 -30.95678711 C-84.44478271 -31.27329224 -84.44478271 -31.27329224 -85.953125 -31.59619141 C-113.82981028 -37.25465234 -143.5772753 -35.23639424 -170.77880859 -27.20678711 Z " fill="#C7C7C7" transform="translate(564.77880859375,298.206787109375)"/>
</svg>
