<?xml version="1.0" encoding="UTF-8"?>
<svg version="1.1" xmlns="http://www.w3.org/2000/svg" width="891" height="891">
<path d="M0 0 C294.03 0 588.06 0 891 0 C891 294.03 891 588.06 891 891 C596.97 891 302.94 891 0 891 C0 596.97 0 302.94 0 0 Z " fill="#FEFEFE" transform="translate(0,0)"/>
<path d="M0 0 C1.41154022 1.25940501 2.81660672 2.52605519 4.22119141 3.79321289 C5.59534582 4.96087541 6.97023996 6.1276685 8.34619141 7.29321289 C38.91518579 34.4015664 59.12366506 71.89158637 67.22119141 111.79321289 C67.40810547 112.70377441 67.59501953 113.61433594 67.78759766 114.55249023 C69.64706298 124.88082396 69.61851871 135.20888781 69.59619141 145.66821289 C69.59537567 147.10151947 69.59537567 147.10151947 69.59454346 148.56378174 C69.55676823 162.9893857 68.88404481 176.77276058 65.22119141 190.79321289 C64.99093262 191.7066748 64.76067383 192.62013672 64.5234375 193.5612793 C55.05877413 230.55027556 34.06484688 266.44441966 4.22119141 290.79321289 C3.17925836 291.6822237 2.13761831 292.57157796 1.09619141 293.46118164 C-13.6001364 305.816033 -30.15269104 315.26696883 -47.77880859 322.79321289 C-48.39546387 323.06327148 -49.01211914 323.33333008 -49.64746094 323.61157227 C-67.50512903 331.32814263 -87.71425348 335.85317572 -107.15771484 336.03149414 C-108.03898041 336.04128799 -108.92024597 336.05108185 -109.82821655 336.06117249 C-146.56335237 336.38559936 -146.56335237 336.38559936 -163.77880859 331.79321289 C-164.65456543 331.5629541 -165.53032227 331.33269531 -166.43261719 331.09545898 C-172.28187392 329.519236 -178.0411294 327.73422682 -183.77880859 325.79321289 C-185.52871094 325.20926758 -185.52871094 325.20926758 -187.31396484 324.61352539 C-212.45734423 315.57811025 -234.72283884 299.21574321 -253.77880859 280.79321289 C-254.50326172 280.12032227 -255.22771484 279.44743164 -255.97412109 278.75415039 C-271.19383366 264.27385706 -282.57929029 245.50534622 -291.77880859 226.79321289 C-292.32279297 225.68977539 -292.86677734 224.58633789 -293.42724609 223.44946289 C-300.69093642 207.61538662 -305.30503741 190.0144661 -307.77880859 172.79321289 C-307.87162109 172.15907471 -307.96443359 171.52493652 -308.06005859 170.87158203 C-310.61218266 151.25440697 -309.54392071 130.16609219 -305.77880859 110.79321289 C-305.60720215 109.90988281 -305.4355957 109.02655273 -305.25878906 108.11645508 C-299.30139674 78.61165773 -285.84598969 51.04704841 -266.77880859 27.79321289 C-266.31071777 27.21684082 -265.84262695 26.64046875 -265.36035156 26.04663086 C-236.72224663 -9.02571229 -196.10411765 -31.85564193 -151.77880859 -40.20678711 C-150.21453125 -40.5180957 -150.21453125 -40.5180957 -148.61865234 -40.83569336 C-97.53385663 -49.37970013 -39.12936733 -34.28472182 0 0 Z " fill="#FAFAFA" transform="translate(564.77880859375,298.206787109375)"/>
<path d="M0 0 C7.92 0 15.84 0 24 0 C24 0.66 24 1.32 24 2 C25.65 2.33 27.3 2.66 29 3 C29 3.66 29 4.32 29 5 C29.66 5 30.32 5 31 5 C32.625 6.3125 32.625 6.3125 34 8 C34 8.99 34 9.98 34 11 C34.66 11 35.32 11 36 11 C36.33 13.97 36.66 16.94 37 20 C37.66 20 38.32 20 39 20 C43.1483466 33.75374438 42.85638422 47.84507035 41 62 C40.34 62 39.68 62 39 62 C39 63.65 39 65.3 39 67 C38.34 67 37.68 67 37 67 C36.67 69.64 36.34 72.28 36 75 C35.34 75 34.68 75 34 75 C34 75.99 34 76.98 34 78 C33.34 78 32.68 78 32 78 C31.505 79.485 31.505 79.485 31 81 C30.34 81 29.68 81 29 81 C29 81.66 29 82.32 29 83 C28.01 83 27.02 83 26 83 C26 83.66 26 84.32 26 85 C18.38038235 88.719712 10.84676055 88.38486412 2.5625 88.29296875 C1.07178171 88.28736471 -0.41894215 88.28309843 -1.90966797 88.28010559 C-5.809261 88.26872028 -9.70851209 88.23930868 -13.60797119 88.20599365 C-17.59667334 88.17515553 -21.58543142 88.16157106 -25.57421875 88.14648438 C-33.3829674 88.1144319 -41.19143556 88.06331346 -49 88 C-49 89.65 -49 91.3 -49 93 C-34.48 93 -19.96 93 -5 93 C-4.938125 97.186875 -4.87625 101.37375 -4.8125 105.6875 C-4.77153198 107.65529419 -4.77153198 107.65529419 -4.72973633 109.6628418 C-4.72224365 110.70609619 -4.71475098 111.74935059 -4.70703125 112.82421875 C-4.6913208 113.88729248 -4.67561035 114.95036621 -4.65942383 116.0456543 C-5.0482827 119.41883083 -5.95513703 121.30945625 -8 124 C-8.66 124 -9.32 124 -10 124 C-10 124.99 -10 125.98 -10 127 C-10.99 127 -11.98 127 -13 127 C-13 127.66 -13 128.32 -13 129 C-15.31 129.33 -17.62 129.66 -20 130 C-20 130.66 -20 131.32 -20 132 C-20.98742187 132.13277344 -21.97484375 132.26554688 -22.9921875 132.40234375 C-24.91417969 132.66724609 -24.91417969 132.66724609 -26.875 132.9375 C-28.15117187 133.11152344 -29.42734375 133.28554688 -30.7421875 133.46484375 C-33.87559454 133.81433227 -33.87559454 133.81433227 -36 135 C-37.40629519 135.09572777 -38.81701446 135.13074094 -40.2265625 135.1328125 C-41.08677002 135.13474609 -41.94697754 135.13667969 -42.83325195 135.13867188 C-43.75452881 135.13416016 -44.67580566 135.12964844 -45.625 135.125 C-47.02915161 135.12209961 -47.02915161 135.12209961 -48.46166992 135.11914062 C-56.67025019 135.06887119 -64.8177296 134.64810063 -73 134 C-73 133.34 -73 132.68 -73 132 C-74.32 132 -75.64 132 -77 132 C-77 131.34 -77 130.68 -77 130 C-78.98 129.67 -80.96 129.34 -83 129 C-83 128.34 -83 127.68 -83 127 C-83.66 127 -84.32 127 -85 127 C-86.625 125.625 -86.625 125.625 -88 124 C-88 123.34 -88 122.68 -88 122 C-88.66 122 -89.32 122 -90 122 C-93.1342905 115.14577303 -93.39855867 109.3187609 -93.29296875 101.84375 C-93.28872391 100.70087524 -93.28447906 99.55800049 -93.28010559 98.38049316 C-93.26339974 94.75341591 -93.22576156 91.1269075 -93.1875 87.5 C-93.17244275 85.03125806 -93.15875617 82.56250736 -93.14648438 80.09375 C-93.11352271 74.06230804 -93.06340403 68.03119468 -93 62 C-92.34 62 -91.68 62 -91 62 C-90.67 60.35 -90.34 58.7 -90 57 C-89.34 57 -88.68 57 -88 57 C-88 56.01 -88 55.02 -88 54 C-87.34 54 -86.68 54 -86 54 C-85.67 52.68 -85.34 51.36 -85 50 C-82.525 49.505 -82.525 49.505 -80 49 C-80 48.34 -80 47.68 -80 47 C-76.33468428 46.15478185 -72.9580702 45.87814175 -69.19995117 45.88647461 C-67.48874336 45.88658791 -67.48874336 45.88658791 -65.7429657 45.88670349 C-63.91146721 45.89444542 -63.91146721 45.89444542 -62.04296875 45.90234375 C-60.78486893 45.9037587 -59.5267691 45.90517365 -58.23054504 45.90663147 C-54.89821471 45.91127427 -51.56595368 45.92024772 -48.23364258 45.93133545 C-44.82829383 45.94159497 -41.4229379 45.94613879 -38.01757812 45.95117188 C-31.34503302 45.9621917 -24.67252051 45.978923 -18 46 C-18 45.34 -18 44.68 -18 44 C-17.01 44 -16.02 44 -15 44 C-15 43.34 -15 42.68 -15 42 C-14.4225 41.938125 -13.845 41.87625 -13.25 41.8125 C-10.13207906 40.6865841 -8.98619837 38.58205789 -7 36 C-6.34 36 -5.68 36 -5 36 C-4.67 34.35 -4.34 32.7 -4 31 C-3.34 31 -2.68 31 -2 31 C-2 29.35 -2 27.7 -2 26 C-1.34 26 -0.68 26 0 26 C0 17.42 0 8.84 0 0 Z " fill="#FFD53F" transform="translate(497,404)"/>
<path d="M0 0 C2.40437311 0.03143292 4.80808706 0.04101677 7.21264648 0.046875 C8.76799291 0.05603851 10.32333279 0.0664122 11.87866211 0.078125 C12.58404617 0.08237488 13.28943024 0.08662476 14.01618958 0.09100342 C18.77073088 0.1583591 23.36795743 0.62314659 28.07788086 1.28125 C28.07788086 1.94125 28.07788086 2.60125 28.07788086 3.28125 C28.84100586 3.405 29.60413086 3.52875 30.39038086 3.65625 C33.07788086 4.28125 33.07788086 4.28125 36.07788086 6.28125 C36.07788086 6.94125 36.07788086 7.60125 36.07788086 8.28125 C37.06788086 8.61125 38.05788086 8.94125 39.07788086 9.28125 C39.07788086 9.94125 39.07788086 10.60125 39.07788086 11.28125 C39.73788086 11.28125 40.39788086 11.28125 41.07788086 11.28125 C41.07788086 11.94125 41.07788086 12.60125 41.07788086 13.28125 C41.73788086 13.28125 42.39788086 13.28125 43.07788086 13.28125 C43.40788086 15.26125 43.73788086 17.24125 44.07788086 19.28125 C44.73788086 19.28125 45.39788086 19.28125 46.07788086 19.28125 C46.15420463 26.39787901 46.20659555 33.51440169 46.24267578 40.63134766 C46.25772365 43.0503331 46.27816674 45.46929143 46.30419922 47.88818359 C46.34075786 51.37344063 46.35764776 54.8583356 46.37084961 58.34375 C46.38633347 59.41802246 46.40181732 60.49229492 46.41777039 61.59912109 C46.41916712 67.88926217 45.69123811 72.5421125 43.07788086 78.28125 C42.41788086 78.28125 41.75788086 78.28125 41.07788086 78.28125 C40.74788086 79.27125 40.41788086 80.26125 40.07788086 81.28125 C39.41788086 81.28125 38.75788086 81.28125 38.07788086 81.28125 C38.07788086 81.94125 38.07788086 82.60125 38.07788086 83.28125 C36.42788086 83.61125 34.77788086 83.94125 33.07788086 84.28125 C33.07788086 84.94125 33.07788086 85.60125 33.07788086 86.28125 C32.41788086 86.28125 31.75788086 86.28125 31.07788086 86.28125 C31.07788086 86.94125 31.07788086 87.60125 31.07788086 88.28125 C30.05883163 88.28671844 30.05883163 88.28671844 29.01919556 88.29229736 C21.91292792 88.33428702 14.80729627 88.4037479 7.70141602 88.48876953 C5.05369444 88.51689895 2.40589014 88.53815316 -0.24194336 88.55224609 C-4.06024278 88.57378596 -7.87755594 88.62049647 -11.69555664 88.671875 C-13.45553482 88.67371796 -13.45553482 88.67371796 -15.25106812 88.67559814 C-21.76231353 88.79019297 -26.87928856 89.57544453 -32.80899048 92.33001709 C-34.92211914 93.28125 -34.92211914 93.28125 -37.13607788 93.72027588 C-37.7254715 93.90539734 -38.31486511 94.0905188 -38.92211914 94.28125 C-39.41711914 95.76625 -39.41711914 95.76625 -39.92211914 97.28125 C-40.58211914 97.28125 -41.24211914 97.28125 -41.92211914 97.28125 C-42.25211914 99.59125 -42.58211914 101.90125 -42.92211914 104.28125 C-43.58211914 104.28125 -44.24211914 104.28125 -44.92211914 104.28125 C-44.92211914 105.27125 -44.92211914 106.26125 -44.92211914 107.28125 C-45.58211914 107.28125 -46.24211914 107.28125 -46.92211914 107.28125 C-46.92211914 116.52125 -46.92211914 125.76125 -46.92211914 135.28125 C-53.85211914 135.28125 -60.78211914 135.28125 -67.92211914 135.28125 C-67.92211914 134.62125 -67.92211914 133.96125 -67.92211914 133.28125 C-70.23211914 132.95125 -72.54211914 132.62125 -74.92211914 132.28125 C-75.02524414 131.641875 -75.12836914 131.0025 -75.23461914 130.34375 C-75.46149414 129.663125 -75.68836914 128.9825 -75.92211914 128.28125 C-76.91211914 127.95125 -77.90211914 127.62125 -78.92211914 127.28125 C-78.92211914 126.62125 -78.92211914 125.96125 -78.92211914 125.28125 C-79.58211914 125.28125 -80.24211914 125.28125 -80.92211914 125.28125 C-80.92211914 124.29125 -80.92211914 123.30125 -80.92211914 122.28125 C-81.58211914 122.28125 -82.24211914 122.28125 -82.92211914 122.28125 C-85.91608328 117.38203595 -86.68173886 112.64179669 -87.49243164 106.98828125 C-87.86028365 104.19409808 -87.86028365 104.19409808 -88.92211914 101.28125 C-89.15191713 97.86865326 -89.10728658 94.45078652 -89.10961914 91.03125 C-89.12186523 90.10183594 -89.13411133 89.17242187 -89.14672852 88.21484375 C-89.15822931 82.79413727 -88.62187137 78.41928432 -86.92211914 73.28125 C-86.67156394 71.80864724 -86.45349371 70.32930841 -86.29711914 68.84375 C-86.17336914 67.668125 -86.04961914 66.4925 -85.92211914 65.28125 C-85.26211914 65.28125 -84.60211914 65.28125 -83.92211914 65.28125 C-83.59211914 63.63125 -83.26211914 61.98125 -82.92211914 60.28125 C-82.26211914 60.28125 -81.60211914 60.28125 -80.92211914 60.28125 C-80.92211914 59.29125 -80.92211914 58.30125 -80.92211914 57.28125 C-80.26211914 57.28125 -79.60211914 57.28125 -78.92211914 57.28125 C-78.59211914 56.29125 -78.26211914 55.30125 -77.92211914 54.28125 C-77.26211914 54.28125 -76.60211914 54.28125 -75.92211914 54.28125 C-75.92211914 53.62125 -75.92211914 52.96125 -75.92211914 52.28125 C-68.65713727 45.98599866 -60.93628743 46.63200269 -51.82836914 46.79296875 C-50.27039734 46.80230783 -48.71241075 46.80941877 -47.15441895 46.81440735 C-43.07701236 46.83339146 -39.00051295 46.88241566 -34.92346191 46.93792725 C-30.75386828 46.98930699 -26.58412639 47.0119611 -22.41430664 47.03710938 C-14.24983035 47.09054492 -6.08608797 47.17575073 2.07788086 47.28125 C2.07788086 45.30125 2.07788086 43.32125 2.07788086 41.28125 C-12.44211914 41.28125 -26.96211914 41.28125 -41.92211914 41.28125 C-41.98399414 36.90875 -42.04586914 32.53625 -42.10961914 28.03125 C-42.15058716 25.97148926 -42.15058716 25.97148926 -42.19238281 23.87011719 C-42.19987549 22.78375977 -42.20736816 21.69740234 -42.21508789 20.578125 C-42.23079834 19.46791992 -42.24650879 18.35771484 -42.26269531 17.21386719 C-41.88516363 13.96303526 -41.2195263 12.57830807 -38.92211914 10.28125 C-38.26211914 10.28125 -37.60211914 10.28125 -36.92211914 10.28125 C-36.92211914 9.62125 -36.92211914 8.96125 -36.92211914 8.28125 C-36.26211914 8.28125 -35.60211914 8.28125 -34.92211914 8.28125 C-34.92211914 7.62125 -34.92211914 6.96125 -34.92211914 6.28125 C-32.94211914 5.95125 -30.96211914 5.62125 -28.92211914 5.28125 C-28.92211914 4.62125 -28.92211914 3.96125 -28.92211914 3.28125 C-19.13857562 0.40188506 -10.12180829 -0.13327759 0 0 Z " fill="#5CA0D4" transform="translate(445.922119140625,356.71875)"/>
<path d="M0 0 C1.41154022 1.25940501 2.81660672 2.52605519 4.22119141 3.79321289 C5.59534582 4.96087541 6.97023996 6.1276685 8.34619141 7.29321289 C38.91518579 34.4015664 59.12366506 71.89158637 67.22119141 111.79321289 C67.40810547 112.70377441 67.59501953 113.61433594 67.78759766 114.55249023 C69.64706298 124.88082396 69.61851871 135.20888781 69.59619141 145.66821289 C69.59537567 147.10151947 69.59537567 147.10151947 69.59454346 148.56378174 C69.55676823 162.9893857 68.88404481 176.77276058 65.22119141 190.79321289 C64.99093262 191.7066748 64.76067383 192.62013672 64.5234375 193.5612793 C55.05877413 230.55027556 34.06484688 266.44441966 4.22119141 290.79321289 C3.17925836 291.6822237 2.13761831 292.57157796 1.09619141 293.46118164 C-13.6001364 305.816033 -30.15269104 315.26696883 -47.77880859 322.79321289 C-48.39546387 323.06327148 -49.01211914 323.33333008 -49.64746094 323.61157227 C-67.50512903 331.32814263 -87.71425348 335.85317572 -107.15771484 336.03149414 C-108.03898041 336.04128799 -108.92024597 336.05108185 -109.82821655 336.06117249 C-146.56335237 336.38559936 -146.56335237 336.38559936 -163.77880859 331.79321289 C-164.65456543 331.5629541 -165.53032227 331.33269531 -166.43261719 331.09545898 C-172.28187392 329.519236 -178.0411294 327.73422682 -183.77880859 325.79321289 C-185.52871094 325.20926758 -185.52871094 325.20926758 -187.31396484 324.61352539 C-212.45734423 315.57811025 -234.72283884 299.21574321 -253.77880859 280.79321289 C-254.50326172 280.12032227 -255.22771484 279.44743164 -255.97412109 278.75415039 C-271.19383366 264.27385706 -282.57929029 245.50534622 -291.77880859 226.79321289 C-292.32279297 225.68977539 -292.86677734 224.58633789 -293.42724609 223.44946289 C-300.69093642 207.61538662 -305.30503741 190.0144661 -307.77880859 172.79321289 C-307.87162109 172.15907471 -307.96443359 171.52493652 -308.06005859 170.87158203 C-310.61218266 151.25440697 -309.54392071 130.16609219 -305.77880859 110.79321289 C-305.60720215 109.90988281 -305.4355957 109.02655273 -305.25878906 108.11645508 C-299.30139674 78.61165773 -285.84598969 51.04704841 -266.77880859 27.79321289 C-266.31071777 27.21684082 -265.84262695 26.64046875 -265.36035156 26.04663086 C-236.72224663 -9.02571229 -196.10411765 -31.85564193 -151.77880859 -40.20678711 C-150.21453125 -40.5180957 -150.21453125 -40.5180957 -148.61865234 -40.83569336 C-97.53385663 -49.37970013 -39.12936733 -34.28472182 0 0 Z M-229.77880859 2.79321289 C-230.31376953 3.21538086 -230.84873047 3.63754883 -231.39990234 4.07250977 C-265.97498691 31.64137216 -288.63576029 68.56346025 -297.77880859 111.79321289 C-297.99537109 112.79352539 -298.21193359 113.79383789 -298.43505859 114.82446289 C-299.89060303 122.10218509 -300.51776278 129.38317567 -300.77880859 136.79321289 C-300.81280762 137.74292969 -300.84680664 138.69264648 -300.88183594 139.67114258 C-301.38046396 156.13852298 -300.37784071 171.70243526 -296.77880859 187.79321289 C-296.5804541 188.68169922 -296.38209961 189.57018555 -296.17773438 190.4855957 C-287.07530954 229.45874643 -263.15125357 265.21355012 -231.77880859 289.79321289 C-230.96694092 290.43564941 -230.96694092 290.43564941 -230.13867188 291.09106445 C-207.23589181 309.07905661 -181.2020002 319.98170017 -152.77880859 325.79321289 C-151.82337158 325.98898926 -150.86793457 326.18476562 -149.88354492 326.38647461 C-139.74665647 328.20564566 -129.60651438 328.19269109 -119.34130859 328.16821289 C-118.40683899 328.16700439 -117.47236938 328.1657959 -116.50958252 328.16455078 C-102.58759499 328.11564415 -89.24024795 327.66906693 -75.77880859 323.79321289 C-74.35592529 323.39054199 -74.35592529 323.39054199 -72.90429688 322.97973633 C-47.59572365 315.60878273 -23.79482479 304.12882344 -3.77880859 286.79321289 C-2.98603516 286.11000977 -2.19326172 285.42680664 -1.37646484 284.72290039 C1.19731691 282.45406908 3.71616016 280.13771308 6.22119141 277.79321289 C7.62691406 276.48610352 7.62691406 276.48610352 9.06103516 275.15258789 C29.94471191 255.28627667 44.15307996 229.9669117 53.22119141 202.79321289 C53.58212891 201.72200195 53.94306641 200.65079102 54.31494141 199.54711914 C59.81089119 182.53881999 61.42112441 165.98101286 61.46142578 148.25512695 C61.47109191 145.69456999 61.50217918 143.13483119 61.53369141 140.57446289 C61.60191828 129.92129592 60.58234028 120.1903428 58.22119141 109.79321289 C57.90105516 108.22052498 57.58181343 106.6476542 57.26416016 105.07446289 C52.23632296 82.85096332 42.82730892 61.14688408 29.22119141 42.79321289 C28.48771484 41.77743164 27.75423828 40.76165039 26.99853516 39.71508789 C8.83253707 15.00782762 -14.38737038 -3.60684226 -41.77880859 -17.20678711 C-42.63732422 -17.65280273 -43.49583984 -18.09881836 -44.38037109 -18.55834961 C-102.57433893 -47.19347664 -179.40897796 -37.24275814 -229.77880859 2.79321289 Z " fill="#C7C7C7" transform="translate(564.77880859375,298.206787109375)"/>
<path d="M0 0 C1.9375 1.375 1.9375 1.375 3 3 C3 3.66 3 4.32 3 5 C3.66 5 4.32 5 5 5 C5 7.64 5 10.28 5 13 C3.35 13.33 1.7 13.66 0 14 C0 14.66 0 15.32 0 16 C-7.75 16.125 -7.75 16.125 -10 15 C-10 14.34 -10 13.68 -10 13 C-10.66 13 -11.32 13 -12 13 C-12.29915966 4.02521008 -12.29915966 4.02521008 -10 1 C-6.44646071 -0.1845131 -3.72986522 -0.26641894 0 0 Z " fill="#EDF4FA" transform="translate(427,370)"/>
<path d="M0 0 C6.625 -0.25 6.625 -0.25 10 2 C11.29721449 5.89164348 11.13033993 8.89429226 11 13 C10.67 13.66 10.34 14.32 10 15 C9.34 15 8.68 15 8 15 C8 15.66 8 16.32 8 17 C4.60846163 17.86760284 2.54205504 18.18068501 -0.8125 17.0625 C-3.45822547 14.56795884 -3.8345322 12.59364594 -4.0859375 9.0078125 C-3.97263031 6.36054442 -3.23683247 4.32815524 -2 2 C-1.34 2 -0.68 2 0 2 C0 1.34 0 0.68 0 0 Z " fill="#FFFBEE" transform="translate(469,508)"/>
<path d="M0 0 C3.3 0.33 6.6 0.66 10 1 C10 1.66 10 2.32 10 3 C11.65 3.33 13.3 3.66 15 4 C11.94736336 4.98120464 10.05263664 4.98120464 7 4 C7 3.34 7 2.68 7 2 C4.69 2 2.38 2 0 2 C0 1.34 0 0.68 0 0 Z " fill="#9BC5E5" transform="translate(464,357)"/>
</svg>
