<?xml version="1.0" encoding="UTF-8"?>
<svg version="1.1" xmlns="http://www.w3.org/2000/svg" width="891" height="891">
<path d="M0 0 C294.03 0 588.06 0 891 0 C891 294.03 891 588.06 891 891 C596.97 891 302.94 891 0 891 C0 596.97 0 302.94 0 0 Z " fill="#FEFEFE" transform="translate(0,0)"/>
<path d="M0 0 C1.37415442 1.16766252 2.74904855 2.33445561 4.125 3.5 C34.69399438 30.60835351 54.90247366 68.09837348 63 108 C63.18691406 108.91056152 63.37382813 109.82112305 63.56640625 110.75927734 C65.42587157 121.08761107 65.3973273 131.41567492 65.375 141.875 C65.37418427 143.30830658 65.37418427 143.30830658 65.37335205 144.77056885 C65.33557682 159.19617281 64.66285341 172.97954769 61 187 C60.76974121 187.91346191 60.53948242 188.82692383 60.30224609 189.76806641 C50.83758273 226.75706267 29.84365547 262.65120677 0 287 C-1.04193304 287.88901081 -2.0835731 288.77836507 -3.125 289.66796875 C-17.8213278 302.02282011 -34.37388244 311.47375594 -52 319 C-52.61665527 319.27005859 -53.23331055 319.54011719 -53.86865234 319.81835938 C-71.72632043 327.53492974 -91.93544488 332.05996283 -111.37890625 332.23828125 C-112.26017181 332.2480751 -113.14143738 332.25786896 -114.04940796 332.26795959 C-150.78454378 332.59238647 -150.78454378 332.59238647 -168 328 C-168.87575684 327.76974121 -169.75151367 327.53948242 -170.65380859 327.30224609 C-176.50306533 325.72602311 -182.26232081 323.94101393 -188 322 C-189.74990234 321.41605469 -189.74990234 321.41605469 -191.53515625 320.8203125 C-216.67853564 311.78489736 -238.94403024 295.42253032 -258 277 C-258.72445312 276.32710937 -259.44890625 275.65421875 -260.1953125 274.9609375 C-275.41502507 260.48064416 -286.8004817 241.71213333 -296 223 C-296.54398437 221.8965625 -297.08796875 220.793125 -297.6484375 219.65625 C-304.91212783 203.82217372 -309.52622882 186.22125321 -312 169 C-312.0928125 168.36586182 -312.185625 167.73172363 -312.28125 167.07836914 C-314.83337406 147.46119408 -313.76511211 126.3728793 -310 107 C-309.82839355 106.11666992 -309.65678711 105.23333984 -309.47998047 104.32324219 C-303.52258815 74.81844484 -290.06718109 47.25383552 -271 24 C-270.53190918 23.42362793 -270.06381836 22.84725586 -269.58154297 22.25341797 C-240.52102885 -13.33623874 -200.5321133 -34.7304059 -156 -44 C-154.081875 -44.40412109 -154.081875 -44.40412109 -152.125 -44.81640625 C-98.65448786 -53.83324969 -39.99697473 -36.08360167 0 0 Z " fill="#FAFAFA" transform="translate(569,302)"/>
<path d="M0 0 C1.37415442 1.16766252 2.74904855 2.33445561 4.125 3.5 C34.69399438 30.60835351 54.90247366 68.09837348 63 108 C63.18691406 108.91056152 63.37382813 109.82112305 63.56640625 110.75927734 C65.42587157 121.08761107 65.3973273 131.41567492 65.375 141.875 C65.37418427 143.30830658 65.37418427 143.30830658 65.37335205 144.77056885 C65.33557682 159.19617281 64.66285341 172.97954769 61 187 C60.76974121 187.91346191 60.53948242 188.82692383 60.30224609 189.76806641 C50.83758273 226.75706267 29.84365547 262.65120677 0 287 C-1.04193304 287.88901081 -2.0835731 288.77836507 -3.125 289.66796875 C-17.8213278 302.02282011 -34.37388244 311.47375594 -52 319 C-52.61665527 319.27005859 -53.23331055 319.54011719 -53.86865234 319.81835938 C-71.72632043 327.53492974 -91.93544488 332.05996283 -111.37890625 332.23828125 C-112.26017181 332.2480751 -113.14143738 332.25786896 -114.04940796 332.26795959 C-150.78454378 332.59238647 -150.78454378 332.59238647 -168 328 C-168.87575684 327.76974121 -169.75151367 327.53948242 -170.65380859 327.30224609 C-176.50306533 325.72602311 -182.26232081 323.94101393 -188 322 C-189.74990234 321.41605469 -189.74990234 321.41605469 -191.53515625 320.8203125 C-216.67853564 311.78489736 -238.94403024 295.42253032 -258 277 C-258.72445312 276.32710937 -259.44890625 275.65421875 -260.1953125 274.9609375 C-275.41502507 260.48064416 -286.8004817 241.71213333 -296 223 C-296.54398437 221.8965625 -297.08796875 220.793125 -297.6484375 219.65625 C-304.91212783 203.82217372 -309.52622882 186.22125321 -312 169 C-312.0928125 168.36586182 -312.185625 167.73172363 -312.28125 167.07836914 C-314.83337406 147.46119408 -313.76511211 126.3728793 -310 107 C-309.82839355 106.11666992 -309.65678711 105.23333984 -309.47998047 104.32324219 C-303.52258815 74.81844484 -290.06718109 47.25383552 -271 24 C-270.53190918 23.42362793 -270.06381836 22.84725586 -269.58154297 22.25341797 C-240.52102885 -13.33623874 -200.5321133 -34.7304059 -156 -44 C-154.081875 -44.40412109 -154.081875 -44.40412109 -152.125 -44.81640625 C-98.65448786 -53.83324969 -39.99697473 -36.08360167 0 0 Z M-159 -35 C-159.69335449 -34.85014648 -160.38670898 -34.70029297 -161.10107422 -34.54589844 C-187.32874671 -28.75305729 -212.89455938 -17.77545465 -234 -1 C-234.53496094 -0.57783203 -235.06992187 -0.15566406 -235.62109375 0.27929688 C-270.19617831 27.84815927 -292.8569517 64.77024735 -302 108 C-302.2165625 109.0003125 -302.433125 110.000625 -302.65625 111.03125 C-304.11179444 118.3089722 -304.73895419 125.58996278 -305 133 C-305.03399902 133.9497168 -305.06799805 134.89943359 -305.10302734 135.87792969 C-306.49737867 181.92691295 -291.91825482 228.65085783 -260.07421875 262.7734375 C-258.18675832 264.79952496 -256.40379289 266.87896905 -254.625 269 C-231.27381184 295.59588629 -196.45544451 314.06671105 -162 321 C-160.72946777 321.25821533 -159.45893555 321.51643066 -158.14990234 321.7824707 C-147.33774953 323.84981725 -136.79305336 324.49936819 -125.79638672 324.44604492 C-123.13300272 324.4375256 -120.47176887 324.46646482 -117.80859375 324.49804688 C-105.46150544 324.54685605 -93.99243364 322.87791979 -82 320 C-80.9270166 319.74581299 -79.8540332 319.49162598 -78.74853516 319.22973633 C-52.87764045 312.80738654 -28.16032188 300.46059182 -8 283 C-7.20722656 282.31679688 -6.41445313 281.63359375 -5.59765625 280.9296875 C-3.0238745 278.66085619 -0.50503125 276.34450019 2 274 C3.40572266 272.69289063 3.40572266 272.69289063 4.83984375 271.359375 C25.67962681 251.53481915 40.04026765 226.16545047 49 199 C49.21543457 198.3611084 49.43086914 197.7222168 49.65283203 197.06396484 C55.80993292 178.60172339 57.2772081 160.54573661 57.375 141.1875 C57.38294586 140.35869324 57.39089172 139.52988647 57.39907837 138.67596436 C57.48210212 127.39394338 56.47067656 117.01968957 54 106 C53.68046929 104.42718895 53.3613507 102.854294 53.04296875 101.28125 C48.01513155 79.05775043 38.60611752 57.35367119 25 39 C24.26652344 37.98421875 23.53304688 36.9684375 22.77734375 35.921875 C4.62111862 11.22790676 -18.60561173 -7.429926 -46 -21 C-46.90492188 -21.45761719 -47.80984375 -21.91523438 -48.7421875 -22.38671875 C-63.04099916 -29.27535598 -78.42042814 -33.29814492 -94 -36 C-94.66725098 -36.11859375 -95.33450195 -36.2371875 -96.02197266 -36.359375 C-116.56742288 -39.84323636 -138.66307666 -39.49608074 -159 -35 Z " fill="#C7C7C7" transform="translate(569,302)"/>
<path d="M0 0 C48.51 0 97.02 0 147 0 C145.23103226 3.53793548 143.99937902 5.24930502 141.28808594 7.95483398 C140.52679382 8.71920273 139.76550171 9.48357147 138.98114014 10.27110291 C138.15720764 11.08784988 137.33327515 11.90459686 136.484375 12.74609375 C135.63578918 13.59422134 134.78720337 14.44234894 133.91290283 15.31617737 C132.11633733 17.10972213 130.31734239 18.90083615 128.51611328 20.68969727 C125.76932724 23.4183007 123.03055376 26.15474671 120.29296875 28.89257812 C118.54474059 30.63588788 116.79605735 32.3787414 115.046875 34.12109375 C114.23103943 34.9358165 113.41520386 35.75053925 112.574646 36.58995056 C109.32044717 39.81732255 106.08992084 43.00283651 102.54394531 45.91040039 C100.23914617 47.80356506 98.75675899 49.62837536 97 52 C96.34 52 95.68 52 95 52 C95 52.66 95 53.32 95 54 C93.57421875 55.3671875 93.57421875 55.3671875 91.6875 56.875 C89.02376711 59.06613512 87.03869475 61.21020719 85 64 C84.34 64 83.68 64 83 64 C83 64.66 83 65.32 83 66 C80.85117607 69.19304454 78.37592487 71.17660752 75 73 C69.26238784 73.97759386 63.61522345 73.8173438 57.8125 73.68359375 C56.14243656 73.67052106 54.47234609 73.66056479 52.80224609 73.65357971 C48.42857388 73.62698461 44.05655593 73.55833983 39.68353271 73.48065186 C34.42492354 73.39609215 29.16575793 73.36424991 23.90666199 73.3234787 C15.93662782 73.25583437 7.97021565 73.12163847 0 73 C0 48.91 0 24.82 0 0 Z " fill="#069DDE" transform="translate(343,407)"/>
<path d="M0 0 C-0.55728913 3.34373475 -1.35173889 6.03312999 -3 9 C-3.969375 8.67 -4.93875 8.34 -5.9375 8 C-10.29766837 6.73126248 -14.49554566 6.81614472 -19 7 C-19.33 8.32 -19.66 9.64 -20 11 C-19.47043701 11.21615967 -18.94087402 11.43231934 -18.39526367 11.6550293 C-15.98554793 12.64950258 -13.58678175 13.66812553 -11.1875 14.6875 C-10.35412109 15.02716797 -9.52074219 15.36683594 -8.66210938 15.71679688 C-3.90911463 17.75924843 -1.24525385 19.10050553 1 24 C1.66 24.33 2.32 24.66 3 25 C3.1546875 23.515 3.1546875 23.515 3.3125 22 C3.92942553 17.75758057 5.40753548 13.95859601 7 10 C7.89812774 7.66754885 8.79383406 5.3341643 9.6875 3 C10.450625 1.02 11.21375 -0.96 12 -3 C16.62 -3 21.24 -3 26 -3 C27.27322608 0.31159753 28.54363587 3.62423133 29.8125 6.9375 C30.16892578 7.86369141 30.52535156 8.78988281 30.89257812 9.74414062 C31.41948242 11.12182617 31.41948242 11.12182617 31.95703125 12.52734375 C32.27647705 13.35999756 32.59592285 14.19265137 32.92504883 15.05053711 C34.36610079 19.00451139 35.66919034 23.00757103 37 27 C37.33 17.1 37.66 7.2 38 -3 C62.75590082 -3.62673167 62.75590082 -3.62673167 69 1 C71.74448788 3.75895794 72.89993324 5.30716492 73.4609375 9.19140625 C73.43257813 10.30386719 73.40421875 11.41632813 73.375 12.5625 C73.36210937 13.67753906 73.34921875 14.79257812 73.3359375 15.94140625 C73.01907637 18.82631635 72.49692788 20.55102599 71 23 C70.34 23 69.68 23 69 23 C69 23.66 69 24.32 69 25 C63.26756735 28.66238753 57.72148965 28.62658391 51 29 C50.67 32.96 50.34 36.92 50 41 C42.74 41 35.48 41 28 41 C27.67 39.35 27.34 37.7 27 36 C26.46890625 36.16371094 25.9378125 36.32742188 25.390625 36.49609375 C22.46123236 37.11356377 19.74177064 37.09501925 16.75 37.0625 C15.13351562 37.04896484 15.13351562 37.04896484 13.484375 37.03515625 C12.66453125 37.02355469 11.8446875 37.01195312 11 37 C10.34 38.32 9.68 39.64 9 41 C4 41 -1 41 -6 41 C-6.57234375 41.32226562 -7.1446875 41.64453125 -7.734375 41.9765625 C-13.30196474 44.49157718 -22.00189776 43.97533736 -27.76171875 42.1015625 C-29.9375 41 -29.9375 41 -33 39 C-32.45276317 35.62537285 -31.9451 33.91765 -30 31 C-29.236875 31.165 -28.47375 31.33 -27.6875 31.5 C-22.77854151 32.16562149 -17.94564886 32.07920078 -13 32 C-12.67 30.35 -12.34 28.7 -12 27 C-12.71285156 26.82984375 -13.42570312 26.6596875 -14.16015625 26.484375 C-20.97619032 24.75972573 -26.98441557 23.21013826 -31.9375 17.9375 C-33.62665245 13.26749027 -34.01466408 8.8803913 -33 4 C-30.70599071 0.77209076 -27.95300497 -1.30464439 -24.22265625 -2.6328125 C-16.16031916 -3.96472759 -7.17538159 -4.20022337 0 0 Z " fill="#F6FAFC" transform="translate(378,424)"/>
<path d="M0 0 C1.921875 0.37109375 1.921875 0.37109375 4 1 C5.25 3.0625 5.25 3.0625 6 5 C6.99 5 7.98 5 9 5 C6.13603936 11.88941643 -0.73501642 17.26417575 -6.4375 21.875 C-8.74075033 23.78501247 -10.23764896 25.6208261 -12 28 C-12.66 28 -13.32 28 -14 28 C-14 28.66 -14 29.32 -14 30 C-15.42578125 31.3671875 -15.42578125 31.3671875 -17.3125 32.875 C-19.97623289 35.06613512 -21.96130525 37.21020719 -24 40 C-24.66 40 -25.32 40 -26 40 C-26 40.66 -26 41.32 -26 42 C-28.14882393 45.19304454 -30.62407513 47.17660752 -34 49 C-39.73761216 49.97759386 -45.38477655 49.8173438 -51.1875 49.68359375 C-52.85756344 49.67052106 -54.52765391 49.66056479 -56.19775391 49.65357971 C-60.57142612 49.62698461 -64.94344407 49.55833983 -69.31646729 49.48065186 C-74.57507646 49.39609215 -79.83424207 49.36424991 -85.09333801 49.3234787 C-93.06337218 49.25583437 -101.02978435 49.12163847 -109 49 C-109 36.46 -109 23.92 -109 11 C-104.92156194 11.81568761 -102.70577339 12.49934537 -99.1875 14.375 C-94.87137399 16.60747897 -90.5814021 18.38802519 -86 20 C-85.957279 21.66611905 -85.95936168 23.33382885 -86 25 C-87 26 -87 26 -89.29296875 26.1328125 C-94.30156901 26.11929401 -99.07889404 26.06402291 -104 25 C-105.4606285 27.64738916 -106 28.89448334 -106 32 C-99.1165869 36.02931499 -91.78648711 35.66668057 -84 35 C-81.28583487 34.27006996 -79.43611211 33.42601685 -77 32 C-77 32.66 -77 33.32 -77 34 C-75.04081032 33.94008594 -73.08248471 33.85132862 -71.125 33.75 C-70.03445313 33.70359375 -68.94390625 33.6571875 -67.8203125 33.609375 C-66.42425781 33.30773437 -66.42425781 33.30773437 -65 33 C-64.34 31.68 -63.68 30.36 -63 29 C-57.72 29 -52.44 29 -47 29 C-46.505 31.475 -46.505 31.475 -46 34 C-38.74 34 -31.48 34 -24 34 C-24.020625 32.040625 -24.04125 30.08125 -24.0625 28.0625 C-24.08377188 26.04167124 -24.07244053 24.01964199 -24 22 C-22.24792544 20.24792544 -19.69609804 20.70616089 -17.3125 20.5625 C-12.90978201 20.23715016 -9.11324604 19.71385252 -5 18 C-5 17.34 -5 16.68 -5 16 C-4.34 16 -3.68 16 -3 16 C-1.29915181 10.67067568 -0.47986031 5.56890517 0 0 Z " fill="#0369B4" transform="translate(452,431)"/>
<path d="M0 0 C3.3 0 6.6 0 10 0 C10 0.66 10 1.32 10 2 C10.99 2.33 11.98 2.66 13 3 C12.67447917 4.98567708 12.34895833 6.97135417 12.0234375 8.95703125 C11.80422152 11.31755824 11.80422152 11.31755824 14 14 C14.4375 16.4375 14.4375 16.4375 14 19 C12.0625 21.3125 12.0625 21.3125 9 23 C6.03 23 3.06 23 0 23 C0 15.41 0 7.82 0 0 Z " fill="#1674B8" transform="translate(493,438)"/>
<path d="M0 0 C1.921875 0.37109375 1.921875 0.37109375 4 1 C5.25 3.0625 5.25 3.0625 6 5 C6.99 5 7.98 5 9 5 C6.13603936 11.88941643 -0.73501642 17.26417575 -6.4375 21.875 C-8.74075033 23.78501247 -10.23764896 25.6208261 -12 28 C-12.66 28 -13.32 28 -14 28 C-14 28.66 -14 29.32 -14 30 C-16.80593645 33.37826645 -18.53130299 34.79727775 -22.93261719 35.40478516 C-26.42553364 35.49208254 -29.88323308 35.43544954 -33.375 35.3125 C-34.58800781 35.28994141 -35.80101562 35.26738281 -37.05078125 35.24414062 C-40.03512502 35.1853937 -43.01692067 35.10329222 -46 35 C-46 34.67 -46 34.34 -46 34 C-38.74 34 -31.48 34 -24 34 C-24.0309375 31.0609375 -24.0309375 31.0609375 -24.0625 28.0625 C-24.08377188 26.04167124 -24.07244053 24.01964199 -24 22 C-22.24792544 20.24792544 -19.69609804 20.70616089 -17.3125 20.5625 C-12.90978201 20.23715016 -9.11324604 19.71385252 -5 18 C-5 17.34 -5 16.68 -5 16 C-4.34 16 -3.68 16 -3 16 C-1.29915181 10.67067568 -0.47986031 5.56890517 0 0 Z " fill="#2783C1" transform="translate(452,431)"/>
<path d="M0 0 C2.31 0 4.62 0 7 0 C12 16.53846154 12 16.53846154 12 23 C10.35 23 8.7 23 7 23 C7 21.35 7 19.7 7 18 C4.69 18 2.38 18 0 18 C0 19.65 0 21.3 0 23 C-1.32 23 -2.64 23 -4 23 C-3.32545897 15.1753241 -1.73123042 7.65443386 0 0 Z " fill="#046AB5" transform="translate(512,438)"/>
<path d="M0 0 C3.68407183 0.588928 6.52681608 1.62334298 9.8125 3.375 C14.12862601 5.60747897 18.4185979 7.38802519 23 9 C23.042721 10.66611905 23.04063832 12.33382885 23 14 C22 15 22 15 19.70703125 15.1328125 C14.69843099 15.11929401 9.92110596 15.06402291 5 14 C4.01 16.31 3.02 18.62 2 21 C1.67 21 1.34 21 1 21 C0.25194283 13.97360585 -0.13794954 7.06608191 0 0 Z " fill="#0A79C0" transform="translate(343,442)"/>
<path d="M0 0 C10 0 10 0 14 3 C14.5625 6.4375 14.5625 6.4375 14 10 C11.75 12.4375 11.75 12.4375 9 14 C7.68 14 6.36 14 5 14 C5 16.97 5 19.94 5 23 C3.35 23 1.7 23 0 23 C0 15.41 0 7.82 0 0 Z " fill="#3B89C1" transform="translate(526,438)"/>
<path d="M0 0 C2.31 0 4.62 0 7 0 C7.6732656 2.89444095 8.33880404 5.79030013 9 8.6875 C9.19078125 9.50412109 9.3815625 10.32074219 9.578125 11.16210938 C10.48733916 15.17239326 11.27000098 18.85717252 11 23 C9.35 22.67 7.7 22.34 6 22 C6 20.68 6 19.36 6 18 C4.02 18 2.04 18 0 18 C-0.33 19.65 -0.66 21.3 -1 23 C-1.99 23 -2.98 23 -4 23 C-4.36263859 17.1977825 -3.25684543 13.36000789 -1 8 C-0.34 8 0.32 8 1 8 C1 10.31 1 12.62 1 15 C2.32 15 3.64 15 5 15 C4.34 12.36 3.68 9.72 3 7 C2.01 7 1.02 7 0 7 C0 4.69 0 2.38 0 0 Z " fill="#096CB6" transform="translate(479,438)"/>
<path d="M0 0 C7.38804781 -0.36334661 7.38804781 -0.36334661 10 1.1875 C11.36703913 3.66525842 11.41826612 5.21155919 11 8 C10 9.8125 10 9.8125 8 11 C5.28125957 11.24667073 2.74116148 11.13481122 0 11 C0 7.37 0 3.74 0 0 Z " fill="#0C89CD" transform="translate(429,431)"/>
<path d="M0 0 C2.31 0 4.62 0 7 0 C7.625 1.875 7.625 1.875 8 4 C7.34 4.66 6.68 5.32 6 6 C5.53993654 8.20250992 5.53993654 8.20250992 5.375 10.625 C5.30023437 11.44226563 5.22546875 12.25953125 5.1484375 13.1015625 C5.09945312 13.72804688 5.05046875 14.35453125 5 15 C3.68 15 2.36 15 1 15 C0.67 14.01 0.34 13.02 0 12 C-0.66 12.66 -1.32 13.32 -2 14 C-1.03644647 4.58997722 -1.03644647 4.58997722 0 0 Z " fill="#2179BB" transform="translate(512,438)"/>
<path d="M0 0 C-0.391875 0.37125 -0.78375 0.7425 -1.1875 1.125 C-1.785625 1.74375 -2.38375 2.3625 -3 3 C-3.886875 3.825 -4.77375 4.65 -5.6875 5.5 C-8.74538775 9.1657811 -8.48064514 12.81290398 -8.37109375 17.4140625 C-7.99833565 20.01159788 -7.31581962 21.74883872 -6 24 C-7.65 23.67 -9.3 23.34 -11 23 C-11 15.41 -11 7.82 -11 0 C-3 -1 -3 -1 0 0 Z " fill="#0694D7" transform="translate(354,419)"/>
<path d="M0 0 C1.921875 0.37109375 1.921875 0.37109375 4 1 C5.25 3.0625 5.25 3.0625 6 5 C6.99 5 7.98 5 9 5 C7.41332422 8.90285767 4.86649519 11.33520982 1.875 14.25 C0.96492188 15.14203125 0.05484375 16.0340625 -0.8828125 16.953125 C-1.58148438 17.62859375 -2.28015625 18.3040625 -3 19 C-3.66 18.67 -4.32 18.34 -5 18 C-5 17.34 -5 16.68 -5 16 C-4.34 16 -3.68 16 -3 16 C-1.29915181 10.67067568 -0.47986031 5.56890517 0 0 Z " fill="#0E89CD" transform="translate(452,431)"/>
<path d="M0 0 C0.66 0 1.32 0 2 0 C4.16137791 4.46684769 4.86759248 9.07036605 5 14 C4 15 4 15 0.4375 15.0625 C-0.696875 15.041875 -1.83125 15.02125 -3 15 C-2.22225866 9.94468132 -1.14051606 4.98283716 0 0 Z " fill="#2288C7" transform="translate(396,436)"/>
<path d="M0 0 C2.97 0 5.94 0 9 0 C8.67 0.66 8.34 1.32 8 2 C6.68 2 5.36 2 4 2 C4.02320313 2.62648438 4.04640625 3.25296875 4.0703125 3.8984375 C4.08835937 4.71570313 4.10640625 5.53296875 4.125 6.375 C4.14820313 7.18710937 4.17140625 7.99921875 4.1953125 8.8359375 C4 11 4 11 2 13 C1.54188325 14.97235333 1.54188325 14.97235333 1.375 17.125 C1.25125 18.40375 1.1275 19.6825 1 21 C0.67 21 0.34 21 0 21 C0 14.07 0 7.14 0 0 Z " fill="#0569B3" transform="translate(527,439)"/>
<path d="M0 0 C2.475 0.495 2.475 0.495 5 1 C5 2.65 5 4.3 5 6 C5.99 6 6.98 6 8 6 C8 4.02 8 2.04 8 0 C10 2 10 2 10.3125 4.4375 C9.95209822 7.39279457 9.28773145 8.18887927 7 10 C6.34 9.67 5.68 9.34 5 9 C4.34 9 3.68 9 3 9 C2.01 8.67 1.02 8.34 0 8 C0 5.36 0 2.72 0 0 Z " fill="#4A91C6" transform="translate(497,450)"/>
<path d="M0 0 C0.8353125 0.556875 0.8353125 0.556875 1.6875 1.125 C1.6875 3.435 1.6875 5.745 1.6875 8.125 C0.3675 6.805 -0.9525 5.485 -2.3125 4.125 C-2.3125 5.445 -2.3125 6.765 -2.3125 8.125 C-3.9625 8.125 -5.6125 8.125 -7.3125 8.125 C-7.3125 5.815 -7.3125 3.505 -7.3125 1.125 C-2.88173077 -1.09038462 -2.88173077 -1.09038462 0 0 Z " fill="#3081BC" transform="translate(538.3125,439.875)"/>
<path d="M0 0 C2.31 0 4.62 0 7 0 C7.33 2.31 7.66 4.62 8 7 C7.34 7 6.68 7 6 7 C5.67 8.98 5.34 10.96 5 13 C4.67 13 4.34 13 4 13 C3.67 11.02 3.34 9.04 3 7 C2.01 7 1.02 7 0 7 C0 4.69 0 2.38 0 0 Z " fill="#2D81BF" transform="translate(479,438)"/>
<path d="M0 0 C-0.33 2.97 -0.66 5.94 -1 9 C-1.66 9 -2.32 9 -3 9 C-3 8.01 -3 7.02 -3 6 C-4.98 6 -6.96 6 -9 6 C-9 4.35 -9 2.7 -9 1 C-2.25 -1.125 -2.25 -1.125 0 0 Z " fill="#1B74B7" transform="translate(506,441)"/>
<path d="M0 0 C1.85683215 3.71366429 2.51111356 6.2158891 3.125 10.25 C3.29257812 11.32765625 3.46015625 12.4053125 3.6328125 13.515625 C3.75398437 14.33546875 3.87515625 15.1553125 4 16 C2.35 16 0.7 16 -1 16 C-1 14.35 -1 12.7 -1 11 C-2.98 11 -4.96 11 -7 11 C-7 10.67 -7 10.34 -7 10 C-5.02 10 -3.04 10 -1 10 C-0.67 6.7 -0.34 3.4 0 0 Z " fill="#2079BB" transform="translate(520,445)"/>
<path d="M0 0 C0.33 1.32 0.66 2.64 1 4 C1.66 4 2.32 4 3 4 C3.66 2.68 4.32 1.36 5 0 C5.33 3.3 5.66 6.6 6 10 C4.68 10 3.36 10 2 10 C1.67 9.01 1.34 8.02 1 7 C0.34 7.66 -0.32 8.32 -1 9 C-0.67 6.03 -0.34 3.06 0 0 Z " fill="#418DC4" transform="translate(511,443)"/>
<path d="M0 0 C0.33 0 0.66 0 1 0 C1 1.98 1 3.96 1 6 C1.66 6 2.32 6 3 6 C3.33 5.34 3.66 4.68 4 4 C4.66 7.3 5.32 10.6 6 14 C4.68 14 3.36 14 2 14 C2 11.69 2 9.38 2 7 C1.34 7 0.68 7 0 7 C-0.33 7.66 -0.66 8.32 -1 9 C-0.67 6.03 -0.34 3.06 0 0 Z " fill="#90BCDA" transform="translate(478,439)"/>
<path d="M0 0 C0.66 0.99 1.32 1.98 2 3 C0.50902342 6.7952131 -1.75700849 8.61042731 -5 11 C-5.33 10.01 -5.66 9.02 -6 8 C-5.34 8 -4.68 8 -4 8 C-3.71125 6.865625 -3.4225 5.73125 -3.125 4.5625 C-2.75375 3.386875 -2.3825 2.21125 -2 1 C-1.34 0.67 -0.68 0.34 0 0 Z " fill="#1484C5" transform="translate(453,439)"/>
<path d="M0 0 C2.10827055 3.16240582 2.33817465 4.50657469 2.625 8.1875 C2.69976562 9.08855469 2.77453125 9.98960937 2.8515625 10.91796875 C2.90054687 11.60503906 2.94953125 12.29210937 3 13 C1.35 12.67 -0.3 12.34 -2 12 C-1.67 10.948125 -1.34 9.89625 -1 8.8125 C-0.16033218 5.61126643 0.19750904 3.2588992 0 0 Z " fill="#277DBD" transform="translate(487,448)"/>
<path d="M0 0 C1.32 0 2.64 0 4 0 C4 1.65 4 3.3 4 5 C2.68 5.33 1.36 5.66 0 6 C0 4.02 0 2.04 0 0 Z " fill="#EEF6F8" transform="translate(498,451)"/>
<path d="M0 0 C1.32 0 2.64 0 4 0 C4 1.65 4 3.3 4 5 C2.68 5.33 1.36 5.66 0 6 C0 4.02 0 2.04 0 0 Z " fill="#ECF4F7" transform="translate(531,442)"/>
<path d="M0 0 C2.475 0.495 2.475 0.495 5 1 C4.67 2.32 4.34 3.64 4 5 C2.68 5 1.36 5 0 5 C0 3.35 0 1.7 0 0 Z " fill="#D6EAF2" transform="translate(497,442)"/>
<path d="M0 0 C1.64350079 3.28700157 2.41321669 5.47930015 3 9 C1.68 9 0.36 9 -1 9 C-0.67 6.03 -0.34 3.06 0 0 Z " fill="#4890C5" transform="translate(509,452)"/>
<path d="M0 0 C0.66 0 1.32 0 2 0 C1.67 2.31 1.34 4.62 1 7 C0.01 6.67 -0.98 6.34 -2 6 C-2.6875 3.9375 -2.6875 3.9375 -3 2 C-2.01 2 -1.02 2 0 2 C0 1.34 0 0.68 0 0 Z " fill="#3592CB" transform="translate(380,442)"/>
<path d="M0 0 C0.33 0 0.66 0 1 0 C1.33 2.97 1.66 5.94 2 9 C1.01 9 0.02 9 -1 9 C-1.125 2.25 -1.125 2.25 0 0 Z " fill="#D0E4EE" transform="translate(515,443)"/>
<path d="M0 0 C0.33 0 0.66 0 1 0 C1.13277344 0.69867188 1.26554687 1.39734375 1.40234375 2.1171875 C1.57894531 3.02726562 1.75554687 3.93734375 1.9375 4.875 C2.11152344 5.77992188 2.28554688 6.68484375 2.46484375 7.6171875 C2.89963701 9.99956317 2.89963701 9.99956317 4 12 C2.35 11.67 0.7 11.34 -1 11 C-0.67 7.37 -0.34 3.74 0 0 Z " fill="#459ED3" transform="translate(344,431)"/>
<path d="M0 0 C0.99 1.485 0.99 1.485 2 3 C2.66 2.67 3.32 2.34 4 2 C3.67 3.65 3.34 5.3 3 7 C2.01 7 1.02 7 0 7 C0 4.69 0 2.38 0 0 Z " fill="#3B88C3" transform="translate(475,454)"/>
<path d="M0 0 C0.99 0.33 1.98 0.66 3 1 C2.67 2.65 2.34 4.3 2 6 C1.01 6 0.02 6 -1 6 C-0.67 4.02 -0.34 2.04 0 0 Z " fill="#056AB8" transform="translate(536,444)"/>
<path d="M0 0 C1.32 0 2.64 0 4 0 C4 0.99 4 1.98 4 3 C3.34 3 2.68 3 2 3 C2 3.99 2 4.98 2 6 C1.34 6 0.68 6 0 6 C0 4.02 0 2.04 0 0 Z " fill="#076AB5" transform="translate(479,439)"/>
<path d="M0 0 C0.33 0.66 0.66 1.32 1 2 C1.66 2.33 2.32 2.66 3 3 C1.35 4.32 -0.3 5.64 -2 7 C-2.33 6.01 -2.66 5.02 -3 4 C-2.34 4 -1.68 4 -1 4 C-0.67 2.68 -0.34 1.36 0 0 Z " fill="#3F94CA" transform="translate(450,443)"/>
</svg>
