<?xml version="1.0" encoding="UTF-8"?>
<svg version="1.1" xmlns="http://www.w3.org/2000/svg" width="891" height="891">
<path d="M0 0 C294.03 0 588.06 0 891 0 C891 294.03 891 588.06 891 891 C596.97 891 302.94 891 0 891 C0 596.97 0 302.94 0 0 Z " fill="#FEFEFE" transform="translate(0,0)"/>
<path d="M0 0 C1.37415442 1.16766252 2.74904855 2.33445561 4.125 3.5 C34.69399438 30.60835351 54.90247366 68.09837348 63 108 C63.18691406 108.91056152 63.37382813 109.82112305 63.56640625 110.75927734 C65.42587157 121.08761107 65.3973273 131.41567492 65.375 141.875 C65.37418427 143.30830658 65.37418427 143.30830658 65.37335205 144.77056885 C65.33557682 159.19617281 64.66285341 172.97954769 61 187 C60.76974121 187.91346191 60.53948242 188.82692383 60.30224609 189.76806641 C50.83758273 226.75706267 29.84365547 262.65120677 0 287 C-1.04193304 287.88901081 -2.0835731 288.77836507 -3.125 289.66796875 C-17.8213278 302.02282011 -34.37388244 311.47375594 -52 319 C-52.61665527 319.27005859 -53.23331055 319.54011719 -53.86865234 319.81835938 C-71.72632043 327.53492974 -91.93544488 332.05996283 -111.37890625 332.23828125 C-112.26017181 332.2480751 -113.14143738 332.25786896 -114.04940796 332.26795959 C-150.78454378 332.59238647 -150.78454378 332.59238647 -168 328 C-168.87575684 327.76974121 -169.75151367 327.53948242 -170.65380859 327.30224609 C-176.50306533 325.72602311 -182.26232081 323.94101393 -188 322 C-189.74990234 321.41605469 -189.74990234 321.41605469 -191.53515625 320.8203125 C-216.67853564 311.78489736 -238.94403024 295.42253032 -258 277 C-258.72445312 276.32710937 -259.44890625 275.65421875 -260.1953125 274.9609375 C-275.41502507 260.48064416 -286.8004817 241.71213333 -296 223 C-296.54398437 221.8965625 -297.08796875 220.793125 -297.6484375 219.65625 C-304.91212783 203.82217372 -309.52622882 186.22125321 -312 169 C-312.0928125 168.36586182 -312.185625 167.73172363 -312.28125 167.07836914 C-314.83337406 147.46119408 -313.76511211 126.3728793 -310 107 C-309.82839355 106.11666992 -309.65678711 105.23333984 -309.47998047 104.32324219 C-303.52258815 74.81844484 -290.06718109 47.25383552 -271 24 C-270.53190918 23.42362793 -270.06381836 22.84725586 -269.58154297 22.25341797 C-240.52102885 -13.33623874 -200.5321133 -34.7304059 -156 -44 C-154.081875 -44.40412109 -154.081875 -44.40412109 -152.125 -44.81640625 C-98.65448786 -53.83324969 -39.99697473 -36.08360167 0 0 Z " fill="#F9F9F9" transform="translate(569,302)"/>
<path d="M0 0 C1.37415442 1.16766252 2.74904855 2.33445561 4.125 3.5 C34.69399438 30.60835351 54.90247366 68.09837348 63 108 C63.18691406 108.91056152 63.37382813 109.82112305 63.56640625 110.75927734 C65.42587157 121.08761107 65.3973273 131.41567492 65.375 141.875 C65.37418427 143.30830658 65.37418427 143.30830658 65.37335205 144.77056885 C65.33557682 159.19617281 64.66285341 172.97954769 61 187 C60.76974121 187.91346191 60.53948242 188.82692383 60.30224609 189.76806641 C50.83758273 226.75706267 29.84365547 262.65120677 0 287 C-1.04193304 287.88901081 -2.0835731 288.77836507 -3.125 289.66796875 C-17.8213278 302.02282011 -34.37388244 311.47375594 -52 319 C-52.61665527 319.27005859 -53.23331055 319.54011719 -53.86865234 319.81835938 C-71.72632043 327.53492974 -91.93544488 332.05996283 -111.37890625 332.23828125 C-112.26017181 332.2480751 -113.14143738 332.25786896 -114.04940796 332.26795959 C-150.78454378 332.59238647 -150.78454378 332.59238647 -168 328 C-168.87575684 327.76974121 -169.75151367 327.53948242 -170.65380859 327.30224609 C-176.50306533 325.72602311 -182.26232081 323.94101393 -188 322 C-189.74990234 321.41605469 -189.74990234 321.41605469 -191.53515625 320.8203125 C-216.67853564 311.78489736 -238.94403024 295.42253032 -258 277 C-258.72445312 276.32710937 -259.44890625 275.65421875 -260.1953125 274.9609375 C-275.41502507 260.48064416 -286.8004817 241.71213333 -296 223 C-296.54398437 221.8965625 -297.08796875 220.793125 -297.6484375 219.65625 C-304.91212783 203.82217372 -309.52622882 186.22125321 -312 169 C-312.0928125 168.36586182 -312.185625 167.73172363 -312.28125 167.07836914 C-314.83337406 147.46119408 -313.76511211 126.3728793 -310 107 C-309.82839355 106.11666992 -309.65678711 105.23333984 -309.47998047 104.32324219 C-303.52258815 74.81844484 -290.06718109 47.25383552 -271 24 C-270.53190918 23.42362793 -270.06381836 22.84725586 -269.58154297 22.25341797 C-240.52102885 -13.33623874 -200.5321133 -34.7304059 -156 -44 C-154.081875 -44.40412109 -154.081875 -44.40412109 -152.125 -44.81640625 C-98.65448786 -53.83324969 -39.99697473 -36.08360167 0 0 Z M-159 -35 C-159.69335449 -34.85014648 -160.38670898 -34.70029297 -161.10107422 -34.54589844 C-187.32874671 -28.75305729 -212.89455938 -17.77545465 -234 -1 C-234.53496094 -0.57783203 -235.06992187 -0.15566406 -235.62109375 0.27929688 C-270.19617831 27.84815927 -292.8569517 64.77024735 -302 108 C-302.2165625 109.0003125 -302.433125 110.000625 -302.65625 111.03125 C-304.11179444 118.3089722 -304.73895419 125.58996278 -305 133 C-305.03399902 133.9497168 -305.06799805 134.89943359 -305.10302734 135.87792969 C-306.49737867 181.92691295 -291.91825482 228.65085783 -260.07421875 262.7734375 C-258.18675832 264.79952496 -256.40379289 266.87896905 -254.625 269 C-231.27381184 295.59588629 -196.45544451 314.06671105 -162 321 C-160.72946777 321.25821533 -159.45893555 321.51643066 -158.14990234 321.7824707 C-147.33774953 323.84981725 -136.79305336 324.49936819 -125.79638672 324.44604492 C-123.13300272 324.4375256 -120.47176887 324.46646482 -117.80859375 324.49804688 C-105.46150544 324.54685605 -93.99243364 322.87791979 -82 320 C-80.9270166 319.74581299 -79.8540332 319.49162598 -78.74853516 319.22973633 C-52.87764045 312.80738654 -28.16032188 300.46059182 -8 283 C-7.20722656 282.31679688 -6.41445313 281.63359375 -5.59765625 280.9296875 C-3.0238745 278.66085619 -0.50503125 276.34450019 2 274 C3.40572266 272.69289063 3.40572266 272.69289063 4.83984375 271.359375 C25.67962681 251.53481915 40.04026765 226.16545047 49 199 C49.21543457 198.3611084 49.43086914 197.7222168 49.65283203 197.06396484 C55.80993292 178.60172339 57.2772081 160.54573661 57.375 141.1875 C57.38294586 140.35869324 57.39089172 139.52988647 57.39907837 138.67596436 C57.48210212 127.39394338 56.47067656 117.01968957 54 106 C53.68046929 104.42718895 53.3613507 102.854294 53.04296875 101.28125 C48.01513155 79.05775043 38.60611752 57.35367119 25 39 C24.26652344 37.98421875 23.53304688 36.9684375 22.77734375 35.921875 C4.62111862 11.22790676 -18.60561173 -7.429926 -46 -21 C-46.90492188 -21.45761719 -47.80984375 -21.91523438 -48.7421875 -22.38671875 C-63.04099916 -29.27535598 -78.42042814 -33.29814492 -94 -36 C-94.66725098 -36.11859375 -95.33450195 -36.2371875 -96.02197266 -36.359375 C-116.56742288 -39.84323636 -138.66307666 -39.49608074 -159 -35 Z " fill="#C7C7C7" transform="translate(569,302)"/>
<path d="M0 0 C0.66 0 1.32 0 2 0 C2.21934204 1.51352051 2.21934204 1.51352051 2.44311523 3.05761719 C2.987119 6.80759273 3.53380683 10.55717291 4.08129883 14.30664062 C4.31770675 15.92827904 4.55339046 17.55002321 4.78833008 19.171875 C5.1265043 21.50549164 5.46729662 23.83871331 5.80859375 26.171875 C5.91280136 26.89493835 6.01700897 27.61800171 6.12437439 28.36297607 C6.60350685 31.62208979 7.10602044 34.82619306 8 38 C9.485 37.505 9.485 37.505 11 37 C12.40824893 36.91978001 13.81997231 36.89234023 15.23046875 36.90234375 C16.43413086 36.90717773 16.43413086 36.90717773 17.66210938 36.91210938 C18.91217773 36.92467773 18.91217773 36.92467773 20.1875 36.9375 C21.03248047 36.94201172 21.87746094 36.94652344 22.74804688 36.95117188 C24.83206155 36.96294597 26.91603977 36.9808811 29 37 C30.60502444 32.56679124 31.55815621 28.28753148 32.2890625 23.6328125 C32.39721283 22.95322479 32.50536316 22.27363708 32.61679077 21.57345581 C32.95763513 19.42469207 33.29142755 17.27490333 33.625 15.125 C33.85630375 13.65878041 34.08807007 12.19263371 34.3203125 10.7265625 C34.88555797 7.15186863 35.444489 3.57622111 36 0 C38.69988469 2.39046636 40.07827298 4.83875473 41.62890625 8.078125 C42.10650391 9.07457031 42.58410156 10.07101562 43.07617188 11.09765625 C43.56666016 12.13792969 44.05714844 13.17820312 44.5625 14.25 C45.05685547 15.27480469 45.55121094 16.29960937 46.06054688 17.35546875 C52.63927123 31.18948451 52.63927123 31.18948451 51.75 37.625 C51.66234375 38.33914063 51.5746875 39.05328125 51.484375 39.7890625 C51 42 51 42 49.97094727 44.21289062 C48.79272779 47.59497601 48.85296569 50.2292587 48.98046875 53.8046875 C49.02397461 55.76341797 49.02397461 55.76341797 49.06835938 57.76171875 C49.12399865 59.81816601 49.18744343 61.87354443 49.26733398 63.92919922 C49.58134829 72.51362974 49.64615997 77.43183879 44 84 C43.36762576 86.96049485 43.36762576 86.96049485 43.625 89.875 C43.66882813 90.91398437 43.71265625 91.95296875 43.7578125 93.0234375 C43.96130917 95.52447717 44.20107326 98.0089438 44.5 100.5 C44.57605469 101.2115625 44.65210938 101.923125 44.73046875 102.65625 C44.93247315 104.41281002 45.19532121 106.16255184 45.48828125 107.90625 C45.84079138 111.26996109 45.87698496 113.72446119 45 117 C41.99952806 120.31214068 38.57840845 122.56124644 34.77587891 124.87939453 C32.93463801 126.04124437 31.19606375 127.29090772 29.44921875 128.58984375 C20.63729456 135.06735293 20.63729456 135.06735293 18.14501953 134.80395508 C15.41481564 133.78067242 13.27060566 132.34361995 10.8671875 130.69140625 C9.89652344 130.02689453 8.92585938 129.36238281 7.92578125 128.67773438 C6.41564453 127.63069336 6.41564453 127.63069336 4.875 126.5625 C3.86050781 125.86833984 2.84601563 125.17417969 1.80078125 124.45898438 C-5.69896055 119.30103945 -5.69896055 119.30103945 -8 117 C-8.15112305 115.12744141 -8.15112305 115.12744141 -8.01171875 112.8515625 C-7.94138428 111.5989563 -7.94138428 111.5989563 -7.86962891 110.32104492 C-7.7794751 108.98650269 -7.7794751 108.98650269 -7.6875 107.625 C-7.63770996 106.72048096 -7.58791992 105.81596191 -7.53662109 104.8840332 C-7.20149926 99.07957777 -6.650445 93.34494679 -5.6953125 87.60546875 C-5.79110672 84.69724546 -5.79110672 84.69724546 -8.48828125 82.07421875 C-12.6366646 76.6992491 -11.36316625 70.06507715 -11.0625 63.625 C-10.51055127 52.42965379 -10.51055127 52.42965379 -14.09326172 42.05322266 C-16.01552806 37.70043322 -15.68793603 33.30306783 -14.34716797 28.81445312 C-13.46900053 26.57142304 -12.48648848 24.41819613 -11.4375 22.25 C-11.07978516 21.47865723 -10.72207031 20.70731445 -10.35351562 19.91259766 C-7.16888107 13.13190971 -3.68643901 6.52038899 0 0 Z " fill="#393757" transform="translate(335,386)"/>
<path d="M0 0 C3.875 4.75 3.875 4.75 5 7 C5.60585938 6.84402344 6.21171875 6.68804687 6.8359375 6.52734375 C15.33976806 4.5518385 22.80609936 4.76556554 31 8 C31.268125 7.236875 31.53625 6.47375 31.8125 5.6875 C32.9612484 3.08770098 33.9685876 1.89784008 36 0 C36.81837442 1.41328129 37.62946219 2.83078346 38.4375 4.25 C39.11619141 5.43335938 39.11619141 5.43335938 39.80859375 6.640625 C42.58529323 12.13940037 42.45899933 18.05435915 42.78515625 24.109375 C42.91359542 26.43529164 43.07622134 28.76028379 43.30859375 31.078125 C43.85812864 38.92862341 40.88775326 43.0727698 36 49 C33.83872927 52.24190609 33.56457327 54.01108813 33.0625 57.8125 C31.69425907 66.43972909 31.69425907 66.43972909 29 70 C26 71.0625 26 71.0625 23 71 C21.125 69.8125 21.125 69.8125 20 68 C20 66.68 20 65.36 20 64 C20.99 64 21.98 64 23 64 C23 63.34 23 62.68 23 62 C23.66 62 24.32 62 25 62 C24.34 60.35 23.68 58.7 23 57 C17.555 57.495 17.555 57.495 12 58 C12 59.32 12 60.64 12 62 C13.65 62.66 15.3 63.32 17 64 C15.75023244 67.65316671 15.32901247 68.78065836 12 71 C9 71.0625 9 71.0625 6 70 C3.37056301 65.77411913 2.87452276 62.08783324 2.3125 57.1875 C1.29858318 50.11676427 -2.32840896 46.15415099 -7 41 C-8.84404032 37.31191937 -8.09076906 33.04638896 -8 29 C-8.00338379 28.32211426 -8.00676758 27.64422852 -8.01025391 26.94580078 C-8.05528185 16.15568306 -7.26028383 8.606185 0 0 Z " fill="#3C3B63" transform="translate(336,422)"/>
<path d="M0 0 C0.33 0 0.66 0 1 0 C1.33 14.19 1.66 28.38 2 43 C5.3 38.38 8.6 33.76 12 29 C16.11165073 27.80276393 17.26388084 27.50201801 21.125 28.125 C21.89070312 28.18816406 22.65640625 28.25132812 23.4453125 28.31640625 C25.30374277 28.4790189 27.15408483 28.73017945 29 29 C29 31 29 31 27.0625 33.0625 C26.04184713 34.04185478 25.02097591 35.020982 24 36 C22.39314854 37.60147737 20.78913843 39.20580908 19.1875 40.8125 C17.79166667 42.20833333 16.39583333 43.60416667 15 45 C16.27242588 47.63974945 17.6483233 50.09631441 19.27734375 52.53125 C19.70853516 53.17707031 20.13972656 53.82289063 20.58398438 54.48828125 C21.03064453 55.15214844 21.47730469 55.81601562 21.9375 56.5 C22.38029297 57.16386719 22.82308594 57.82773437 23.27929688 58.51171875 C25.06629337 61.18022916 26.84829594 63.80425283 28.81640625 66.34375 C30 68 30 68 30 70 C24.3472368 71.07356112 18.50829265 72.12273187 13 70 C7.89620547 65.30345125 4.51963777 58.39926479 2 52 C2 51.34 2 50.68 2 50 C1.34 50 0.68 50 0 50 C0 56.6 0 63.2 0 70 C-4.29 70 -8.58 70 -13 70 C-13.32612701 63.24589037 -13.55938816 56.49654051 -13.71411133 49.73632812 C-13.7787162 47.44710324 -13.86684351 45.15839743 -13.98071289 42.87109375 C-14.81223205 25.71395634 -12.08697592 14.97202391 -1.29399109 1.41937256 C-0.86697403 0.95097961 -0.43995697 0.48258667 0 0 Z " fill="#0F2034" transform="translate(567,408)"/>
<path d="M0 0 C4.95 0 9.9 0 15 0 C18.53873887 8.21492953 20.79718843 16.34609741 23 25 C25.64 16.75 28.28 8.5 31 0 C35.29 0 39.58 0 44 0 C43.51786944 6.63503485 41.67030467 11.78134642 38.9375 17.8125 C38.11610797 19.66618869 37.29581958 21.52036676 36.4765625 23.375 C36.06180664 24.30828125 35.64705078 25.2415625 35.21972656 26.203125 C34.04776311 28.89047754 32.93085553 31.59296309 31.8359375 34.3125 C31.32365601 35.57549927 31.32365601 35.57549927 30.80102539 36.86401367 C30.16414233 38.44151435 29.53509503 40.02221264 28.91577148 41.60668945 C25.35312178 50.32843635 19.90839529 58.1821163 11 62 C8.78125 62.265625 8.78125 62.265625 6.5 62.25 C5.7471875 62.25515625 4.994375 62.2603125 4.21875 62.265625 C1.7703279 61.97250404 0.12695946 61.21816769 -2 60 C-0.75173286 56.54326023 0.33733737 53.57390721 3 51 C4.30053496 50.65892154 5.61598399 50.37263102 6.9375 50.125 C10.46096799 49.39175528 10.92969911 49.0790885 13.5 46.1875 C15.37203258 42.21458122 15.37203258 42.21458122 15 38 C14.13943167 36.09415599 13.19991287 34.27187709 12.16796875 32.453125 C11.12215129 30.25655856 10.36937414 28.16574416 9.625 25.85546875 C7.98210933 20.78993254 5.93012741 15.94491401 3.8125 11.0625 C3.08656169 9.38813791 2.36373983 7.71242005 1.64453125 6.03515625 C1.32846924 5.3069165 1.01240723 4.57867676 0.68676758 3.82836914 C0 2 0 2 0 0 Z " fill="#0E1E32" transform="translate(504,437)"/>
<path d="M0 0 C-0.06960938 1.03447266 -0.06960938 1.03447266 -0.140625 2.08984375 C-0.17671875 3.02957031 -0.2128125 3.96929687 -0.25 4.9375 C-0.31960938 6.31228516 -0.31960938 6.31228516 -0.390625 7.71484375 C-0.01448863 10.87815065 0.57146627 12.23382444 2.01953125 14.96484375 C5.50776605 22.33121121 4.12607617 30.58582017 3.75585938 38.515625 C3.4812245 47.18211844 3.4812245 47.18211844 7.92504883 54.16552734 C10.38466262 58.36301497 8.93180981 63.87793797 8.375 68.5 C8.26542969 69.60214844 8.15585937 70.70429688 8.04296875 71.83984375 C7.4913672 77.24553891 6.81808742 82.62840711 6 88 C3 86 0 84 -3 82 C-3.73126099 81.69775513 -4.46252197 81.39551025 -5.21594238 81.08410645 C-8.10766377 79.68084654 -9.89703277 78.45188463 -12 76 C-13.30050439 70.48777038 -13.0493463 65.07706823 -12.87890625 59.4453125 C-12.86210675 57.81724574 -12.8493019 56.18913328 -12.84031677 54.56100464 C-12.80605515 50.28870619 -12.71774791 46.01918968 -12.61798096 41.74798584 C-12.52568432 37.38445675 -12.48476066 33.02047516 -12.43945312 28.65625 C-12.34311218 20.10289406 -12.18964381 11.55179366 -12 3 C-10.75336669 2.49166409 -9.50250613 1.99368855 -8.25 1.5 C-7.55390625 1.2215625 -6.8578125 0.943125 -6.140625 0.65625 C-4 0 -4 0 0 0 Z " fill="#D9D8D9" transform="translate(321,415)"/>
<path d="M0 0 C1.6256807 0.30893932 3.25052748 0.6222695 4.875 0.9375 C5.77992188 1.11152344 6.68484375 1.28554688 7.6171875 1.46484375 C10 2 10 2 12 3 C12.20876526 12.4140563 12.368558 21.82731321 12.46630955 31.24318123 C12.51323303 35.61575335 12.57684169 39.98673933 12.67895508 44.35839844 C12.77693349 48.57957332 12.83059408 52.79922568 12.85389519 57.02145004 C12.87049313 58.62998302 12.90290939 60.23843486 12.95157051 61.84631729 C13.31799053 74.45829664 13.31799053 74.45829664 10.05734253 78.2723999 C7.75575025 79.82171701 5.54893723 80.92098828 3 82 C1.83680061 82.76592253 0.68807089 83.55478033 -0.4375 84.375 C-3 86 -3 86 -5 86 C-5.495 86.99 -5.495 86.99 -6 88 C-8.09961612 68.13182405 -8.09961612 68.13182405 -8.4375 60.125 C-8.47746094 59.28195312 -8.51742188 58.43890625 -8.55859375 57.5703125 C-8 55 -8 55 -5.48046875 52.11328125 C-1.29213366 46.62013873 -2.5931228 39.61417638 -2.875 33.0625 C-3.45490004 17.73577876 -3.45490004 17.73577876 0 10 C0.35513435 7.10781414 0.35513435 7.10781414 0.1875 4.5 C0.16042969 3.6440625 0.13335937 2.788125 0.10546875 1.90625 C0.07066406 1.2771875 0.03585937 0.648125 0 0 Z " fill="#C5C5C5" transform="translate(386,415)"/>
<path d="M0 0 C3.875 4.75 3.875 4.75 5 7 C5.680625 6.835 6.36125 6.67 7.0625 6.5 C10 6 10 6 17 6 C17 22.5 17 39 17 56 C15.35 56 13.7 56 12 56 C12 57.98 12 59.96 12 62 C13.65 62.66 15.3 63.32 17 64 C15.75023244 67.65316671 15.32901247 68.78065836 12 71 C9 71.0625 9 71.0625 6 70 C3.37056301 65.77411913 2.87452276 62.08783324 2.3125 57.1875 C1.29858318 50.11676427 -2.32840896 46.15415099 -7 41 C-8.84404032 37.31191937 -8.09076906 33.04638896 -8 29 C-8.00338379 28.32211426 -8.00676758 27.64422852 -8.01025391 26.94580078 C-8.05528185 16.15568306 -7.26028383 8.606185 0 0 Z " fill="#535379" transform="translate(336,422)"/>
<path d="M0 0 C0 1.98 0 3.96 0 6 C0.47050781 5.65066406 0.94101562 5.30132812 1.42578125 4.94140625 C2.04839844 4.48636719 2.67101562 4.03132813 3.3125 3.5625 C3.92738281 3.11003906 4.54226563 2.65757812 5.17578125 2.19140625 C9.65743009 -0.73558068 14.84251268 -0.7218878 20 0 C23.86884262 1.96987914 26.49249614 4.94272494 28 9 C28.16786322 11.57534673 28.23317374 14.03754393 28.1953125 16.609375 C28.1924826 17.33618469 28.18965271 18.06299438 28.18673706 18.81182861 C28.17557523 21.12472251 28.15047851 23.43722388 28.125 25.75 C28.11496501 27.32160898 28.10584006 28.89322404 28.09765625 30.46484375 C28.07564904 34.31004622 28.04114715 38.15495664 28 42 C23.38 42 18.76 42 14 42 C13.95101563 40.08574219 13.90203125 38.17148437 13.8515625 36.19921875 C13.77653864 33.69529756 13.70099065 31.19139204 13.625 28.6875 C13.5940625 27.42486328 13.563125 26.16222656 13.53125 24.86132812 C13.49257813 23.65283203 13.45390625 22.44433594 13.4140625 21.19921875 C13.3826416 20.08377686 13.3512207 18.96833496 13.31884766 17.8190918 C13.194751 14.79631214 13.194751 14.79631214 11 12 C7.7 11.67 4.4 11.34 1 11 C1 21.23 1 31.46 1 42 C-3.62 42 -8.24 42 -13 42 C-13 28.47 -13 14.94 -13 1 C-3 0 -3 0 0 0 Z " fill="#0D1D31" transform="translate(473,436)"/>
<path d="M0 0 C0.75474609 -0.00322266 1.50949219 -0.00644531 2.28710938 -0.00976562 C6.44278644 0.03050966 8.64010585 0.41380292 12.4375 2.3125 C12.4375 5.2825 12.4375 8.2525 12.4375 11.3125 C11.73238281 11.14878906 11.02726562 10.98507812 10.30078125 10.81640625 C7.34091312 10.29550176 4.62688727 10.21383268 1.625 10.25 C0.64917969 10.25902344 -0.32664062 10.26804687 -1.33203125 10.27734375 C-2.06808594 10.28894531 -2.80414063 10.30054688 -3.5625 10.3125 C-3.5625 11.3025 -3.5625 12.2925 -3.5625 13.3125 C-2.43070312 13.85519531 -1.29890625 14.39789063 -0.1328125 14.95703125 C1.3491661 15.67926133 2.83092563 16.40194105 4.3125 17.125 C5.05886719 17.48142578 5.80523437 17.83785156 6.57421875 18.20507812 C7.28964844 18.55634766 8.00507813 18.90761719 8.7421875 19.26953125 C9.40202637 19.58897705 10.06186523 19.90842285 10.74169922 20.23754883 C12.4375 21.3125 12.4375 21.3125 14.4375 24.3125 C15.11246204 28.94305355 15.11807193 33.00807047 12.9375 37.1875 C5.66972328 43.36511021 -0.65559072 43.85003289 -9.85546875 43.6484375 C-13.2210039 43.34344696 -15.5487003 42.77550956 -18.5625 41.3125 C-18.5625 38.0125 -18.5625 34.7125 -18.5625 31.3125 C-17.098125 31.6425 -15.63375 31.9725 -14.125 32.3125 C-9.16366596 33.31750632 -4.61341816 33.47543284 0.4375 33.3125 C0.46571143 31.40742195 0.46571143 31.40742195 -0.5625 29.3125 C-2.86102165 27.94573201 -5.01050674 26.82785629 -7.4375 25.75 C-15.44686768 22.10128806 -15.44686768 22.10128806 -17.5625 19.3125 C-18.78012731 15.65961807 -18.95325851 13.15495864 -18.5625 9.3125 C-13.46310762 1.73625989 -8.70776696 -0.18686195 0 0 Z " fill="#102034" transform="translate(438.5625,435.6875)"/>
<path d="M0 0 C0.33 0 0.66 0 1 0 C1.0501123 0.57032959 1.10022461 1.14065918 1.15185547 1.72827148 C1.38319712 4.29899657 1.62890048 6.86814757 1.875 9.4375 C1.95363281 10.33533203 2.03226562 11.23316406 2.11328125 12.15820312 C2.23896484 13.43920898 2.23896484 13.43920898 2.3671875 14.74609375 C2.44050293 15.53685303 2.51381836 16.3276123 2.58935547 17.14233398 C2.79262451 18.06187866 2.79262451 18.06187866 3 19 C3.66 19.33 4.32 19.66 5 20 C3.92621094 20.73605469 2.85242188 21.47210938 1.74609375 22.23046875 C0.30987201 23.21611112 -1.12632456 24.20179016 -2.5625 25.1875 C-3.26697266 25.67025391 -3.97144531 26.15300781 -4.69726562 26.65039062 C-9.16686252 29.71937651 -13.59747806 32.83550657 -18 36 C-18.66 35.67 -19.32 35.34 -20 35 C-20 30.71 -20 26.42 -20 22 C-18.659375 21.71125 -17.31875 21.4225 -15.9375 21.125 C-9.67139532 19.03629844 -7.09558445 14.58167559 -4 9 C-2.53160615 6.04583487 -1.1955968 3.07439178 0 0 Z " fill="#3D3D64" transform="translate(373,485)"/>
<path d="M0 0 C3 1 3 1 4.5625 4 C5.036875 4.99 5.51125 5.98 6 7 C6.66 7.33 7.32 7.66 8 8 C9.07862057 9.98693263 9.97773679 12.02725899 10.90234375 14.08984375 C11.99389198 16.31735191 11.99389198 16.31735191 15 18 C16.65 18.33 18.3 18.66 20 19 C20.33 23.29 20.66 27.58 21 32 C17.21437583 32 15.98468178 30.86220701 12.89453125 28.71875 C11.91162109 28.04199219 10.92871094 27.36523438 9.91601562 26.66796875 C8.89185547 25.95253906 7.86769531 25.23710938 6.8125 24.5 C5.77673828 23.78457031 4.74097656 23.06914062 3.67382812 22.33203125 C1.11152007 20.56085057 -1.44612897 18.78331468 -4 17 C-3.34 16.67 -2.68 16.34 -2 16 C-1.52402634 13.29400158 -1.15906371 10.66404596 -0.875 7.9375 C-0.74544922 6.79958008 -0.74544922 6.79958008 -0.61328125 5.63867188 C-0.40060483 3.76003014 -0.19924541 1.88011364 0 0 Z " fill="#55557B" transform="translate(333,488)"/>
<path d="M0 0 C8.91 0 17.82 0 27 0 C26 9 26 9 24 12 C21.84521484 12.34057617 21.84521484 12.34057617 19.2109375 12.29296875 C18.26992188 12.28330078 17.32890625 12.27363281 16.359375 12.26367188 C15.37453125 12.23853516 14.3896875 12.21339844 13.375 12.1875 C11.88613281 12.16719727 11.88613281 12.16719727 10.3671875 12.14648438 C7.91091928 12.11105743 5.45572715 12.06166196 3 12 C2.49440092 10.56445975 1.9957251 9.1264798 1.5 7.6875 C1.2215625 6.88699219 0.943125 6.08648437 0.65625 5.26171875 C0 3 0 3 0 0 Z " fill="#D9D9D9" transform="translate(340,412)"/>
<path d="M0 0 C0.33 7.92 0.66 15.84 1 24 C3.475 24.99 3.475 24.99 6 26 C4.75023244 29.65316671 4.32901247 30.78065836 1 33 C-2 33.0625 -2 33.0625 -5 32 C-8.15988615 26.92161155 -8.69981837 21.44042624 -9.47265625 15.57421875 C-9.78493041 12.84786098 -9.78493041 12.84786098 -12 11 C-12 10.01 -12 9.02 -12 8 C-10.576875 7.87625 -10.576875 7.87625 -9.125 7.75 C-5.92689868 7.36617977 -5.92689868 7.36617977 -4.8125 5.125 C-4.544375 4.42375 -4.27625 3.7225 -4 3 C-1.32142857 0 -1.32142857 0 0 0 Z " fill="#CDAE9B" transform="translate(347,460)"/>
<path d="M0 0 C0.66 0 1.32 0 2 0 C3.11375 1.423125 3.11375 1.423125 4.25 2.875 C6.75506601 6.045591 9.02004503 7.07442908 13 8 C12 10 11 12 10 14 C9.68499018 15.91296873 9.39717243 17.8304681 9.125 19.75 C7.68292348 28.45470826 7.68292348 28.45470826 5 32 C2 33.0625 2 33.0625 -1 33 C-2.875 31.8125 -2.875 31.8125 -4 30 C-4 28.68 -4 27.36 -4 26 C-3.01 26 -2.02 26 -1 26 C-1 25.34 -1 24.68 -1 24 C-0.34 24 0.32 24 1 24 C0.83701416 23.43829102 0.67402832 22.87658203 0.50610352 22.29785156 C-0.02985098 19.86446819 -0.11361396 17.72377772 -0.09765625 15.234375 C-0.09443359 14.34492188 -0.09121094 13.45546875 -0.08789062 12.5390625 C-0.07951172 11.61867188 -0.07113281 10.69828125 -0.0625 9.75 C-0.05798828 8.81414062 -0.05347656 7.87828125 -0.04882812 6.9140625 C-0.03706918 4.60930959 -0.02063426 2.30468773 0 0 Z " fill="#B9937C" transform="translate(360,460)"/>
<path d="M0 0 C4.29 0 8.58 0 13 0 C12.25 7.625 12.25 7.625 10 11 C7.19564589 11.05632424 4.64853322 10.95814702 1.875 10.6875 C1.12089844 10.62626953 0.36679687 10.56503906 -0.41015625 10.50195312 C-2.27463438 10.3485467 -4.13752498 10.17606541 -6 10 C-6 9.67 -6 9.34 -6 9 C-4.02 9 -2.04 9 0 9 C0 6.03 0 3.06 0 0 Z " fill="#BFBEC0" transform="translate(354,413)"/>
<path d="M0 0 C0.33 0 0.66 0 1 0 C1.82163757 10.13353006 -0.4805872 17.9611744 -5 27 C-5.66 27 -6.32 27 -7 27 C-9.31689097 20.04932709 -7.52752603 14.92640562 -4.5625 8.625 C-4.23701172 7.90183594 -3.91152344 7.17867188 -3.57617188 6.43359375 C-1.19088855 1.19088855 -1.19088855 1.19088855 0 0 Z " fill="#C2A595" transform="translate(333,401)"/>
<path d="M0 0 C4.39099817 5.39539072 8.29932125 12.97896908 8.375 20.0625 C8 23 8 23 7 26 C6.34 26 5.68 26 5 26 C1.14655838 17.75064196 -1.85483244 10.26399812 -1 1 C-0.67 0.67 -0.34 0.34 0 0 Z " fill="#B28E79" transform="translate(374,401)"/>
<path d="M0 0 C0 1.32 0 2.64 0 4 C-0.94875 4.28875 -1.8975 4.5775 -2.875 4.875 C-6.05211578 5.76825109 -6.05211578 5.76825109 -8 8 C-8.33 7.34 -8.66 6.68 -9 6 C-10.64363134 5.27840576 -12.31050386 4.60648579 -14 4 C-13.67 2.35 -13.34 0.7 -13 -1 C-11.39773045 -1.22245393 -9.79303233 -1.42746669 -8.1875 -1.625 C-7.29417969 -1.74101562 -6.40085937 -1.85703125 -5.48046875 -1.9765625 C-3 -2 -3 -2 0 0 Z " fill="#353252" transform="translate(361,480)"/>
<path d="M0 0 C2.34211663 2.89399469 3.86862171 5.67155428 5.25 9.125 C5.60578125 9.99382812 5.9615625 10.86265625 6.328125 11.7578125 C7 14 7 14 6 16 C5.34 15.34 4.68 14.68 4 14 C3.34 14.66 2.68 15.32 2 16 C0.68 12.37 -0.64 8.74 -2 5 C-1.34 5 -0.68 5 0 5 C0 3.35 0 1.7 0 0 Z " fill="#474462" transform="translate(379,401)"/>
<path d="M0 0 C0.66 0 1.32 0 2 0 C2.66 0.99 3.32 1.98 4 3 C6.5 3.5 6.5 3.5 9 3 C9.66 2.01 10.32 1.02 11 0 C11.66 0 12.32 0 13 0 C12.75 2.375 12.75 2.375 12 5 C9.65202721 6.84483577 8.41392331 7.03028707 5.4375 6.8125 C2.80375082 5.93458361 1.63021166 5.23081595 0 3 C0 2.01 0 1.02 0 0 Z " fill="#373557" transform="translate(335,451)"/>
<path d="M0 0 C-0.33 1.65 -0.66 3.3 -1 5 C-3.97 5 -6.94 5 -10 5 C-7.2178219 -0.5643562 -5.86594058 -0.12752045 0 0 Z " fill="#A28478" transform="translate(370,444)"/>
<path d="M0 0 C3.36704285 -0.2295711 5.41370268 -0.33943529 8.375 1.375 C8.91125 1.91125 9.4475 2.4475 10 3 C10 3.66 10 4.32 10 5 C7.03 5 4.06 5 1 5 C0.67 3.35 0.34 1.7 0 0 Z " fill="#BAA196" transform="translate(337,444)"/>
<path d="M0 0 C0.99 0.66 1.98 1.32 3 2 C3 2.66 3 3.32 3 4 C-2.61 4 -8.22 4 -14 4 C-14 3.34 -14 2.68 -14 2 C-9.38 2 -4.76 2 0 2 C0 1.34 0 0.68 0 0 Z " fill="#1B263A" transform="translate(594,474)"/>
<path d="M0 0 C0.99 0.33 1.98 0.66 3 1 C6.84283684 1.13973952 10.3171369 1.17851619 14 0 C12.5 2 12.5 2 10 4 C7.24128373 4.35800135 4.79902476 4.18660165 2 4 C1.34 2.68 0.68 1.36 0 0 Z " fill="#A18275" transform="translate(347,498)"/>
<path d="M0 0 C0 0.66 0 1.32 0 2 C-5.47619048 7 -5.47619048 7 -8 7 C-8.33 9.64 -8.66 12.28 -9 15 C-9.33 15 -9.66 15 -10 15 C-10.59741978 9.02580218 -10.59741978 9.02580218 -8.9921875 6.26953125 C-3.82175926 0 -3.82175926 0 0 0 Z " fill="#3C4555" transform="translate(430,437)"/>
<path d="M0 0 C0.66 0 1.32 0 2 0 C1.6875 2.375 1.6875 2.375 1 5 C-2 7 -2 7 -6 7 C-6 6.34 -6 5.68 -6 5 C-5.38125 4.731875 -4.7625 4.46375 -4.125 4.1875 C-1.7004767 3.04443152 -1.7004767 3.04443152 0 0 Z " fill="#343254" transform="translate(370,451)"/>
<path d="M0 0 C1.5625 1.1875 1.5625 1.1875 3 3 C2.8125 5.625 2.8125 5.625 2 8 C1.01 8.495 1.01 8.495 0 9 C-0.87890625 2.84765625 -0.87890625 2.84765625 -1 1 C-0.67 0.67 -0.34 0.34 0 0 Z " fill="#323052" transform="translate(383,414)"/>
<path d="M0 0 C1.32 0 2.64 0 4 0 C4 0.99 4 1.98 4 3 C4.66 3 5.32 3 6 3 C6 2.01 6 1.02 6 0 C6.66 0 7.32 0 8 0 C7.67 1.32 7.34 2.64 7 4 C5.35 4 3.7 4 2 4 C1.34 2.68 0.68 1.36 0 0 Z " fill="#C1C0C9" transform="translate(361,451)"/>
<path d="M0 0 C0.99 0 1.98 0 3 0 C3 0.66 3 1.32 3 2 C3.66 2.33 4.32 2.66 5 3 C5 2.01 5 1.02 5 0 C5.66 0 6.32 0 7 0 C6.67 1.32 6.34 2.64 6 4 C4.35 4 2.7 4 1 4 C0.67 2.68 0.34 1.36 0 0 Z " fill="#C3C2CA" transform="translate(338,451)"/>
</svg>
