<?xml version="1.0" encoding="UTF-8"?>
<svg version="1.1" xmlns="http://www.w3.org/2000/svg" width="891" height="891">
<path d="M0 0 C294.03 0 588.06 0 891 0 C891 294.03 891 588.06 891 891 C596.97 891 302.94 891 0 891 C0 596.97 0 302.94 0 0 Z " fill="#FEFEFE" transform="translate(0,0)"/>
<path d="M0 0 C1.41154022 1.25940501 2.81660672 2.52605519 4.22119141 3.79321289 C5.59534582 4.96087541 6.97023996 6.1276685 8.34619141 7.29321289 C38.91518579 34.4015664 59.12366506 71.89158637 67.22119141 111.79321289 C67.40810547 112.70377441 67.59501953 113.61433594 67.78759766 114.55249023 C69.64706298 124.88082396 69.61851871 135.20888781 69.59619141 145.66821289 C69.59537567 147.10151947 69.59537567 147.10151947 69.59454346 148.56378174 C69.55676823 162.9893857 68.88404481 176.77276058 65.22119141 190.79321289 C64.99093262 191.7066748 64.76067383 192.62013672 64.5234375 193.5612793 C55.05877413 230.55027556 34.06484688 266.44441966 4.22119141 290.79321289 C3.17925836 291.6822237 2.13761831 292.57157796 1.09619141 293.46118164 C-13.6001364 305.816033 -30.15269104 315.26696883 -47.77880859 322.79321289 C-48.39546387 323.06327148 -49.01211914 323.33333008 -49.64746094 323.61157227 C-67.50512903 331.32814263 -87.71425348 335.85317572 -107.15771484 336.03149414 C-108.03898041 336.04128799 -108.92024597 336.05108185 -109.82821655 336.06117249 C-146.56335237 336.38559936 -146.56335237 336.38559936 -163.77880859 331.79321289 C-164.65456543 331.5629541 -165.53032227 331.33269531 -166.43261719 331.09545898 C-172.28187392 329.519236 -178.0411294 327.73422682 -183.77880859 325.79321289 C-185.52871094 325.20926758 -185.52871094 325.20926758 -187.31396484 324.61352539 C-212.45734423 315.57811025 -234.72283884 299.21574321 -253.77880859 280.79321289 C-254.50326172 280.12032227 -255.22771484 279.44743164 -255.97412109 278.75415039 C-271.19383366 264.27385706 -282.57929029 245.50534622 -291.77880859 226.79321289 C-292.32279297 225.68977539 -292.86677734 224.58633789 -293.42724609 223.44946289 C-300.69093642 207.61538662 -305.30503741 190.0144661 -307.77880859 172.79321289 C-307.87162109 172.15907471 -307.96443359 171.52493652 -308.06005859 170.87158203 C-310.61493965 151.23321503 -309.49879386 130.19112966 -305.77880859 110.79321289 C-305.56200439 109.66254395 -305.56200439 109.66254395 -305.34082031 108.5090332 C-299.3645369 78.58128835 -286.17998745 51.32153857 -266.77880859 27.79321289 C-266.31361816 27.22119141 -265.84842773 26.64916992 -265.36914062 26.05981445 C-236.72934677 -9.01986622 -196.11152161 -31.85424698 -151.77880859 -40.20678711 C-150.21453125 -40.5180957 -150.21453125 -40.5180957 -148.61865234 -40.83569336 C-97.53385663 -49.37970013 -39.12936733 -34.28472182 0 0 Z " fill="#F7F7F7" transform="translate(564.77880859375,298.206787109375)"/>
<path d="M0 0 C1.26888143 0.6610839 2.52911164 1.33897727 3.78125 2.03125 C5.1820577 2.76867378 6.58310649 3.50563973 7.984375 4.2421875 C8.69400391 4.62213867 9.40363281 5.00208984 10.13476562 5.39355469 C13.56779147 7.2131521 17.05073545 8.92983092 20.53125 10.65625 C21.85424592 11.32145699 23.17716409 11.98681863 24.5 12.65234375 C26.92457257 13.8664818 29.35756979 15.03726318 31.8125 16.19140625 C33.40578125 16.94744141 33.40578125 16.94744141 35.03125 17.71875 C36.41570312 18.35876953 36.41570312 18.35876953 37.828125 19.01171875 C40.79854672 20.85167743 42.32112926 22.63766984 44.28125 25.53125 C44.79020119 28.32898521 44.79020119 28.32898521 44.80264282 31.43832397 C44.81681244 32.6214769 44.83098206 33.80462982 44.84558105 35.02363586 C44.84062622 36.3131163 44.83567139 37.60259674 44.83056641 38.93115234 C44.83926566 40.30968834 44.84963365 41.68821467 44.86154175 43.06672668 C44.88829348 46.80449396 44.88948237 50.54185643 44.88441515 54.27970076 C44.88227346 57.40338244 44.89204834 60.52698261 44.90162599 63.65064681 C44.92380715 71.0223684 44.92469683 78.39388618 44.91259766 85.765625 C44.90052076 93.36224113 44.92513392 100.95811615 44.96773779 108.55460584 C45.00300551 115.083897 45.01496691 121.61295266 45.00846231 128.14233553 C45.00484136 132.03887563 45.01005938 135.93488721 45.03789139 139.83134079 C45.06309831 143.49740343 45.05911662 147.16231406 45.03306961 150.8283596 C45.02610527 152.80820613 45.04866005 154.78808823 45.07220459 156.76780701 C44.99479903 163.3271923 44.68352075 167.57364367 39.87391567 172.28637791 C37.32442861 174.27912839 34.74063365 175.7035002 31.80859375 177.06640625 C30.90204796 177.49632118 30.90204796 177.49632118 29.97718811 177.93492126 C28.06476815 178.83730218 26.14248416 179.7157928 24.21875 180.59375 C22.95825562 181.18399309 21.69848382 181.77578181 20.43945312 182.36914062 C17.95106749 183.53827337 15.45745236 184.69479312 12.95800781 185.84008789 C10.50125431 186.9658489 8.05364583 188.10853526 5.61230469 189.26733398 C4.46536133 189.80817627 3.31841797 190.34901855 2.13671875 190.90625 C1.11860107 191.38964844 0.1004834 191.87304688 -0.94848633 192.37109375 C-5.11196874 194.11471483 -8.37208225 194.99805837 -12.71875 193.53125 C-16.82339949 191.02433867 -20.23743717 187.82009838 -23.71875 184.53125 C-25.11847829 183.22655038 -26.51821868 181.92186375 -27.91796875 180.6171875 C-30.82924359 177.89340991 -33.72205204 175.15165289 -36.60546875 172.3984375 C-39.9146334 169.25586516 -43.312917 166.23906866 -46.76098633 163.25048828 C-49.98444348 160.4197631 -53.097318 157.47342984 -56.21875 154.53125 C-60.62715437 150.39519618 -65.0542914 146.30676448 -69.63671875 142.36328125 C-73.0984119 139.31725107 -76.46194693 136.16470172 -79.84301758 133.02978516 C-84.41201999 128.79915292 -89.04586834 124.64687127 -93.71875 120.53125 C-99.9754655 124.56927206 -105.89201176 128.89818383 -111.71875 133.53125 C-114.69476558 135.89759572 -117.68836204 138.23486604 -120.71875 140.53125 C-121.48445313 141.11648438 -122.25015625 141.70171875 -123.0390625 142.3046875 C-126.5633788 144.84936333 -129.07670682 146.40830556 -133.390625 147.234375 C-137.65212204 146.33405872 -139.9987605 144.28951256 -142.96875 141.28125 C-143.484375 140.79011719 -144 140.29898438 -144.53125 139.79296875 C-151.39769644 133.15658366 -151.39769644 133.15658366 -152.28125 128.68359375 C-151.4693704 124.13368517 -149.03646875 122.14955553 -145.71875 119.09375 C-145.12151123 118.52172852 -144.52427246 117.94970703 -143.90893555 117.36035156 C-140.26064958 113.88936825 -136.54394649 110.49225751 -132.70703125 107.23046875 C-128.63528181 103.75068288 -124.69239597 100.12218827 -120.71875 96.53125 C-121.8470054 95.4029946 -122.97562314 94.27510044 -124.10546875 93.1484375 C-125.2590376 91.99207551 -126.40684309 90.82995256 -127.55078125 89.6640625 C-132.77253518 84.37021335 -138.23025432 79.45271104 -143.9296875 74.6796875 C-144.64382813 74.07382812 -145.35796875 73.46796875 -146.09375 72.84375 C-147.06441406 72.03357422 -147.06441406 72.03357422 -148.0546875 71.20703125 C-151.03143731 68.20931841 -151.71657655 66.46365978 -151.7265625 62.1796875 C-150.41266239 57.42316539 -148.22486574 55.34356271 -144.59375 52.15625 C-144.036875 51.62386719 -143.48 51.09148437 -142.90625 50.54296875 C-139.03926536 47.04129833 -136.12073304 45.55033828 -130.71875 45.53125 C-128.62890625 46.32421875 -128.62890625 46.32421875 -126.78125 47.71875 C-126.02714844 48.27175781 -125.27304687 48.82476562 -124.49609375 49.39453125 C-123.12130859 50.45220703 -123.12130859 50.45220703 -121.71875 51.53125 C-120.47135606 52.46398601 -119.22254585 53.39482965 -117.97265625 54.32421875 C-115.20602241 56.38602836 -112.44776741 58.45836672 -109.6953125 60.5390625 C-104.75140966 64.27017532 -99.74442672 67.91105914 -94.71875 71.53125 C-91.08147268 69.51900408 -88.37641967 67.36502301 -85.53125 64.34375 C-84.29868378 63.03576864 -83.0352306 61.75473418 -81.71875 60.53125 C-81.05875 60.53125 -80.39875 60.53125 -79.71875 60.53125 C-79.71875 59.87125 -79.71875 59.21125 -79.71875 58.53125 C-78.3203125 57.12109375 -78.3203125 57.12109375 -76.34375 55.46875 C-67.2526738 47.73336061 -58.50711004 39.60673926 -49.71875 31.53125 C-43.27657663 25.61163569 -36.82461709 19.70527023 -30.3046875 13.87109375 C-28.37784246 12.12761916 -26.46879193 10.37152284 -24.5703125 8.59765625 C-24.0340625 8.09878906 -23.4978125 7.59992188 -22.9453125 7.0859375 C-21.90267275 6.11450242 -20.86341896 5.13941626 -19.828125 4.16015625 C-13.5531712 -1.67385485 -8.14367478 -3.21640937 0 0 Z " fill="#1A87D1" transform="translate(496.71875,353.46875)"/>
<path d="M0 0 C4.49301906 0.12143295 7.95962151 1.69632258 11.84375 3.84375 C13.2445577 4.58117378 14.64560649 5.31813973 16.046875 6.0546875 C16.75650391 6.43463867 17.46613281 6.81458984 18.19726562 7.20605469 C21.63029147 9.0256521 25.11323545 10.74233092 28.59375 12.46875 C29.91674592 13.13395699 31.23966409 13.79931863 32.5625 14.46484375 C34.98707257 15.6789818 37.42006979 16.84976318 39.875 18.00390625 C40.9371875 18.50792969 41.999375 19.01195312 43.09375 19.53125 C44.01671875 19.95792969 44.9396875 20.38460938 45.890625 20.82421875 C48.86104672 22.66417743 50.38362926 24.45016984 52.34375 27.34375 C52.85270119 30.14148521 52.85270119 30.14148521 52.86514282 33.25082397 C52.87931244 34.4339769 52.89348206 35.61712982 52.90808105 36.83613586 C52.90312622 38.1256163 52.89817139 39.41509674 52.89306641 40.74365234 C52.90176566 42.12218834 52.91213365 43.50071467 52.92404175 44.87922668 C52.95079348 48.61699396 52.95198237 52.35435643 52.94691515 56.09220076 C52.94477346 59.21588244 52.95454834 62.33948261 52.96412599 65.46314681 C52.98630715 72.8348684 52.98719683 80.20638618 52.97509766 87.578125 C52.96302076 95.17474113 52.98763392 102.77061615 53.03023779 110.36710584 C53.06550551 116.896397 53.07746691 123.42545266 53.07096231 129.95483553 C53.06734136 133.85137563 53.07255938 137.74738721 53.10039139 141.64384079 C53.12559831 145.30990343 53.12161662 148.97481406 53.09556961 152.6408596 C53.08860527 154.62070613 53.11116005 156.60058823 53.13470459 158.58030701 C53.05729903 165.1396923 52.74602075 169.38614367 47.93641567 174.09887791 C45.38692861 176.09162839 42.80313365 177.5160002 39.87109375 178.87890625 C38.96454796 179.30882118 38.96454796 179.30882118 38.03968811 179.74742126 C36.12726815 180.64980218 34.20498416 181.5282928 32.28125 182.40625 C31.02075562 182.99649309 29.76098382 183.58828181 28.50195312 184.18164062 C26.01317853 185.35124214 23.5185293 186.50653468 21.01782227 187.65039062 C18.56480557 188.77386877 16.12750588 189.92416598 13.69897461 191.09960938 C12.55823486 191.64552734 11.41749512 192.19144531 10.2421875 192.75390625 C9.2320459 193.24383057 8.2219043 193.73375488 7.18115234 194.23852539 C3.01152121 195.86267959 -0.23937757 195.79292347 -4.65625 195.34375 C-2.33768083 193.79803722 -0.14986571 192.54756448 2.34375 191.34375 C2.62395118 184.53118192 2.81580114 177.72010994 2.94799805 170.90307617 C3.00312917 168.58740733 3.07806054 166.27211821 3.17358398 163.95776367 C4.19092245 150.93253359 4.19092245 150.93253359 0.16699219 139.00634766 C-2.65659795 136.67636802 -5.4081336 135.01829088 -8.65625 133.34375 C-10.22101044 132.21004694 -11.76697985 131.04976245 -13.2890625 129.859375 C-14.78462905 128.76832141 -16.2820558 127.67981352 -17.78125 126.59375 C-30.2857317 117.45436965 -42.63865321 108.11727466 -54.65625 98.34375 C-50.7879953 94.27464361 -46.64135545 90.89823317 -42.15625 87.53125 C-40.64061091 86.38283109 -39.12498661 85.23439267 -37.609375 84.0859375 C-36.40764648 83.17859863 -36.40764648 83.17859863 -35.18164062 82.25292969 C-30.74675929 78.90018684 -26.32758624 75.52682182 -21.90625 72.15625 C-20.5764209 71.14328857 -20.5764209 71.14328857 -19.21972656 70.10986328 C-14.10914344 66.21658343 -9.00161226 62.31943584 -3.90625 58.40625 C-2.90078125 57.63410156 -1.8953125 56.86195313 -0.859375 56.06640625 C1.19983973 54.52815414 1.19983973 54.52815414 2.34375 53.34375 C2.4418763 51.91694499 2.47173268 50.48535036 2.47314453 49.05517578 C2.47787277 47.68838181 2.47787277 47.68838181 2.48269653 46.29397583 C2.4806723 45.30235443 2.47864807 44.31073303 2.4765625 43.2890625 C2.47751923 42.2765744 2.47847595 41.2640863 2.47946167 40.22091675 C2.48014374 38.07387225 2.47828762 35.92682572 2.47412109 33.77978516 C2.46878425 30.48986167 2.4740595 27.2000754 2.48046875 23.91015625 C2.47980776 21.8281247 2.47852615 19.74609323 2.4765625 17.6640625 C2.47858673 16.67648956 2.48061096 15.68891663 2.48269653 14.67141724 C2.47954437 13.75391693 2.47639221 12.83641663 2.47314453 11.89111328 C2.47234894 11.08360626 2.47155334 10.27609924 2.47073364 9.44412231 C2.42284554 7.1503687 2.42284554 7.1503687 1.34375 4.34375 C-2.16815809 3.11405122 -2.16815809 3.11405122 -5.65625 2.34375 C-3.65625 0.34375 -3.65625 0.34375 0 0 Z " fill="#3BA8F1" transform="translate(488.65625,351.65625)"/>
<path d="M0 0 C1.41154022 1.25940501 2.81660672 2.52605519 4.22119141 3.79321289 C5.59534582 4.96087541 6.97023996 6.1276685 8.34619141 7.29321289 C38.91518579 34.4015664 59.12366506 71.89158637 67.22119141 111.79321289 C67.40810547 112.70377441 67.59501953 113.61433594 67.78759766 114.55249023 C69.64706298 124.88082396 69.61851871 135.20888781 69.59619141 145.66821289 C69.59537567 147.10151947 69.59537567 147.10151947 69.59454346 148.56378174 C69.55676823 162.9893857 68.88404481 176.77276058 65.22119141 190.79321289 C64.99093262 191.7066748 64.76067383 192.62013672 64.5234375 193.5612793 C55.05877413 230.55027556 34.06484688 266.44441966 4.22119141 290.79321289 C3.17925836 291.6822237 2.13761831 292.57157796 1.09619141 293.46118164 C-13.6001364 305.816033 -30.15269104 315.26696883 -47.77880859 322.79321289 C-48.39546387 323.06327148 -49.01211914 323.33333008 -49.64746094 323.61157227 C-67.50512903 331.32814263 -87.71425348 335.85317572 -107.15771484 336.03149414 C-108.03898041 336.04128799 -108.92024597 336.05108185 -109.82821655 336.06117249 C-146.56335237 336.38559936 -146.56335237 336.38559936 -163.77880859 331.79321289 C-164.65456543 331.5629541 -165.53032227 331.33269531 -166.43261719 331.09545898 C-172.28187392 329.519236 -178.0411294 327.73422682 -183.77880859 325.79321289 C-185.52871094 325.20926758 -185.52871094 325.20926758 -187.31396484 324.61352539 C-212.45734423 315.57811025 -234.72283884 299.21574321 -253.77880859 280.79321289 C-254.50326172 280.12032227 -255.22771484 279.44743164 -255.97412109 278.75415039 C-271.19383366 264.27385706 -282.57929029 245.50534622 -291.77880859 226.79321289 C-292.32279297 225.68977539 -292.86677734 224.58633789 -293.42724609 223.44946289 C-300.69093642 207.61538662 -305.30503741 190.0144661 -307.77880859 172.79321289 C-307.87162109 172.15907471 -307.96443359 171.52493652 -308.06005859 170.87158203 C-310.61493965 151.23321503 -309.49879386 130.19112966 -305.77880859 110.79321289 C-305.56200439 109.66254395 -305.56200439 109.66254395 -305.34082031 108.5090332 C-299.3645369 78.58128835 -286.17998745 51.32153857 -266.77880859 27.79321289 C-266.31361816 27.22119141 -265.84842773 26.64916992 -265.36914062 26.05981445 C-236.72934677 -9.01986622 -196.11152161 -31.85424698 -151.77880859 -40.20678711 C-150.21453125 -40.5180957 -150.21453125 -40.5180957 -148.61865234 -40.83569336 C-97.53385663 -49.37970013 -39.12936733 -34.28472182 0 0 Z M-170.77880859 -27.20678711 C-171.49101562 -26.99683105 -172.20322266 -26.786875 -172.93701172 -26.57055664 C-200.32789237 -18.32094101 -224.06789737 -3.888391 -244.77880859 15.79321289 C-245.28412109 16.27129395 -245.78943359 16.749375 -246.31005859 17.24194336 C-271.83772744 41.54999101 -289.30856937 73.36062186 -296.77880859 107.79321289 C-297.21 109.69393555 -297.21 109.69393555 -297.64990234 111.63305664 C-299.45973134 120.024082 -300.52822897 128.21903195 -300.77880859 136.79321289 C-300.81135742 137.73712891 -300.84390625 138.68104492 -300.87744141 139.65356445 C-302.42443085 190.51670212 -284.50263865 236.73645675 -249.68505859 273.78540039 C-225.18312601 299.3905786 -192.59623124 317.80938129 -157.77880859 324.79321289 C-157.1624353 324.91742615 -156.54606201 325.0416394 -155.91101074 325.1696167 C-144.38600751 327.43765867 -133.2610315 328.29051454 -121.52880859 328.16821289 C-120.72653839 328.16356018 -119.92426819 328.15890747 -119.09768677 328.15411377 C-98.66897842 328.01580983 -80.15185214 325.40758679 -60.77880859 318.79321289 C-60.09157715 318.56794922 -59.4043457 318.34268555 -58.69628906 318.1105957 C-40.97488659 312.2747019 -24.47549285 303.24075872 -9.77880859 291.79321289 C-8.89966797 291.13579102 -8.02052734 290.47836914 -7.11474609 289.80102539 C27.60238202 262.84543045 50.61852837 223.72092944 59.22119141 180.79321289 C59.39851807 179.9144751 59.57584473 179.0357373 59.75854492 178.13037109 C61.56724234 167.98269492 61.66223672 157.88152592 61.65869141 147.60571289 C61.65942657 146.67868561 61.66016174 145.75165833 61.66091919 144.79653931 C61.62870039 129.29328846 60.43525589 114.79349483 56.22119141 99.79321289 C55.83568115 98.40634277 55.83568115 98.40634277 55.44238281 96.99145508 C42.40517027 51.61331198 11.24062891 12.40130704 -29.71630859 -10.95678711 C-46.56926308 -20.27938699 -64.13757281 -26.94398701 -82.96630859 -30.95678711 C-84.44478271 -31.27329224 -84.44478271 -31.27329224 -85.953125 -31.59619141 C-113.82981028 -37.25465234 -143.5772753 -35.23639424 -170.77880859 -27.20678711 Z " fill="#C7C7C7" transform="translate(564.77880859375,298.206787109375)"/>
<path d="M0 0 C3 2 3 2 4 5 C4.12993815 6.47551621 4.20942283 7.95579624 4.25634766 9.4362793 C4.28532135 10.33118576 4.31429504 11.22609222 4.34414673 12.14811707 C4.44204303 16.24525449 4.51568688 20.34223756 4.56982422 24.44018555 C4.60646247 26.59649228 4.6610111 28.75257266 4.73388672 30.90795898 C5.32598193 48.69946523 5.32598193 48.69946523 2.26635742 54.0078125 C-0.04095361 56.09775542 -2.26747188 57.52088895 -5 59 C-6.4810361 60.09911027 -7.94882702 61.21630905 -9.40234375 62.3515625 C-10.91125845 63.44658269 -12.4230671 64.53762435 -13.9375 65.625 C-20.54958424 70.43081163 -27.06648476 75.33262577 -33.5 80.375 C-35.67808315 82.07356133 -37.85699275 83.77105665 -40.03613281 85.46826172 C-41.28730134 86.4441234 -42.53683242 87.42209073 -43.78417969 88.40283203 C-45.30474099 89.59356238 -46.83929187 90.76636979 -48.375 91.9375 C-49.59316406 92.87916016 -49.59316406 92.87916016 -50.8359375 93.83984375 C-53 95 -53 95 -54.91625977 94.72509766 C-57.15599358 93.94571752 -58.62963617 93.00332731 -60.50390625 91.55859375 C-61.1572998 91.06085449 -61.81069336 90.56311523 -62.48388672 90.05029297 C-63.1698291 89.51807129 -63.85577148 88.98584961 -64.5625 88.4375 C-65.99295483 87.34435197 -67.42394702 86.25190677 -68.85546875 85.16015625 C-69.55720215 84.62277832 -70.25893555 84.08540039 -70.98193359 83.53173828 C-74.59121769 80.79224537 -78.27688953 78.16126037 -81.9609375 75.5234375 C-84 74 -84 74 -86 72 C-84.96939453 71.07767578 -84.96939453 71.07767578 -83.91796875 70.13671875 C-83.01691406 69.32847656 -82.11585938 68.52023437 -81.1875 67.6875 C-80.29417969 66.88699219 -79.40085937 66.08648437 -78.48046875 65.26171875 C-77.04612616 63.95386936 -75.63600706 62.61592469 -74.30078125 61.20703125 C-73 60 -73 60 -71 60 C-71 59.34 -71 58.68 -71 58 C-69.6015625 56.58984375 -69.6015625 56.58984375 -67.625 54.9375 C-58.5339238 47.20211061 -49.78836004 39.07548926 -41 31 C-27.8296203 18.89794007 -27.8296203 18.89794007 -21.57421875 13.34765625 C-19.65426509 11.59668182 -17.79915188 9.82550611 -15.95703125 7.99609375 C-15.43431641 7.48820312 -14.91160156 6.9803125 -14.37304688 6.45703125 C-13.35916042 5.46979262 -12.35820779 4.46903042 -11.37304688 3.453125 C-7.65232883 -0.12902837 -5.06530859 -0.66069242 0 0 Z " fill="#2F81B8" transform="translate(488,354)"/>
<path d="M0 0 C0 28.71 0 57.42 0 87 C-2.94622075 85.52688963 -5.21178533 84.22464911 -7.80859375 82.3046875 C-8.54513184 81.76166992 -9.28166992 81.21865234 -10.04052734 80.65917969 C-11.22702881 79.77601074 -11.22702881 79.77601074 -12.4375 78.875 C-13.26717285 78.26043945 -14.0968457 77.64587891 -14.95166016 77.01269531 C-23.06412453 70.9862932 -31.11013505 64.8729979 -39.12890625 58.72265625 C-42.13979169 56.41378159 -45.16409953 54.12701369 -48.21484375 51.87109375 C-48.83182129 51.41057617 -49.44879883 50.95005859 -50.08447266 50.47558594 C-51.68338991 49.28373974 -53.28869049 48.10047 -54.89453125 46.91796875 C-55.58933594 46.28503906 -56.28414063 45.65210938 -57 45 C-57 44.01 -57 43.02 -57 42 C-55.40551758 40.44458008 -55.40551758 40.44458008 -53.14453125 38.76953125 C-52.30470703 38.13934082 -51.46488281 37.50915039 -50.59960938 36.85986328 C-49.67986328 36.1842334 -48.76011719 35.50860352 -47.8125 34.8125 C-45.88132138 33.3687424 -43.95033733 31.92472453 -42.01953125 30.48046875 C-41.02260254 29.73974121 -40.02567383 28.99901367 -38.99853516 28.23583984 C-34.30430167 24.73561266 -29.65333527 21.17929992 -25 17.625 C-24.12859375 16.96218018 -23.2571875 16.29936035 -22.359375 15.61645508 C-18.51122246 12.6889745 -14.6713094 9.75298368 -10.86328125 6.7734375 C-10.25419922 6.29825684 -9.64511719 5.82307617 -9.01757812 5.33349609 C-7.44213442 4.10138362 -5.87124869 2.86344903 -4.30078125 1.625 C-2 0 -2 0 0 0 Z " fill="#F7F8F8" transform="translate(492,406)"/>
<path d="M0 0 C3.1975493 1.41786946 5.41860282 3.13525701 7.93359375 5.5546875 C9.0309082 6.60076172 9.0309082 6.60076172 10.15039062 7.66796875 C10.90513672 8.39628906 11.65988281 9.12460937 12.4375 9.875 C18.98676854 16.20123241 18.98676854 16.20123241 26 22 C24.583938 26.24818601 21.43780919 27.90786821 17.9375 30.4375 C16.48547424 31.50493247 15.03365769 32.57264956 13.58203125 33.640625 C12.83002441 34.19041016 12.07801758 34.74019531 11.30322266 35.30664062 C6.85382677 38.57789459 2.45883486 41.92219513 -1.94555664 45.25366211 C-7.0409704 49.08671317 -9.49430596 50.67486453 -16 50 C-18.406345 48.2979511 -20.21682851 46.80937215 -22.25 44.75 C-22.765625 44.25886719 -23.28125 43.76773438 -23.8125 43.26171875 C-30.67894644 36.62533366 -30.67894644 36.62533366 -31.5625 32.15234375 C-30.7506204 27.60243517 -28.31771875 25.61830553 -25 22.5625 C-24.40276123 21.99047852 -23.80552246 21.41845703 -23.19018555 20.82910156 C-19.54189958 17.35811825 -15.82519649 13.96100751 -11.98828125 10.69921875 C-7.91653181 7.21943288 -3.97364597 3.59093827 0 0 Z " fill="#1873B1" transform="translate(376,450)"/>
</svg>
