<?xml version="1.0" encoding="UTF-8"?>
<svg version="1.1" xmlns="http://www.w3.org/2000/svg" width="891" height="891">
<path d="M0 0 C294.03 0 588.06 0 891 0 C891 294.03 891 588.06 891 891 C596.97 891 302.94 891 0 891 C0 596.97 0 302.94 0 0 Z " fill="#FEFEFE" transform="translate(0,0)"/>
<path d="M0 0 C1.41154022 1.25940501 2.81660672 2.52605519 4.22119141 3.79321289 C5.59534582 4.96087541 6.97023996 6.1276685 8.34619141 7.29321289 C38.91518579 34.4015664 59.12366506 71.89158637 67.22119141 111.79321289 C67.40810547 112.70377441 67.59501953 113.61433594 67.78759766 114.55249023 C69.64706298 124.88082396 69.61851871 135.20888781 69.59619141 145.66821289 C69.59537567 147.10151947 69.59537567 147.10151947 69.59454346 148.56378174 C69.55676823 162.9893857 68.88404481 176.77276058 65.22119141 190.79321289 C64.99093262 191.7066748 64.76067383 192.62013672 64.5234375 193.5612793 C55.05877413 230.55027556 34.06484688 266.44441966 4.22119141 290.79321289 C3.17925836 291.6822237 2.13761831 292.57157796 1.09619141 293.46118164 C-13.6001364 305.816033 -30.15269104 315.26696883 -47.77880859 322.79321289 C-48.39546387 323.06327148 -49.01211914 323.33333008 -49.64746094 323.61157227 C-67.50512903 331.32814263 -87.71425348 335.85317572 -107.15771484 336.03149414 C-108.03898041 336.04128799 -108.92024597 336.05108185 -109.82821655 336.06117249 C-146.56335237 336.38559936 -146.56335237 336.38559936 -163.77880859 331.79321289 C-164.65456543 331.5629541 -165.53032227 331.33269531 -166.43261719 331.09545898 C-172.28187392 329.519236 -178.0411294 327.73422682 -183.77880859 325.79321289 C-185.52871094 325.20926758 -185.52871094 325.20926758 -187.31396484 324.61352539 C-212.45734423 315.57811025 -234.72283884 299.21574321 -253.77880859 280.79321289 C-254.50326172 280.12032227 -255.22771484 279.44743164 -255.97412109 278.75415039 C-271.19383366 264.27385706 -282.57929029 245.50534622 -291.77880859 226.79321289 C-292.32279297 225.68977539 -292.86677734 224.58633789 -293.42724609 223.44946289 C-300.69093642 207.61538662 -305.30503741 190.0144661 -307.77880859 172.79321289 C-307.87162109 172.15907471 -307.96443359 171.52493652 -308.06005859 170.87158203 C-310.61493965 151.23321503 -309.49879386 130.19112966 -305.77880859 110.79321289 C-305.56200439 109.66254395 -305.56200439 109.66254395 -305.34082031 108.5090332 C-299.3645369 78.58128835 -286.17998745 51.32153857 -266.77880859 27.79321289 C-266.31361816 27.22119141 -265.84842773 26.64916992 -265.36914062 26.05981445 C-236.72934677 -9.01986622 -196.11152161 -31.85424698 -151.77880859 -40.20678711 C-150.21453125 -40.5180957 -150.21453125 -40.5180957 -148.61865234 -40.83569336 C-97.53385663 -49.37970013 -39.12936733 -34.28472182 0 0 Z " fill="#F7F7F7" transform="translate(564.77880859375,298.206787109375)"/>
<path d="M0 0 C1.41154022 1.25940501 2.81660672 2.52605519 4.22119141 3.79321289 C5.59534582 4.96087541 6.97023996 6.1276685 8.34619141 7.29321289 C38.91518579 34.4015664 59.12366506 71.89158637 67.22119141 111.79321289 C67.40810547 112.70377441 67.59501953 113.61433594 67.78759766 114.55249023 C69.64706298 124.88082396 69.61851871 135.20888781 69.59619141 145.66821289 C69.59537567 147.10151947 69.59537567 147.10151947 69.59454346 148.56378174 C69.55676823 162.9893857 68.88404481 176.77276058 65.22119141 190.79321289 C64.99093262 191.7066748 64.76067383 192.62013672 64.5234375 193.5612793 C55.05877413 230.55027556 34.06484688 266.44441966 4.22119141 290.79321289 C3.17925836 291.6822237 2.13761831 292.57157796 1.09619141 293.46118164 C-13.6001364 305.816033 -30.15269104 315.26696883 -47.77880859 322.79321289 C-48.39546387 323.06327148 -49.01211914 323.33333008 -49.64746094 323.61157227 C-67.50512903 331.32814263 -87.71425348 335.85317572 -107.15771484 336.03149414 C-108.03898041 336.04128799 -108.92024597 336.05108185 -109.82821655 336.06117249 C-146.56335237 336.38559936 -146.56335237 336.38559936 -163.77880859 331.79321289 C-164.65456543 331.5629541 -165.53032227 331.33269531 -166.43261719 331.09545898 C-172.28187392 329.519236 -178.0411294 327.73422682 -183.77880859 325.79321289 C-185.52871094 325.20926758 -185.52871094 325.20926758 -187.31396484 324.61352539 C-212.45734423 315.57811025 -234.72283884 299.21574321 -253.77880859 280.79321289 C-254.50326172 280.12032227 -255.22771484 279.44743164 -255.97412109 278.75415039 C-271.19383366 264.27385706 -282.57929029 245.50534622 -291.77880859 226.79321289 C-292.32279297 225.68977539 -292.86677734 224.58633789 -293.42724609 223.44946289 C-300.69093642 207.61538662 -305.30503741 190.0144661 -307.77880859 172.79321289 C-307.87162109 172.15907471 -307.96443359 171.52493652 -308.06005859 170.87158203 C-310.61493965 151.23321503 -309.49879386 130.19112966 -305.77880859 110.79321289 C-305.56200439 109.66254395 -305.56200439 109.66254395 -305.34082031 108.5090332 C-299.3645369 78.58128835 -286.17998745 51.32153857 -266.77880859 27.79321289 C-266.31361816 27.22119141 -265.84842773 26.64916992 -265.36914062 26.05981445 C-236.72934677 -9.01986622 -196.11152161 -31.85424698 -151.77880859 -40.20678711 C-150.21453125 -40.5180957 -150.21453125 -40.5180957 -148.61865234 -40.83569336 C-97.53385663 -49.37970013 -39.12936733 -34.28472182 0 0 Z M-170.77880859 -27.20678711 C-171.49101562 -26.99683105 -172.20322266 -26.786875 -172.93701172 -26.57055664 C-200.32789237 -18.32094101 -224.06789737 -3.888391 -244.77880859 15.79321289 C-245.28412109 16.27129395 -245.78943359 16.749375 -246.31005859 17.24194336 C-271.83772744 41.54999101 -289.30856937 73.36062186 -296.77880859 107.79321289 C-297.21 109.69393555 -297.21 109.69393555 -297.64990234 111.63305664 C-299.45973134 120.024082 -300.52822897 128.21903195 -300.77880859 136.79321289 C-300.81135742 137.73712891 -300.84390625 138.68104492 -300.87744141 139.65356445 C-302.42443085 190.51670212 -284.50263865 236.73645675 -249.68505859 273.78540039 C-225.18312601 299.3905786 -192.59623124 317.80938129 -157.77880859 324.79321289 C-157.1624353 324.91742615 -156.54606201 325.0416394 -155.91101074 325.1696167 C-144.38600751 327.43765867 -133.2610315 328.29051454 -121.52880859 328.16821289 C-120.72653839 328.16356018 -119.92426819 328.15890747 -119.09768677 328.15411377 C-98.66897842 328.01580983 -80.15185214 325.40758679 -60.77880859 318.79321289 C-60.09157715 318.56794922 -59.4043457 318.34268555 -58.69628906 318.1105957 C-40.97488659 312.2747019 -24.47549285 303.24075872 -9.77880859 291.79321289 C-8.89966797 291.13579102 -8.02052734 290.47836914 -7.11474609 289.80102539 C27.60238202 262.84543045 50.61852837 223.72092944 59.22119141 180.79321289 C59.39851807 179.9144751 59.57584473 179.0357373 59.75854492 178.13037109 C61.56724234 167.98269492 61.66223672 157.88152592 61.65869141 147.60571289 C61.65942657 146.67868561 61.66016174 145.75165833 61.66091919 144.79653931 C61.62870039 129.29328846 60.43525589 114.79349483 56.22119141 99.79321289 C55.83568115 98.40634277 55.83568115 98.40634277 55.44238281 96.99145508 C42.40517027 51.61331198 11.24062891 12.40130704 -29.71630859 -10.95678711 C-46.56926308 -20.27938699 -64.13757281 -26.94398701 -82.96630859 -30.95678711 C-84.44478271 -31.27329224 -84.44478271 -31.27329224 -85.953125 -31.59619141 C-113.82981028 -37.25465234 -143.5772753 -35.23639424 -170.77880859 -27.20678711 Z " fill="#C7C7C7" transform="translate(564.77880859375,298.206787109375)"/>
<path d="M0 0 C2.12438339 -0.08078641 4.2496323 -0.13909141 6.375 -0.1875 C7.55835938 -0.22230469 8.74171875 -0.25710938 9.9609375 -0.29296875 C11.46527344 -0.14794922 11.46527344 -0.14794922 13 0 C14.77670123 2.66505185 15.37170669 3.92140796 16.04296875 6.90234375 C16.22641846 7.69721191 16.40986816 8.49208008 16.59887695 9.31103516 C16.79312256 10.17776855 16.98736816 11.04450195 17.1875 11.9375 C19.56722875 22.27764747 22.13309298 32.56458749 24.7644043 42.84350586 C25.05484619 43.99085205 25.34528809 45.13819824 25.64453125 46.3203125 C25.90596924 47.34398926 26.16740723 48.36766602 26.43676758 49.42236328 C27 52 27 52 27 55 C27.66 55 28.32 55 29 55 C29.03955811 54.41154297 29.07911621 53.82308594 29.11987305 53.21679688 C29.67568725 46.42218408 31.07045748 40.0797996 32.8125 33.5 C34.96376864 25.18223471 36.99281954 16.86510587 38.70629883 8.4453125 C39.41607575 5.08115344 40.06504189 2.90243716 42 0 C45.0390625 -0.29296875 45.0390625 -0.29296875 48.625 -0.1875 C49.81351562 -0.16042969 51.00203125 -0.13335937 52.2265625 -0.10546875 C53.14179688 -0.07066406 54.05703125 -0.03585937 55 0 C58.00722801 8.36179073 60.01275817 16.93046194 62.0625 25.5625 C62.59164685 27.77377686 63.12189887 29.98478678 63.65220642 32.19578552 C64.13192657 34.19855122 64.60913285 36.20191858 65.08618164 38.20532227 C65.73728307 40.90905443 66.41264752 43.60037901 67.10717773 46.29272461 C67.8560698 49.40235711 68.19773036 51.83631419 68 55 C68.66 55 69.32 55 70 55 C70.09869385 54.46955078 70.1973877 53.93910156 70.29907227 53.39257812 C71.76713154 45.77096282 73.57012152 38.23557682 75.40405273 30.69580078 C75.93627082 28.50505959 76.46342709 26.31314154 76.99023438 24.12109375 C82.12138952 2.87861048 82.12138952 2.87861048 85 0 C87.8203125 -0.1953125 87.8203125 -0.1953125 91.125 -0.125 C92.22070312 -0.10695313 93.31640625 -0.08890625 94.4453125 -0.0703125 C95.70988281 -0.03550781 95.70988281 -0.03550781 97 0 C96.35717952 5.90453638 94.81716179 11.28076539 93.015625 16.9296875 C92.71815369 17.87828644 92.42068237 18.82688538 92.11419678 19.80422974 C91.16455714 22.82945005 90.20763828 25.8523032 89.25 28.875 C88.31092996 31.8530828 87.37344418 34.83165635 86.43713379 37.81060791 C85.82568794 39.75578976 85.21298812 41.70057791 84.59899902 43.6449585 C83.18533126 48.13880746 81.80126491 52.63667747 80.50195312 57.16503906 C80.27505798 57.95556671 80.04816284 58.74609436 79.81439209 59.56057739 C79.3982305 61.02421931 78.9878953 62.48953556 78.58453369 63.95675659 C77.21688462 68.78311538 77.21688462 68.78311538 75 71 C71.9609375 71.1953125 71.9609375 71.1953125 68.375 71.125 C67.18648438 71.10695313 65.99796875 71.08890625 64.7734375 71.0703125 C63.85820312 71.04710937 62.94296875 71.02390625 62 71 C58.86893559 63.54825705 57.26215195 55.80793491 55.5625 47.9375 C54.98473395 45.27899758 54.40292206 42.62142973 53.81640625 39.96484375 C53.67272614 39.31381683 53.52904602 38.66278992 53.38101196 37.99203491 C51.80009412 30.93752799 49.9202977 23.96897358 48 17 C47.8141333 17.79881592 47.6282666 18.59763184 47.43676758 19.4206543 C45.76073079 26.62115626 44.08041991 33.82063429 42.39561462 41.01908875 C41.41838714 45.19809758 40.45179355 49.37940098 39.4921875 53.5625 C39.05743155 55.43753244 38.6225459 57.31253481 38.1875 59.1875 C37.89613159 60.47563599 37.89613159 60.47563599 37.59887695 61.78979492 C36.76926666 65.33886557 36.04156939 67.93764591 34 71 C30.9609375 71.29296875 30.9609375 71.29296875 27.375 71.1875 C26.18648438 71.16042969 24.99796875 71.13335937 23.7734375 71.10546875 C22.85820312 71.07066406 21.94296875 71.03585937 21 71 C17.85040498 65.45974851 16.38361011 59.63083164 14.75 53.5 C12.44393436 45.0427751 10.01092 36.6530709 7.3125 28.3125 C0 5.64840507 0 5.64840507 0 0 Z " fill="#293342" transform="translate(401,402)"/>
<path d="M0 0 C3.87670419 0.60512062 6.86665865 1.7820731 10.33984375 3.58984375 C32.52455512 14.86214001 55.30835445 23.70812518 80.01367188 27.67822266 C81.81081555 27.96935286 83.60132889 28.30071038 85.390625 28.63671875 C98.07545271 30.9777668 110.94540363 31.21158137 123.8125 31.1875 C124.51709351 31.18623108 125.22168701 31.18496216 125.94763184 31.18365479 C136.41778884 31.14780417 146.67478405 30.95370312 157 29 C158.03044434 28.80631836 159.06088867 28.61263672 160.12255859 28.41308594 C177.62242883 25.04215902 194.64152468 20.97483594 210.95703125 13.6640625 C213.38545892 12.87470743 215.46266156 12.88486771 218 13 C218.33 14.65 218.66 16.3 219 18 C213.72716778 22.87163846 208.38301641 26.24892162 202 29.5 C201.06937744 29.97775879 200.13875488 30.45551758 199.17993164 30.94775391 C158.94949482 51.33173008 109.96609704 55.42500653 66.875 42.0625 C59.76331032 39.73065565 52.79389053 37.1498947 46 34 C45.40155273 33.72462402 44.80310547 33.44924805 44.18652344 33.16552734 C33.81168508 28.34286893 24.27478848 22.6925481 15 16 C14.34064453 15.525625 13.68128906 15.05125 13.00195312 14.5625 C11.02672128 13.12457711 9.07258377 11.66260045 7.125 10.1875 C6.52349121 9.74365967 5.92198242 9.29981934 5.30224609 8.8425293 C2.63694766 6.76774375 1.13891756 5.44441326 0.1171875 2.17578125 C0.07851563 1.45777344 0.03984375 0.73976563 0 0 Z " fill="#FE9A04" transform="translate(326,495)"/>
<path d="M0 0 C8.67623876 9.66780891 7.87830421 20.3711592 7.8125 32.625 C7.808636 35.33921871 7.81219953 38.05277659 7.83309937 40.766922 C7.84507089 42.44533905 7.84271585 44.12394334 7.82339478 45.80229187 C7.84870344 51.11937638 8.85450757 54.66054564 11.1875 59.4375 C11.75 62.125 11.75 62.125 11.1875 64.4375 C8.42798104 66.8119698 6.11654684 68.16558385 2.625 69.1875 C-1.04462375 68.058385 -2.06579463 65.42858398 -3.89453125 62.1875 C-4.19746094 61.61 -4.50039063 61.0325 -4.8125 60.4375 C-5.30878906 60.83582031 -5.80507813 61.23414063 -6.31640625 61.64453125 C-15.22739574 68.59408852 -23.41359109 71.45138008 -34.8125 70.4375 C-41.00138383 68.73376084 -45.38924042 64.78634309 -48.8125 59.4375 C-51.84991591 51.70589586 -51.38880265 45.31300752 -48.13671875 37.8046875 C-45.16055232 32.48446078 -40.23644492 28.81890253 -34.44140625 26.90234375 C-25.07013322 25.2453133 -14.9237916 25.78694244 -5.8125 28.4375 C-5.81132892 18.03153244 -5.81132892 18.03153244 -10.8125 9.4375 C-18.78233264 5.49380695 -27.70294662 6.83740313 -35.875 9.5 C-36.91785156 9.88285156 -37.96070313 10.26570313 -39.03515625 10.66015625 C-41.85692956 11.44993528 -43.11905841 11.46449571 -45.8125 10.4375 C-46.33071862 5.25531377 -46.33071862 5.25531377 -45.8125 2.4375 C-34.4718999 -7.82304294 -12.70562539 -7.05868077 0 0 Z " fill="#293342" transform="translate(385.8125,404.5625)"/>
<path d="M0 0 C1.71484375 1.0703125 1.71484375 1.0703125 3.71484375 3.0703125 C3.98476281 5.75870635 3.80221732 8.36173186 3.71484375 11.0703125 C2.27692859 10.92863113 0.83952005 10.78180207 -0.59765625 10.6328125 C-1.39816406 10.55160156 -2.19867187 10.47039062 -3.0234375 10.38671875 C-5.28515625 10.0703125 -5.28515625 10.0703125 -8.28515625 9.0703125 C-11.09200215 8.89595649 -13.85191076 8.79338993 -16.66015625 8.7578125 C-17.79324219 8.71430664 -17.79324219 8.71430664 -18.94921875 8.66992188 C-22.86615818 8.6254112 -24.85002364 8.80945927 -28.2890625 10.87109375 C-30.60368986 13.0190693 -30.60368986 13.0190693 -30.84765625 16.5703125 C-30.18652318 20.68402937 -29.42898257 21.46798135 -26.28515625 24.0703125 C-23.48374283 25.44515 -23.48374283 25.44515 -20.34765625 26.5078125 C-19.20296875 26.93191406 -18.05828125 27.35601562 -16.87890625 27.79296875 C-14.51133635 28.63448544 -12.13631844 29.4553765 -9.75390625 30.25390625 C-1.80022074 33.03587194 2.63708127 35.71908087 6.8359375 43.01953125 C8.65744479 47.26971493 8.42973257 51.90632472 6.9921875 56.2578125 C3.45381069 63.82163012 -1.74164591 67.85090641 -9.28515625 71.0703125 C-18.46561904 74.13046676 -32.64087937 73.36593476 -41.28515625 69.0703125 C-43.5234375 67.7578125 -43.5234375 67.7578125 -45.28515625 66.0703125 C-45.67578125 63.80859375 -45.67578125 63.80859375 -45.53515625 61.3828125 C-45.4990625 60.57457031 -45.46296875 59.76632812 -45.42578125 58.93359375 C-45.379375 58.31871094 -45.33296875 57.70382812 -45.28515625 57.0703125 C-41.75123629 57.50303739 -38.4734795 58.01051643 -35.07421875 59.08984375 C-30.82979796 60.18814233 -27.07883857 60.40217331 -22.72265625 60.3828125 C-21.62920898 60.40698242 -21.62920898 60.40698242 -20.51367188 60.43164062 C-15.7211417 60.43595433 -12.43966607 59.70128867 -8.28515625 57.0703125 C-6.72740689 53.95481378 -6.72035003 50.4658737 -7.28515625 47.0703125 C-9.58204154 44.19407891 -11.90336917 43.30479162 -15.36328125 42.203125 C-16.35972656 41.87441406 -17.35617187 41.54570312 -18.3828125 41.20703125 C-20.46793747 40.53782757 -22.55386522 39.87111958 -24.640625 39.20703125 C-39.26931193 34.36845655 -39.26931193 34.36845655 -42.72265625 27.5078125 C-45.02911219 22.17979856 -45.27909981 16.75108221 -44.28515625 11.0703125 C-41.46775396 4.828841 -36.29342612 1.05523122 -30.28515625 -1.9296875 C-21.17332054 -4.96696607 -8.5809159 -4.07178786 0 0 Z " fill="#2A3442" transform="translate(549.28515625,402.9296875)"/>
<path d="M0 0 C1.52377856 1.52377856 1.18976433 2.8824927 1.22265625 5.00390625 C1.1604463 9.99748881 0.07169597 14.24548075 -1.5625 18.9375 C-1.82844971 19.71875244 -2.09439941 20.50000488 -2.3684082 21.30493164 C-4.62281693 27.59650234 -7.58280552 32.94108235 -12 38 C-12.72123047 38.86818359 -12.72123047 38.86818359 -13.45703125 39.75390625 C-15 41 -15 41 -19 41 C-18.58605062 39.58253696 -18.16859503 38.16609807 -17.75 36.75 C-17.48058594 35.83734375 -17.21117187 34.9246875 -16.93359375 33.984375 C-16.30637972 31.97938958 -15.6307857 29.98896156 -14.91015625 28.015625 C-12.52209542 21.45483154 -11.4439876 15.98104454 -12 9 C-14.9219769 7.53901155 -17.49893475 7.88865099 -20.7578125 7.90234375 C-21.42086395 7.9037587 -22.08391541 7.90517365 -22.76705933 7.90663147 C-24.88641863 7.91223246 -27.00567259 7.924785 -29.125 7.9375 C-30.56119639 7.94251488 -31.99739444 7.94707781 -33.43359375 7.95117188 C-36.95576345 7.96220218 -40.47787145 7.97946741 -44 8 C-43.28369141 4.20166016 -43.28369141 4.20166016 -40.73046875 2.38671875 C-39.82941406 1.92910156 -38.92835938 1.47148437 -38 1 C-37.25363281 0.61457031 -36.50726562 0.22914063 -35.73828125 -0.16796875 C-24.71463303 -4.80109626 -10.93352896 -4.96978589 0 0 Z " fill="#FE9D0B" transform="translate(566,493)"/>
<path d="M0 0 C0.80759766 -0.00386719 1.61519531 -0.00773437 2.44726562 -0.01171875 C6.49137952 -0.00509448 10.24192826 0.1165983 14.1875 1.125 C14.80336314 10.73930793 14.80336314 10.73930793 12.6875 15.5 C7.40751602 21.04398318 3.31302001 23.43182271 -4.5 23.75 C-8.48245793 23.55595913 -10.56439528 23.25607419 -14.125 21.375 C-16.72188091 16.37359972 -16.78811815 11.63571814 -15.8125 6.125 C-11.21001785 -0.05201552 -7.25261176 -0.03423735 0 0 Z " fill="#F4F4F5" transform="translate(365.8125,440.875)"/>
</svg>
