<?xml version="1.0" encoding="UTF-8"?>
<svg version="1.1" xmlns="http://www.w3.org/2000/svg" width="891" height="891">
<path d="M0 0 C294.03 0 588.06 0 891 0 C891 294.03 891 588.06 891 891 C596.97 891 302.94 891 0 891 C0 596.97 0 302.94 0 0 Z " fill="#FEFEFE" transform="translate(0,0)"/>
<path d="M0 0 C1.41154022 1.25940501 2.81660672 2.52605519 4.22119141 3.79321289 C5.59534582 4.96087541 6.97023996 6.1276685 8.34619141 7.29321289 C38.91518579 34.4015664 59.12366506 71.89158637 67.22119141 111.79321289 C67.40810547 112.70377441 67.59501953 113.61433594 67.78759766 114.55249023 C69.64706298 124.88082396 69.61851871 135.20888781 69.59619141 145.66821289 C69.59537567 147.10151947 69.59537567 147.10151947 69.59454346 148.56378174 C69.55676823 162.9893857 68.88404481 176.77276058 65.22119141 190.79321289 C64.99093262 191.7066748 64.76067383 192.62013672 64.5234375 193.5612793 C55.05877413 230.55027556 34.06484688 266.44441966 4.22119141 290.79321289 C3.17925836 291.6822237 2.13761831 292.57157796 1.09619141 293.46118164 C-13.6001364 305.816033 -30.15269104 315.26696883 -47.77880859 322.79321289 C-48.39546387 323.06327148 -49.01211914 323.33333008 -49.64746094 323.61157227 C-67.50512903 331.32814263 -87.71425348 335.85317572 -107.15771484 336.03149414 C-108.03898041 336.04128799 -108.92024597 336.05108185 -109.82821655 336.06117249 C-146.56335237 336.38559936 -146.56335237 336.38559936 -163.77880859 331.79321289 C-164.65456543 331.5629541 -165.53032227 331.33269531 -166.43261719 331.09545898 C-172.28187392 329.519236 -178.0411294 327.73422682 -183.77880859 325.79321289 C-185.52871094 325.20926758 -185.52871094 325.20926758 -187.31396484 324.61352539 C-212.45734423 315.57811025 -234.72283884 299.21574321 -253.77880859 280.79321289 C-254.50326172 280.12032227 -255.22771484 279.44743164 -255.97412109 278.75415039 C-271.19383366 264.27385706 -282.57929029 245.50534622 -291.77880859 226.79321289 C-292.32279297 225.68977539 -292.86677734 224.58633789 -293.42724609 223.44946289 C-300.69093642 207.61538662 -305.30503741 190.0144661 -307.77880859 172.79321289 C-307.87162109 172.15907471 -307.96443359 171.52493652 -308.06005859 170.87158203 C-310.61218266 151.25440697 -309.54392071 130.16609219 -305.77880859 110.79321289 C-305.60720215 109.90988281 -305.4355957 109.02655273 -305.25878906 108.11645508 C-299.30139674 78.61165773 -285.84598969 51.04704841 -266.77880859 27.79321289 C-266.31071777 27.21684082 -265.84262695 26.64046875 -265.36035156 26.04663086 C-236.72224663 -9.02571229 -196.10411765 -31.85564193 -151.77880859 -40.20678711 C-150.21453125 -40.5180957 -150.21453125 -40.5180957 -148.61865234 -40.83569336 C-97.53385663 -49.37970013 -39.12936733 -34.28472182 0 0 Z " fill="#FBFCFC" transform="translate(564.77880859375,298.206787109375)"/>
<path d="M0 0 C1.98 0 3.96 0 6 0 C6 1.32 6 2.64 6 4 C7.65 4.33 9.3 4.66 11 5 C11 5.66 11 6.32 11 7 C11.66 7 12.32 7 13 7 C13 7.66 13 8.32 13 9 C13.66 9 14.32 9 15 9 C15 9.66 15 10.32 15 11 C16.98 11 18.96 11 21 11 C21.495 12.485 21.495 12.485 22 14 C22.66 14 23.32 14 24 14 C24 14.99 24 15.98 24 17 C25.98 17.495 25.98 17.495 28 18 C28 18.66 28 19.32 28 20 C28.99 20 29.98 20 31 20 C31 20.66 31 21.32 31 22 C32.32 22 33.64 22 35 22 C35 22.66 35 23.32 35 24 C35.66 24 36.32 24 37 24 C37 24.66 37 25.32 37 26 C38.65 26.33 40.3 26.66 42 27 C42 27.66 42 28.32 42 29 C42.66 29 43.32 29 44 29 C44 29.66 44 30.32 44 31 C45.32 31 46.64 31 48 31 C48 31.66 48 32.32 48 33 C48.66 33 49.32 33 50 33 C50 33.66 50 34.32 50 35 C51.65 35.66 53.3 36.32 55 37 C55 37.99 55 38.98 55 40 C53.35 40 51.7 40 50 40 C50 40.66 50 41.32 50 42 C49.22914063 42.06058594 48.45828125 42.12117188 47.6640625 42.18359375 C46.66117188 42.26738281 45.65828125 42.35117187 44.625 42.4375 C43.62726563 42.51871094 42.62953125 42.59992188 41.6015625 42.68359375 C39.02072387 42.84965626 39.02072387 42.84965626 37 44 C35.45976004 44.06950541 33.91665012 44.08452357 32.375 44.0625 C31.14910156 44.04896484 31.14910156 44.04896484 29.8984375 44.03515625 C29.27195312 44.02355469 28.64546875 44.01195312 28 44 C28 44.66 28 45.32 28 46 C23.11442424 47.86596475 18.59184913 48.48243035 13.4375 48.9375 C7.84787654 49.48163772 2.518702 50.23150956 -2.9375 51.625 C-8.71007439 53.0865042 -14.07069735 53.32082399 -20 53 C-20 53.66 -20 54.32 -20 55 C-21.03898437 55.19335938 -22.07796875 55.38671875 -23.1484375 55.5859375 C-24.1547522 55.77385864 -24.1547522 55.77385864 -25.18139648 55.96557617 C-26.65209515 56.24007385 -28.12296345 56.51366415 -29.59399414 56.78637695 C-33.55782982 57.52530829 -37.49944049 58.32000353 -41.4375 59.1875 C-46.01807338 60.12850064 -50.3324079 60.15056749 -55 60 C-55 60.66 -55 61.32 -55 62 C-57.97 62 -60.94 62 -64 62 C-64 82.13 -64 102.26 -64 123 C-61.36 123 -58.72 123 -56 123 C-53.66425895 123.65818133 -51.33102229 124.32529714 -49 125 C-45.85919813 125.36385246 -42.72089121 125.50283821 -39.5625 125.625 C-38.73556641 125.66367187 -37.90863281 125.70234375 -37.05664062 125.7421875 C-35.03808927 125.83553092 -33.01907669 125.91880961 -31 126 C-31 126.66 -31 127.32 -31 128 C-26.05 128 -21.1 128 -16 128 C-16 128.66 -16 129.32 -16 130 C-14.88625 129.979375 -13.7725 129.95875 -12.625 129.9375 C-9 130 -9 130 -7 131 C-5.17036589 131.20329268 -3.33591632 131.36472196 -1.5 131.5 C3.77777778 131.88888889 3.77777778 131.88888889 6 133 C9.69961481 133.28183281 13.39931033 133.44742531 17.10546875 133.62109375 C20.97021119 133.99710179 24.27995537 134.92578487 28 136 C30.47284491 136.27332801 32.9536472 136.48306555 35.4375 136.625 C36.67371094 136.69976562 37.90992188 136.77453125 39.18359375 136.8515625 C40.57771484 136.92503906 40.57771484 136.92503906 42 137 C42 137.66 42 138.32 42 139 C46.95 139 51.9 139 57 139 C57 106.33 57 73.66 57 40 C70 37 70 37 75 37 C75 36.34 75 35.68 75 35 C75.91523438 34.93941406 76.83046875 34.87882812 77.7734375 34.81640625 C78.96195313 34.73261719 80.15046875 34.64882813 81.375 34.5625 C82.55835938 34.48128906 83.74171875 34.40007812 84.9609375 34.31640625 C87.91518901 34.18915064 87.91518901 34.18915064 90 33 C94.29 33 98.58 33 103 33 C103 70.95 103 108.9 103 148 C101.68 148 100.36 148 99 148 C99 148.66 99 149.32 99 150 C98.34 150 97.68 150 97 150 C97 150.66 97 151.32 97 152 C94.525 152.99 94.525 152.99 92 154 C92 154.99 92 155.98 92 157 C90.68 157 89.36 157 88 157 C88 157.66 88 158.32 88 159 C87.34 159 86.68 159 86 159 C86 159.66 86 160.32 86 161 C85.01 161 84.02 161 83 161 C82.8453125 161.8971875 82.8453125 161.8971875 82.6875 162.8125 C81.88683897 165.36005783 81.13942468 166.41524098 79 168 C77.68 168 76.36 168 75 168 C75 168.66 75 169.32 75 170 C74.01 170 73.02 170 72 170 C72 170.66 72 171.32 72 172 C71.34 172 70.68 172 70 172 C70 172.66 70 173.32 70 174 C69.34 174 68.68 174 68 174 C68 174.66 68 175.32 68 176 C67.34 176 66.68 176 66 176 C66 176.66 66 177.32 66 178 C64.75 179.625 64.75 179.625 63 181 C61.68 181 60.36 181 59 181 C59 181.66 59 182.32 59 183 C56.69 183 54.38 183 52 183 C52 182.34 52 181.68 52 181 C49.36 181 46.72 181 44 181 C44 180.34 44 179.68 44 179 C42.5459375 178.814375 42.5459375 178.814375 41.0625 178.625 C36.65184223 178.00136191 32.33522241 177.01253494 28 176 C28 175.34 28 174.68 28 174 C26.68 174 25.36 174 24 174 C24 173.34 24 172.68 24 172 C21.69 172 19.38 172 17 172 C17 171.34 17 170.68 17 170 C15.68 170 14.36 170 13 170 C13 169.34 13 168.68 13 168 C11.4840625 167.8453125 11.4840625 167.8453125 9.9375 167.6875 C5.89144098 166.98104525 2.7491152 165.63597754 -1 164 C-2.98821313 163.60235737 -4.98732362 163.24544834 -7 163 C-7 162.34 -7 161.68 -7 161 C-8.98 161 -10.96 161 -13 161 C-13 168.26 -13 175.52 -13 183 C-13.99 183 -14.98 183 -16 183 C-16 181.68 -16 180.36 -16 179 C-16.66 179 -17.32 179 -18 179 C-18 178.01 -18 177.02 -18 176 C-18.66 176 -19.32 176 -20 176 C-20 175.34 -20 174.68 -20 174 C-20.66 174 -21.32 174 -22 174 C-22.33 172.68 -22.66 171.36 -23 170 C-24.32 170 -25.64 170 -27 170 C-27 169.01 -27 168.02 -27 167 C-27.66 167 -28.32 167 -29 167 C-29 165.68 -29 164.36 -29 163 C-29.66 163 -30.32 163 -31 163 C-31 162.34 -31 161.68 -31 161 C-31.66 161 -32.32 161 -33 161 C-33.33 159.68 -33.66 158.36 -34 157 C-34.66 157 -35.32 157 -36 157 C-36 156.34 -36 155.68 -36 155 C-36.66 155 -37.32 155 -38 155 C-38 154.01 -38 153.02 -38 152 C-38.66 152 -39.32 152 -40 152 C-40 151.34 -40 150.68 -40 150 C-40.66 150 -41.32 150 -42 150 C-42.33 148.68 -42.66 147.36 -43 146 C-43.66 146 -44.32 146 -45 146 C-45 145.01 -45 144.02 -45 143 C-45.66 143 -46.32 143 -47 143 C-47 142.34 -47 141.68 -47 141 C-47.66 141 -48.32 141 -49 141 C-49 140.34 -49 139.68 -49 139 C-49.66 139 -50.32 139 -51 139 C-51 138.34 -51 137.68 -51 137 C-51.99 137 -52.98 137 -54 137 C-54.99 134.525 -54.99 134.525 -56 132 C-56.66 132 -57.32 132 -58 132 C-58 131.34 -58 130.68 -58 130 C-58.66 130 -59.32 130 -60 130 C-60 129.34 -60 128.68 -60 128 C-60.66 128 -61.32 128 -62 128 C-62 127.34 -62 126.68 -62 126 C-62.66 126 -63.32 126 -64 126 C-64 125.34 -64 124.68 -64 124 C-65.31088682 123.68080061 -66.62385248 123.37014053 -67.9375 123.0625 C-68.66839844 122.88847656 -69.39929688 122.71445312 -70.15234375 122.53515625 C-74.06606622 121.79965559 -78.04212275 121.43976414 -82 121 C-82 102.19 -82 83.38 -82 64 C-81.34 64 -80.68 64 -80 64 C-79.87625 63.2575 -79.7525 62.515 -79.625 61.75 C-79.04513299 59.19858515 -78.26291261 57.2732427 -77 55 C-76.34 55 -75.68 55 -75 55 C-75 54.34 -75 53.68 -75 53 C-74.34 53 -73.68 53 -73 53 C-73 52.34 -73 51.68 -73 51 C-72.34 51 -71.68 51 -71 51 C-71 50.34 -71 49.68 -71 49 C-70.34 49 -69.68 49 -69 49 C-68.67 47.35 -68.34 45.7 -68 44 C-67.34 44 -66.68 44 -66 44 C-66 43.34 -66 42.68 -66 42 C-65.34 42 -64.68 42 -64 42 C-64 41.34 -64 40.68 -64 40 C-56.44304306 36.72960132 -50.28676624 34.29773167 -42 35 C-42 34.34 -42 33.68 -42 33 C-41.34 33 -40.68 33 -40 33 C-40 32.34 -40 31.68 -40 31 C-38.35 31 -36.7 31 -35 31 C-35 30.34 -35 29.68 -35 29 C-33.68 29 -32.36 29 -31 29 C-31 28.34 -31 27.68 -31 27 C-27.37 26.67 -23.74 26.34 -20 26 C-20 25.34 -20 24.68 -20 24 C-18.68 24 -17.36 24 -16 24 C-16 23.34 -16 22.68 -16 22 C-14.35 22 -12.7 22 -11 22 C-11 21.34 -11 20.68 -11 20 C-9.68 20 -8.36 20 -7 20 C-7 19.34 -7 18.68 -7 18 C-5.02 17.67 -3.04 17.34 -1 17 C-0.67 11.39 -0.34 5.78 0 0 Z " fill="#0477D6" transform="translate(432,338)"/>
<path d="M0 0 C1.41154022 1.25940501 2.81660672 2.52605519 4.22119141 3.79321289 C5.59534582 4.96087541 6.97023996 6.1276685 8.34619141 7.29321289 C38.91518579 34.4015664 59.12366506 71.89158637 67.22119141 111.79321289 C67.40810547 112.70377441 67.59501953 113.61433594 67.78759766 114.55249023 C69.64706298 124.88082396 69.61851871 135.20888781 69.59619141 145.66821289 C69.59537567 147.10151947 69.59537567 147.10151947 69.59454346 148.56378174 C69.55676823 162.9893857 68.88404481 176.77276058 65.22119141 190.79321289 C64.99093262 191.7066748 64.76067383 192.62013672 64.5234375 193.5612793 C55.05877413 230.55027556 34.06484688 266.44441966 4.22119141 290.79321289 C3.17925836 291.6822237 2.13761831 292.57157796 1.09619141 293.46118164 C-13.6001364 305.816033 -30.15269104 315.26696883 -47.77880859 322.79321289 C-48.39546387 323.06327148 -49.01211914 323.33333008 -49.64746094 323.61157227 C-67.50512903 331.32814263 -87.71425348 335.85317572 -107.15771484 336.03149414 C-108.03898041 336.04128799 -108.92024597 336.05108185 -109.82821655 336.06117249 C-146.56335237 336.38559936 -146.56335237 336.38559936 -163.77880859 331.79321289 C-164.65456543 331.5629541 -165.53032227 331.33269531 -166.43261719 331.09545898 C-172.28187392 329.519236 -178.0411294 327.73422682 -183.77880859 325.79321289 C-185.52871094 325.20926758 -185.52871094 325.20926758 -187.31396484 324.61352539 C-212.45734423 315.57811025 -234.72283884 299.21574321 -253.77880859 280.79321289 C-254.50326172 280.12032227 -255.22771484 279.44743164 -255.97412109 278.75415039 C-271.19383366 264.27385706 -282.57929029 245.50534622 -291.77880859 226.79321289 C-292.32279297 225.68977539 -292.86677734 224.58633789 -293.42724609 223.44946289 C-300.69093642 207.61538662 -305.30503741 190.0144661 -307.77880859 172.79321289 C-307.87162109 172.15907471 -307.96443359 171.52493652 -308.06005859 170.87158203 C-310.61218266 151.25440697 -309.54392071 130.16609219 -305.77880859 110.79321289 C-305.60720215 109.90988281 -305.4355957 109.02655273 -305.25878906 108.11645508 C-299.30139674 78.61165773 -285.84598969 51.04704841 -266.77880859 27.79321289 C-266.31071777 27.21684082 -265.84262695 26.64046875 -265.36035156 26.04663086 C-236.72224663 -9.02571229 -196.10411765 -31.85564193 -151.77880859 -40.20678711 C-150.21453125 -40.5180957 -150.21453125 -40.5180957 -148.61865234 -40.83569336 C-97.53385663 -49.37970013 -39.12936733 -34.28472182 0 0 Z M-229.77880859 2.79321289 C-230.31376953 3.21538086 -230.84873047 3.63754883 -231.39990234 4.07250977 C-265.97498691 31.64137216 -288.63576029 68.56346025 -297.77880859 111.79321289 C-297.99537109 112.79352539 -298.21193359 113.79383789 -298.43505859 114.82446289 C-302.22621776 133.78025874 -301.489607 153.63615364 -299.04345703 172.71118164 C-298.81385931 174.51746336 -298.61037566 176.3270277 -298.41162109 178.13696289 C-292.90845327 221.71306726 -265.92783294 263.03815752 -231.77880859 289.79321289 C-230.96694092 290.43564941 -230.96694092 290.43564941 -230.13867188 291.09106445 C-207.23589181 309.07905661 -181.2020002 319.98170017 -152.77880859 325.79321289 C-151.82337158 325.98898926 -150.86793457 326.18476562 -149.88354492 326.38647461 C-139.74695313 328.20559242 -129.60629975 328.19370289 -119.34130859 328.16821289 C-117.93810867 328.16590164 -117.93810867 328.16590164 -116.50656128 328.1635437 C-102.58337017 328.10888572 -89.23230284 327.71135084 -75.77880859 323.79321289 C-74.17030029 323.3260083 -74.17030029 323.3260083 -72.52929688 322.84936523 C-58.69388058 318.71670842 -45.3011051 314.034833 -32.77880859 306.79321289 C-31.67569336 306.16261963 -31.67569336 306.16261963 -30.55029297 305.51928711 C-20.95622269 299.98654708 -12.06385295 294.17395064 -3.77880859 286.79321289 C-2.96541016 286.0880957 -2.15201172 285.38297852 -1.31396484 284.65649414 C1.23916228 282.40990361 3.7371359 280.11591736 6.22119141 277.79321289 C7.62498047 276.48803711 7.62498047 276.48803711 9.05712891 275.15649414 C39.16649621 246.51223011 60.0995953 202.87455129 61.32983398 161.10449219 C61.40424261 156.83405293 61.41600824 152.56421337 61.40869141 148.29321289 C61.40742249 147.53454926 61.40615356 146.77588562 61.40484619 145.99423218 C61.28655623 108.93770358 51.4357787 73.00845614 29.22119141 42.79321289 C28.48642578 41.77485352 27.75166016 40.75649414 26.99462891 39.70727539 C8.8209337 15.00640796 -14.38654923 -3.60643456 -41.77880859 -17.20678711 C-42.63732422 -17.65280273 -43.49583984 -18.09881836 -44.38037109 -18.55834961 C-102.57433893 -47.19347664 -179.40897796 -37.24275814 -229.77880859 2.79321289 Z " fill="#C7C7C7" transform="translate(564.77880859375,298.206787109375)"/>
<path d="M0 0 C4.62 0 9.24 0 14 0 C14 0.66 14 1.32 14 2 C14.66 2 15.32 2 16 2 C16 2.99 16 3.98 16 5 C20.95 5 25.9 5 31 5 C31 5.66 31 6.32 31 7 C31.99 7 32.98 7 34 7 C34 6.34 34 5.68 34 5 C35.98 5 37.96 5 40 5 C40 6.32 40 7.64 40 9 C41.32 9 42.64 9 44 9 C44.33 7.68 44.66 6.36 45 5 C46.0725 4.731875 47.145 4.46375 48.25 4.1875 C51.88367932 3.3076539 51.88367932 3.3076539 53.8125 1.4375 C56.86067059 -0.56558353 59.14355042 -0.29569349 62.75 -0.1875 C63.92046875 -0.16042969 65.0909375 -0.13335938 66.296875 -0.10546875 C67.18890625 -0.07066406 68.0809375 -0.03585937 69 0 C69 1.65 69 3.3 69 5 C74.94 5 80.88 5 87 5 C87.13392857 16.25 87.13392857 16.25 86 20 C83.36 20 80.72 20 78 20 C78 21.98 78 23.96 78 26 C76.35 26.33 74.7 26.66 73 27 C72.01 23.7 71.02 20.4 70 17 C69.01 17.99 68.02 18.98 67 20 C64.30078125 20.29296875 64.30078125 20.29296875 61.3125 20.1875 C59.82169922 20.14689453 59.82169922 20.14689453 58.30078125 20.10546875 C57.54152344 20.07066406 56.78226562 20.03585937 56 20 C56 19.34 56 18.68 56 18 C55.01 18 54.02 18 53 18 C50.70986347 14.5647952 50.82157027 13.014669 51 9 C49.68 9 48.36 9 47 9 C47.020625 10.11375 47.04125 11.2275 47.0625 12.375 C47 16 47 16 46 18 C45.34 18 44.68 18 44 18 C44 18.66 44 19.32 44 20 C42.02 20 40.04 20 38 20 C38 17.69 38 15.38 38 13 C36.05000871 13.19471111 36.05000871 13.19471111 34 14 C32.75825204 15.9001177 32.75825204 15.9001177 32 18 C31.67 18.66 31.34 19.32 31 20 C27.7 20 24.4 20 21 20 C21 19.34 21 18.68 21 18 C20.01 18 19.02 18 18 18 C18 17.34 18 16.68 18 16 C17.01 16.66 16.02 17.32 15 18 C13.68 18 12.36 18 11 18 C11 18.66 11 19.32 11 20 C7.37 20 3.74 20 0 20 C0 13.4 0 6.8 0 0 Z " fill="#4390DC" transform="translate(440,554)"/>
<path d="M0 0 C-2 2 -2 2 -5.0390625 2.1953125 C-6.22242188 2.17210937 -7.40578125 2.14890625 -8.625 2.125 C-9.81351563 2.10695313 -11.00203125 2.08890625 -12.2265625 2.0703125 C-13.14179688 2.04710937 -14.05703125 2.02390625 -15 2 C-15 2.66 -15 3.32 -15 4 C-23.91 5.485 -23.91 5.485 -33 7 C-33 39.67 -33 72.34 -33 106 C-33.66 106 -34.32 106 -35 106 C-35 74.32 -35 42.64 -35 10 C-42.12102587 10.29322915 -42.12102587 10.29322915 -48 13 C-49.7015625 13.2165625 -49.7015625 13.2165625 -51.4375 13.4375 C-55.04058997 13.64847551 -55.04058997 13.64847551 -57 16 C-66.41903718 17.75468882 -76.44992991 17.10183724 -86 17 C-86 16.67 -86 16.34 -86 16 C-84.77023437 15.86722656 -83.54046875 15.73445313 -82.2734375 15.59765625 C-80.64061531 15.41935957 -79.00780334 15.2409692 -77.375 15.0625 C-76.56675781 14.97548828 -75.75851562 14.88847656 -74.92578125 14.79882812 C-70.58958942 14.32290463 -66.29609164 13.77162811 -62 13 C-62 12.34 -62 11.68 -62 11 C-61.37351562 10.93941406 -60.74703125 10.87882812 -60.1015625 10.81640625 C-59.28429687 10.73261719 -58.46703125 10.64882813 -57.625 10.5625 C-56.81289063 10.48128906 -56.00078125 10.40007812 -55.1640625 10.31640625 C-52.95727195 10.10909886 -52.95727195 10.10909886 -51 9 C-49.12620395 8.92966231 -47.24998898 8.9156978 -45.375 8.9375 C-43.87066406 8.95103516 -43.87066406 8.95103516 -42.3359375 8.96484375 C-41.56507813 8.97644531 -40.79421875 8.98804688 -40 9 C-40 8.34 -40 7.68 -40 7 C-38.35 7 -36.7 7 -35 7 C-35 6.01 -35 5.02 -35 4 C-35.99 3.67 -36.98 3.34 -38 3 C-36.68 2.67 -35.36 2.34 -34 2 C-33.505 3.485 -33.505 3.485 -33 5 C-32.01 4.67 -31.02 4.34 -30 4 C-25.91405167 2.8134874 -22.23657606 2.85134821 -18 3 C-18 2.34 -18 1.68 -18 1 C-11.97403427 -0.0712828 -6.11090483 -0.09945415 0 0 Z " fill="#E2EFF7" transform="translate(522,371)"/>
<path d="M0 0 C0 38.61 0 77.22 0 117 C-0.66 117 -1.32 117 -2 117 C-2 79.05 -2 41.1 -2 2 C-5.63 2 -9.26 2 -13 2 C-10 0 -10 0 0 0 Z " fill="#CBE6F1" transform="translate(537,369)"/>
<path d="M0 0 C4.95 0 9.9 0 15 0 C15 0.66 15 1.32 15 2 C15.99 2 16.98 2 18 2 C18 1.34 18 0.68 18 0 C18.66 0 19.32 0 20 0 C19.38066465 7.55589124 19.38066465 7.55589124 17.5 9.75 C17.005 10.1625 16.51 10.575 16 11 C15.67 12.32 15.34 13.64 15 15 C11.7 15 8.4 15 5 15 C5 14.34 5 13.68 5 13 C4.01 13 3.02 13 2 13 C2 12.34 2 11.68 2 11 C0.02 11.99 0.02 11.99 -2 13 C-1.34 8.71 -0.68 4.42 0 0 Z " fill="#72B3E8" transform="translate(456,559)"/>
<path d="M0 0 C1.32 0 2.64 0 4 0 C4 0.66 4 1.32 4 2 C6.31 2 8.62 2 11 2 C11 2.66 11 3.32 11 4 C8.03 4 5.06 4 2 4 C2 24.13 2 44.26 2 65 C4.64 65 7.28 65 10 65 C12.33574105 65.65818133 14.66897771 66.32529714 17 67 C20.14080187 67.36385246 23.27910879 67.50283821 26.4375 67.625 C27.26443359 67.66367187 28.09136719 67.70234375 28.94335938 67.7421875 C30.96191073 67.83553092 32.98092331 67.91880961 35 68 C35 68.66 35 69.32 35 70 C27.08 69.67 19.16 69.34 11 69 C11 68.34 11 67.68 11 67 C9.35 67 7.7 67 6 67 C6 67.99 6 68.98 6 70 C5.34 70 4.68 70 4 70 C4 69.34 4 68.68 4 68 C3.34 68 2.68 68 2 68 C2 67.34 2 66.68 2 66 C-0.97 65.34 -3.94 64.68 -7 64 C-7 63.67 -7 63.34 -7 63 C-4.69 63 -2.38 63 0 63 C0 42.21 0 21.42 0 0 Z " fill="#84B5E3" transform="translate(366,396)"/>
<path d="M0 0 C0.99 0 1.98 0 3 0 C5.29013653 3.4352048 5.17842973 4.985331 5 9 C5.66 9 6.32 9 7 9 C7 10.32 7 11.64 7 13 C7.66 13 8.32 13 9 13 C9 13.99 9 14.98 9 16 C10.32 15.67 11.64 15.34 13 15 C13.33 13.68 13.66 12.36 14 11 C14.66 11 15.32 11 16 11 C16 10.34 16 9.68 16 9 C16.66 9 17.32 9 18 9 C18 8.34 18 7.68 18 7 C16.02 7 14.04 7 12 7 C12 6.34 12 5.68 12 5 C15.3 5 18.6 5 22 5 C21.34 6.98 20.68 8.96 20 11 C19.34 11 18.68 11 18 11 C18 11.99 18 12.98 18 14 C17.34 14 16.68 14 16 14 C16 15.32 16 16.64 16 18 C17.98 18 19.96 18 22 18 C22 18.66 22 19.32 22 20 C17.05 20 12.1 20 7 20 C7 19.34 7 18.68 7 18 C6.34 18 5.68 18 5 18 C5 17.01 5 16.02 5 15 C2.03 15 -0.94 15 -4 15 C-4 16.65 -4 18.3 -4 20 C-5.32 20 -6.64 20 -8 20 C-8 18.02 -8 16.04 -8 14 C-6.68 13.67 -5.36 13.34 -4 13 C-4 12.34 -4 11.68 -4 11 C-1.69 11.33 0.62 11.66 3 12 C2.03223902 8.20452079 2.03223902 8.20452079 0 5 C-0.66 5.66 -1.32 6.32 -2 7 C-1.125 2.25 -1.125 2.25 0 0 Z " fill="#BFBFBF" transform="translate(365,554)"/>
<path d="M0 0 C0.66 0 1.32 0 2 0 C2 33.33 2 66.66 2 101 C-1.63 101 -5.26 101 -9 101 C-9 100.34 -9 99.68 -9 99 C-6.03 99 -3.06 99 0 99 C0 66.33 0 33.66 0 0 Z " fill="#64A3E0" transform="translate(489,378)"/>
<path d="M0 0 C0 3 0 3 -1 6 C-2.32 6 -3.64 6 -5 6 C-4.979375 7.11375 -4.95875 8.2275 -4.9375 9.375 C-5 13 -5 13 -6 15 C-6.66 15 -7.32 15 -8 15 C-8 15.66 -8 16.32 -8 17 C-9.98 17 -11.96 17 -14 17 C-14 14.69 -14 12.38 -14 10 C-14.66 10 -15.32 10 -16 10 C-16 7.36 -16 4.72 -16 2 C-14.68 2 -13.36 2 -12 2 C-12 3.32 -12 4.64 -12 6 C-10.68 6 -9.36 6 -8 6 C-7.67 4.68 -7.34 3.36 -7 2 C-4.69 1.34 -2.38 0.68 0 0 Z " fill="#6CA9DD" transform="translate(492,557)"/>
<path d="M0 0 C0.66 0 1.32 0 2 0 C1.125 4.75 1.125 4.75 0 7 C-0.99 7 -1.98 7 -3 7 C-3 23.83 -3 40.66 -3 58 C-2.34 58 -1.68 58 -1 58 C-1 58.66 -1 59.32 -1 60 C-2.32 60 -3.64 60 -5 60 C-5 41.85 -5 23.7 -5 5 C-4.34 5 -3.68 5 -3 5 C-3 4.34 -3 3.68 -3 3 C-2.34 3 -1.68 3 -1 3 C-0.67 2.01 -0.34 1.02 0 0 Z " fill="#096ECB" transform="translate(355,397)"/>
<path d="M0 0 C0 0.66 0 1.32 0 2 C-1.03060547 2.19916016 -1.03060547 2.19916016 -2.08203125 2.40234375 C-3.43361328 2.66724609 -3.43361328 2.66724609 -4.8125 2.9375 C-5.70582031 3.11152344 -6.59914063 3.28554688 -7.51953125 3.46484375 C-10.11397171 3.97741153 -10.11397171 3.97741153 -13 5 C-16.96 5 -20.92 5 -25 5 C-24.67 23.81 -24.34 42.62 -24 62 C-22.02 62.33 -20.04 62.66 -18 63 C-18 63.33 -18 63.66 -18 64 C-20.64 64 -23.28 64 -26 64 C-26 43.87 -26 23.74 -26 3 C-23.03 3 -20.06 3 -17 3 C-17 2.34 -17 1.68 -17 1 C-11.29014022 0.25983299 -5.75813575 -0.10469338 0 0 Z " fill="#C9E5EF" transform="translate(394,397)"/>
<path d="M0 0 C0 0.66 0 1.32 0 2 C0.66 2 1.32 2 2 2 C2 3.98 2 5.96 2 8 C-1.3 8 -4.6 8 -8 8 C-6.53489979 12.08785794 -6.53489979 12.08785794 -3.875 12.75 C-3.25625 12.8325 -2.6375 12.915 -2 13 C-2 13.66 -2 14.32 -2 15 C-4.31 15 -6.62 15 -9 15 C-9 14.34 -9 13.68 -9 13 C-9.66 13 -10.32 13 -11 13 C-11 9.37 -11 5.74 -11 2 C-10.34 2 -9.68 2 -9 2 C-9 1.34 -9 0.68 -9 0 C-5.62182575 -0.84454356 -3.32534757 -1.10844919 0 0 Z " fill="#BBBBBB" transform="translate(427,559)"/>
<path d="M0 0 C1.27875 -0.061875 2.5575 -0.12375 3.875 -0.1875 C4.95394531 -0.23970703 4.95394531 -0.23970703 6.0546875 -0.29296875 C6.69664062 -0.19628906 7.33859375 -0.09960938 8 0 C10.46943529 3.70415293 10.46913089 5.62144505 10 10 C8.375 11.9375 8.375 11.9375 6 13 C4.02 13 2.04 13 0 13 C0 8.71 0 4.42 0 0 Z " fill="#C3DEF2" transform="translate(443,557)"/>
<path d="M0 0 C0.66 0 1.32 0 2 0 C2 3.63 2 7.26 2 11 C3.98 10.34 5.96 9.68 8 9 C8.33 6.03 8.66 3.06 9 0 C10.32 0.33 11.64 0.66 13 1 C13 5.62 13 10.24 13 15 C9.37 15 5.74 15 2 15 C2 14.34 2 13.68 2 13 C1.34 13 0.68 13 0 13 C0 8.71 0 4.42 0 0 Z " fill="#CDCDCD" transform="translate(390,559)"/>
<path d="M0 0 C1.79133978 -0.05391993 3.58313899 -0.09275571 5.375 -0.125 C6.37273437 -0.14820313 7.37046875 -0.17140625 8.3984375 -0.1953125 C11 0 11 0 13 2 C13.1953125 5.0390625 13.1953125 5.0390625 13.125 8.625 C13.10695313 9.81351563 13.08890625 11.00203125 13.0703125 12.2265625 C13.04710937 13.14179687 13.02390625 14.05703125 13 15 C13.66 15 14.32 15 15 15 C15 15.66 15 16.32 15 17 C13.35 17 11.7 17 10 17 C10 16.34 10 15.68 10 15 C8.02 15 6.04 15 4 15 C4 13.68 4 12.36 4 11 C4.66 11 5.32 11 6 11 C6 10.01 6 9.02 6 8 C6.66 8 7.32 8 8 8 C8.66 6.02 9.32 4.04 10 2 C6.7 2 3.4 2 0 2 C0 1.34 0 0.68 0 0 Z " fill="#E6E6E6" transform="translate(377,557)"/>
<path d="M0 0 C7.26 0.33 14.52 0.66 22 1 C22 1.66 22 2.32 22 3 C26.95 3 31.9 3 37 3 C37 3.66 37 4.32 37 5 C41.95 4.67 46.9 4.34 52 4 C52.495 4.99 52.495 4.99 53 6 C55.02463255 6.65213292 55.02463255 6.65213292 57 7 C57 7.66 57 8.32 57 9 C55.02 9 53.04 9 51 9 C51 8.34 51 7.68 51 7 C50.07058594 7.02320313 49.14117187 7.04640625 48.18359375 7.0703125 C46.94738281 7.08835937 45.71117187 7.10640625 44.4375 7.125 C43.21933594 7.14820313 42.00117188 7.17140625 40.74609375 7.1953125 C36.85980926 6.99269079 33.72380449 6.08576561 30 5 C27.40136207 4.74717364 24.79554613 4.55971153 22.1875 4.4375 C15.1989071 4.09945355 15.1989071 4.09945355 13 3 C10.17956274 2.72579082 7.35946953 2.5538093 4.53125 2.37890625 C2 2 2 2 0 0 Z " fill="#B9DAF3" transform="translate(423,468)"/>
<path d="M0 0 C0.66 0 1.32 0 2 0 C2 7.26 2 14.52 2 22 C1.01 22 0.02 22 -1 22 C-1 20.68 -1 19.36 -1 18 C-1.66 18 -2.32 18 -3 18 C-3 17.01 -3 16.02 -3 15 C-3.66 15 -4.32 15 -5 15 C-5 14.34 -5 13.68 -5 13 C-5.66 13 -6.32 13 -7 13 C-7.38133299 11.0085944 -7.71325582 9.00720923 -8 7 C-7 6 -7 6 -3.9375 5.9375 C-2.4834375 5.9684375 -2.4834375 5.9684375 -1 6 C-1.99 6.495 -1.99 6.495 -3 7 C-3 8.32 -3 9.64 -3 11 C-2.01 11 -1.02 11 0 11 C0 7.37 0 3.74 0 0 Z " fill="#2C85D2" transform="translate(417,499)"/>
<path d="M0 0 C2.97 0 5.94 0 9 0 C9 1.32 9 2.64 9 4 C8.01 4 7.02 4 6 4 C6 4.66 6 5.32 6 6 C6.99 6 7.98 6 9 6 C9 8.31 9 10.62 9 13 C8.34 13 7.68 13 7 13 C7 13.66 7 14.32 7 15 C4.69 15 2.38 15 0 15 C0 14.01 0 13.02 0 12 C1.65 11.34 3.3 10.68 5 10 C2.525 9.01 2.525 9.01 0 8 C0 5.36 0 2.72 0 0 Z " fill="#3287D4" transform="translate(531,559)"/>
<path d="M0 0 C0.99 0.33 1.98 0.66 3 1 C3 3.97 3 6.94 3 10 C4.98 10 6.96 10 9 10 C9 7.69 9 5.38 9 3 C8.34 3 7.68 3 7 3 C7 2.34 7 1.68 7 1 C6.34 0.67 5.68 0.34 5 0 C6.99954746 -0.04254356 9.00041636 -0.04080783 11 0 C12 1 12 1 12.1328125 2.99609375 C12.13023437 3.80175781 12.12765625 4.60742188 12.125 5.4375 C12.12757813 6.24058594 12.13015625 7.04367187 12.1328125 7.87109375 C12 10 12 10 11 12 C8.03 12 5.06 12 2 12 C2 14.31 2 16.62 2 19 C1.34 19 0.68 19 0 19 C0 12.73 0 6.46 0 0 Z " fill="#489AD8" transform="translate(515,560)"/>
<path d="M0 0 C-1.32 0.33 -2.64 0.66 -4 1 C-4 2.32 -4 3.64 -4 5 C-2.02 5 -0.04 5 2 5 C2.33 4.34 2.66 3.68 3 3 C3 4.32 3 5.64 3 7 C0.69 7.33 -1.62 7.66 -4 8 C-4 8.66 -4 9.32 -4 10 C-1.69 10 0.62 10 3 10 C2.67 11.32 2.34 12.64 2 14 C0.02 14 -1.96 14 -4 14 C-4 13.34 -4 12.68 -4 12 C-4.99 12 -5.98 12 -7 12 C-7 11.34 -7 10.68 -7 10 C-7.66 10 -8.32 10 -9 10 C-9 7.03 -9 4.06 -9 1 C-5.68756695 0.17189174 -3.34023421 -0.09278428 0 0 Z " fill="#408ED8" transform="translate(469,560)"/>
<path d="M0 0 C1.89885096 1.89885096 1.12367506 4.57247903 1.1328125 7.08984375 C1 9 1 9 0 11 C-5.625 11.25 -5.625 11.25 -9 9 C-9.375 5.5 -9.375 5.5 -9 2 C-5.55892734 -0.29404844 -4.03160191 -0.26293056 0 0 Z " fill="#E0EEF6" transform="translate(504,558)"/>
<path d="M0 0 C1.98 0 3.96 0 6 0 C6 0.66 6 1.32 6 2 C5.34 2 4.68 2 4 2 C4 2.66 4 3.32 4 4 C5.32 4.33 6.64 4.66 8 5 C6.68 5 5.36 5 4 5 C4 5.66 4 6.32 4 7 C-0.29 7 -4.58 7 -9 7 C-9 7.66 -9 8.32 -9 9 C-10.65 9 -12.3 9 -14 9 C-14 7.35 -14 5.7 -14 4 C-12.35 3.34 -10.7 2.68 -9 2 C-8.67 2.33 -8.34 2.66 -8 3 C-4.93518979 3.1613058 -2.94450722 2.98150241 0 2 C0 1.34 0 0.68 0 0 Z " fill="#0277D8" transform="translate(474,371)"/>
<path d="M0 0 C1.98 0 3.96 0 6 0 C6 1.32 6 2.64 6 4 C4.68 4 3.36 4 2 4 C2 7.63 2 11.26 2 15 C2.66 15 3.32 15 4 15 C3.01 17.475 3.01 17.475 2 20 C1.01 20 0.02 20 -1 20 C-1 20.66 -1 21.32 -1 22 C-4.3 22 -7.6 22 -11 22 C-11 21.34 -11 20.68 -11 20 C-9.68 20 -8.36 20 -7 20 C-7 19.34 -7 18.68 -7 18 C-5.02 17.67 -3.04 17.34 -1 17 C-0.67 11.39 -0.34 5.78 0 0 Z " fill="#1F7BCE" transform="translate(432,338)"/>
<path d="M0 0 C1.32 0 2.64 0 4 0 C4 0.66 4 1.32 4 2 C6.31 2 8.62 2 11 2 C11 2.66 11 3.32 11 4 C8.03 4 5.06 4 2 4 C1.67 22.81 1.34 41.62 1 61 C0.67 61 0.34 61 0 61 C0 40.87 0 20.74 0 0 Z " fill="#5098DA" transform="translate(366,396)"/>
<path d="M0 0 C0.66 0 1.32 0 2 0 C2 19.14 2 38.28 2 58 C0.68 58 -0.64 58 -2 58 C-2 57.34 -2 56.68 -2 56 C-1.34 56 -0.68 56 0 56 C0 37.52 0 19.04 0 0 Z " fill="#0176DC" transform="translate(363,399)"/>
<path d="M0 0 C-2 2 -2 2 -5.0390625 2.1953125 C-6.22242188 2.17210937 -7.40578125 2.14890625 -8.625 2.125 C-9.81351563 2.10695313 -11.00203125 2.08890625 -12.2265625 2.0703125 C-13.14179688 2.04710937 -14.05703125 2.02390625 -15 2 C-15 2.66 -15 3.32 -15 4 C-23.91 5.485 -23.91 5.485 -33 7 C-33 7.66 -33 8.32 -33 9 C-35.31 9 -37.62 9 -40 9 C-40 8.34 -40 7.68 -40 7 C-38.35 7 -36.7 7 -35 7 C-35 6.01 -35 5.02 -35 4 C-35.99 3.67 -36.98 3.34 -38 3 C-36.68 2.67 -35.36 2.34 -34 2 C-33.67 2.99 -33.34 3.98 -33 5 C-32.01 4.67 -31.02 4.34 -30 4 C-25.91405167 2.8134874 -22.23657606 2.85134821 -18 3 C-18 2.34 -18 1.68 -18 1 C-11.97403427 -0.0712828 -6.11090483 -0.09945415 0 0 Z " fill="#C2DEF5" transform="translate(522,371)"/>
<path d="M0 0 C1.134375 0.020625 2.26875 0.04125 3.4375 0.0625 C3.4375 1.7125 3.4375 3.3625 3.4375 5.0625 C2.1175 5.0625 0.7975 5.0625 -0.5625 5.0625 C-0.5625 8.6925 -0.5625 12.3225 -0.5625 16.0625 C-1.8825 16.0625 -3.2025 16.0625 -4.5625 16.0625 C-4.58935095 13.58326199 -4.60926547 11.1043116 -4.625 8.625 C-4.63756836 7.56442383 -4.63756836 7.56442383 -4.65039062 6.48242188 C-4.65903588 4.67556441 -4.61470011 2.86862397 -4.5625 1.0625 C-3.5625 0.0625 -3.5625 0.0625 0 0 Z " fill="#BEBEBE" transform="translate(410.5625,557.9375)"/>
<path d="M0 0 C1.50046875 0.23396484 1.50046875 0.23396484 3.03125 0.47265625 C8.09289516 1.19702147 13.17760761 1.37329293 18.28125 1.62109375 C22.06611742 2.00673675 25.35128643 2.95226884 29 4 C31.47284491 4.27332801 33.9536472 4.48306555 36.4375 4.625 C37.67371094 4.69976562 38.90992188 4.77453125 40.18359375 4.8515625 C41.11300781 4.90054687 42.04242188 4.94953125 43 5 C43 5.66 43 6.32 43 7 C40.04160645 7.02689449 37.08345573 7.04678741 34.125 7.0625 C32.86236328 7.07506836 32.86236328 7.07506836 31.57421875 7.08789062 C30.76855469 7.09111328 29.96289062 7.09433594 29.1328125 7.09765625 C28.01737061 7.10551147 28.01737061 7.10551147 26.87939453 7.11352539 C25 7 25 7 23 6 C23 5.34 23 4.68 23 4 C17.06 4 11.12 4 5 4 C5 3.34 5 2.68 5 2 C3.35 1.67 1.7 1.34 0 1 C0 0.67 0 0.34 0 0 Z " fill="#4996D8" transform="translate(431,470)"/>
<path d="M0 0 C0.33 0 0.66 0 1 0 C1 5.94 1 11.88 1 18 C1.66 18 2.32 18 3 18 C3 17.34 3 16.68 3 16 C12.28571429 13.14285714 12.28571429 13.14285714 16 15 C15.01 16.485 15.01 16.485 14 18 C13.01 18 12.02 18 11 18 C11 18.66 11 19.32 11 20 C7.37 20 3.74 20 0 20 C0 13.4 0 6.8 0 0 Z " fill="#3F8ED8" transform="translate(440,554)"/>
<path d="M0 0 C0.99 0 1.98 0 3 0 C5.29013653 3.4352048 5.17842973 4.985331 5 9 C5.66 9 6.32 9 7 9 C7 10.65 7 12.3 7 14 C3.37 14 -0.26 14 -4 14 C-4 13.01 -4 12.02 -4 11 C-1.69 11.33 0.62 11.66 3 12 C2.03223902 8.20452079 2.03223902 8.20452079 0 5 C-0.66 5.66 -1.32 6.32 -2 7 C-1.125 2.25 -1.125 2.25 0 0 Z " fill="#BBBBBB" transform="translate(365,554)"/>
<path d="M0 0 C1.32 0 2.64 0 4 0 C4 6.6 4 13.2 4 20 C3.67 20 3.34 20 3 20 C2.34 17.36 1.68 14.72 1 12 C0.566875 12.495 0.13375 12.99 -0.3125 13.5 C-2 15 -2 15 -5 15 C-5 14.34 -5 13.68 -5 13 C-4.01 13 -3.02 13 -2 13 C-2 12.34 -2 11.68 -2 11 C-1.34 11 -0.68 11 0 11 C0 7.37 0 3.74 0 0 Z " fill="#AFD3EE" transform="translate(509,559)"/>
<path d="M0 0 C1.05960937 0.00676758 1.05960937 0.00676758 2.140625 0.01367188 C3.88545275 0.02546125 5.630237 0.04339676 7.375 0.0625 C7.375 1.0525 7.375 2.0425 7.375 3.0625 C8.365 3.0625 9.355 3.0625 10.375 3.0625 C10.375 4.3825 10.375 5.7025 10.375 7.0625 C8.725 7.0625 7.075 7.0625 5.375 7.0625 C5.375 6.4025 5.375 5.7425 5.375 5.0625 C4.715 5.0625 4.055 5.0625 3.375 5.0625 C3.375 4.0725 3.375 3.0825 3.375 2.0625 C0.405 2.0625 -2.565 2.0625 -5.625 2.0625 C-5.625 3.7125 -5.625 5.3625 -5.625 7.0625 C-6.945 7.0625 -8.265 7.0625 -9.625 7.0625 C-9.625 5.0825 -9.625 3.1025 -9.625 1.0625 C-6.55966836 -0.47016582 -3.35745728 -0.04026471 0 0 Z " fill="#CBCBCB" transform="translate(366.625,566.9375)"/>
<path d="M0 0 C1.32 0 2.64 0 4 0 C4 3.3 4 6.6 4 10 C5.65 10.33 7.3 10.66 9 11 C8.67 12.32 8.34 13.64 8 15 C6.02 15 4.04 15 2 15 C2 12.69 2 10.38 2 8 C1.34 8 0.68 8 0 8 C0 5.36 0 2.72 0 0 Z " fill="#3389D8" transform="translate(476,559)"/>
<path d="M0 0 C2.31 0 4.62 0 7 0 C6.67 0.66 6.34 1.32 6 2 C5.34 2 4.68 2 4 2 C4 4.97 4 7.94 4 11 C4.66 11 5.32 11 6 11 C6 11.66 6 12.32 6 13 C6.99 13 7.98 13 9 13 C9 13.66 9 14.32 9 15 C7.68 15 6.36 15 5 15 C5 14.34 5 13.68 5 13 C4.01 13 3.02 13 2 13 C2 12.34 2 11.68 2 11 C0.02 11.99 0.02 11.99 -2 13 C-1.34 8.71 -0.68 4.42 0 0 Z " fill="#C7DBF0" transform="translate(456,559)"/>
<path d="M0 0 C1.32 0 2.64 0 4 0 C4 1.98 4 3.96 4 6 C5.2065625 6.185625 5.2065625 6.185625 6.4375 6.375 C7.7059375 6.684375 7.7059375 6.684375 9 7 C9.33 7.66 9.66 8.32 10 9 C8.02 9.33 6.04 9.66 4 10 C4 10.99 4 11.98 4 13 C3.34 13 2.68 13 2 13 C1.67 12.34 1.34 11.68 1 11 C0.34 11 -0.32 11 -1 11 C-0.67 7.37 -0.34 3.74 0 0 Z " fill="#C0D7EF" transform="translate(527,561)"/>
<path d="M0 0 C3.63 0 7.26 0 11 0 C11 0.66 11 1.32 11 2 C12.32 2.33 13.64 2.66 15 3 C13.25 5 13.25 5 11 7 C9.68 7 8.36 7 7 7 C7 7.66 7 8.32 7 9 C6.01 9 5.02 9 4 9 C4 6 4 6 5.5 4.3125 C6.2425 3.6628125 6.2425 3.6628125 7 3 C4.69 2.67 2.38 2.34 0 2 C0 1.34 0 0.68 0 0 Z " fill="#2785D4" transform="translate(500,499)"/>
<path d="M0 0 C2.0625 0.4375 2.0625 0.4375 4 1 C4 3.31 4 5.62 4 8 C6.64 8.66 9.28 9.32 12 10 C12 10.66 12 11.32 12 12 C9.03 11.67 6.06 11.34 3 11 C3 11.66 3 12.32 3 13 C2.34 13 1.68 13 1 13 C-1.11295256 9.83057116 -1.25250929 9.00370047 -1.1875 5.375 C-1.17783203 4.18003906 -1.17783203 4.18003906 -1.16796875 2.9609375 C-1 1 -1 1 0 0 Z " fill="#4A98E4" transform="translate(492,559)"/>
<path d="M0 0 C0 0.66 0 1.32 0 2 C-1.03060547 2.19916016 -1.03060547 2.19916016 -2.08203125 2.40234375 C-3.43361328 2.66724609 -3.43361328 2.66724609 -4.8125 2.9375 C-5.70582031 3.11152344 -6.59914063 3.28554688 -7.51953125 3.46484375 C-10.11397171 3.97741153 -10.11397171 3.97741153 -13 5 C-14.56118428 5.06740865 -16.1250252 5.08514456 -17.6875 5.0625 C-18.89986328 5.04896484 -18.89986328 5.04896484 -20.13671875 5.03515625 C-21.05904297 5.01775391 -21.05904297 5.01775391 -22 5 C-22 4.34 -22 3.68 -22 3 C-20.35 3 -18.7 3 -17 3 C-17 2.34 -17 1.68 -17 1 C-11.29014022 0.25983299 -5.75813575 -0.10469338 0 0 Z " fill="#D3E7F4" transform="translate(394,397)"/>
<path d="M0 0 C3.63 0 7.26 0 11 0 C11 0.66 11 1.32 11 2 C12.11375 1.95875 13.2275 1.9175 14.375 1.875 C18 2 18 2 20 4 C14.06 4 8.12 4 2 4 C2 3.34 2 2.68 2 2 C1.34 2 0.68 2 0 2 C0 1.34 0 0.68 0 0 Z " fill="#5097D4" transform="translate(405,466)"/>
<path d="M0 0 C1.79158489 -0.02696365 3.58328473 -0.04637917 5.375 -0.0625 C6.37273437 -0.07410156 7.37046875 -0.08570313 8.3984375 -0.09765625 C11 0 11 0 13 1 C14.3734635 1.15004973 15.7528526 1.24838006 17.1328125 1.31640625 C17.93847656 1.35830078 18.74414062 1.40019531 19.57421875 1.44335938 C20.41597656 1.48267578 21.25773437 1.52199219 22.125 1.5625 C23.39923828 1.62727539 23.39923828 1.62727539 24.69921875 1.69335938 C26.79928223 1.79954236 28.89961948 1.90028497 31 2 C31 2.66 31 3.32 31 4 C23.08 3.67 15.16 3.34 7 3 C7 2.34 7 1.68 7 1 C5.35 1 3.7 1 2 1 C2 1.99 2 2.98 2 4 C1.34 4 0.68 4 0 4 C0 2.68 0 1.36 0 0 Z " fill="#61A0D9" transform="translate(370,462)"/>
<path d="M0 0 C-2.92121238 2.92121238 -6.3803296 2.98113584 -10.3125 3.625 C-11.07240234 3.7590625 -11.83230469 3.893125 -12.61523438 4.03125 C-16.45099508 4.68442906 -20.09344371 5.17154539 -24 5 C-24 4.34 -24 3.68 -24 3 C-15.85956596 0.82576642 -8.4342927 -0.45636453 0 0 Z " fill="#4B96D7" transform="translate(405,393)"/>
<path d="M0 0 C0.33 1.32 0.66 2.64 1 4 C1.66 4 2.32 4 3 4 C3 6.31 3 8.62 3 11 C0.69 11 -1.62 11 -4 11 C-3.67 9.68 -3.34 8.36 -3 7 C-5.31 7 -7.62 7 -10 7 C-10 6.67 -10 6.34 -10 6 C-7.36 5.67 -4.72 5.34 -2 5 C-1.34 3.35 -0.68 1.7 0 0 Z " fill="#DBECF9" transform="translate(475,563)"/>
<path d="M0 0 C1.32 0 2.64 0 4 0 C4.66 2.97 5.32 5.94 6 9 C6.99 9 7.98 9 9 9 C9 9.66 9 10.32 9 11 C7.35 11 5.7 11 4 11 C4 9.68 4 8.36 4 7 C3.01 7.33 2.02 7.66 1 8 C0.67 8.99 0.34 9.98 0 11 C-0.99 11 -1.98 11 -3 11 C-3 10.34 -3 9.68 -3 9 C-2.34 9 -1.68 9 -1 9 C-0.67 6.03 -0.34 3.06 0 0 Z " fill="#D4EBF5" transform="translate(487,563)"/>
<path d="M0 0 C0 0.66 0 1.32 0 2 C-0.66 2 -1.32 2 -2 2 C-2 3.32 -2 4.64 -2 6 C-4.31 6 -6.62 6 -9 6 C-9 5.34 -9 4.68 -9 4 C-9.66 4 -10.32 4 -11 4 C-11 3.34 -11 2.68 -11 2 C-10.34 2 -9.68 2 -9 2 C-9 1.34 -9 0.68 -9 0 C-5.62182575 -0.84454356 -3.32534757 -1.10844919 0 0 Z " fill="#CECECE" transform="translate(427,559)"/>
<path d="M0 0 C0.33 0 0.66 0 1 0 C1 5.94 1 11.88 1 18 C-4.28 18 -9.56 18 -15 18 C-15 17.34 -15 16.68 -15 16 C-12.36 16 -9.72 16 -7 16 C-7 15.34 -7 14.68 -7 14 C-6.34 14 -5.68 14 -5 14 C-5 14.66 -5 15.32 -5 16 C-3.35 16 -1.7 16 0 16 C0 10.72 0 5.44 0 0 Z " fill="#247CD0" transform="translate(365,441)"/>
<path d="M0 0 C0.66 0 1.32 0 2 0 C2 0.66 2 1.32 2 2 C4.475 2.99 4.475 2.99 7 4 C7 4.99 7 5.98 7 7 C5.35 7 3.7 7 2 7 C2 7.66 2 8.32 2 9 C0.02 9 -1.96 9 -4 9 C-4 8.34 -4 7.68 -4 7 C-3.34 7 -2.68 7 -2 7 C-2 5.35 -2 3.7 -2 2 C-1.34 2 -0.68 2 0 2 C0 1.34 0 0.68 0 0 Z " fill="#3587CF" transform="translate(480,371)"/>
<path d="M0 0 C0.75732422 0.00644531 1.51464844 0.01289063 2.29492188 0.01953125 C3.08060547 0.03628906 3.86628906 0.05304688 4.67578125 0.0703125 C5.47306641 0.07933594 6.27035156 0.08835937 7.09179688 0.09765625 C9.05742025 0.12119665 11.022889 0.15706703 12.98828125 0.1953125 C10.98828125 2.1953125 10.98828125 2.1953125 8.38671875 2.390625 C7.38898438 2.36742187 6.39125 2.34421875 5.36328125 2.3203125 C3.85894531 2.29324219 3.85894531 2.29324219 2.32421875 2.265625 C1.55335938 2.24242187 0.7825 2.21921875 -0.01171875 2.1953125 C-0.01171875 2.8553125 -0.01171875 3.5153125 -0.01171875 4.1953125 C-3.64171875 4.1953125 -7.27171875 4.1953125 -11.01171875 4.1953125 C-9.69171875 3.5353125 -8.37171875 2.8753125 -7.01171875 2.1953125 C-3.96490814 0.16410543 -3.41053551 -0.05128625 0 0 Z " fill="#2F82D0" transform="translate(412.01171875,388.8046875)"/>
<path d="M0 0 C0.33 1.32 0.66 2.64 1 4 C3.64 4 6.28 4 9 4 C9 4.66 9 5.32 9 6 C3.06 6 -2.88 6 -9 6 C-9.33 7.32 -9.66 8.64 -10 10 C-10 8.02 -10 6.04 -10 4 C-7.36 4 -4.72 4 -2 4 C-2 3.34 -2 2.68 -2 2 C-1.34 2 -0.68 2 0 2 C0 1.34 0 0.68 0 0 Z " fill="#E0F5FD" transform="translate(528,570)"/>
<path d="M0 0 C0.66 0 1.32 0 2 0 C2 3.63 2 7.26 2 11 C-1.01490557 12.00496852 -3.04181692 12.10335303 -6.1875 12.0625 C-7.53908203 12.04896484 -7.53908203 12.04896484 -8.91796875 12.03515625 C-9.60503906 12.02355469 -10.29210937 12.01195312 -11 12 C-9.3655205 10.03553095 -8.53570606 9.07682209 -5.95703125 8.70703125 C-3.97135417 8.8046875 -1.98567708 8.90234375 0 9 C0 6.03 0 3.06 0 0 Z " fill="#0A76CC" transform="translate(491,470)"/>
<path d="M0 0 C0.33 0.99 0.66 1.98 1 3 C-1.31 3 -3.62 3 -6 3 C-6 3.66 -6 4.32 -6 5 C-7.32 5 -8.64 5 -10 5 C-10 7.97 -10 10.94 -10 14 C-10.33 14 -10.66 14 -11 14 C-11.08114106 12.22992286 -11.13925505 10.45877902 -11.1875 8.6875 C-11.22230469 7.70136719 -11.25710938 6.71523438 -11.29296875 5.69921875 C-11 3 -11 3 -9.75 1.15625 C-6.638305 -0.89969134 -3.63719401 -0.17887839 0 0 Z " fill="#267DD5" transform="translate(504,554)"/>
<path d="M0 0 C0.66 0 1.32 0 2 0 C2 1.32 2 2.64 2 4 C1.34 4 0.68 4 0 4 C-0.061875 4.78375 -0.12375 5.5675 -0.1875 6.375 C-0.455625 7.24125 -0.72375 8.1075 -1 9 C-3.5 10.1875 -3.5 10.1875 -6 11 C-6.33 11.66 -6.66 12.32 -7 13 C-7.66 13 -8.32 13 -9 13 C-8.690625 12.401875 -8.38125 11.80375 -8.0625 11.1875 C-6.89790296 8.91043228 -6.89790296 8.91043228 -6 6 C-5.34 6 -4.68 6 -4 6 C-4 5.34 -4 4.68 -4 4 C-3.34 4 -2.68 4 -2 4 C-2 3.34 -2 2.68 -2 2 C-1.34 2 -0.68 2 0 2 C0 1.34 0 0.68 0 0 Z " fill="#3188D4" transform="translate(361,387)"/>
<path d="M0 0 C1.99954746 -0.04254356 4.00041636 -0.04080783 6 0 C7 1 7 1 7.1328125 2.99609375 C7.13023437 3.80175781 7.12765625 4.60742188 7.125 5.4375 C7.12757813 6.24058594 7.13015625 7.04367187 7.1328125 7.87109375 C7 10 7 10 6 12 C4.68 12 3.36 12 2 12 C2 11.34 2 10.68 2 10 C2.66 10 3.32 10 4 10 C4 7.69 4 5.38 4 3 C3.34 3 2.68 3 2 3 C2 2.34 2 1.68 2 1 C1.34 0.67 0.68 0.34 0 0 Z " fill="#2B82D4" transform="translate(520,560)"/>
<path d="M0 0 C0.33 0 0.66 0 1 0 C1 2.97 1 5.94 1 9 C-1.31 9 -3.62 9 -6 9 C-6 7.68 -6 6.36 -6 5 C-5.34 5 -4.68 5 -4 5 C-4 4.01 -4 3.02 -4 2 C-2.68 2 -1.36 2 0 2 C0 1.34 0 0.68 0 0 Z " fill="#F3F3F3" transform="translate(387,563)"/>
<path d="M0 0 C0.66 0.66 1.32 1.32 2 2 C2.66 1.67 3.32 1.34 4 1 C6.1519437 4.22791555 6.20086443 5.28400809 6 9 C3.69 8.67 1.38 8.34 -1 8 C-1.04241723 5.66705225 -1.04092937 3.33297433 -1 1 C-0.67 0.67 -0.34 0.34 0 0 Z " fill="#DDDDDD" transform="translate(362,557)"/>
<path d="M0 0 C1.98 0 3.96 0 6 0 C6 0.66 6 1.32 6 2 C4.68 2 3.36 2 2 2 C2 7.28 2 12.56 2 18 C1.34 18 0.68 18 0 18 C0 12.06 0 6.12 0 0 Z " fill="#1773CA" transform="translate(441,554)"/>
<path d="M0 0 C2.97 0 5.94 0 9 0 C8.67 2.31 8.34 4.62 8 7 C7.34 7 6.68 7 6 7 C6 6.34 6 5.68 6 5 C4.35 4.67 2.7 4.34 1 4 C0.67 2.68 0.34 1.36 0 0 Z " fill="#ECECEC" transform="translate(419,567)"/>
<path d="M0 0 C1.98 0 3.96 0 6 0 C6 2.31 6 4.62 6 7 C4.02 7 2.04 7 0 7 C0 4.69 0 2.38 0 0 Z " fill="#C1DBF7" transform="translate(518,563)"/>
<path d="M0 0 C0.99 0 1.98 0 3 0 C3 1.32 3 2.64 3 4 C2.34 4 1.68 4 1 4 C1 4.99 1 5.98 1 7 C1.66 7 2.32 7 3 7 C3 8.32 3 9.64 3 11 C1.68 10.67 0.36 10.34 -1 10 C-1 9.01 -1 8.02 -1 7 C-1.66 7 -2.32 7 -3 7 C-3.33 6.01 -3.66 5.02 -4 4 C-3.01 4 -2.02 4 -1 4 C-0.67 2.68 -0.34 1.36 0 0 Z " fill="#D9EDF6" transform="translate(457,345)"/>
<path d="M0 0 C7.26 0.33 14.52 0.66 22 1 C22 1.99 22 2.98 22 4 C15.25 4.125 15.25 4.125 13 3 C10.17956274 2.72579082 7.35946953 2.5538093 4.53125 2.37890625 C2 2 2 2 0 0 Z " fill="#AFD3ED" transform="translate(423,468)"/>
<path d="M0 0 C2.31 0 4.62 0 7 0 C7 1.65 7 3.3 7 5 C5.68 5 4.36 5 3 5 C3 8.63 3 12.26 3 16 C2.67 16 2.34 16 2 16 C2 11.38 2 6.76 2 2 C1.34 2 0.68 2 0 2 C0 1.34 0 0.68 0 0 Z " fill="#D3D3D3" transform="translate(407,558)"/>
<path d="M0 0 C3.63 0 7.26 0 11 0 C11 0.66 11 1.32 11 2 C5.21642935 4.01167675 0.09781001 4.22084624 -6 4 C-2.25 2 -2.25 2 0 2 C0 1.34 0 0.68 0 0 Z " fill="#007AE1" transform="translate(511,376)"/>
<path d="M0 0 C7.42857143 -0.28571429 7.42857143 -0.28571429 11 2 C11 3.32 11 4.64 11 6 C10.34 6 9.68 6 9 6 C9 5.34 9 4.68 9 4 C6.69 4 4.38 4 2 4 C2 3.34 2 2.68 2 2 C1.34 2 0.68 2 0 2 C0 1.34 0 0.68 0 0 Z " fill="#0179DF" transform="translate(449,356)"/>
<path d="M0 0 C0.99 0.33 1.98 0.66 3 1 C3 1.66 3 2.32 3 3 C3.66 3 4.32 3 5 3 C5 3.99 5 4.98 5 6 C6.32 6.33 7.64 6.66 9 7 C8.67 7.66 8.34 8.32 8 9 C4.7 8.34 1.4 7.68 -2 7 C-2 6.01 -2 5.02 -2 4 C-1.01 4 -0.02 4 1 4 C0.67 2.68 0.34 1.36 0 0 Z " fill="#2D86D6" transform="translate(451,349)"/>
<path d="M0 0 C0.66 0 1.32 0 2 0 C2 3.63 2 7.26 2 11 C2.66 11 3.32 11 4 11 C4 11.66 4 12.32 4 13 C4.66 13 5.32 13 6 13 C6 13.66 6 14.32 6 15 C4.68 15 3.36 15 2 15 C2 14.34 2 13.68 2 13 C1.34 13 0.68 13 0 13 C0 8.71 0 4.42 0 0 Z " fill="#BEBEBE" transform="translate(390,559)"/>
<path d="M0 0 C1.98 0 3.96 0 6 0 C6 0.66 6 1.32 6 2 C8.31 2 10.62 2 13 2 C13 2.66 13 3.32 13 4 C8.71 4 4.42 4 0 4 C0 2.68 0 1.36 0 0 Z " fill="#C7E2F3" transform="translate(478,519)"/>
<path d="M0 0 C1.98 0 3.96 0 6 0 C6 0.66 6 1.32 6 2 C1.47849025 3.71121754 -2.55617153 4.35223612 -7.375 4.625 C-9.24285156 4.73714844 -9.24285156 4.73714844 -11.1484375 4.8515625 C-12.55996094 4.92503906 -12.55996094 4.92503906 -14 5 C-14 4.34 -14 3.68 -14 3 C-9.38 2.67 -4.76 2.34 0 2 C0 1.34 0 0.68 0 0 Z " fill="#6CAAE0" transform="translate(454,382)"/>
<path d="M0 0 C0 0.66 0 1.32 0 2 C-1.65 2.33 -3.3 2.66 -5 3 C-5 3.99 -5 4.98 -5 6 C-8.21451269 7.60725635 -11.43612536 7.05748185 -15 7 C-15 6.34 -15 5.68 -15 5 C-12.8765984 4.16260219 -10.7512272 3.33019717 -8.625 2.5 C-7.44164062 2.0359375 -6.25828125 1.571875 -5.0390625 1.09375 C-2 0 -2 0 0 0 Z " fill="#64A4D9" transform="translate(383,373)"/>
<path d="M0 0 C1.32 0 2.64 0 4 0 C4 0.99 4 1.98 4 3 C2.68 3 1.36 3 0 3 C0 3.99 0 4.98 0 6 C-2.97 6 -5.94 6 -9 6 C-9 5.34 -9 4.68 -9 4 C-7.35 4 -5.7 4 -4 4 C-4 3.34 -4 2.68 -4 2 C-2.68 2 -1.36 2 0 2 C0 1.34 0 0.68 0 0 Z " fill="#3D8ACC" transform="translate(401,365)"/>
<path d="M0 0 C0.33 0 0.66 0 1 0 C1.33 2.31 1.66 4.62 2 7 C3.65 6.67 5.3 6.34 7 6 C7 6.66 7 7.32 7 8 C6.01 8 5.02 8 4 8 C4 9.65 4 11.3 4 13 C2.68 13 1.36 13 0 13 C0 8.71 0 4.42 0 0 Z " fill="#F2F5F4" transform="translate(511,574)"/>
<path d="M0 0 C2.875 -0.1875 2.875 -0.1875 6 0 C8.29013653 3.4352048 8.17842973 4.985331 8 9 C7.01 9.495 7.01 9.495 6 10 C6 8.02 6 6.04 6 4 C4.68 4 3.36 4 2 4 C1.67 5.98 1.34 7.96 1 10 C0.67 10 0.34 10 0 10 C0 6.7 0 3.4 0 0 Z " fill="#DFEFF8" transform="translate(444,558)"/>
<path d="M0 0 C1.65 0 3.3 0 5 0 C5 1.32 5 2.64 5 4 C4.01 4 3.02 4 2 4 C2 7.3 2 10.6 2 14 C1.34 13.67 0.68 13.34 0 13 C0 10.36 0 7.72 0 5 C-2.97 4.505 -2.97 4.505 -6 4 C-6 3.67 -6 3.34 -6 3 C-4.02 2.67 -2.04 2.34 0 2 C0 1.34 0 0.68 0 0 Z " fill="#71B0EC" transform="translate(504,554)"/>
<path d="M0 0 C1.65 0.33 3.3 0.66 5 1 C5 1.66 5 2.32 5 3 C7.31 3 9.62 3 12 3 C12 3.33 12 3.66 12 4 C9.69 4.33 7.38 4.66 5 5 C5 5.66 5 6.32 5 7 C2.69 7 0.38 7 -2 7 C-2 6.34 -2 5.68 -2 5 C-0.35 5 1.3 5 3 5 C3 4.01 3 3.02 3 2 C2.01 1.67 1.02 1.34 0 1 C0 0.67 0 0.34 0 0 Z " fill="#A6D1F0" transform="translate(484,373)"/>
<path d="M0 0 C0.99 0 1.98 0 3 0 C3 0.66 3 1.32 3 2 C3.99 2 4.98 2 6 2 C5.67 3.32 5.34 4.64 5 6 C4.34 6 3.68 6 3 6 C3 6.99 3 7.98 3 9 C2.34 9 1.68 9 1 9 C1 7.35 1 5.7 1 4 C0.34 4 -0.32 4 -1 4 C-0.67 2.68 -0.34 1.36 0 0 Z " fill="#197DCE" transform="translate(521,486)"/>
<path d="M0 0 C0.33 0.66 0.66 1.32 1 2 C1.66 2 2.32 2 3 2 C3 2.66 3 3.32 3 4 C3.66 4 4.32 4 5 4 C5 4.66 5 5.32 5 6 C5.99 6.33 6.98 6.66 8 7 C4.49064814 7 1.43515002 6.62457273 -2 6 C-2 5.34 -2 4.68 -2 4 C-2.66 4 -3.32 4 -4 4 C-4 3.34 -4 2.68 -4 2 C-2.68 2 -1.36 2 0 2 C0 1.34 0 0.68 0 0 Z " fill="#EEF3F3" transform="translate(484,367)"/>
<path d="M0 0 C1.32 0 2.64 0 4 0 C4 0.66 4 1.32 4 2 C4.66 2 5.32 2 6 2 C6 2.66 6 3.32 6 4 C7.65 4.33 9.3 4.66 11 5 C11 5.66 11 6.32 11 7 C9.02 7 7.04 7 5 7 C4.67 6.01 4.34 5.02 4 4 C1.98491642 3.26676204 1.98491642 3.26676204 0 3 C0 2.01 0 1.02 0 0 Z " fill="#2F7FD5" transform="translate(463,360)"/>
<path d="M0 0 C7 1 14 2 21 3 C21 3.33 21 3.66 21 4 C15.72 4 10.44 4 5 4 C5 3.34 5 2.68 5 2 C3.35 1.67 1.7 1.34 0 1 C0 0.67 0 0.34 0 0 Z " fill="#2E83D0" transform="translate(431,470)"/>
<path d="M0 0 C1.32 0 2.64 0 4 0 C3.67 2.31 3.34 4.62 3 7 C0.03824877 6.38722388 -1.38058783 5.74627478 -4 4 C-4 3.34 -4 2.68 -4 2 C-2.68 2 -1.36 2 0 2 C0 1.34 0 0.68 0 0 Z " fill="#1880D3" transform="translate(416,360)"/>
<path d="M0 0 C0.99 0 1.98 0 3 0 C2.67 1.32 2.34 2.64 2 4 C-2.29 4 -6.58 4 -11 4 C-11 3.34 -11 2.68 -11 2 C-7.37 2 -3.74 2 0 2 C0 1.34 0 0.68 0 0 Z " fill="#D8F1FC" transform="translate(451,572)"/>
<path d="M0 0 C0.33 0 0.66 0 1 0 C1 5.94 1 11.88 1 18 C1.99 17.67 2.98 17.34 4 17 C4.99 17.33 5.98 17.66 7 18 C7 18.66 7 19.32 7 20 C4.69 20 2.38 20 0 20 C0 13.4 0 6.8 0 0 Z " fill="#3E8DD6" transform="translate(440,554)"/>
<path d="M0 0 C1.32 0 2.64 0 4 0 C4 0.66 4 1.32 4 2 C4.66 2 5.32 2 6 2 C6 2.66 6 3.32 6 4 C6.66 4 7.32 4 8 4 C8.33 5.65 8.66 7.3 9 9 C8.01 9 7.02 9 6 9 C5.34 7.35 4.68 5.7 4 4 C3.34 4 2.68 4 2 4 C2 3.34 2 2.68 2 2 C1.34 2 0.68 2 0 2 C0 1.34 0 0.68 0 0 Z " fill="#3F8FCE" transform="translate(372,466)"/>
<path d="M0 0 C1.32 0 2.64 0 4 0 C4 1.98 4 3.96 4 6 C3.34 6 2.68 6 2 6 C1.67 7.65 1.34 9.3 1 11 C0.34 11 -0.32 11 -1 11 C-0.67 7.37 -0.34 3.74 0 0 Z " fill="#A1CAED" transform="translate(527,561)"/>
<path d="M0 0 C0.66 0.66 1.32 1.32 2 2 C4.06874034 2.6425235 4.06874034 2.6425235 6 3 C6 3.66 6 4.32 6 5 C4.02 5 2.04 5 0 5 C0 4.34 0 3.68 0 3 C-1.670625 3.061875 -1.670625 3.061875 -3.375 3.125 C-7 3 -7 3 -9 1 C-7.54364629 0.77825067 -6.08477044 0.57301302 -4.625 0.375 C-3.40683594 0.20097656 -3.40683594 0.20097656 -2.1640625 0.0234375 C-1.44992187 0.01570313 -0.73578125 0.00796875 0 0 Z " fill="#D4E9F7" transform="translate(474,472)"/>
<path d="M0 0 C1.65 0 3.3 0 5 0 C5 0.66 5 1.32 5 2 C9.95 2 14.9 2 20 2 C20 2.33 20 2.66 20 3 C15.05 3 10.1 3 5 3 C4.67 3.66 4.34 4.32 4 5 C4 4.34 4 3.68 4 3 C2.68 3 1.36 3 0 3 C0 2.01 0 1.02 0 0 Z " fill="#0D71CA" transform="translate(372,463)"/>
<path d="M0 0 C-1 2 -1 2 -4 3.125 C-8.32229088 4.27521462 -12.55956873 4.18124209 -17 4 C-12.8310355 -0.1689645 -5.63804533 -0.28913053 0 0 Z " fill="#C4E6F4" transform="translate(411,393)"/>
<path d="M0 0 C0.66 0 1.32 0 2 0 C1.25 7.75 1.25 7.75 -1 10 C-3.68839385 10.26991906 -6.29141936 10.08737357 -9 10 C-5.91190305 8.23537317 -4.76687864 8 -1 8 C-1.020625 7.05125 -1.04125 6.1025 -1.0625 5.125 C-1 2 -1 2 0 0 Z " fill="#A6CDEE" transform="translate(474,559)"/>
<path d="M0 0 C0.66 0 1.32 0 2 0 C2 2 2 4 2 6 C0.68 6 -0.64 6 -2 6 C-2 5.34 -2 4.68 -2 4 C-4.31 4 -6.62 4 -9 4 C-9 3.34 -9 2.68 -9 2 C-6.03 2 -3.06 2 0 2 C0 1.34 0 0.68 0 0 Z " fill="#4592DA" transform="translate(458,506)"/>
<path d="M0 0 C0.33 0 0.66 0 1 0 C1 2.31 1 4.62 1 7 C1.66 7 2.32 7 3 7 C3 7.66 3 8.32 3 9 C3.99 9 4.98 9 6 9 C6 9.66 6 10.32 6 11 C4.68 11 3.36 11 2 11 C2 10.34 2 9.68 2 9 C1.01 9 0.02 9 -1 9 C-1 8.34 -1 7.68 -1 7 C-2.98 7.99 -2.98 7.99 -5 9 C-4.67 8.01 -4.34 7.02 -4 6 C-2.68 6 -1.36 6 0 6 C0 4.02 0 2.04 0 0 Z " fill="#B0D1EF" transform="translate(459,563)"/>
<path d="M0 0 C1.32 0 2.64 0 4 0 C4 0.66 4 1.32 4 2 C6.31 2 8.62 2 11 2 C11 2.66 11 3.32 11 4 C7.37 4 3.74 4 0 4 C0 2.68 0 1.36 0 0 Z " fill="#308BD3" transform="translate(366,396)"/>
<path d="M0 0 C1.98 0 3.96 0 6 0 C6 1.32 6 2.64 6 4 C2.7 4 -0.6 4 -4 4 C-4 3.34 -4 2.68 -4 2 C-2.68 2 -1.36 2 0 2 C0 1.34 0 0.68 0 0 Z " fill="#3487D3" transform="translate(425,356)"/>
<path d="M0 0 C3.63 0 7.26 0 11 0 C11 0.66 11 1.32 11 2 C3.08 2.495 3.08 2.495 -5 3 C-5 2.67 -5 2.34 -5 2 C-3.35 2 -1.7 2 0 2 C0 1.34 0 0.68 0 0 Z " fill="#1375C5" transform="translate(465,378)"/>
<path d="M0 0 C2.31 0 4.62 0 7 0 C7 0.66 7 1.32 7 2 C5.68 2 4.36 2 3 2 C3 2.66 3 3.32 3 4 C0.69 4.33 -1.62 4.66 -4 5 C-3.34 4.67 -2.68 4.34 -2 4 C-0.86649466 1.98330173 -0.86649466 1.98330173 0 0 Z " fill="#AFD3F4" transform="translate(409,360)"/>
<path d="M0 0 C1.32 0 2.64 0 4 0 C4 1.98 4 3.96 4 6 C3.34 6 2.68 6 2 6 C2 6.66 2 7.32 2 8 C1.34 8 0.68 8 0 8 C0 5.36 0 2.72 0 0 Z " fill="#4490D8" transform="translate(476,559)"/>
<path d="M0 0 C1.95766281 -0.08082094 3.91626728 -0.13910778 5.875 -0.1875 C7.51082031 -0.23970703 7.51082031 -0.23970703 9.1796875 -0.29296875 C10.11039062 -0.19628906 11.04109375 -0.09960938 12 0 C12.66 0.99 13.32 1.98 14 3 C7.07 2.505 7.07 2.505 0 2 C0 1.34 0 0.68 0 0 Z " fill="#D8EFFB" transform="translate(416,466)"/>
<path d="M0 0 C2.31 0 4.62 0 7 0 C7 0.66 7 1.32 7 2 C6.34 2 5.68 2 5 2 C5 2.66 5 3.32 5 4 C2.69 4 0.38 4 -2 4 C-2 3.34 -2 2.68 -2 2 C-1.34 2 -0.68 2 0 2 C0 1.34 0 0.68 0 0 Z " fill="#B8DAF4" transform="translate(385,369)"/>
<path d="M0 0 C2.97 0 5.94 0 9 0 C9 1.32 9 2.64 9 4 C8.01 4 7.02 4 6 4 C6 4.66 6 5.32 6 6 C5.34 6 4.68 6 4 6 C4 4.68 4 3.36 4 2 C2.68 2 1.36 2 0 2 C0 1.34 0 0.68 0 0 Z " fill="#83B8E6" transform="translate(531,559)"/>
<path d="M0 0 C5.445 1.485 5.445 1.485 11 3 C11 3.66 11 4.32 11 5 C8.36 5 5.72 5 3 5 C2.67 4.01 2.34 3.02 2 2 C1.34 2 0.68 2 0 2 C0 1.34 0 0.68 0 0 Z " fill="#B6D8F2" transform="translate(434,503)"/>
<path d="M0 0 C0.99 0 1.98 0 3 0 C3 0.99 3 1.98 3 3 C4.65 3 6.3 3 8 3 C8 4.98 8 6.96 8 9 C7.01 9 6.02 9 5 9 C5 7.68 5 6.36 5 5 C2.53673288 3.3553326 2.53673288 3.3553326 0 2 C0 1.34 0 0.68 0 0 Z " fill="#0972CA" transform="translate(409,501)"/>
<path d="M0 0 C6.625 -0.125 6.625 -0.125 10 1 C10 1.66 10 2.32 10 3 C10.66 3 11.32 3 12 3 C12 3.66 12 4.32 12 5 C7.61110675 4.33501617 4.0188515 2.81242323 0 1 C0 0.67 0 0.34 0 0 Z " fill="#2D81CE" transform="translate(431,501)"/>
<path d="M0 0 C0.66 0 1.32 0 2 0 C1.44271087 3.34373475 0.64826111 6.03312999 -1 9 C-1.66 9 -2.32 9 -3 9 C-3 6.69 -3 4.38 -3 2 C-2.01 2 -1.02 2 0 2 C0 1.34 0 0.68 0 0 Z " fill="#007AE6" transform="translate(355,402)"/>
<path d="M0 0 C2.475 0.495 2.475 0.495 5 1 C5 1.66 5 2.32 5 3 C5.66 3 6.32 3 7 3 C7 3.66 7 4.32 7 5 C4.69 5 2.38 5 0 5 C0 3.35 0 1.7 0 0 Z " fill="#177BCE" transform="translate(438,342)"/>
<path d="M0 0 C0.4125 0.639375 0.825 1.27875 1.25 1.9375 C3.17810487 4.20990931 4.11424181 4.60196439 7 5 C7 5.66 7 6.32 7 7 C4.69 7 2.38 7 0 7 C0 6.34 0 5.68 0 5 C-0.66 5 -1.32 5 -2 5 C-2 4.34 -2 3.68 -2 3 C-1.34 3 -0.68 3 0 3 C0 2.01 0 1.02 0 0 Z " fill="#C2C2C2" transform="translate(418,567)"/>
<path d="M0 0 C0.99 0.33 1.98 0.66 3 1 C2.84660156 1.51046875 2.69320312 2.0209375 2.53515625 2.546875 C1.83094597 5.7749338 1.65111796 8.95418001 1.4375 12.25 C1.35371094 13.51328125 1.26992188 14.7765625 1.18359375 16.078125 C1.12300781 17.04234375 1.06242188 18.0065625 1 19 C0.67 19 0.34 19 0 19 C0 12.73 0 6.46 0 0 Z " fill="#1C77D1" transform="translate(515,560)"/>
<path d="M0 0 C4.62 0 9.24 0 14 0 C13.67 0.66 13.34 1.32 13 2 C11.68 2 10.36 2 9 2 C9 2.66 9 3.32 9 4 C7.68 4 6.36 4 5 4 C4.67 3.34 4.34 2.68 4 2 C2.68 1.34 1.36 0.68 0 0 Z " fill="#6AACDE" transform="translate(513,559)"/>
<path d="M0 0 C4.48525648 0.656379 8.66914029 1.70074209 13 3 C13 3.66 13 4.32 13 5 C7.06 4.01 7.06 4.01 1 3 C0.67 2.01 0.34 1.02 0 0 Z " fill="#D1E5F4" transform="translate(463,514)"/>
<path d="M0 0 C0.66 0 1.32 0 2 0 C2 1.32 2 2.64 2 4 C-1.63 4 -5.26 4 -9 4 C-9 3.34 -9 2.68 -9 2 C-6.03 2 -3.06 2 0 2 C0 1.34 0 0.68 0 0 Z " fill="#4B96E2" transform="translate(489,475)"/>
<path d="M0 0 C0.66 0 1.32 0 2 0 C1.125 4.75 1.125 4.75 0 7 C-1.65 7 -3.3 7 -5 7 C-5 6.34 -5 5.68 -5 5 C-4.34 5 -3.68 5 -3 5 C-3 4.34 -3 3.68 -3 3 C-2.34 3 -1.68 3 -1 3 C-0.67 2.01 -0.34 1.02 0 0 Z " fill="#1C7AC9" transform="translate(355,397)"/>
<path d="M0 0 C1.67542976 0.28604898 3.34385343 0.61781233 5 1 C3.68 1.33 2.36 1.66 1 2 C1 2.66 1 3.32 1 4 C-1.97 4 -4.94 4 -8 4 C-8 3.34 -8 2.68 -8 2 C-6.865625 1.855625 -5.73125 1.71125 -4.5625 1.5625 C-1.19222799 1.38828522 -1.19222799 1.38828522 0 0 Z " fill="#0771CB" transform="translate(457,504)"/>
<path d="M0 0 C2.31 0.33 4.62 0.66 7 1 C6.67 1.99 6.34 2.98 6 4 C3.69 4 1.38 4 -1 4 C-0.67 2.68 -0.34 1.36 0 0 Z " fill="#FEF9F1" transform="translate(358,462)"/>
<path d="M0 0 C0.66 0.33 1.32 0.66 2 1 C1.67 1.99 1.34 2.98 1 4 C0.34 4 -0.32 4 -1 4 C-1 4.66 -1 5.32 -1 6 C-2.98 6.33 -4.96 6.66 -7 7 C-7 6.34 -7 5.68 -7 5 C-5.68 5 -4.36 5 -3 5 C-3 4.01 -3 3.02 -3 2 C-2.01 1.34 -1.02 0.68 0 0 Z " fill="#B4D4E8" transform="translate(527,490)"/>
<path d="M0 0 C0.66 0 1.32 0 2 0 C2 0.66 2 1.32 2 2 C2.66 2 3.32 2 4 2 C4 2.99 4 3.98 4 5 C4.66 5 5.32 5 6 5 C6.33 6.32 6.66 7.64 7 9 C6.34 9 5.68 9 5 9 C5 8.34 5 7.68 5 7 C4.34 7 3.68 7 3 7 C1.375 5.75 1.375 5.75 0 4 C0 2.68 0 1.36 0 0 Z " fill="#91C0E4" transform="translate(383,479)"/>
<path d="M0 0 C-0.66 0 -1.32 0 -2 0 C-2 0.66 -2 1.32 -2 2 C-5.63 2 -9.26 2 -13 2 C-9.55192297 -1.44807703 -4.50554126 -1.62199485 0 0 Z " fill="#ACCDEC" transform="translate(436,389)"/>
<path d="M0 0 C-3.4352048 2.29013653 -4.985331 2.17842973 -9 2 C-9 2.66 -9 3.32 -9 4 C-11.31 3.67 -13.62 3.34 -16 3 C-16 2.67 -16 2.34 -16 2 C-14.27192682 1.66104344 -12.54248026 1.32908475 -10.8125 1 C-9.84957031 0.814375 -8.88664062 0.62875 -7.89453125 0.4375 C-5.2065794 0.03122388 -2.71228981 -0.07933572 0 0 Z " fill="#4295DA" transform="translate(507,375)"/>
<path d="M0 0 C0.33 1.32 0.66 2.64 1 4 C-1.31 4 -3.62 4 -6 4 C-6 3.01 -6 2.02 -6 1 C-3.92446352 0.4465236 -2.15634036 0 0 0 Z " fill="#599BD7" transform="translate(537,570)"/>
<path d="M0 0 C0.66 0 1.32 0 2 0 C2 4 2 4 -0.375 6.75 C-3 9 -3 9 -5 9 C-4.690625 8.401875 -4.38125 7.80375 -4.0625 7.1875 C-2.89790296 4.91043228 -2.89790296 4.91043228 -2 2 C-1.34 2 -0.68 2 0 2 C0 1.34 0 0.68 0 0 Z " fill="#7AB0DC" transform="translate(357,391)"/>
<path d="M0 0 C0 0.99 0 1.98 0 3 C-3.63 3 -7.26 3 -11 3 C-6.75707862 0.87853931 -4.7245591 0 0 0 Z " fill="#0D72C9" transform="translate(511,375)"/>
<path d="M0 0 C0.66 0.33 1.32 0.66 2 1 C1.67 2.32 1.34 3.64 1 5 C-0.32 5.33 -1.64 5.66 -3 6 C-3.33 4.68 -3.66 3.36 -4 2 C-2.125 0.9375 -2.125 0.9375 0 0 Z " fill="#F3F6F4" transform="translate(406,359)"/>
<path d="M0 0 C0.99 0 1.98 0 3 0 C3 2.97 3 5.94 3 9 C2.34 9 1.68 9 1 9 C0.67 6.03 0.34 3.06 0 0 Z " fill="#1574D8" transform="translate(506,558)"/>
<path d="M0 0 C1.65 0 3.3 0 5 0 C5 0.66 5 1.32 5 2 C1.17010894 3.80230168 -1.78121808 4.19622241 -6 4 C-2.25 2 -2.25 2 0 2 C0 1.34 0 0.68 0 0 Z " fill="#BFDAEE" transform="translate(460,382)"/>
<path d="M0 0 C0.66 0 1.32 0 2 0 C2 2.97 2 5.94 2 9 C1.01 8.67 0.02 8.34 -1 8 C-1.04241723 5.66705225 -1.04092937 3.33297433 -1 1 C-0.67 0.67 -0.34 0.34 0 0 Z " fill="#A9CAF1" transform="translate(496,559)"/>
<path d="M0 0 C1.65 0 3.3 0 5 0 C5 1.32 5 2.64 5 4 C3.35 4 1.7 4 0 4 C0 2.68 0 1.36 0 0 Z " fill="#EDEDED" transform="translate(420,561)"/>
<path d="M0 0 C1.32 0 2.64 0 4 0 C4 0.99 4 1.98 4 3 C3.34 3 2.68 3 2 3 C2 3.66 2 4.32 2 5 C1.01 5.33 0.02 5.66 -1 6 C-0.67 4.02 -0.34 2.04 0 0 Z " fill="#F9FEF1" transform="translate(498,560)"/>
<path d="M0 0 C0 0.66 0 1.32 0 2 C-1.98 2 -3.96 2 -6 2 C-6 2.66 -6 3.32 -6 4 C-6.99 4 -7.98 4 -9 4 C-8.67 3.01 -8.34 2.02 -8 1 C-5.29120665 -0.35439668 -2.99066732 -0.06501451 0 0 Z " fill="#CFE6F5" transform="translate(480,557)"/>
<path d="M0 0 C2.31 0 4.62 0 7 0 C7 0.66 7 1.32 7 2 C3.37 2.33 -0.26 2.66 -4 3 C-2.68 2.67 -1.36 2.34 0 2 C0 1.34 0 0.68 0 0 Z " fill="#4F9CE4" transform="translate(447,554)"/>
<path d="M0 0 C0.66 0 1.32 0 2 0 C2 0.66 2 1.32 2 2 C2.66 2 3.32 2 4 2 C4 2.99 4 3.98 4 5 C4.66 5 5.32 5 6 5 C6 5.66 6 6.32 6 7 C4.68 6.67 3.36 6.34 2 6 C2 5.34 2 4.68 2 4 C1.34 4 0.68 4 0 4 C0 2.68 0 1.36 0 0 Z " fill="#BDDAF2" transform="translate(410,512)"/>
<path d="M0 0 C2.97 0 5.94 0 9 0 C7.68 0.33 6.36 0.66 5 1 C5 1.66 5 2.32 5 3 C3.35 3 1.7 3 0 3 C0 2.01 0 1.02 0 0 Z " fill="#0079C7" transform="translate(387,388)"/>
<path d="M0 0 C1.98 0 3.96 0 6 0 C6 0.66 6 1.32 6 2 C6.66 2 7.32 2 8 2 C8 2.66 8 3.32 8 4 C6.68 4 5.36 4 4 4 C4 3.34 4 2.68 4 2 C2.68 1.67 1.36 1.34 0 1 C0 0.67 0 0.34 0 0 Z " fill="#5899D8" transform="translate(443,570)"/>
<path d="M0 0 C1.32 0 2.64 0 4 0 C4 0.66 4 1.32 4 2 C3.34 2 2.68 2 2 2 C2 5.63 2 9.26 2 13 C1.67 13 1.34 13 1 13 C0.67 8.71 0.34 4.42 0 0 Z " fill="#EBEBEB" transform="translate(414,559)"/>
<path d="M0 0 C0.66 0 1.32 0 2 0 C2 0.99 2 1.98 2 3 C1.34 3 0.68 3 0 3 C-0.33 4.32 -0.66 5.64 -1 7 C-1.66 7 -2.32 7 -3 7 C-3 6.34 -3 5.68 -3 5 C-3.66 4.67 -4.32 4.34 -5 4 C-4.01 4 -3.02 4 -2 4 C-2 3.34 -2 2.68 -2 2 C-1.34 2 -0.68 2 0 2 C0 1.34 0 0.68 0 0 Z " fill="#157FDE" transform="translate(399,488)"/>
<path d="M0 0 C1.32 0 2.64 0 4 0 C4 0.99 4 1.98 4 3 C1.36 3.33 -1.28 3.66 -4 4 C-4 3.34 -4 2.68 -4 2 C-2.68 2 -1.36 2 0 2 C0 1.34 0 0.68 0 0 Z " fill="#5EA4E0" transform="translate(401,365)"/>
<path d="M0 0 C0.66 0 1.32 0 2 0 C2 2.31 2 4.62 2 7 C0.68 7 -0.64 7 -2 7 C-2 6.34 -2 5.68 -2 5 C-1.34 5 -0.68 5 0 5 C0 3.35 0 1.7 0 0 Z " fill="#A5CDEE" transform="translate(540,567)"/>
<path d="M0 0 C2.31 0 4.62 0 7 0 C6.67 0.66 6.34 1.32 6 2 C3.6859378 2.73075648 1.35171131 3.40138258 -1 4 C-0.67 2.68 -0.34 1.36 0 0 Z " fill="#007EDE" transform="translate(425,360)"/>
<path d="M0 0 C2.31 0 4.62 0 7 0 C7 1.32 7 2.64 7 4 C6.34 4 5.68 4 5 4 C5 3.34 5 2.68 5 2 C3.35 1.67 1.7 1.34 0 1 C0 0.67 0 0.34 0 0 Z " fill="#DDDDDD" transform="translate(420,570)"/>
<path d="M0 0 C0.66 0 1.32 0 2 0 C2 2.31 2 4.62 2 7 C1.34 7 0.68 7 0 7 C-0.38133299 5.0085944 -0.71325582 3.00720923 -1 1 C-0.67 0.67 -0.34 0.34 0 0 Z " fill="#1C82DC" transform="translate(410,505)"/>
<path d="M0 0 C0.66 0 1.32 0 2 0 C2 0.66 2 1.32 2 2 C2.66 2 3.32 2 4 2 C4.625 3.875 4.625 3.875 5 6 C4.34 6.66 3.68 7.32 3 8 C3 6.68 3 5.36 3 4 C2.01 3.67 1.02 3.34 0 3 C0 2.01 0 1.02 0 0 Z " fill="#B0D7F3" transform="translate(394,493)"/>
<path d="M0 0 C0.66 0 1.32 0 2 0 C2 0.66 2 1.32 2 2 C2.99 2.33 3.98 2.66 5 3 C5 3.33 5 3.66 5 4 C2.69 4 0.38 4 -2 4 C-2 3.34 -2 2.68 -2 2 C-1.34 2 -0.68 2 0 2 C0 1.34 0 0.68 0 0 Z " fill="#338ADE" transform="translate(480,371)"/>
<path d="M0 0 C2.31 0.33 4.62 0.66 7 1 C7 1.66 7 2.32 7 3 C5.02 3 3.04 3 1 3 C0.67 2.01 0.34 1.02 0 0 Z " fill="#2681CC" transform="translate(467,364)"/>
</svg>
