<?xml version="1.0" encoding="UTF-8"?>
<svg version="1.1" xmlns="http://www.w3.org/2000/svg" width="891" height="891">
<path d="M0 0 C294.03 0 588.06 0 891 0 C891 294.03 891 588.06 891 891 C596.97 891 302.94 891 0 891 C0 596.97 0 302.94 0 0 Z " fill="#FEFEFE" transform="translate(0,0)"/>
<path d="M0 0 C1.41154022 1.25940501 2.81660672 2.52605519 4.22119141 3.79321289 C5.59534582 4.96087541 6.97023996 6.1276685 8.34619141 7.29321289 C38.91518579 34.4015664 59.12366506 71.89158637 67.22119141 111.79321289 C67.40810547 112.70377441 67.59501953 113.61433594 67.78759766 114.55249023 C69.64706298 124.88082396 69.61851871 135.20888781 69.59619141 145.66821289 C69.59537567 147.10151947 69.59537567 147.10151947 69.59454346 148.56378174 C69.55676823 162.9893857 68.88404481 176.77276058 65.22119141 190.79321289 C64.99093262 191.7066748 64.76067383 192.62013672 64.5234375 193.5612793 C55.05877413 230.55027556 34.06484688 266.44441966 4.22119141 290.79321289 C3.17925836 291.6822237 2.13761831 292.57157796 1.09619141 293.46118164 C-13.6001364 305.816033 -30.15269104 315.26696883 -47.77880859 322.79321289 C-48.39546387 323.06327148 -49.01211914 323.33333008 -49.64746094 323.61157227 C-67.50512903 331.32814263 -87.71425348 335.85317572 -107.15771484 336.03149414 C-108.03898041 336.04128799 -108.92024597 336.05108185 -109.82821655 336.06117249 C-146.56335237 336.38559936 -146.56335237 336.38559936 -163.77880859 331.79321289 C-164.65456543 331.5629541 -165.53032227 331.33269531 -166.43261719 331.09545898 C-172.28187392 329.519236 -178.0411294 327.73422682 -183.77880859 325.79321289 C-185.52871094 325.20926758 -185.52871094 325.20926758 -187.31396484 324.61352539 C-212.45734423 315.57811025 -234.72283884 299.21574321 -253.77880859 280.79321289 C-254.50326172 280.12032227 -255.22771484 279.44743164 -255.97412109 278.75415039 C-271.19383366 264.27385706 -282.57929029 245.50534622 -291.77880859 226.79321289 C-292.32279297 225.68977539 -292.86677734 224.58633789 -293.42724609 223.44946289 C-300.69093642 207.61538662 -305.30503741 190.0144661 -307.77880859 172.79321289 C-307.87162109 172.15907471 -307.96443359 171.52493652 -308.06005859 170.87158203 C-310.61493965 151.23321503 -309.49879386 130.19112966 -305.77880859 110.79321289 C-305.56200439 109.66254395 -305.56200439 109.66254395 -305.34082031 108.5090332 C-299.3645369 78.58128835 -286.17998745 51.32153857 -266.77880859 27.79321289 C-266.31361816 27.22119141 -265.84842773 26.64916992 -265.36914062 26.05981445 C-236.72934677 -9.01986622 -196.11152161 -31.85424698 -151.77880859 -40.20678711 C-150.21453125 -40.5180957 -150.21453125 -40.5180957 -148.61865234 -40.83569336 C-97.53385663 -49.37970013 -39.12936733 -34.28472182 0 0 Z " fill="#F7F7F7" transform="translate(564.77880859375,298.206787109375)"/>
<path d="M0 0 C5.15932587 1.15558023 9.53485947 3.07595168 14.00390625 5.89453125 C20.8443262 10.14985998 25.00624642 11.57156091 32.98950195 10.07666016 C40.11575276 8.78644072 47.14471216 8.74294331 54.375 8.75 C56.15789429 8.73731079 56.15789429 8.73731079 57.97680664 8.72436523 C64.16480124 8.74214309 69.83976016 9.20456887 75.8762207 10.55078125 C81.67181064 11.77665612 84.76774645 10.94481949 89.6875 7.75 C100.04152905 1.47907086 109.78112562 -1.86505827 122 0 C128.10864825 3.27429316 129.91312696 6.64908349 132 13 C134.61556811 21.81268118 135.21563044 31.79015527 133.125 40.75 C132.9518323 45.25236016 134.93644311 47.48618815 137.3671875 51.171875 C140.21460347 56.10376294 141.55290454 61.52330027 143 67 C143.176521 67.62898193 143.35304199 68.25796387 143.53491211 68.90600586 C147.45532488 86.55712413 143.21944301 111.11503442 133.9921875 126.4765625 C124.5694669 141.20283886 111.00723502 150.24589461 94 154 C94.32433517 154.87156235 94.64867035 155.74312469 94.98283386 156.64109802 C95.96607403 159.88796914 96.25858573 162.37112901 96.2746582 165.74243164 C96.28419022 166.84700211 96.29372223 167.95157257 96.30354309 169.08961487 C96.30217598 170.85703285 96.30217598 170.85703285 96.30078125 172.66015625 C96.30506638 173.88278671 96.3093515 175.10541718 96.31376648 176.36509705 C96.3194992 178.94464499 96.32001786 181.52420911 96.31567383 184.10375977 C96.31250852 188.05187435 96.33600611 191.99924331 96.36132812 195.94726562 C96.36360065 198.45572822 96.36430483 200.96419283 96.36328125 203.47265625 C96.372491 204.65295914 96.38170074 205.83326202 96.39118958 207.04933167 C96.38496078 208.15074997 96.37873199 209.25216827 96.37231445 210.38696289 C96.37294388 211.35259659 96.3735733 212.31823029 96.3742218 213.31312561 C95.82361779 217.26640627 94.0028423 219.88144513 91.375 222.8125 C87.64846542 224.67576729 84.07782217 224.66873376 80 224 C76.50109996 221.88608123 75.29421314 220.88263941 74 217 C73.90428361 215.31439045 73.86462583 213.62532428 73.8581543 211.93701172 C73.84760262 210.38927567 73.84760262 210.38927567 73.83683777 208.81027222 C73.83267349 207.69467926 73.82850922 206.5790863 73.82421875 205.4296875 C73.80101172 203.06509535 73.77689404 200.700512 73.75195312 198.3359375 C73.71690881 194.60996694 73.68753366 190.88431806 73.67407227 187.15820312 C73.65853325 183.56080087 73.61827439 179.96433919 73.57421875 176.3671875 C73.57612717 175.26373993 73.57803558 174.16029236 73.58000183 173.02340698 C73.45755686 165.22169962 72.07455148 159.02271248 67.27734375 152.74609375 C64.77225348 149.32170429 65.41186265 145.0320083 66 141 C68.35079062 136.82081668 70.56166674 135.50484261 75 134 C76.99322645 133.68314199 78.99467743 133.41560544 81 133.1875 C92.14696327 131.5590082 103.25065289 127.84828991 110.67578125 119.00390625 C118.57069765 108.01371245 120.20253837 96.41607207 120.3125 83.25 C120.34150391 82.10789062 120.37050781 80.96578125 120.40039062 79.7890625 C120.47487635 69.81943475 118.04407306 63.5225627 112.25 55.5 C108.99559083 50.54884758 107.92795504 46.84751797 109 41 C109.33 40.01 109.66 39.02 110 38 C110.22718496 35.43365139 110.41608184 32.88321893 110.5625 30.3125 C110.62727539 29.2596582 110.62727539 29.2596582 110.69335938 28.18554688 C110.7991736 26.45724794 110.90006581 24.7286489 111 23 C108.62284804 24.24603894 106.24830942 25.4966793 103.875 26.75 C103.20984375 27.09804688 102.5446875 27.44609375 101.859375 27.8046875 C98.68856379 29.48335226 95.70526538 31.19848041 92.72265625 33.20703125 C89.14403123 35.56368675 86.20583517 36.19996047 82 36 C79.86831205 35.55152238 77.7439871 35.06759341 75.625 34.5625 C68.29697941 32.9553486 61.24333404 32.69121115 53.75 32.6875 C52.66154785 32.68242432 51.5730957 32.67734863 50.45166016 32.67211914 C43.42043557 32.73134406 36.87893715 33.61016524 30 35 C19.41285105 36.55618334 13.60393298 32.86275797 5 27 C2.36859915 25.55965427 -0.28486414 24.27771099 -3 23 C-2.85913398 25.60452271 -2.71251536 28.20850197 -2.5625 30.8125 C-2.52318359 31.55048828 -2.48386719 32.28847656 -2.44335938 33.04882812 C-2.25618965 36.23071342 -2.01279207 38.96162378 -1 42 C-0.40817722 48.59263056 -1.51362337 51.85410246 -5.375 57.125 C-6.20152689 58.28988634 -7.02196625 59.45911847 -7.8359375 60.6328125 C-8.20251465 61.13699707 -8.5690918 61.64118164 -8.94677734 62.16064453 C-12.69322049 68.70345925 -12.33313487 75.38688275 -12.3125 82.6875 C-12.32861328 83.80833984 -12.34472656 84.92917969 -12.36132812 86.08398438 C-12.3685916 98.59894677 -9.35726704 111.19130213 -1.2890625 121.1015625 C7.06419146 129.10235848 17.83347381 132.55771818 29.08764648 133.79980469 C34.62850488 134.51526139 37.14458178 136.17989859 41 140 C42.78349948 143.56699896 42.60733227 147.11391629 42 151 C40.66812134 153.22589111 40.66812134 153.22589111 39.01416016 155.51269531 C35.23326053 161.57629403 35.20214786 166.79511326 35.3359375 173.796875 C35.329608 175.58547943 35.329608 175.58547943 35.32315063 177.41021729 C35.31234546 181.19079166 35.34026866 184.96959027 35.375 188.75 C35.39907339 192.54444715 35.41422965 196.33811004 35.40542603 200.13262939 C35.40086071 202.48549953 35.41546688 204.83850631 35.45175171 207.19110107 C35.4496929 213.4316343 35.2978335 217.31304227 31 222 C26.97297943 224.68468038 23.7315637 224.68187737 19 224 C15.53131237 221.93354779 13.19108028 219.89808091 12 216 C11.84992694 213.30903473 11.91000045 210.69998637 12 208 C10.7625 208.0825 9.525 208.165 8.25 208.25 C-2.04777946 208.20150182 -11.38088799 203.7476018 -19 197 C-22.26179318 193.35004717 -25.02588042 189.3984678 -27.8203125 185.38671875 C-30.38308705 182.58052655 -32.44478386 181.71293379 -36 180.4375 C-40.94446169 178.65131321 -44.57102729 176.85794543 -47 172 C-47.58029015 164.92046023 -47.58029015 164.92046023 -45.1875 161.125 C-42.24028228 158.2619885 -40.64029385 157.06860291 -36.5 156.625 C-26.98589345 156.9217703 -18.71805649 161.49824457 -12 168 C-10.08874937 170.24649016 -8.30790987 172.5466749 -6.5546875 174.91796875 C-2.16633543 180.79483221 1.43864297 183.46845417 8.6640625 184.546875 C9.76492188 184.69640625 10.86578125 184.8459375 12 185 C11.98428955 184.01773438 11.98428955 184.01773438 11.96826172 183.015625 C11.92634641 180.01045668 11.90056191 177.00535016 11.875 174 C11.85824219 172.97003906 11.84148437 171.94007813 11.82421875 170.87890625 C11.78598017 164.87544845 12.24506476 159.7484493 14 154 C12.68902344 153.814375 12.68902344 153.814375 11.3515625 153.625 C-3.64232393 150.82893726 -15.86041988 140.93179215 -24.578125 128.8046875 C-35.89639213 111.48430901 -38.87724179 87.58873333 -35.58105469 67.43896484 C-34.34574696 62.03592596 -32.70449208 56.67531148 -29.70849609 51.97290039 C-25.68503039 45.61412152 -25.55337344 40.83290129 -26 33.4375 C-26.29971137 23.32728812 -25.86113748 14.10050156 -21 5 C-14.7810568 -1.58371669 -8.37727978 -0.91076067 0 0 Z " fill="#343434" transform="translate(405,335)"/>
<path d="M0 0 C1.41154022 1.25940501 2.81660672 2.52605519 4.22119141 3.79321289 C5.59534582 4.96087541 6.97023996 6.1276685 8.34619141 7.29321289 C38.91518579 34.4015664 59.12366506 71.89158637 67.22119141 111.79321289 C67.40810547 112.70377441 67.59501953 113.61433594 67.78759766 114.55249023 C69.64706298 124.88082396 69.61851871 135.20888781 69.59619141 145.66821289 C69.59537567 147.10151947 69.59537567 147.10151947 69.59454346 148.56378174 C69.55676823 162.9893857 68.88404481 176.77276058 65.22119141 190.79321289 C64.99093262 191.7066748 64.76067383 192.62013672 64.5234375 193.5612793 C55.05877413 230.55027556 34.06484688 266.44441966 4.22119141 290.79321289 C3.17925836 291.6822237 2.13761831 292.57157796 1.09619141 293.46118164 C-13.6001364 305.816033 -30.15269104 315.26696883 -47.77880859 322.79321289 C-48.39546387 323.06327148 -49.01211914 323.33333008 -49.64746094 323.61157227 C-67.50512903 331.32814263 -87.71425348 335.85317572 -107.15771484 336.03149414 C-108.03898041 336.04128799 -108.92024597 336.05108185 -109.82821655 336.06117249 C-146.56335237 336.38559936 -146.56335237 336.38559936 -163.77880859 331.79321289 C-164.65456543 331.5629541 -165.53032227 331.33269531 -166.43261719 331.09545898 C-172.28187392 329.519236 -178.0411294 327.73422682 -183.77880859 325.79321289 C-185.52871094 325.20926758 -185.52871094 325.20926758 -187.31396484 324.61352539 C-212.45734423 315.57811025 -234.72283884 299.21574321 -253.77880859 280.79321289 C-254.50326172 280.12032227 -255.22771484 279.44743164 -255.97412109 278.75415039 C-271.19383366 264.27385706 -282.57929029 245.50534622 -291.77880859 226.79321289 C-292.32279297 225.68977539 -292.86677734 224.58633789 -293.42724609 223.44946289 C-300.69093642 207.61538662 -305.30503741 190.0144661 -307.77880859 172.79321289 C-307.87162109 172.15907471 -307.96443359 171.52493652 -308.06005859 170.87158203 C-310.61493965 151.23321503 -309.49879386 130.19112966 -305.77880859 110.79321289 C-305.56200439 109.66254395 -305.56200439 109.66254395 -305.34082031 108.5090332 C-299.3645369 78.58128835 -286.17998745 51.32153857 -266.77880859 27.79321289 C-266.31361816 27.22119141 -265.84842773 26.64916992 -265.36914062 26.05981445 C-236.72934677 -9.01986622 -196.11152161 -31.85424698 -151.77880859 -40.20678711 C-150.21453125 -40.5180957 -150.21453125 -40.5180957 -148.61865234 -40.83569336 C-97.53385663 -49.37970013 -39.12936733 -34.28472182 0 0 Z M-170.77880859 -27.20678711 C-171.49101562 -26.99683105 -172.20322266 -26.786875 -172.93701172 -26.57055664 C-200.32789237 -18.32094101 -224.06789737 -3.888391 -244.77880859 15.79321289 C-245.28412109 16.27129395 -245.78943359 16.749375 -246.31005859 17.24194336 C-271.83772744 41.54999101 -289.30856937 73.36062186 -296.77880859 107.79321289 C-297.21 109.69393555 -297.21 109.69393555 -297.64990234 111.63305664 C-299.45973134 120.024082 -300.52822897 128.21903195 -300.77880859 136.79321289 C-300.81135742 137.73712891 -300.84390625 138.68104492 -300.87744141 139.65356445 C-302.42443085 190.51670212 -284.50263865 236.73645675 -249.68505859 273.78540039 C-225.18312601 299.3905786 -192.59623124 317.80938129 -157.77880859 324.79321289 C-157.1624353 324.91742615 -156.54606201 325.0416394 -155.91101074 325.1696167 C-144.38600751 327.43765867 -133.2610315 328.29051454 -121.52880859 328.16821289 C-120.72653839 328.16356018 -119.92426819 328.15890747 -119.09768677 328.15411377 C-98.66897842 328.01580983 -80.15185214 325.40758679 -60.77880859 318.79321289 C-60.09157715 318.56794922 -59.4043457 318.34268555 -58.69628906 318.1105957 C-40.97488659 312.2747019 -24.47549285 303.24075872 -9.77880859 291.79321289 C-8.89966797 291.13579102 -8.02052734 290.47836914 -7.11474609 289.80102539 C27.60238202 262.84543045 50.61852837 223.72092944 59.22119141 180.79321289 C59.39851807 179.9144751 59.57584473 179.0357373 59.75854492 178.13037109 C61.56724234 167.98269492 61.66223672 157.88152592 61.65869141 147.60571289 C61.65942657 146.67868561 61.66016174 145.75165833 61.66091919 144.79653931 C61.62870039 129.29328846 60.43525589 114.79349483 56.22119141 99.79321289 C55.83568115 98.40634277 55.83568115 98.40634277 55.44238281 96.99145508 C42.40517027 51.61331198 11.24062891 12.40130704 -29.71630859 -10.95678711 C-46.56926308 -20.27938699 -64.13757281 -26.94398701 -82.96630859 -30.95678711 C-84.44478271 -31.27329224 -84.44478271 -31.27329224 -85.953125 -31.59619141 C-113.82981028 -37.25465234 -143.5772753 -35.23639424 -170.77880859 -27.20678711 Z " fill="#C7C7C7" transform="translate(564.77880859375,298.206787109375)"/>
</svg>
