<?xml version="1.0" encoding="UTF-8"?>
<svg version="1.1" xmlns="http://www.w3.org/2000/svg" width="891" height="891">
<path d="M0 0 C294.03 0 588.06 0 891 0 C891 294.03 891 588.06 891 891 C596.97 891 302.94 891 0 891 C0 596.97 0 302.94 0 0 Z " fill="#FEFEFE" transform="translate(0,0)"/>
<path d="M0 0 C1.41154022 1.25940501 2.81660672 2.52605519 4.22119141 3.79321289 C5.59534582 4.96087541 6.97023996 6.1276685 8.34619141 7.29321289 C38.91518579 34.4015664 59.12366506 71.89158637 67.22119141 111.79321289 C67.40810547 112.70377441 67.59501953 113.61433594 67.78759766 114.55249023 C69.64706298 124.88082396 69.61851871 135.20888781 69.59619141 145.66821289 C69.59537567 147.10151947 69.59537567 147.10151947 69.59454346 148.56378174 C69.55676823 162.9893857 68.88404481 176.77276058 65.22119141 190.79321289 C64.99093262 191.7066748 64.76067383 192.62013672 64.5234375 193.5612793 C55.05877413 230.55027556 34.06484688 266.44441966 4.22119141 290.79321289 C3.17925836 291.6822237 2.13761831 292.57157796 1.09619141 293.46118164 C-13.6001364 305.816033 -30.15269104 315.26696883 -47.77880859 322.79321289 C-48.39546387 323.06327148 -49.01211914 323.33333008 -49.64746094 323.61157227 C-67.50512903 331.32814263 -87.71425348 335.85317572 -107.15771484 336.03149414 C-108.03898041 336.04128799 -108.92024597 336.05108185 -109.82821655 336.06117249 C-146.56335237 336.38559936 -146.56335237 336.38559936 -163.77880859 331.79321289 C-164.65456543 331.5629541 -165.53032227 331.33269531 -166.43261719 331.09545898 C-172.28187392 329.519236 -178.0411294 327.73422682 -183.77880859 325.79321289 C-185.52871094 325.20926758 -185.52871094 325.20926758 -187.31396484 324.61352539 C-212.45734423 315.57811025 -234.72283884 299.21574321 -253.77880859 280.79321289 C-254.50326172 280.12032227 -255.22771484 279.44743164 -255.97412109 278.75415039 C-271.19383366 264.27385706 -282.57929029 245.50534622 -291.77880859 226.79321289 C-292.32279297 225.68977539 -292.86677734 224.58633789 -293.42724609 223.44946289 C-300.69093642 207.61538662 -305.30503741 190.0144661 -307.77880859 172.79321289 C-307.87162109 172.15907471 -307.96443359 171.52493652 -308.06005859 170.87158203 C-310.61493965 151.23321503 -309.49879386 130.19112966 -305.77880859 110.79321289 C-305.56200439 109.66254395 -305.56200439 109.66254395 -305.34082031 108.5090332 C-299.3645369 78.58128835 -286.17998745 51.32153857 -266.77880859 27.79321289 C-266.31361816 27.22119141 -265.84842773 26.64916992 -265.36914062 26.05981445 C-236.72934677 -9.01986622 -196.11152161 -31.85424698 -151.77880859 -40.20678711 C-150.21453125 -40.5180957 -150.21453125 -40.5180957 -148.61865234 -40.83569336 C-97.53385663 -49.37970013 -39.12936733 -34.28472182 0 0 Z " fill="#F7F7F7" transform="translate(564.77880859375,298.206787109375)"/>
<path d="M0 0 C1.7173938 0.00737183 1.7173938 0.00737183 3.46948242 0.01489258 C26.99167317 0.34073098 44.95356171 8.89871051 61.3515625 25.50390625 C78.22382813 43.71162148 82.41384513 65.1185166 82.5 89.25 C82.50392761 90.30355179 82.50392761 90.30355179 82.50793457 91.37838745 C82.51332762 104.97675964 81.01225458 117.99579983 78.1875 131.3125 C77.96320313 132.43011719 77.96320313 132.43011719 77.734375 133.5703125 C76.00225098 142.00639799 73.01590358 149.34289733 68.91699219 156.86157227 C66.85788759 160.67248911 65.33062927 163.94394582 65.1875 168.3125 C66.16549319 170.21095017 66.16549319 170.21095017 67.9375 171.625 C68.58203125 172.20894531 69.2265625 172.79289063 69.890625 173.39453125 C73.40682996 176.33068199 76.95646665 179.2234442 80.5234375 182.09765625 C90.91209543 190.73456101 90.91209543 190.73456101 91.38183594 195.1315918 C91.49328739 201.23491809 90.31727635 206.34559146 88.4375 212.125 C88.18484375 212.93775391 87.9321875 213.75050781 87.671875 214.58789062 C85.60283954 221.19328634 83.37640698 227.74577905 81.1875 234.3125 C16.8375 234.3125 -47.5125 234.3125 -113.8125 234.3125 C-121.61141304 212.47554348 -121.61141304 212.47554348 -120.8125 206.3125 C-117.45458469 201.51547814 -112.33945691 199.16322108 -107.31640625 196.328125 C-103.44613598 194.13169414 -99.69627718 191.75563432 -95.9375 189.375 C-89.6275548 185.39009043 -83.22254352 181.63507075 -76.703125 178.00390625 C-74.2528401 176.57015847 -72.03254316 175.07452455 -69.8125 173.3125 C-70.2235353 168.10605292 -72.23803306 164.31996536 -74.6015625 159.77734375 C-76.81254478 155.27692497 -77.8125 151.37569479 -77.8125 146.3125 C-78.8025 146.27125 -79.7925 146.23 -80.8125 146.1875 C-86.76633154 145.34212838 -90.94199948 141.23644339 -95 137.0625 C-101.01184756 127.94107612 -102.99120464 120.1137464 -103.0625 109.3125 C-103.083125 108.53132813 -103.10375 107.75015625 -103.125 106.9453125 C-103.15033798 103.18262257 -103.11578027 100.87372483 -101.296875 97.5078125 C-98.60608451 91.71553193 -99.70186295 85.2337069 -99.9296875 78.9609375 C-100.17638485 67.66768081 -98.72246177 57.78316792 -90.8125 49.3125 C-89.966875 48.52875 -89.12125 47.745 -88.25 46.9375 C-85.90739427 44.41469383 -84.9079005 42.5833021 -83.5 39.5 C-78.7674309 29.67081802 -70.81530451 24.63721344 -61.56103516 19.32568359 C-59.80971302 18.31088509 -58.08205247 17.26327701 -56.35546875 16.20703125 C-48.45131654 11.43854819 -40.58535464 8.19642461 -31.8125 5.3125 C-30.41324102 4.75857648 -29.01673423 4.19756683 -27.625 3.625 C-18.72800425 0.3140782 -9.39446024 -0.0477931 0 0 Z " fill="#EDD4B5" transform="translate(460.8125,330.6875)"/>
<path d="M0 0 C1.7173938 0.00737183 1.7173938 0.00737183 3.46948242 0.01489258 C26.99167317 0.34073098 44.95356171 8.89871051 61.3515625 25.50390625 C78.22382813 43.71162148 82.41384513 65.1185166 82.5 89.25 C82.50392761 90.30355179 82.50392761 90.30355179 82.50793457 91.37838745 C82.51332762 104.97675964 81.01225458 117.99579983 78.1875 131.3125 C77.96320313 132.43011719 77.96320313 132.43011719 77.734375 133.5703125 C76.00225098 142.00639799 73.01590358 149.34289733 68.91699219 156.86157227 C66.85788759 160.67248911 65.33062927 163.94394582 65.1875 168.3125 C66.16549319 170.21095017 66.16549319 170.21095017 67.9375 171.625 C68.58203125 172.20894531 69.2265625 172.79289063 69.890625 173.39453125 C73.40682996 176.33068199 76.95646665 179.2234442 80.5234375 182.09765625 C90.91209543 190.73456101 90.91209543 190.73456101 91.38183594 195.1315918 C91.49328739 201.23491809 90.31727635 206.34559146 88.4375 212.125 C88.18484375 212.93775391 87.9321875 213.75050781 87.671875 214.58789062 C85.60283954 221.19328634 83.37640698 227.74577905 81.1875 234.3125 C16.8375 234.3125 -47.5125 234.3125 -113.8125 234.3125 C-121.61141304 212.47554348 -121.61141304 212.47554348 -120.8125 206.3125 C-117.45458469 201.51547814 -112.33945691 199.16322108 -107.31640625 196.328125 C-103.44613598 194.13169414 -99.69627718 191.75563432 -95.9375 189.375 C-89.6275548 185.39009043 -83.22254352 181.63507075 -76.703125 178.00390625 C-74.2528401 176.57015847 -72.03254316 175.07452455 -69.8125 173.3125 C-70.2235353 168.10605292 -72.23803306 164.31996536 -74.6015625 159.77734375 C-76.81254478 155.27692497 -77.8125 151.37569479 -77.8125 146.3125 C-78.8025 146.27125 -79.7925 146.23 -80.8125 146.1875 C-86.76633154 145.34212838 -90.94199948 141.23644339 -95 137.0625 C-101.01184756 127.94107612 -102.99120464 120.1137464 -103.0625 109.3125 C-103.083125 108.53132813 -103.10375 107.75015625 -103.125 106.9453125 C-103.15033798 103.18262257 -103.11578027 100.87372483 -101.296875 97.5078125 C-98.60608451 91.71553193 -99.70186295 85.2337069 -99.9296875 78.9609375 C-100.17638485 67.66768081 -98.72246177 57.78316792 -90.8125 49.3125 C-89.966875 48.52875 -89.12125 47.745 -88.25 46.9375 C-85.90739427 44.41469383 -84.9079005 42.5833021 -83.5 39.5 C-78.7674309 29.67081802 -70.81530451 24.63721344 -61.56103516 19.32568359 C-59.80971302 18.31088509 -58.08205247 17.26327701 -56.35546875 16.20703125 C-48.45131654 11.43854819 -40.58535464 8.19642461 -31.8125 5.3125 C-30.41324102 4.75857648 -29.01673423 4.19756683 -27.625 3.625 C-18.72800425 0.3140782 -9.39446024 -0.0477931 0 0 Z M-18.8125 12.3125 C-19.4194873 12.61865234 -20.02647461 12.92480469 -20.65185547 13.24023438 C-34.51047969 20.3437518 -47.04727797 29.16466696 -55.8125 42.3125 C-55.60814545 44.15169097 -55.39202065 45.9903259 -55.1171875 47.8203125 C-54.23375969 55.04629897 -54.25301499 61.99580807 -56.3125 69 C-57.79760114 74.27879554 -58.11613997 79.17884846 -58.125 84.625 C-58.13015625 85.3780542 -58.1353125 86.1311084 -58.140625 86.90698242 C-58.08126226 91.69681359 -57.23382649 95.70582916 -55.8125 100.3125 C-55.73846322 102.64465844 -55.71734114 104.98110788 -55.8125 107.3125 C-59.44673209 109.63840854 -62.58338331 109.47515833 -66.8125 109.3125 C-67.06773437 108.42498047 -67.06773437 108.42498047 -67.328125 107.51953125 C-68.8072109 102.6967671 -70.22672998 99.01394002 -73.8125 95.3125 C-77.28848495 93.57450752 -81.0118753 93.85668183 -84.8125 94.3125 C-90.03772754 96.92511377 -94.18161872 101.05073745 -96.8125 106.3125 C-97.54148213 116.33600435 -95.14629389 124.81726871 -88.56640625 132.49609375 C-85.04683108 136.14108808 -82.94571006 137.18658777 -77.875 137.75 C-73.62988469 137.60582627 -71.17021619 135.88935196 -67.8125 133.3125 C-66.3275 132.8175 -66.3275 132.8175 -64.8125 132.3125 C-66.44829775 137.97487684 -66.44829775 137.97487684 -68.36474609 139.75146484 C-70.69729086 142.26652239 -70.19469471 144.60583327 -70.07910156 147.89160156 C-69.65840457 151.71177679 -68.5484442 155.10804175 -67.1875 158.6875 C-66.91534668 159.42210449 -66.64319336 160.15670898 -66.36279297 160.91357422 C-62.03585294 172.28831397 -57.34750879 180.88014189 -46.625 187.1875 C-41.6181504 189.19023984 -36.99946598 189.47168353 -31.625 189.5 C-30.39394531 189.51417969 -29.16289062 189.52835938 -27.89453125 189.54296875 C-24.70664295 189.64158234 -24.70664295 189.64158234 -22.8125 187.3125 C-19.7734375 186.8984375 -19.7734375 186.8984375 -16.1875 186.6875 C-14.40472656 186.57535156 -14.40472656 186.57535156 -12.5859375 186.4609375 C-11.67070312 186.41195312 -10.75546875 186.36296875 -9.8125 186.3125 C-12.71254339 183.96436798 -15.6391703 181.71277407 -18.6875 179.5625 C-27.7748246 172.74700655 -34.970036 163.32204364 -37.8125 152.3125 C-36.70841797 153.72402344 -36.70841797 153.72402344 -35.58203125 155.1640625 C-34.59640233 156.42191274 -33.61072253 157.67972311 -32.625 158.9375 C-31.90086914 159.86369141 -31.90086914 159.86369141 -31.16210938 160.80859375 C-29.71905576 162.64872923 -28.26721268 164.48157282 -26.8125 166.3125 C-26.38461182 166.8593042 -25.95672363 167.4061084 -25.51586914 167.96948242 C-17.58919302 177.85874685 -4.02418073 186.25039934 8.7109375 187.71875 C23.95113518 188.08970816 38.20252464 183.04375787 49.875 173 C50.638125 172.113125 51.40125 171.22625 52.1875 170.3125 C52.70570313 169.72339844 53.22390625 169.13429688 53.7578125 168.52734375 C62.31584216 158.26154583 67.32765982 146.67796398 71.5625 134.125 C71.89628662 133.14007568 72.23007324 132.15515137 72.57397461 131.14038086 C76.33656782 119.51591249 77.5408425 108.29069162 77.50317383 96.13208008 C77.50001884 94.01265673 77.52355512 91.89464239 77.54882812 89.77539062 C77.69468361 71.32780066 77.69468361 71.32780066 69.50390625 55.58203125 C68.63572266 54.86080078 68.63572266 54.86080078 67.75 54.125 C67.17378906 53.63644531 66.59757813 53.14789063 66.00390625 52.64453125 C61.43696779 49.29544304 57.74320885 48.72049824 52.1875 49.3125 C49.78192147 50.17515968 49.78192147 50.17515968 48.1875 51.3125 C49.45417804 47.40690939 50.50265306 45.25189313 54.1875 43.3125 C56.86737908 42.7837116 59.45597502 42.54012708 62.1875 42.3125 C60.75023835 37.78471041 58.21352385 34.760206 55 31.375 C54.50024658 30.84503418 54.00049316 30.31506836 53.4855957 29.76904297 C52.06251449 28.27389827 50.62636496 26.79242967 49.1875 25.3125 C48.30191406 24.37083984 48.30191406 24.37083984 47.3984375 23.41015625 C40.12724747 16.38133922 28.78422259 12.99602798 19.1875 10.3125 C18.11242187 10.00505859 18.11242187 10.00505859 17.015625 9.69140625 C5.16779499 6.80896439 -7.8325559 6.7553038 -18.8125 12.3125 Z " fill="#292525" transform="translate(460.8125,330.6875)"/>
<path d="M0 0 C1.41154022 1.25940501 2.81660672 2.52605519 4.22119141 3.79321289 C5.59534582 4.96087541 6.97023996 6.1276685 8.34619141 7.29321289 C38.91518579 34.4015664 59.12366506 71.89158637 67.22119141 111.79321289 C67.40810547 112.70377441 67.59501953 113.61433594 67.78759766 114.55249023 C69.64706298 124.88082396 69.61851871 135.20888781 69.59619141 145.66821289 C69.59537567 147.10151947 69.59537567 147.10151947 69.59454346 148.56378174 C69.55676823 162.9893857 68.88404481 176.77276058 65.22119141 190.79321289 C64.99093262 191.7066748 64.76067383 192.62013672 64.5234375 193.5612793 C55.05877413 230.55027556 34.06484688 266.44441966 4.22119141 290.79321289 C3.17925836 291.6822237 2.13761831 292.57157796 1.09619141 293.46118164 C-13.6001364 305.816033 -30.15269104 315.26696883 -47.77880859 322.79321289 C-48.39546387 323.06327148 -49.01211914 323.33333008 -49.64746094 323.61157227 C-67.50512903 331.32814263 -87.71425348 335.85317572 -107.15771484 336.03149414 C-108.03898041 336.04128799 -108.92024597 336.05108185 -109.82821655 336.06117249 C-146.56335237 336.38559936 -146.56335237 336.38559936 -163.77880859 331.79321289 C-164.65456543 331.5629541 -165.53032227 331.33269531 -166.43261719 331.09545898 C-172.28187392 329.519236 -178.0411294 327.73422682 -183.77880859 325.79321289 C-185.52871094 325.20926758 -185.52871094 325.20926758 -187.31396484 324.61352539 C-212.45734423 315.57811025 -234.72283884 299.21574321 -253.77880859 280.79321289 C-254.50326172 280.12032227 -255.22771484 279.44743164 -255.97412109 278.75415039 C-271.19383366 264.27385706 -282.57929029 245.50534622 -291.77880859 226.79321289 C-292.32279297 225.68977539 -292.86677734 224.58633789 -293.42724609 223.44946289 C-300.69093642 207.61538662 -305.30503741 190.0144661 -307.77880859 172.79321289 C-307.87162109 172.15907471 -307.96443359 171.52493652 -308.06005859 170.87158203 C-310.61493965 151.23321503 -309.49879386 130.19112966 -305.77880859 110.79321289 C-305.56200439 109.66254395 -305.56200439 109.66254395 -305.34082031 108.5090332 C-299.3645369 78.58128835 -286.17998745 51.32153857 -266.77880859 27.79321289 C-266.31361816 27.22119141 -265.84842773 26.64916992 -265.36914062 26.05981445 C-236.72934677 -9.01986622 -196.11152161 -31.85424698 -151.77880859 -40.20678711 C-150.21453125 -40.5180957 -150.21453125 -40.5180957 -148.61865234 -40.83569336 C-97.53385663 -49.37970013 -39.12936733 -34.28472182 0 0 Z M-170.77880859 -27.20678711 C-171.49101562 -26.99683105 -172.20322266 -26.786875 -172.93701172 -26.57055664 C-200.32789237 -18.32094101 -224.06789737 -3.888391 -244.77880859 15.79321289 C-245.28412109 16.27129395 -245.78943359 16.749375 -246.31005859 17.24194336 C-271.83772744 41.54999101 -289.30856937 73.36062186 -296.77880859 107.79321289 C-297.21 109.69393555 -297.21 109.69393555 -297.64990234 111.63305664 C-299.45973134 120.024082 -300.52822897 128.21903195 -300.77880859 136.79321289 C-300.81135742 137.73712891 -300.84390625 138.68104492 -300.87744141 139.65356445 C-302.42443085 190.51670212 -284.50263865 236.73645675 -249.68505859 273.78540039 C-225.18312601 299.3905786 -192.59623124 317.80938129 -157.77880859 324.79321289 C-157.1624353 324.91742615 -156.54606201 325.0416394 -155.91101074 325.1696167 C-144.38600751 327.43765867 -133.2610315 328.29051454 -121.52880859 328.16821289 C-120.72653839 328.16356018 -119.92426819 328.15890747 -119.09768677 328.15411377 C-98.66897842 328.01580983 -80.15185214 325.40758679 -60.77880859 318.79321289 C-60.09157715 318.56794922 -59.4043457 318.34268555 -58.69628906 318.1105957 C-40.97488659 312.2747019 -24.47549285 303.24075872 -9.77880859 291.79321289 C-8.89966797 291.13579102 -8.02052734 290.47836914 -7.11474609 289.80102539 C27.60238202 262.84543045 50.61852837 223.72092944 59.22119141 180.79321289 C59.39851807 179.9144751 59.57584473 179.0357373 59.75854492 178.13037109 C61.56724234 167.98269492 61.66223672 157.88152592 61.65869141 147.60571289 C61.65942657 146.67868561 61.66016174 145.75165833 61.66091919 144.79653931 C61.62870039 129.29328846 60.43525589 114.79349483 56.22119141 99.79321289 C55.83568115 98.40634277 55.83568115 98.40634277 55.44238281 96.99145508 C42.40517027 51.61331198 11.24062891 12.40130704 -29.71630859 -10.95678711 C-46.56926308 -20.27938699 -64.13757281 -26.94398701 -82.96630859 -30.95678711 C-84.44478271 -31.27329224 -84.44478271 -31.27329224 -85.953125 -31.59619141 C-113.82981028 -37.25465234 -143.5772753 -35.23639424 -170.77880859 -27.20678711 Z " fill="#C7C7C7" transform="translate(564.77880859375,298.206787109375)"/>
<path d="M0 0 C2.3421856 1.7363657 3.87068622 3.68744792 5.66796875 5.984375 C9.62533815 10.51082066 13.65014508 13.37614602 18.85546875 16.234375 C19.54906494 16.61803223 20.24266113 17.00168945 20.95727539 17.39697266 C23.94512227 19.0003107 26.77597918 20.37394451 29.99609375 21.4609375 C32.9799449 22.4883114 34.66537577 23.18250664 36.91796875 25.421875 C39.66524082 31.35754312 41.91796875 38.83613372 41.91796875 45.421875 C14.52796875 45.421875 -12.86203125 45.421875 -41.08203125 45.421875 C-42.40203125 42.451875 -43.72203125 39.481875 -45.08203125 36.421875 C-45.70078125 35.32875 -46.31953125 34.235625 -46.95703125 33.109375 C-48.08203125 30.421875 -48.08203125 30.421875 -47.4921875 28.5390625 C-40.4513792 17.96809823 -24.89337363 11.35878081 -14.08203125 5.421875 C-13.4365332 5.0594873 -12.79103516 4.69709961 -12.12597656 4.32373047 C-10.47579355 3.40029563 -8.81073271 2.50358336 -7.14453125 1.609375 C-6.24863281 1.12855469 -5.35273438 0.64773438 -4.4296875 0.15234375 C-2.08203125 -0.578125 -2.08203125 -0.578125 0 0 Z " fill="#335060" transform="translate(396.08203125,513.578125)"/>
<path d="M0 0 C2.28756303 6.8626891 1.35329041 14.80610285 0 21.8125 C-1.7345865 31.11731759 -2.28953369 41.03796332 1 50 C1.125 52.875 1.125 52.875 1 55 C-0.98 55.495 -0.98 55.495 -3 56 C-3.4125 54.783125 -3.825 53.56625 -4.25 52.3125 C-6.22058613 47.14883449 -8.29435916 44.0233845 -13.125 41.125 C-18.92364736 38.8957144 -25.17896574 40.51312621 -31 42 C-31.11728126 38.33360752 -31.18760891 34.6677048 -31.25 31 C-31.30027344 29.45505859 -31.30027344 29.45505859 -31.3515625 27.87890625 C-31.45065392 20.10022942 -30.37485138 14.58779611 -24.95703125 8.828125 C-16.73123694 2.77489931 -10.36377546 -0.65801749 0 0 Z " fill="#6C6A6C" transform="translate(401,378)"/>
<path d="M0 0 C10.70355615 1.73477409 20.62305258 7.08039784 30.125 12.0625 C29.795 13.0525 29.465 14.0425 29.125 15.0625 C26.5625 16.25 26.5625 16.25 24.125 17.0625 C26.435 18.0525 28.745 19.0425 31.125 20.0625 C31.44140625 22.27734375 31.44140625 22.27734375 31.125 25.0625 C24.40735605 32.26604948 14.79879037 38.67569565 5.125 41.0625 C3.12557899 41.11062084 1.1241957 41.11921477 -0.875 41.0625 C-1.69042431 38.98030951 -2.50223189 36.89670239 -3.3125 34.8125 C-3.76496094 33.65234375 -4.21742188 32.4921875 -4.68359375 31.296875 C-6.85297904 25.40752738 -7.08935675 20.30006798 -7.125 14.0625 C-7.145625 13.16015625 -7.16625 12.2578125 -7.1875 11.328125 C-7.19265625 10.45671875 -7.1978125 9.5853125 -7.203125 8.6875 C-7.2124707 7.89601563 -7.22181641 7.10453125 -7.23144531 6.2890625 C-6.45782702 1.45659754 -4.82184797 0.07777174 0 0 Z " fill="#D13833" transform="translate(444.875,522.9375)"/>
<path d="M0 0 C0 0.99 0 1.98 0 3 C-1.08152344 2.84015625 -2.16304688 2.6803125 -3.27734375 2.515625 C-26.68622869 -0.38541018 -50.77952641 2.26521746 -70 16.8125 C-79.42848756 24.33560874 -85.05697598 33.10287886 -90 44 C-90.33 44 -90.66 44 -91 44 C-93.92862467 27.54949683 -93.92862467 27.54949683 -91.92578125 22.05078125 C-90.12563385 19.71352694 -88.25025657 17.90646737 -86 16 C-85.236875 15.2471875 -84.47375 14.494375 -83.6875 13.71875 C-58.66495935 -10.34138524 -30.96325734 -14.30877801 0 0 Z " fill="#F2DFC9" transform="translate(498,348)"/>
<path d="M0 0 C4.29417251 2.29231878 7.47368747 5.27038442 10.8125 8.75 C14.85978779 12.91553441 18.93357235 16.78817284 23.57421875 20.3046875 C25.75127608 22.89329813 25.85477078 24.60622254 26 28 C25.44664044 31.59996656 24.58643412 35.09747531 23.6875 38.625 C23.46126953 39.56601562 23.23503906 40.50703125 23.00195312 41.4765625 C21.99185379 45.57517883 21.01201315 49.26730592 19 53 C8.55543988 54.04945341 8.55543988 54.04945341 5.0546875 51.6875 C2.56241244 48.49738792 1.89009303 46.93764381 2.375 42.80078125 C2.58125 41.54652344 2.7875 40.29226563 3 39 C4.16593071 23.84031478 4.16593071 23.84031478 -1 10 C-3.50453207 8.48226429 -5.01578976 8.28694329 -8 8 C-5.58443874 4.80800833 -3.31996462 2.25283313 0 0 Z " fill="#334F5F" transform="translate(519,506)"/>
<path d="M0 0 C2.24037002 1.62894521 3.8884707 3.39782203 5.66796875 5.51953125 C6.2815625 6.24398437 6.89515625 6.9684375 7.52734375 7.71484375 C8.21570313 8.54628906 8.21570313 8.54628906 8.91796875 9.39453125 C7.50092503 12.22861869 5.77245361 12.50959165 2.87890625 13.75 C1.82968994 14.20463623 0.78047363 14.65927246 -0.30053711 15.12768555 C-1.98675171 15.84758667 -1.98675171 15.84758667 -3.70703125 16.58203125 C-5.99280148 17.57019556 -8.27795977 18.5597766 -10.5625 19.55078125 C-11.67802246 20.03417969 -12.79354492 20.51757812 -13.94287109 21.015625 C-19.177611 23.31503478 -24.3332381 25.77025315 -29.484375 28.25 C-32.08203125 29.39453125 -32.08203125 29.39453125 -34.08203125 29.39453125 C-33.09203125 34.67453125 -32.10203125 39.95453125 -31.08203125 45.39453125 C-34.38203125 45.39453125 -37.68203125 45.39453125 -41.08203125 45.39453125 C-42.05045488 43.19053263 -43.01854585 40.9863868 -43.984375 38.78125 C-45.13142198 36.19920288 -45.13142198 36.19920288 -46.95703125 33.08203125 C-48.08203125 30.39453125 -48.08203125 30.39453125 -47.4921875 28.51171875 C-40.4513792 17.94075448 -24.89337363 11.33143706 -14.08203125 5.39453125 C-13.4365332 5.03214355 -12.79103516 4.66975586 -12.12597656 4.29638672 C-10.47579355 3.37295188 -8.81073271 2.47623961 -7.14453125 1.58203125 C-6.24863281 1.10121094 -5.35273438 0.62039063 -4.4296875 0.125 C-2.08203125 -0.60546875 -2.08203125 -0.60546875 0 0 Z " fill="#487088" transform="translate(396.08203125,513.60546875)"/>
<path d="M0 0 C2.43957998 1.54455588 2.88701305 2.63143294 3.73046875 5.3828125 C6.26174497 20.5704698 6.26174497 20.5704698 3 28 C-5.50922528 28.40735653 -12.8390222 27.43092956 -21 25 C-21 22.36 -21 19.72 -21 17 C-19.35 16.34 -17.7 15.68 -16 15 C-18.97 14.505 -18.97 14.505 -22 14 C-22.44140625 11.80078125 -22.44140625 11.80078125 -22 9 C-19.63682886 7.08695669 -17.55035656 5.6675441 -14.9375 4.1875 C-14.28072266 3.78080078 -13.62394531 3.37410156 -12.94726562 2.95507812 C-8.54032861 0.37170125 -5.22640128 -0.73566236 0 0 Z " fill="#CD3833" transform="translate(514,521)"/>
<path d="M0 0 C0.99 0 1.98 0 3 0 C3.17273438 0.55945313 3.34546875 1.11890625 3.5234375 1.6953125 C8.08258236 14.70351482 18.00286277 26.9680345 28.265625 35.9921875 C30 38 30 38 30.2421875 40.21875 C30.12101563 40.9715625 29.99984375 41.724375 29.875 42.5 C29.76929688 43.2528125 29.66359375 44.005625 29.5546875 44.78125 C28.52222559 48.91109762 27.21258571 51.25379341 23.5625 53.5 C15.16025268 58.46775206 6.09755313 61.08444094 -3.625 61.375 C-4.75164062 61.42398438 -5.87828125 61.47296875 -7.0390625 61.5234375 C-10 61 -10 61 -11.8828125 58.67578125 C-13.18374655 55.55990773 -13.29749962 53.34687072 -13 50 C-12.67 49.34 -12.34 48.68 -12 48 C-11.34 48 -10.68 48 -10 48 C-9.34 50.64 -8.68 53.28 -8 56 C2.61760574 57.17973397 13.1977788 52.86814747 22 47 C22.56428615 43.3448492 22.38055342 41.58387511 20.34765625 38.46484375 C19.59355469 37.63082031 18.83945312 36.79679687 18.0625 35.9375 C9.68335793 26.19707775 0.65466268 15.65627456 -0.25 2.3125 C-0.1675 1.549375 -0.085 0.78625 0 0 Z " fill="#2C2727" transform="translate(494,406)"/>
<path d="M0 0 C3 2 3 2 3.625 4.87109375 C3.74875 6.04800781 3.8725 7.22492188 4 8.4375 C6.18868403 25.89358974 12.42751922 40.72568381 24 54 C18.91035044 54.6362062 16.02652327 53.32832681 11.9453125 50.52734375 C1.5403323 42.35797175 -4.34059676 27.22006296 -6.41796875 14.42578125 C-6.68454729 10.06686184 -6.47461773 8.55980553 -3.5625 5.125 C-2.716875 4.42375 -1.87125 3.7225 -1 3 C-0.67 2.01 -0.34 1.02 0 0 Z " fill="#F2E0C9" transform="translate(397,464)"/>
<path d="M0 0 C10.70355615 1.73477409 20.62305258 7.08039784 30.125 12.0625 C29.795 13.0525 29.465 14.0425 29.125 15.0625 C27.05859375 15.79296875 27.05859375 15.79296875 24.5625 16.25 C23.73621094 16.40855469 22.90992188 16.56710937 22.05859375 16.73046875 C21.42050781 16.84003906 20.78242188 16.94960938 20.125 17.0625 C19.8775 15.639375 19.8775 15.639375 19.625 14.1875 C18.39151222 10.708732 18.39151222 10.708732 14.625 9.6875 C9.55959339 8.76904715 2.84187083 7.70406459 -1.875 10.0625 C-1.875 17.3225 -1.875 24.5825 -1.875 32.0625 C-2.865 31.7325 -3.855 31.4025 -4.875 31.0625 C-7.1358547 25.39902116 -7.20968923 19.91490863 -7.1875 13.875 C-7.20361328 12.98619141 -7.21972656 12.09738281 -7.23632812 11.18164062 C-7.23910226 7.48926485 -7.23631789 4.80060504 -5.59765625 1.453125 C-3.875 0.0625 -3.875 0.0625 0 0 Z " fill="#E73E3B" transform="translate(444.875,522.9375)"/>
<path d="M0 0 C1.32 0 2.64 0 4 0 C7 3.21428571 7 3.21428571 7 6 C8.6630584 6.67561748 10.33094605 7.33933281 12 8 C13.6396875 8.75796875 13.6396875 8.75796875 15.3125 9.53125 C21.34022578 11.78681726 27.63891902 11.56995099 34 11.6875 C35.87751953 11.73874023 35.87751953 11.73874023 37.79296875 11.79101562 C40.86188957 11.87300969 43.93054206 11.94232019 47 12 C46.671875 13.89453125 46.671875 13.89453125 46 16 C37.68952106 21.09961208 27.66649411 20.8895868 18.25 19.5 C10.25394136 17.44676252 4.17624243 8.73893665 0 2 C0 1.34 0 0.68 0 0 Z " fill="#332D2C" transform="translate(458,477)"/>
<path d="M0 0 C4.29417251 2.29231878 7.47368747 5.27038442 10.8125 8.75 C14.30140439 12.34083713 17.78077715 15.72987655 21.6875 18.875 C24.35037581 21.13927486 24.95223256 21.85935143 26.125 25.3125 C26 28 26 28 24 30 C20.8094371 27.62909338 17.62312722 25.2525331 14.4375 22.875 C13.54224609 22.20984375 12.64699219 21.5446875 11.72460938 20.859375 C7.72010465 17.86699784 3.7828176 14.86884936 0.03125 11.5625 C-2.87176376 9.1084059 -4.26997087 8.22606237 -8 8 C-5.58443874 4.80800833 -3.31996462 2.25283313 0 0 Z " fill="#486E86" transform="translate(519,506)"/>
<path d="M0 0 C3.44912371 2.0547971 5.74998562 4.12495543 7 8 C6.67 8.99 6.34 9.98 6 11 C5.34773438 10.69964844 4.69546875 10.39929688 4.0234375 10.08984375 C-2.80201458 6.95279456 -2.80201458 6.95279456 -10 8 C-12.54435162 10.79632847 -13.40975671 12.81605166 -13.6875 16.5625 C-13.75195312 17.42746094 -13.81640625 18.29242188 -13.8828125 19.18359375 C-14.07452355 23.79104938 -14.07888086 28.38985222 -14 33 C-15.890625 32.3203125 -15.890625 32.3203125 -18 31 C-20.66300214 25.09767437 -21.75987926 18.40469659 -21 12 C-16.54031644 3.25215917 -9.75391204 -1.23189547 0 0 Z " fill="#EFDDC6" transform="translate(385,425)"/>
<path d="M0 0 C1.61841797 0.41572266 1.61841797 0.41572266 3.26953125 0.83984375 C14.55645299 3.61010826 25.39328656 4.74264493 37 5 C37 7.64 37 10.28 37 13 C24.19860641 13.54603101 12.23303673 13.66144731 2.20703125 4.46484375 C1 3 1 3 0 0 Z " fill="#292525" transform="translate(463,468)"/>
<path d="M0 0 C-1.2205645 3.66169351 -2.75711934 4.26045477 -6.046875 6.0390625 C-7.78690747 6.89515848 -9.57909383 7.64333452 -11.375 8.375 C-16.52312604 10.68278064 -21.67769424 13.61134265 -25.640625 17.6875 C-27 19 -27 19 -29 19 C-29.268125 19.598125 -29.53625 20.19625 -29.8125 20.8125 C-31.48300624 23.88974833 -32.86709567 25.63410517 -36.26171875 26.73046875 C-37.06222656 26.88128906 -37.86273438 27.03210938 -38.6875 27.1875 C-39.49574219 27.34605469 -40.30398438 27.50460937 -41.13671875 27.66796875 C-41.75160156 27.77753906 -42.36648438 27.88710938 -43 28 C-37.18785648 16.6081987 -14.09683871 -4.69894624 0 0 Z " fill="#D1CECD" transform="translate(425,347)"/>
<path d="M0 0 C0.66 0 1.32 0 2 0 C2.45890625 0.96421875 2.9178125 1.9284375 3.390625 2.921875 C4.00998275 4.19812733 4.62979872 5.47415737 5.25 6.75 C5.55035156 7.38421875 5.85070312 8.0184375 6.16015625 8.671875 C8.01295482 12.45631463 9.98998105 15.09467737 13 18 C13.5 21 13.5 21 13 24 C10.76793569 26.84780619 9.45007001 27.84997666 6 29 C1.04972932 29.3984738 -3.5013167 29.558333 -8.1875 27.8125 C-8.785625 27.214375 -9.38375 26.61625 -10 26 C-10 24.35 -10 22.7 -10 21 C-4.39 21 1.22 21 7 21 C6.21625 19.288125 5.4325 17.57625 4.625 15.8125 C-0.29010695 5.07687166 -0.29010695 5.07687166 0 0 Z " fill="#2F2A2A" transform="translate(463,401)"/>
<path d="M0 0 C2 2 2 2 2 6 C-1.96 6.66 -5.92 7.32 -10 8 C-9.938125 9.423125 -9.87625 10.84625 -9.8125 12.3125 C-9.63001912 16.50956023 -9.63001912 16.50956023 -11.34375 18.78125 C-13.60537707 20.44546615 -15.26331821 20.22189312 -18 20 C-18 21.65 -18 23.3 -18 25 C-18.99 25 -19.98 25 -21 25 C-21 22.36 -21 19.72 -21 17 C-19.35 16.34 -17.7 15.68 -16 15 C-18.97 14.505 -18.97 14.505 -22 14 C-22.44140625 11.80078125 -22.44140625 11.80078125 -22 9 C-19.63682886 7.08695669 -17.55035656 5.6675441 -14.9375 4.1875 C-14.28072266 3.78080078 -13.62394531 3.37410156 -12.94726562 2.95507812 C-8.52556636 0.36304752 -5.24658333 -0.64845412 0 0 Z " fill="#E13E3B" transform="translate(514,521)"/>
<path d="M0 0 C0 1.32 0 2.64 0 4 C-0.67804688 4.14695312 -1.35609375 4.29390625 -2.0546875 4.4453125 C-11.21793418 6.65362957 -19.09011108 9.67435908 -24.5625 17.6875 C-26.84213713 21.42662152 -28.08570188 24.62833568 -28.31640625 29.01171875 C-28.35830078 29.76904297 -28.40019531 30.52636719 -28.44335938 31.30664062 C-28.48267578 32.09232422 -28.52199219 32.87800781 -28.5625 33.6875 C-28.60568359 34.48478516 -28.64886719 35.28207031 -28.69335938 36.10351562 C-28.79927368 38.06881447 -28.90012551 40.03438496 -29 42 C-29.66 42 -30.32 42 -31 42 C-31.11728126 38.33360752 -31.18760891 34.6677048 -31.25 31 C-31.30027344 29.45505859 -31.30027344 29.45505859 -31.3515625 27.87890625 C-31.45065392 20.10022942 -30.37485138 14.58779611 -24.95703125 8.828125 C-16.73123694 2.77489931 -10.36377546 -0.65801749 0 0 Z " fill="#D0CDCC" transform="translate(401,378)"/>
<path d="M0 0 C2.12341894 2.36842882 1.75635757 3.72559702 1.625 6.8125 C0.82835937 6.83828125 0.03171875 6.8640625 -0.7890625 6.890625 C-9.28941345 7.34100192 -9.28941345 7.34100192 -16.375 11.8125 C-18.61641446 14.31007611 -20.32175588 16.72034672 -22 19.625 C-22.45375 20.346875 -22.9075 21.06875 -23.375 21.8125 C-24.035 21.8125 -24.695 21.8125 -25.375 21.8125 C-26.03291155 16.54920761 -25.90314045 12.86702067 -22.6875 8.5 C-17.0986914 1.916462 -8.90316436 -4.45158218 0 0 Z " fill="#2E2929" transform="translate(455.375,377.1875)"/>
<path d="M0 0 C0.66 0.33 1.32 0.66 2 1 C-2.58006668 9.08247061 -7.71279475 13.80531103 -16.3125 17.375 C-19 18 -19 18 -23 18 C-23 15.03 -23 12.06 -23 9 C-22.34515625 8.85304688 -21.6903125 8.70609375 -21.015625 8.5546875 C-14.27038306 6.89695855 -8.52774652 4.43778093 -2.43359375 1.109375 C-1.63050781 0.74328125 -0.82742188 0.3771875 0 0 Z " fill="#2E2929" transform="translate(526,463)"/>
<path d="M0 0 C1.33333333 1 2.66666667 2 4 3 C6.64934822 3.71433121 6.64934822 3.71433121 9 4 C9 5.98 9 7.96 9 10 C4.81475251 10.08206368 1.08918864 9.84189178 -3 9 C-3.33 9.33 -3.66 9.66 -4 10 C-11.30562862 10.5891636 -11.30562862 10.5891636 -14.0625 8.25 C-15 6 -15 6 -14.82421875 3.97265625 C-14 2 -14 2 -12.109375 0.91796875 C-3.98973402 -1.59589361 -3.98973402 -1.59589361 0 0 Z " fill="#D2CFCE" transform="translate(492,549)"/>
<path d="M0 0 C3.22465159 2.70870734 4.85604779 6.23253718 6.6875 9.9375 C7.00783203 10.55818359 7.32816406 11.17886719 7.65820312 11.81835938 C9.35326073 15.21208879 10 17.12547582 10 21 C7.74237088 24.26101984 4.74231221 25.06442195 1 26 C-5.18726592 26.52434457 -5.18726592 26.52434457 -7.9375 24.75 C-9 23 -9 23 -9 19 C-2.565 18.505 -2.565 18.505 4 18 C3.71125 17.03578125 3.4225 16.0715625 3.125 15.078125 C2.568125 13.18320312 2.568125 13.18320312 2 11.25 C1.62875 9.99703125 1.2575 8.7440625 0.875 7.453125 C0 4 0 4 0 0 Z " fill="#302B2A" transform="translate(524,400)"/>
<path d="M0 0 C4.23119312 1.41039771 7.20604882 3.76072762 10.1875 7.0625 C11.47067892 10.91203676 11.25393637 14.00988135 11.1875 18.0625 C8.21884491 15.51793849 6.8255249 12.57255335 5.1875 9.0625 C3.8675 9.0625 2.5475 9.0625 1.1875 9.0625 C-0.22884833 11.89519666 -0.1588005 14.53716438 -0.375 17.6875 C-0.45878906 18.87601562 -0.54257812 20.06453125 -0.62890625 21.2890625 C-0.68949219 22.20429688 -0.75007813 23.11953125 -0.8125 24.0625 C-3.70487152 20.84283381 -4.1792617 18.79099266 -4.0625 14.5 C-4.04703125 13.54996094 -4.0315625 12.59992188 -4.015625 11.62109375 C-3.8125 9.0625 -3.8125 9.0625 -2.8125 6.0625 C-4.4625 6.3925 -6.1125 6.7225 -7.8125 7.0625 C-7.44930051 4.4293037 -6.95744976 3.21818678 -5.125 1.25 C-2.8125 0.0625 -2.8125 0.0625 0 0 Z " fill="#2F2A2A" transform="translate(379.8125,430.9375)"/>
<path d="M0 0 C0.70133599 1.57725347 1.385583 3.16211333 2.0625 4.75 C2.44535156 5.63171875 2.82820313 6.5134375 3.22265625 7.421875 C4.04600008 10.15256309 3.9773992 11.36901347 3 14 C1.41753293 14.08153933 -0.16616273 14.13943557 -1.75 14.1875 C-2.63171875 14.22230469 -3.5134375 14.25710938 -4.421875 14.29296875 C-7.44671583 13.94923684 -8.75583602 12.99772541 -11 11 C-10.875 7.75 -10.875 7.75 -10 4 C-6.38889667 0.87037711 -4.82403959 0 0 0 Z " fill="#F4E1CA" transform="translate(463,404)"/>
<path d="M0 0 C2.4375 2 2.4375 2 4 4 C3.35933594 4.09796875 2.71867187 4.1959375 2.05859375 4.296875 C-4.97881053 5.51347544 -10.25914327 7.03073854 -15.25 12.4375 C-17.79450294 16.1633793 -20.04251764 19.93445971 -22 24 C-23.75546437 20.48907125 -22.79725252 16.73949396 -22 13 C-19.32142266 7.53570222 -15.06687312 4.19410688 -10 1 C-6.40735548 -0.19754817 -3.77282526 -0.33094958 0 0 Z " fill="#F3E0C9" transform="translate(450,372)"/>
<path d="M0 0 C0.515625 0.2475 1.03125 0.495 1.5625 0.75 C0.263125 1.678125 0.263125 1.678125 -1.0625 2.625 C-4.76091687 5.6661153 -6.83078657 9.4014036 -9.140625 13.54296875 C-10.4375 15.75 -10.4375 15.75 -12.4375 17.75 C-15.2578125 18.1640625 -15.2578125 18.1640625 -18.5625 18.375 C-19.65820312 18.44976562 -20.75390625 18.52453125 -21.8828125 18.6015625 C-22.72585938 18.65054687 -23.56890625 18.69953125 -24.4375 18.75 C-20.06011803 11.74618885 -9.16778406 -0.94028554 0 0 Z " fill="#6D6B6D" transform="translate(415.4375,354.25)"/>
<path d="M0 0 C3 3.20689655 3 3.20689655 3 6 C1.96939453 6.16435547 1.96939453 6.16435547 0.91796875 6.33203125 C0.01691406 6.49058594 -0.88414062 6.64914062 -1.8125 6.8125 C-2.70582031 6.96332031 -3.59914063 7.11414063 -4.51953125 7.26953125 C-7.23331595 8.06870879 -8.27346791 8.79867158 -10 11 C-11.19027984 13.59915538 -11.19027984 13.59915538 -12 16 C-12.66 15.67 -13.32 15.34 -14 15 C-14.45647158 9.29410528 -13.69917584 6.39901992 -10 2 C-6.46157859 -0.81259138 -4.29594168 -1.69576645 0 0 Z " fill="#F2E0C9" transform="translate(520,367)"/>
<path d="M0 0 C6.35583327 0.86670454 12.67551301 1.93034128 19 3 C19.04254356 4.99954746 19.04080783 7.00041636 19 9 C18.67 9.33 18.34 9.66 18 10 C10.99984049 9.87272437 5.42988307 7.47297745 0 3 C0 2.01 0 1.02 0 0 Z " fill="#F4F4F4" transform="translate(414,522)"/>
<path d="M0 0 C2.4375 0.8125 2.4375 0.8125 4.4375 3.8125 C3.99305556 9.25694444 3.99305556 9.25694444 1.4375 11.8125 C-1.6875 11.9375 -1.6875 11.9375 -4.5625 11.8125 C-5.743433 8.269701 -5.83278374 5.52890139 -5.5625 1.8125 C-2.5625 -0.1875 -2.5625 -0.1875 0 0 Z " fill="#C73834" transform="translate(484.5625,533.1875)"/>
<path d="M0 0 C0.66 0.33 1.32 0.66 2 1 C2.4140625 3.28515625 2.4140625 3.28515625 2.625 6.0625 C2.69976563 6.98160156 2.77453125 7.90070313 2.8515625 8.84765625 C2.90054688 9.55792969 2.94953125 10.26820313 3 11 C-0.51624755 12.94158017 -2.9715651 13.18311068 -7 13 C-7.34751969 10.08083462 -7.53280018 7.86804524 -5.95703125 5.30078125 C-4.15362765 3.11660035 -2.55587616 1.27793808 0 0 Z " fill="#F3E0C9" transform="translate(523,403)"/>
<path d="M0 0 C-7.09542777 7.28719608 -7.09542777 7.28719608 -12.75 7.375 C-17.91719208 7.29923472 -20.79951385 5.92207732 -25 3 C-22 2 -22 2 -18.3125 2.0625 C-14.58551327 2.12404657 -11.46853989 1.44719894 -7.8984375 0.4453125 C-5.24723186 -0.17657524 -2.70719581 -0.13535979 0 0 Z " fill="#E5CCAF" transform="translate(494,522)"/>
<path d="M0 0 C8.60363924 -0.68829114 8.60363924 -0.68829114 12.5625 1.875 C13.366875 2.57625 14.17125 3.2775 15 4 C15 4.66 15 5.32 15 6 C10.05 6 5.1 6 0 6 C0 4.02 0 2.04 0 0 Z " fill="#7EABBE" transform="translate(505,553)"/>
<path d="M0 0 C0 0.66 0 1.32 0 2 C-0.474375 2.391875 -0.94875 2.78375 -1.4375 3.1875 C-3.74665826 5.86612359 -3.67554343 8.56076032 -4 12 C-5.9375 11.6875 -5.9375 11.6875 -8 11 C-9.28317892 7.15046324 -9.06643637 4.05261865 -9 0 C-5.93109813 -1.53445094 -3.29905734 -0.54984289 0 0 Z " fill="#F5E2CA" transform="translate(458,471)"/>
<path d="M0 0 C1.9375 0.6875 1.9375 0.6875 4 2 C4.75 4.625 4.75 4.625 5 7 C-0.75 11 -0.75 11 -3 11 C-3.36923077 4.6 -3.36923077 4.6 -1.5 1.5625 C-1.005 1.046875 -0.51 0.53125 0 0 Z " fill="#F6E2CB" transform="translate(487,445)"/>
<path d="M0 0 C4.97306516 0.49730652 8.63799813 1.55302334 13 4 C13 4.33 13 4.66 13 5 C10.02942405 5.06908316 7.34790099 5.07636851 4.4375 4.4375 C1.67304466 3.94131571 -0.29996922 4.30570637 -3 5 C-2.01 3.35 -1.02 1.7 0 0 Z " fill="#F3F3F3" transform="translate(487,554)"/>
<path d="M0 0 C-0.5260925 3.78786597 -1.38103911 6.17152224 -4 9 C-4.66 9 -5.32 9 -6 9 C-6.1875 5.625 -6.1875 5.625 -6 2 C-3 0 -3 0 0 0 Z " fill="#D93E3C" transform="translate(485,533)"/>
<path d="M0 0 C3.63 0 7.26 0 11 0 C10.67 0.99 10.34 1.98 10 3 C2.25 2.25 2.25 2.25 0 0 Z " fill="#C0BDBD" transform="translate(422,529)"/>
<path d="M0 0 C1.4800841 0.11362262 2.95910074 0.24122908 4.4375 0.375 C5.26121094 0.44460938 6.08492188 0.51421875 6.93359375 0.5859375 C7.95646484 0.79089844 7.95646484 0.79089844 9 1 C9.33 1.66 9.66 2.32 10 3 C3.375 3.125 3.375 3.125 0 2 C0 1.34 0 0.68 0 0 Z " fill="#E5403D" transform="translate(466,541)"/>
</svg>
