<?xml version="1.0" encoding="UTF-8"?>
<svg version="1.1" xmlns="http://www.w3.org/2000/svg" width="891" height="891">
<path d="M0 0 C294.03 0 588.06 0 891 0 C891 294.03 891 588.06 891 891 C596.97 891 302.94 891 0 891 C0 596.97 0 302.94 0 0 Z " fill="#FEFEFE" transform="translate(0,0)"/>
<path d="M0 0 C1.41154022 1.25940501 2.81660672 2.52605519 4.22119141 3.79321289 C5.59534582 4.96087541 6.97023996 6.1276685 8.34619141 7.29321289 C38.91518579 34.4015664 59.12366506 71.89158637 67.22119141 111.79321289 C67.40810547 112.70377441 67.59501953 113.61433594 67.78759766 114.55249023 C69.64706298 124.88082396 69.61851871 135.20888781 69.59619141 145.66821289 C69.59537567 147.10151947 69.59537567 147.10151947 69.59454346 148.56378174 C69.55676823 162.9893857 68.88404481 176.77276058 65.22119141 190.79321289 C64.99093262 191.7066748 64.76067383 192.62013672 64.5234375 193.5612793 C55.05877413 230.55027556 34.06484688 266.44441966 4.22119141 290.79321289 C3.17925836 291.6822237 2.13761831 292.57157796 1.09619141 293.46118164 C-13.6001364 305.816033 -30.15269104 315.26696883 -47.77880859 322.79321289 C-48.39546387 323.06327148 -49.01211914 323.33333008 -49.64746094 323.61157227 C-67.50512903 331.32814263 -87.71425348 335.85317572 -107.15771484 336.03149414 C-108.03898041 336.04128799 -108.92024597 336.05108185 -109.82821655 336.06117249 C-146.56335237 336.38559936 -146.56335237 336.38559936 -163.77880859 331.79321289 C-164.65456543 331.5629541 -165.53032227 331.33269531 -166.43261719 331.09545898 C-172.28187392 329.519236 -178.0411294 327.73422682 -183.77880859 325.79321289 C-185.52871094 325.20926758 -185.52871094 325.20926758 -187.31396484 324.61352539 C-212.45734423 315.57811025 -234.72283884 299.21574321 -253.77880859 280.79321289 C-254.50326172 280.12032227 -255.22771484 279.44743164 -255.97412109 278.75415039 C-271.19383366 264.27385706 -282.57929029 245.50534622 -291.77880859 226.79321289 C-292.32279297 225.68977539 -292.86677734 224.58633789 -293.42724609 223.44946289 C-300.69093642 207.61538662 -305.30503741 190.0144661 -307.77880859 172.79321289 C-307.87162109 172.15907471 -307.96443359 171.52493652 -308.06005859 170.87158203 C-310.61493965 151.23321503 -309.49879386 130.19112966 -305.77880859 110.79321289 C-305.56200439 109.66254395 -305.56200439 109.66254395 -305.34082031 108.5090332 C-299.3645369 78.58128835 -286.17998745 51.32153857 -266.77880859 27.79321289 C-266.31361816 27.22119141 -265.84842773 26.64916992 -265.36914062 26.05981445 C-236.72934677 -9.01986622 -196.11152161 -31.85424698 -151.77880859 -40.20678711 C-150.21453125 -40.5180957 -150.21453125 -40.5180957 -148.61865234 -40.83569336 C-97.53385663 -49.37970013 -39.12936733 -34.28472182 0 0 Z " fill="#F7F7F7" transform="translate(564.77880859375,298.206787109375)"/>
<path d="M0 0 C2.22404174 1.06028142 4.4371749 2.14365735 6.640625 3.24609375 C7.85412108 3.83381492 9.0685842 4.41954297 10.28393555 5.00341797 C12.84617014 6.23890917 15.40172688 7.48690118 17.95263672 8.74560547 C21.89052871 10.68781926 25.84381677 12.59700768 29.80078125 14.5 C35.03919494 17.02166096 40.27199982 19.55447857 45.5 22.09765625 C51.16478517 24.85223573 56.84158393 27.58050065 62.52832031 30.28955078 C65.3391079 31.62925004 68.14641698 32.97599833 70.953125 34.32421875 C74.0249236 35.79877645 77.10608405 37.24728111 80.203125 38.66796875 C81.45327142 39.25619933 82.70328383 39.84471486 83.953125 40.43359375 C84.97535156 40.9028125 85.99757813 41.37203125 87.05078125 41.85546875 C96.66073246 48.04179222 97.99750792 57.16150818 100.328125 67.68359375 C100.71293665 69.35025722 101.09951728 71.01651317 101.48779297 72.68237305 C102.46297353 76.88831435 103.41398962 81.09929102 104.35748291 85.31243896 C105.15098206 88.84153436 105.96461492 92.3659194 106.77734375 95.890625 C108.21933408 102.1746083 109.62495371 108.4660349 111.01708984 114.76123047 C111.78897396 118.2408228 112.57962935 121.71595282 113.37371826 125.1905365 C114.03875516 128.10733434 114.69563311 131.0259347 115.35101318 133.94491577 C115.66420295 135.33239412 115.98054853 136.71916464 116.300354 138.10513306 C120.33785155 155.63135941 120.33785155 155.63135941 117.796875 162.74609375 C115.26710911 166.64442151 112.39643293 170.14499859 109.390625 173.68359375 C108.11981075 175.20205217 106.85029458 176.72159783 105.58203125 178.2421875 C104.95441895 178.9935498 104.32680664 179.74491211 103.68017578 180.51904297 C101.1730641 183.55151939 98.74323846 186.64017689 96.328125 189.74609375 C89.75541785 198.17667322 82.9840951 206.44364504 76.22460938 214.72460938 C74.57060578 216.75178417 72.9179379 218.78004075 71.265625 220.80859375 C70.72873047 221.46633789 70.19183594 222.12408203 69.63867188 222.80175781 C67.008976 226.03375948 64.41215519 229.28455901 61.875 232.58984375 C50.42203148 247.50645826 50.42203148 247.50645826 43.890625 249.68359375 C42.38149078 249.78070122 40.86848105 249.82276656 39.35624695 249.83076477 C38.42682281 249.83792007 37.49739868 249.84507538 36.53981018 249.85244751 C35.01323036 249.85648087 35.01323036 249.85648087 33.45581055 249.8605957 C32.38236389 249.8671669 31.30891724 249.8737381 30.20294189 249.88050842 C26.6444085 249.90024764 23.08591729 249.91190471 19.52734375 249.921875 C17.70578231 249.92798829 17.70578231 249.92798829 15.84742165 249.93422508 C9.42147618 249.95508725 2.99555209 249.96938906 -3.43041992 249.97875977 C-10.07183351 249.98983184 -16.71290458 250.02424091 -23.35421467 250.06393147 C-28.4577243 250.09005686 -33.56115372 250.09844794 -38.66472435 250.10204124 C-41.11315357 250.10691676 -43.56157899 250.11855801 -46.00994301 250.13707924 C-49.43569195 250.16138576 -52.86056846 250.16052085 -56.28637695 250.15356445 C-57.80384773 250.17277954 -57.80384773 250.17277954 -59.35197449 250.19238281 C-66.68491425 250.13809186 -69.96969924 248.70447097 -75.27734375 243.59765625 C-80.46603234 237.71647344 -85.34869688 231.64871516 -90.15625 225.45703125 C-93.24868188 221.48431762 -96.42406217 217.58197322 -99.609375 213.68359375 C-104.0960854 208.1878504 -108.50991453 202.64339566 -112.87060547 197.04736328 C-116.57564301 192.31470969 -120.39651296 187.68382792 -124.234375 183.05859375 C-141.9114424 161.71102296 -141.9114424 161.71102296 -141.109375 150.68359375 C-140.41298751 146.32936218 -139.45967694 142.04542048 -138.484375 137.74609375 C-138.21077148 136.50811035 -137.93716797 135.27012695 -137.65527344 133.99462891 C-136.81749736 130.221751 -135.96547538 126.45235132 -135.109375 122.68359375 C-134.87444336 121.64025879 -134.63951172 120.59692383 -134.39746094 119.52197266 C-132.98414403 113.25462191 -131.53260196 106.99682006 -130.06201172 100.74267578 C-129.34317778 97.68475293 -128.62993788 94.62555988 -127.91845703 91.56591797 C-126.81640934 86.82836277 -125.70696023 82.09258502 -124.59338379 77.35772705 C-124.1489597 75.46381472 -123.70662644 73.56941042 -123.26647949 71.67449951 C-122.64342509 68.99505778 -122.0121044 66.31768519 -121.37890625 63.640625 C-121.1946962 62.84059555 -121.01048615 62.0405661 -120.82069397 61.21629333 C-118.84521921 52.94238037 -116.57468941 46.52038091 -109.109375 41.68359375 C-103.80781516 38.79231891 -98.38037112 36.20023136 -92.921875 33.62109375 C-91.34452137 32.86624692 -89.76754008 32.11062158 -88.19091797 31.35424805 C-77.62556188 26.29825359 -67.0185679 21.32715717 -56.36669922 16.45605469 C-50.29035728 13.66919411 -44.28000946 10.78783965 -38.31640625 7.76953125 C-36.35895793 6.7885832 -34.40090215 5.80885536 -32.44281006 4.82919312 C-31.2004585 4.20137824 -29.96201739 3.56575054 -28.72808838 2.92153931 C-18.41120978 -2.4643026 -10.99284754 -4.62102768 0 0 Z " fill="#336CE5" transform="translate(457.109375,320.31640625)"/>
<path d="M0 0 C3 0.25 3 0.25 5 2.25 C5.21118164 4.32543945 5.21118164 4.32543945 5.16015625 6.86328125 C5.1437207 8.2409668 5.1437207 8.2409668 5.12695312 9.64648438 C5.10568359 10.60876953 5.08441406 11.57105469 5.0625 12.5625 C5.02786958 14.45434717 4.99777711 16.34628392 4.97265625 18.23828125 C4.95468994 19.07915283 4.93672363 19.92002441 4.91821289 20.78637695 C5.00405538 23.37215774 5.42604545 25.73118033 6 28.25 C7.155 28.12625 8.31 28.0025 9.5 27.875 C22.44948463 27.875 36.70280977 35.97635954 45.6875 44.75 C49.03017863 47.9388459 49.03017863 47.9388459 53.625 48.125 C58.78334628 45.25925207 62.64719327 41.76778317 66.5625 37.375 C69 35.25 69 35.25 72.125 34.75 C75 35.25 75 35.25 76.9375 36.4375 C78 38.25 78 38.25 78 40.6875 C76.37294274 44.85683424 73.19522098 46.48325447 69.515625 48.84375 C68.17757812 49.72546875 68.17757812 49.72546875 66.8125 50.625 C65.52279297 51.44097656 65.52279297 51.44097656 64.20703125 52.2734375 C61.34884479 54.83315847 60.5860363 56.45691469 60 60.25 C60.95753142 62.85070262 61.88450997 64.890021 63.25 67.25 C69.05866415 77.76528926 70.17407146 86.94058969 70.0625 98.75 C70.05798828 99.6678125 70.05347656 100.585625 70.04882812 101.53125 C70.03716326 103.77090391 70.02079614 106.01041545 70 108.25 C76.73915805 110.47699358 83.26057507 111.84948158 90.3125 112.72265625 C93 113.25 93 113.25 95 115.25 C95.25 118.25 95.25 118.25 95 121.25 C93 123.25 93 123.25 89.5625 123.625 C85.81312984 123.56364667 82.90841916 122.56917443 79.4375 121.1875 C76.17620159 119.95605537 73.61538462 119.20037221 70.125 118.75 C65.51640485 120.96212567 64.99527439 124.32589874 63.30078125 128.984375 C58.75074802 140.40728125 49.401793 150.33208751 38.90625 156.44921875 C36.71530107 158.15256135 36.71530107 158.15256135 36.5390625 161.1328125 C37.04792663 164.57411397 37.9921145 166.53209056 39.875 169.4375 C40.40867187 170.27667969 40.94234375 171.11585938 41.4921875 171.98046875 C42.65986667 173.73803766 43.82952697 175.49429045 45 177.25 C45.25 180.8125 45.25 180.8125 45 184.25 C43 186.25 43 186.25 40.0625 186.625 C37 186.25 37 186.25 35.4609375 184.66796875 C32.98451355 180.56928846 31.82322522 176.00753675 30.37890625 171.46484375 C28.95576228 168.14686219 28.23798108 166.79217712 25 165.25 C22.61819829 165.28207963 22.61819829 165.28207963 20.1875 166 C4.36021794 169.92536725 -10.52545196 168.97247787 -26 164.25 C-26 164.91 -26 165.57 -26 166.25 C-26.60585938 166.80429687 -27.21171875 167.35859375 -27.8359375 167.9296875 C-30.57384804 170.86528112 -31.39390698 173.57052544 -32.625 177.375 C-34.80555556 184.05555556 -34.80555556 184.05555556 -37 186.25 C-40 186.5 -40 186.5 -43 186.25 C-45 184.25 -45 184.25 -45.5625 181.3125 C-45.46435342 175.49731491 -41.1735293 170.83906035 -38 166.25 C-36.45632882 163.16265763 -36.35023251 161.69376769 -37 158.25 C-39.74186005 155.54321705 -42.84567547 153.44649308 -46 151.25 C-56.0261583 143.83126367 -63.08736458 131.98790626 -67 120.25 C-73.94044147 119.91113577 -78.59564745 120.34991583 -85 123.25 C-87.80912598 123.60499944 -90.14392857 123.49203995 -93 123.25 C-95 121.25 -95 121.25 -95.375 118.3125 C-95 115.25 -95 115.25 -93.37890625 113.59375 C-90.33781702 111.87595904 -88.04001393 111.81212767 -84.5625 111.6875 C-79.17653239 111.48154759 -74.93932534 111.18932534 -71 107.25 C-70.71125892 105.07162634 -70.71125892 105.07162634 -70.76171875 102.55078125 C-70.74915039 101.59574707 -70.73658203 100.64071289 -70.72363281 99.65673828 C-70.71170898 98.63563965 -70.69978516 97.61454102 -70.6875 96.5625 C-70.35323448 84.45194763 -68.40169819 74.6949381 -62.0625 64.1875 C-60.37397525 61.3067581 -59.98938892 60.5205825 -60.125 57.0625 C-62.45704696 53.56442956 -65.0634392 51.94957755 -68.59765625 49.75 C-75.54513373 45.41206284 -75.54513373 45.41206284 -78 42.25 C-78 37.25 -78 37.25 -76 35.25 C-72.78125 34.8515625 -72.78125 34.8515625 -69 35.25 C-66.84571198 37.01959373 -65.26282173 38.53262999 -63.5 40.625 C-59.81854555 44.92913368 -56.82255186 47.50300595 -51 48.25 C-48.71332067 47.04647655 -48.71332067 47.04647655 -46.9375 44.875 C-36.02159384 34.1447385 -21.25214362 27.92487361 -6 27.25 C-5.09903696 24.18910941 -4.90504403 21.52007889 -4.97265625 18.3359375 C-4.98490234 17.41039062 -4.99714844 16.48484375 -5.00976562 15.53125 C-5.04506494 13.58586558 -5.08415798 11.64054646 -5.12695312 9.6953125 C-5.13791016 8.77234375 -5.14886719 7.849375 -5.16015625 6.8984375 C-5.17699463 6.05458496 -5.19383301 5.21073242 -5.21118164 4.34130859 C-4.84662266 0.73112106 -3.44170844 0.28680904 0 0 Z " fill="#FBFCFE" transform="translate(446,350.75)"/>
<path d="M0 0 C1.41154022 1.25940501 2.81660672 2.52605519 4.22119141 3.79321289 C5.59534582 4.96087541 6.97023996 6.1276685 8.34619141 7.29321289 C38.91518579 34.4015664 59.12366506 71.89158637 67.22119141 111.79321289 C67.40810547 112.70377441 67.59501953 113.61433594 67.78759766 114.55249023 C69.64706298 124.88082396 69.61851871 135.20888781 69.59619141 145.66821289 C69.59537567 147.10151947 69.59537567 147.10151947 69.59454346 148.56378174 C69.55676823 162.9893857 68.88404481 176.77276058 65.22119141 190.79321289 C64.99093262 191.7066748 64.76067383 192.62013672 64.5234375 193.5612793 C55.05877413 230.55027556 34.06484688 266.44441966 4.22119141 290.79321289 C3.17925836 291.6822237 2.13761831 292.57157796 1.09619141 293.46118164 C-13.6001364 305.816033 -30.15269104 315.26696883 -47.77880859 322.79321289 C-48.39546387 323.06327148 -49.01211914 323.33333008 -49.64746094 323.61157227 C-67.50512903 331.32814263 -87.71425348 335.85317572 -107.15771484 336.03149414 C-108.03898041 336.04128799 -108.92024597 336.05108185 -109.82821655 336.06117249 C-146.56335237 336.38559936 -146.56335237 336.38559936 -163.77880859 331.79321289 C-164.65456543 331.5629541 -165.53032227 331.33269531 -166.43261719 331.09545898 C-172.28187392 329.519236 -178.0411294 327.73422682 -183.77880859 325.79321289 C-185.52871094 325.20926758 -185.52871094 325.20926758 -187.31396484 324.61352539 C-212.45734423 315.57811025 -234.72283884 299.21574321 -253.77880859 280.79321289 C-254.50326172 280.12032227 -255.22771484 279.44743164 -255.97412109 278.75415039 C-271.19383366 264.27385706 -282.57929029 245.50534622 -291.77880859 226.79321289 C-292.32279297 225.68977539 -292.86677734 224.58633789 -293.42724609 223.44946289 C-300.69093642 207.61538662 -305.30503741 190.0144661 -307.77880859 172.79321289 C-307.87162109 172.15907471 -307.96443359 171.52493652 -308.06005859 170.87158203 C-310.61493965 151.23321503 -309.49879386 130.19112966 -305.77880859 110.79321289 C-305.56200439 109.66254395 -305.56200439 109.66254395 -305.34082031 108.5090332 C-299.3645369 78.58128835 -286.17998745 51.32153857 -266.77880859 27.79321289 C-266.31361816 27.22119141 -265.84842773 26.64916992 -265.36914062 26.05981445 C-236.72934677 -9.01986622 -196.11152161 -31.85424698 -151.77880859 -40.20678711 C-150.21453125 -40.5180957 -150.21453125 -40.5180957 -148.61865234 -40.83569336 C-97.53385663 -49.37970013 -39.12936733 -34.28472182 0 0 Z M-170.77880859 -27.20678711 C-171.49101562 -26.99683105 -172.20322266 -26.786875 -172.93701172 -26.57055664 C-200.32789237 -18.32094101 -224.06789737 -3.888391 -244.77880859 15.79321289 C-245.28412109 16.27129395 -245.78943359 16.749375 -246.31005859 17.24194336 C-271.83772744 41.54999101 -289.30856937 73.36062186 -296.77880859 107.79321289 C-297.21 109.69393555 -297.21 109.69393555 -297.64990234 111.63305664 C-299.45973134 120.024082 -300.52822897 128.21903195 -300.77880859 136.79321289 C-300.81135742 137.73712891 -300.84390625 138.68104492 -300.87744141 139.65356445 C-302.42443085 190.51670212 -284.50263865 236.73645675 -249.68505859 273.78540039 C-225.18312601 299.3905786 -192.59623124 317.80938129 -157.77880859 324.79321289 C-157.1624353 324.91742615 -156.54606201 325.0416394 -155.91101074 325.1696167 C-144.38600751 327.43765867 -133.2610315 328.29051454 -121.52880859 328.16821289 C-120.72653839 328.16356018 -119.92426819 328.15890747 -119.09768677 328.15411377 C-98.66897842 328.01580983 -80.15185214 325.40758679 -60.77880859 318.79321289 C-60.09157715 318.56794922 -59.4043457 318.34268555 -58.69628906 318.1105957 C-40.97488659 312.2747019 -24.47549285 303.24075872 -9.77880859 291.79321289 C-8.89966797 291.13579102 -8.02052734 290.47836914 -7.11474609 289.80102539 C27.60238202 262.84543045 50.61852837 223.72092944 59.22119141 180.79321289 C59.39851807 179.9144751 59.57584473 179.0357373 59.75854492 178.13037109 C61.56724234 167.98269492 61.66223672 157.88152592 61.65869141 147.60571289 C61.65942657 146.67868561 61.66016174 145.75165833 61.66091919 144.79653931 C61.62870039 129.29328846 60.43525589 114.79349483 56.22119141 99.79321289 C55.83568115 98.40634277 55.83568115 98.40634277 55.44238281 96.99145508 C42.40517027 51.61331198 11.24062891 12.40130704 -29.71630859 -10.95678711 C-46.56926308 -20.27938699 -64.13757281 -26.94398701 -82.96630859 -30.95678711 C-84.44478271 -31.27329224 -84.44478271 -31.27329224 -85.953125 -31.59619141 C-113.82981028 -37.25465234 -143.5772753 -35.23639424 -170.77880859 -27.20678711 Z " fill="#C7C7C7" transform="translate(564.77880859375,298.206787109375)"/>
<path d="M0 0 C0.09845707 7.1983059 0.06791606 14.37263639 -0.3125 21.5625 C-0.37050781 22.67753906 -0.42851562 23.79257812 -0.48828125 24.94140625 C-1.04173666 28.24946417 -2.10017503 30.26486325 -4 33 C-9.80158296 32.60667234 -13.01291065 30.19784887 -17.4375 26.75 C-18.70672961 25.78606103 -19.9762596 24.82251745 -21.24609375 23.859375 C-21.86210449 23.38435547 -22.47811523 22.90933594 -23.11279297 22.41992188 C-25.03024805 20.97724157 -26.99347702 19.62192292 -28.97265625 18.265625 C-29.97167969 17.51796875 -30.97070312 16.7703125 -32 16 C-32 15.34 -32 14.68 -32 14 C-30.07379766 12.43609277 -28.16900205 11.02018453 -26.125 9.625 C-25.24231445 9.01881836 -25.24231445 9.01881836 -24.34179688 8.40039062 C-16.85518835 3.39579966 -9.11430504 0 0 0 Z " fill="#3770E5" transform="translate(439,393)"/>
<path d="M0 0 C2.83205318 0.18038555 4.4402576 0.44614963 6.484375 2.46875 C11.42896305 10.4045086 15.71032074 18.69708747 20 27 C12.31156505 32.1256233 2.91692209 31.64561136 -6 31 C-9.45893996 30.26756841 -12.71356323 29.29910912 -16 28 C-4.52427184 4.52427184 -4.52427184 4.52427184 0 0 Z " fill="#3870E5" transform="translate(444,474)"/>
<path d="M0 0 C5.80250707 11.84863085 7.33830982 20.78712218 7 34 C0.59222885 32.88118281 -5.6269962 31.35212253 -11.875 29.5625 C-12.61226318 29.35729736 -13.34952637 29.15209473 -14.10913086 28.94067383 C-21.48856902 26.78098247 -21.48856902 26.78098247 -24 24 C-24.66015625 21.71484375 -24.66015625 21.71484375 -24 19 C-22.06113056 16.57037614 -19.78202547 14.59347192 -17.4375 12.5625 C-16.82841797 12.01529297 -16.21933594 11.46808594 -15.59179688 10.90429688 C-14.36215733 9.80477791 -13.12430614 8.71437342 -11.87841797 7.63330078 C-10.59920467 6.52101368 -9.33297377 5.39365875 -8.07861328 4.25341797 C-7.15991455 3.42994873 -7.15991455 3.42994873 -6.22265625 2.58984375 C-5.67488525 2.09218506 -5.12711426 1.59452637 -4.56274414 1.08178711 C-3 0 -3 0 0 0 Z " fill="#376FE5" transform="translate(495,420)"/>
<path d="M0 0 C5.23498004 4.42064981 10.30854361 8.99439112 15.3515625 13.6328125 C17.96828816 16.03187709 17.96828816 16.03187709 20.80078125 18.14453125 C23 20 23 20 23.5625 22.5625 C22.82175681 25.77238716 21.75110252 26.25981503 19 28 C16.39038086 28.9831543 16.39038086 28.9831543 13.46484375 29.82421875 C11.88026367 30.28344727 11.88026367 30.28344727 10.26367188 30.75195312 C8.6172168 31.21504883 8.6172168 31.21504883 6.9375 31.6875 C5.83599609 32.00783203 4.73449219 32.32816406 3.59960938 32.65820312 C-4.57421042 35 -4.57421042 35 -8 35 C-8.59889989 21.89074694 -7.21410182 11.33644572 0 0 Z " fill="#366FE5" transform="translate(398,419)"/>
<path d="M0 0 C10.60093224 0 21.51888211 5.6753298 29.5 12.5 C30.325 13.325 31.15 14.15 32 15 C28.31016077 19.07358251 23.92600495 22.01145479 19.4375 25.125 C18.66986328 25.66253906 17.90222656 26.20007813 17.11132812 26.75390625 C8.16143052 33.01181199 8.16143052 33.01181199 5.4375 32.8125 C3 32 3 32 1 29 C0.5859375 25.91796875 0.5859375 25.91796875 0.375 22.1875 C0.31807983 21.20511353 0.31807983 21.20511353 0.26000977 20.20288086 C-0.09557935 13.46926477 -0.09348922 6.74161179 0 0 Z " fill="#376FE5" transform="translate(453,393)"/>
<path d="M0 0 C9.90674994 0.79116406 19.59938093 2.31975979 29.375 4.08203125 C26.20304571 14.35737615 19.93238886 24.25699428 11.125 30.64453125 C10.2175 31.11890625 9.31 31.59328125 8.375 32.08203125 C5.375 31.08203125 5.375 31.08203125 4.22412109 29.06005859 C3.86914551 28.18816895 3.51416992 27.3162793 3.1484375 26.41796875 C2.7565625 25.46019531 2.3646875 24.50242187 1.9609375 23.515625 C1.56132812 22.50628906 1.16171875 21.49695313 0.75 20.45703125 C0.34265625 19.47089844 -0.0646875 18.48476563 -0.484375 17.46875 C-2.54386317 12.36094657 -4.43189265 7.6227267 -4.625 2.08203125 C-2.625 0.08203125 -2.625 0.08203125 0 0 Z " fill="#366FE5" transform="translate(469.625,462.91796875)"/>
<path d="M0 0 C2 3 2 3 1.76782227 5.82275391 C0.99945101 9.00227173 -0.00716726 11.82700141 -1.28515625 14.8359375 C-1.95708008 16.43115234 -1.95708008 16.43115234 -2.64257812 18.05859375 C-3.11115234 19.15300781 -3.57972656 20.24742187 -4.0625 21.375 C-4.53494141 22.49261719 -5.00738281 23.61023438 -5.49414062 24.76171875 C-6.6570082 27.51031485 -7.82578186 30.25623832 -9 33 C-18.93564866 26.6138155 -25.97515829 18.7605935 -31 8 C-31 7.01 -31 6.02 -31 5 C-8.5 -0.85 -8.5 -0.85 0 0 Z " fill="#366FE5" transform="translate(425,463)"/>
<path d="M0 0 C3.00091204 1.71205879 3.37807305 2.69822013 5 6 C5.08550688 9.35186977 4.49722125 11.99968604 3 15 C-0.26970305 17.52658872 -2.01473356 18.05911599 -6.125 17.8125 C-8.73605728 17.07459251 -10.71849127 16.44511042 -13 15 C-14.4948304 12.09176965 -14.98362207 9.25920854 -15 6 C-11.76288873 -0.58983366 -7.02670476 -1.68778693 0 0 Z " fill="#366FE5" transform="translate(451,440)"/>
</svg>
