<?xml version="1.0" encoding="UTF-8"?>
<svg version="1.1" xmlns="http://www.w3.org/2000/svg" width="891" height="891">
<path d="M0 0 C294.03 0 588.06 0 891 0 C891 294.03 891 588.06 891 891 C596.97 891 302.94 891 0 891 C0 596.97 0 302.94 0 0 Z " fill="#FEFEFE" transform="translate(0,0)"/>
<path d="M0 0 C1.41154022 1.25940501 2.81660672 2.52605519 4.22119141 3.79321289 C5.59534582 4.96087541 6.97023996 6.1276685 8.34619141 7.29321289 C38.91518579 34.4015664 59.12366506 71.89158637 67.22119141 111.79321289 C67.40810547 112.70377441 67.59501953 113.61433594 67.78759766 114.55249023 C69.64706298 124.88082396 69.61851871 135.20888781 69.59619141 145.66821289 C69.59537567 147.10151947 69.59537567 147.10151947 69.59454346 148.56378174 C69.55676823 162.9893857 68.88404481 176.77276058 65.22119141 190.79321289 C64.99093262 191.7066748 64.76067383 192.62013672 64.5234375 193.5612793 C55.05877413 230.55027556 34.06484688 266.44441966 4.22119141 290.79321289 C3.17925836 291.6822237 2.13761831 292.57157796 1.09619141 293.46118164 C-13.6001364 305.816033 -30.15269104 315.26696883 -47.77880859 322.79321289 C-48.39546387 323.06327148 -49.01211914 323.33333008 -49.64746094 323.61157227 C-67.50512903 331.32814263 -87.71425348 335.85317572 -107.15771484 336.03149414 C-108.03898041 336.04128799 -108.92024597 336.05108185 -109.82821655 336.06117249 C-146.56335237 336.38559936 -146.56335237 336.38559936 -163.77880859 331.79321289 C-164.65456543 331.5629541 -165.53032227 331.33269531 -166.43261719 331.09545898 C-172.28187392 329.519236 -178.0411294 327.73422682 -183.77880859 325.79321289 C-185.52871094 325.20926758 -185.52871094 325.20926758 -187.31396484 324.61352539 C-212.45734423 315.57811025 -234.72283884 299.21574321 -253.77880859 280.79321289 C-254.50326172 280.12032227 -255.22771484 279.44743164 -255.97412109 278.75415039 C-271.19383366 264.27385706 -282.57929029 245.50534622 -291.77880859 226.79321289 C-292.32279297 225.68977539 -292.86677734 224.58633789 -293.42724609 223.44946289 C-300.69093642 207.61538662 -305.30503741 190.0144661 -307.77880859 172.79321289 C-307.87162109 172.15907471 -307.96443359 171.52493652 -308.06005859 170.87158203 C-310.61493965 151.23321503 -309.49879386 130.19112966 -305.77880859 110.79321289 C-305.56200439 109.66254395 -305.56200439 109.66254395 -305.34082031 108.5090332 C-299.3645369 78.58128835 -286.17998745 51.32153857 -266.77880859 27.79321289 C-266.31361816 27.22119141 -265.84842773 26.64916992 -265.36914062 26.05981445 C-236.72934677 -9.01986622 -196.11152161 -31.85424698 -151.77880859 -40.20678711 C-150.21453125 -40.5180957 -150.21453125 -40.5180957 -148.61865234 -40.83569336 C-97.53385663 -49.37970013 -39.12936733 -34.28472182 0 0 Z " fill="#F7F7F7" transform="translate(564.77880859375,298.206787109375)"/>
<path d="M0 0 C1.41154022 1.25940501 2.81660672 2.52605519 4.22119141 3.79321289 C5.59534582 4.96087541 6.97023996 6.1276685 8.34619141 7.29321289 C38.91518579 34.4015664 59.12366506 71.89158637 67.22119141 111.79321289 C67.40810547 112.70377441 67.59501953 113.61433594 67.78759766 114.55249023 C69.64706298 124.88082396 69.61851871 135.20888781 69.59619141 145.66821289 C69.59537567 147.10151947 69.59537567 147.10151947 69.59454346 148.56378174 C69.55676823 162.9893857 68.88404481 176.77276058 65.22119141 190.79321289 C64.99093262 191.7066748 64.76067383 192.62013672 64.5234375 193.5612793 C55.05877413 230.55027556 34.06484688 266.44441966 4.22119141 290.79321289 C3.17925836 291.6822237 2.13761831 292.57157796 1.09619141 293.46118164 C-13.6001364 305.816033 -30.15269104 315.26696883 -47.77880859 322.79321289 C-48.39546387 323.06327148 -49.01211914 323.33333008 -49.64746094 323.61157227 C-67.50512903 331.32814263 -87.71425348 335.85317572 -107.15771484 336.03149414 C-108.03898041 336.04128799 -108.92024597 336.05108185 -109.82821655 336.06117249 C-146.56335237 336.38559936 -146.56335237 336.38559936 -163.77880859 331.79321289 C-164.65456543 331.5629541 -165.53032227 331.33269531 -166.43261719 331.09545898 C-172.28187392 329.519236 -178.0411294 327.73422682 -183.77880859 325.79321289 C-185.52871094 325.20926758 -185.52871094 325.20926758 -187.31396484 324.61352539 C-212.45734423 315.57811025 -234.72283884 299.21574321 -253.77880859 280.79321289 C-254.50326172 280.12032227 -255.22771484 279.44743164 -255.97412109 278.75415039 C-271.19383366 264.27385706 -282.57929029 245.50534622 -291.77880859 226.79321289 C-292.32279297 225.68977539 -292.86677734 224.58633789 -293.42724609 223.44946289 C-300.69093642 207.61538662 -305.30503741 190.0144661 -307.77880859 172.79321289 C-307.87162109 172.15907471 -307.96443359 171.52493652 -308.06005859 170.87158203 C-310.61493965 151.23321503 -309.49879386 130.19112966 -305.77880859 110.79321289 C-305.56200439 109.66254395 -305.56200439 109.66254395 -305.34082031 108.5090332 C-299.3645369 78.58128835 -286.17998745 51.32153857 -266.77880859 27.79321289 C-266.31361816 27.22119141 -265.84842773 26.64916992 -265.36914062 26.05981445 C-236.72934677 -9.01986622 -196.11152161 -31.85424698 -151.77880859 -40.20678711 C-150.21453125 -40.5180957 -150.21453125 -40.5180957 -148.61865234 -40.83569336 C-97.53385663 -49.37970013 -39.12936733 -34.28472182 0 0 Z M-170.77880859 -27.20678711 C-171.49101562 -26.99683105 -172.20322266 -26.786875 -172.93701172 -26.57055664 C-200.32789237 -18.32094101 -224.06789737 -3.888391 -244.77880859 15.79321289 C-245.28412109 16.27129395 -245.78943359 16.749375 -246.31005859 17.24194336 C-271.83772744 41.54999101 -289.30856937 73.36062186 -296.77880859 107.79321289 C-297.21 109.69393555 -297.21 109.69393555 -297.64990234 111.63305664 C-299.45973134 120.024082 -300.52822897 128.21903195 -300.77880859 136.79321289 C-300.81135742 137.73712891 -300.84390625 138.68104492 -300.87744141 139.65356445 C-302.42443085 190.51670212 -284.50263865 236.73645675 -249.68505859 273.78540039 C-225.18312601 299.3905786 -192.59623124 317.80938129 -157.77880859 324.79321289 C-157.1624353 324.91742615 -156.54606201 325.0416394 -155.91101074 325.1696167 C-144.38600751 327.43765867 -133.2610315 328.29051454 -121.52880859 328.16821289 C-120.72653839 328.16356018 -119.92426819 328.15890747 -119.09768677 328.15411377 C-98.66897842 328.01580983 -80.15185214 325.40758679 -60.77880859 318.79321289 C-60.09157715 318.56794922 -59.4043457 318.34268555 -58.69628906 318.1105957 C-40.97488659 312.2747019 -24.47549285 303.24075872 -9.77880859 291.79321289 C-8.89966797 291.13579102 -8.02052734 290.47836914 -7.11474609 289.80102539 C27.60238202 262.84543045 50.61852837 223.72092944 59.22119141 180.79321289 C59.39851807 179.9144751 59.57584473 179.0357373 59.75854492 178.13037109 C61.56724234 167.98269492 61.66223672 157.88152592 61.65869141 147.60571289 C61.65942657 146.67868561 61.66016174 145.75165833 61.66091919 144.79653931 C61.62870039 129.29328846 60.43525589 114.79349483 56.22119141 99.79321289 C55.83568115 98.40634277 55.83568115 98.40634277 55.44238281 96.99145508 C42.40517027 51.61331198 11.24062891 12.40130704 -29.71630859 -10.95678711 C-46.56926308 -20.27938699 -64.13757281 -26.94398701 -82.96630859 -30.95678711 C-84.44478271 -31.27329224 -84.44478271 -31.27329224 -85.953125 -31.59619141 C-113.82981028 -37.25465234 -143.5772753 -35.23639424 -170.77880859 -27.20678711 Z " fill="#C7C7C7" transform="translate(564.77880859375,298.206787109375)"/>
<path d="M0 0 C0.73089844 0.00410889 1.46179688 0.00821777 2.21484375 0.01245117 C3.01148438 0.01438477 3.808125 0.01631836 4.62890625 0.01831055 C5.46164062 0.03055664 6.294375 0.04280273 7.15234375 0.05541992 C7.98507812 0.05606445 8.8178125 0.05670898 9.67578125 0.05737305 C15.8714786 0.10248735 15.8714786 0.10248735 18.15234375 1.24291992 C18.82250977 4.13525391 18.82250977 4.13525391 19.40625 7.98901367 C19.51202866 8.67415543 19.61780731 9.35929718 19.72679138 10.06520081 C19.95022349 11.52313742 20.16933816 12.98174108 20.38452148 14.44091797 C20.70907901 16.64133642 21.04560754 18.83963163 21.38476562 21.0378418 C22.42417685 27.85818375 23.39614092 34.64764555 23.82397461 41.54003906 C23.93233643 42.10198975 24.04069824 42.66394043 24.15234375 43.24291992 C25.14234375 43.73791992 25.14234375 43.73791992 26.15234375 44.24291992 C26.42473877 43.36909668 26.69713379 42.49527344 26.9777832 41.5949707 C28.08992194 38.42106406 29.39299034 35.58907419 30.9453125 32.61010742 C31.49380859 31.5556543 32.04230469 30.50120117 32.60742188 29.41479492 C33.17912109 28.32682617 33.75082031 27.23885742 34.33984375 26.11791992 C34.89220703 25.0531543 35.44457031 23.98838867 36.01367188 22.89135742 C46.41762131 2.97764236 46.41762131 2.97764236 49.15234375 0.24291992 C50.56804498 0.15640381 51.98793875 0.13587088 53.40625 0.14526367 C54.68725586 0.15009766 54.68725586 0.15009766 55.99414062 0.1550293 C57.34088867 0.16759766 57.34088867 0.16759766 58.71484375 0.18041992 C59.61654297 0.18493164 60.51824219 0.18944336 61.44726562 0.1940918 C63.68235689 0.20591768 65.91731812 0.22239772 68.15234375 0.24291992 C68.54465851 7.75294525 67.06313029 14.66270831 65.52734375 21.99291992 C65.25705849 23.30751246 64.98729113 24.62221158 64.71801758 25.93701172 C64.0160599 29.35125133 63.30310084 32.76309079 62.58636475 36.17425537 C62.1538145 38.2359099 61.72420838 40.29815781 61.29541016 42.3605957 C60.48391195 46.26036038 59.66338307 50.15817844 58.83984375 54.05541992 C58.45868408 55.86961426 58.45868408 55.86961426 58.06982422 57.72045898 C57.83279785 58.82744141 57.59577148 59.93442383 57.3515625 61.07495117 C57.14362061 62.05181885 56.93567871 63.02868652 56.72143555 64.03515625 C56.15234375 66.24291992 56.15234375 66.24291992 55.15234375 67.24291992 C53.13270176 67.31536045 51.11067251 67.3266918 49.08984375 67.30541992 C47.98511719 67.29639648 46.88039063 67.28737305 45.7421875 67.27807617 C44.88753906 67.26647461 44.03289062 67.25487305 43.15234375 67.24291992 C42.6904524 59.56397628 44.43399138 52.57185386 46.15234375 45.11791992 C46.7206212 42.63746564 47.28332814 40.15572705 47.83984375 37.67260742 C48.21689453 36.03654541 48.21689453 36.03654541 48.6015625 34.36743164 C49.14997413 31.25636246 49.25185145 28.39458931 49.15234375 25.24291992 C48.73984375 25.98751465 48.32734375 26.73210937 47.90234375 27.49926758 C26.77669339 65.61857029 26.77669339 65.61857029 25.15234375 67.24291992 C23.29946873 67.31518494 21.44400497 67.32673212 19.58984375 67.30541992 C18.57792969 67.29639648 17.56601562 67.28737305 16.5234375 67.27807617 C15.74097656 67.26647461 14.95851563 67.25487305 14.15234375 67.24291992 C12.16911562 60.27482107 11.21903449 53.21262054 10.29248047 46.04174805 C10.02606434 43.98303339 9.75184725 41.92546559 9.4765625 39.86791992 C8.15234375 29.79190958 8.15234375 29.79190958 8.15234375 25.24291992 C7.49234375 25.57291992 6.83234375 25.90291992 6.15234375 26.24291992 C5.41458611 29.10004019 4.79756926 31.90774253 4.2421875 34.80151367 C4.06982071 35.66100113 3.89745392 36.52048859 3.71986389 37.40602112 C3.16840213 40.16261075 2.62861893 42.92132513 2.08984375 45.68041992 C1.54554242 48.43551063 0.99882229 51.19009051 0.44911194 53.94410706 C0.10716189 55.66062779 -0.23128047 57.37785162 -0.56593323 59.09580994 C-1.73697317 65.02155376 -1.73697317 65.02155376 -2.84765625 67.24291992 C-7.13765625 67.24291992 -11.42765625 67.24291992 -15.84765625 67.24291992 C-14.58845175 55.27737054 -12.4156937 43.67548291 -9.84765625 31.93041992 C-9.3104371 29.44675105 -8.77520297 26.96266662 -8.24121094 24.478302 C-7.89972118 22.890451 -7.55666206 21.30293657 -7.21191406 19.71578979 C-6.10023867 14.56187904 -5.13423355 9.40118971 -4.33984375 4.1875 C-3.67212256 1.54940513 -2.76101608 0.36300357 0 0 Z " fill="#050505" transform="translate(315.84765625,405.757080078125)"/>
<path d="M0 0 C0.82016602 -0.0103125 1.64033203 -0.020625 2.48535156 -0.03125 C8.34283303 0.0545041 12.75803808 1.05333554 17.1875 5.1875 C20.37007626 11.55265253 17.34260077 19.72059163 15.875 26.25 C14.35923763 33.03059526 13.03859056 39.6415325 12.53881836 46.58081055 C12.3125 48.4375 12.3125 48.4375 11.3125 49.4375 C9.29285801 49.50994053 7.27082876 49.52127188 5.25 49.5 C3.59291016 49.48646484 3.59291016 49.48646484 1.90234375 49.47265625 C1.04769531 49.46105469 0.19304687 49.44945312 -0.6875 49.4375 C-1.0175 48.7775 -1.3475 48.1175 -1.6875 47.4375 C-2.24695313 47.6540625 -2.80640625 47.870625 -3.3828125 48.09375 C-10.63242416 50.61130003 -18.05553567 51.620967 -25.6875 50.4375 C-29.07889388 48.27934026 -31.39251113 46.29269676 -32.6875 42.4375 C-33.01008786 36.52338915 -31.57591834 31.95647266 -27.6875 27.4375 C-22.95986129 23.70478227 -19.04521084 22.61183943 -13.25 21.8125 C-4.35330281 21.03907265 -4.35330281 21.03907265 3.3125 17.4375 C3.47916667 14.4375 3.47916667 14.4375 3.3125 11.4375 C1.58402533 9.70902533 -0.6448335 10.14360507 -3 10.0625 C-7.65198017 10.00660796 -7.65198017 10.00660796 -11.25 12.875 C-11.724375 13.720625 -12.19875 14.56625 -12.6875 15.4375 C-15.21225462 16.69987731 -16.99950466 16.53606404 -19.8125 16.5 C-20.72257812 16.49097656 -21.63265625 16.48195313 -22.5703125 16.47265625 C-23.61832031 16.45525391 -23.61832031 16.45525391 -24.6875 16.4375 C-25.3671875 14.6875 -25.3671875 14.6875 -25.6875 12.4375 C-22.83705104 7.33459836 -18.11599102 3.17694624 -12.68359375 1.05859375 C-8.45157308 0.1812909 -4.31388996 0.04594482 0 0 Z " fill="#060606" transform="translate(415.6875,423.5625)"/>
<path d="M0 0 C4.3578693 1.86765827 7.32876024 4.69253556 9.6484375 8.81640625 C11.39061374 14.13206956 11.17463116 19.87365748 10.48828125 25.37890625 C7.65821123 28.20897627 4.86875273 27.73136551 1.07421875 27.79296875 C0.34457916 27.8123349 -0.38506042 27.83170105 -1.1368103 27.85165405 C-3.46999377 27.91149047 -5.80322648 27.95785048 -8.13671875 28.00390625 C-9.71746957 28.04208239 -11.29819951 28.0811339 -12.87890625 28.12109375 C-16.75634105 28.21719503 -20.63387324 28.30121037 -24.51171875 28.37890625 C-24.90254275 33.10865135 -24.90254275 33.10865135 -23.13671875 37.25390625 C-19.53552489 39.74704046 -17.11645393 39.46257159 -12.875 38.96875 C-10.31366019 38.32947345 -9.02866136 37.48380845 -7.01171875 35.81640625 C-3.49022625 32.93292533 -0.67493587 32.94365984 3.765625 33.203125 C4.61833984 33.29013672 4.61833984 33.29013672 5.48828125 33.37890625 C5.48828125 38.19505326 4.56948896 39.2523313 1.42578125 42.62890625 C-5.15526377 48.57307595 -12.02977627 50.1081699 -20.74072266 49.97070312 C-26.47541263 49.65842481 -30.48618846 48.51037155 -34.51171875 44.37890625 C-39.12260594 38.9611138 -39.10999609 33.8102366 -38.90234375 26.82421875 C-38.36134709 22.0526282 -36.95289364 18.47295997 -34.51171875 14.37890625 C-33.93421875 13.32703125 -33.35671875 12.27515625 -32.76171875 11.19140625 C-24.50086802 0.86534283 -12.93078456 -3.19750349 0 0 Z " fill="#050505" transform="translate(526.51171875,424.62109375)"/>
<path d="M0 0 C3.68790124 1.74802255 5.81336184 3.5762919 8 7 C9.49493077 14.67084623 7.07246821 22.95232898 5.49145508 30.46191406 C5.05783769 32.52215193 4.63814482 34.58486697 4.22070312 36.6484375 C2.17018641 46.65962718 2.17018641 46.65962718 1 49 C-2.96 49 -6.92 49 -11 49 C-11.26658097 41.80231376 -9.99080508 35.41845507 -8.421875 28.421875 C-7.2918726 23.15929239 -6.6151364 18.3880904 -7 13 C-8.9767105 10.60968745 -8.9767105 10.60968745 -12.75 10.5625 C-16.33030323 10.71816536 -19.01560817 11.37159623 -21.69140625 13.953125 C-26.61870348 21.66030036 -27.51921095 32.97007944 -28.96166992 41.89575195 C-29.78904412 46.78904412 -29.78904412 46.78904412 -32 49 C-34.8203125 49.1953125 -34.8203125 49.1953125 -38.125 49.125 C-39.22070312 49.10695313 -40.31640625 49.08890625 -41.4453125 49.0703125 C-42.28835938 49.04710937 -43.13140625 49.02390625 -44 49 C-43.24123341 41.81022391 -41.89598931 34.74020015 -40.52587891 27.64624023 C-40.12681778 25.57194867 -39.73709687 23.49603817 -39.34765625 21.41992188 C-38.01180107 14.41564869 -36.47671569 7.69603075 -34 1 C-30.37 1 -26.74 1 -23 1 C-22.67 2.32 -22.34 3.64 -22 5 C-21.50113281 4.6390625 -21.00226562 4.278125 -20.48828125 3.90625 C-13.90987158 -0.34550491 -7.74033958 -1.20316159 0 0 Z " fill="#050505" transform="translate(584,424)"/>
<path d="M0 0 C2.3125 0.0625 2.3125 0.0625 5 1 C8.67770511 5.08633901 9.35728918 8.39557472 9.7265625 13.64453125 C10.0997595 16.85935684 11.14317283 19.68194361 12.234375 22.71484375 C13.47056709 26.4044987 14.23425457 30.18929041 15 34 C15.40089844 33.24976563 15.80179687 32.49953125 16.21484375 31.7265625 C20.38263158 24.22265426 25.11465828 18.20753196 31 12 C32.11297598 10.69496179 33.21827854 9.38330267 34.3125 8.0625 C38.35437817 3.36548223 38.35437817 3.36548223 41 2 C45.41025641 2.41025641 45.41025641 2.41025641 47 4 C46.65167038 9.80549362 45.02366992 13.19770072 42 18 C41.525625 18.825 41.05125 19.65 40.5625 20.5 C39.27648289 22.55762738 37.93250875 24.48330149 36.5 26.4375 C34.8887398 28.65478642 33.67583796 30.64832409 32.4375 33.125 C30.16565708 37.66868584 27.82972064 41.10260975 23 43 C23 43.99 23 44.98 23 46 C22.34 46.99 21.68 47.98 21 49 C19.00577205 49.36628677 17.00546689 49.70131344 15 50 C14.67 50.66 14.34 51.32 14 52 C13.34 51.67 12.68 51.34 12 51 C12 52.65 12 54.3 12 56 C11.01 55.67 10.02 55.34 9 55 C9.33 53.35 9.66 51.7 10 50 C9.34 50 8.68 50 8 50 C4 45.64705882 4 45.64705882 4 42 C3.54625 40.96875 3.0925 39.9375 2.625 38.875 C-1.08818177 30.43545424 -1.28787659 22.11842077 -1.1875 13 C-1.18685547 11.85660156 -1.18621094 10.71320313 -1.18554688 9.53515625 C-1.14062967 1.14062967 -1.14062967 1.14062967 0 0 Z " fill="#C22B48" transform="translate(444,421)"/>
<path d="M0 0 C2.3125 0.75 2.3125 0.75 3.3125 1.75 C2.96417038 7.55549362 1.33616992 10.94770072 -1.6875 15.75 C-2.161875 16.575 -2.63625 17.4 -3.125 18.25 C-4.41101711 20.30762738 -5.75499125 22.23330149 -7.1875 24.1875 C-8.7987602 26.40478642 -10.01166204 28.39832409 -11.25 30.875 C-13.12371204 34.62242409 -15.12098517 37.68881253 -18.625 40.0625 C-21.07176526 40.87808842 -23.1251191 40.89235449 -25.6875 40.75 C-25.13014747 36.51259375 -23.67677728 33.92378503 -21.25 30.4375 C-18.20927631 25.83902852 -16.60657977 22.16235864 -15.6875 16.75 C-16.6775 16.42 -17.6675 16.09 -18.6875 15.75 C-16.77493854 13.64197235 -14.85769745 11.53855326 -12.9375 9.4375 C-12.39867187 8.84259766 -11.85984375 8.24769531 -11.3046875 7.63476562 C-3.97124536 -0.36941817 -3.97124536 -0.36941817 0 0 Z " fill="#C12745" transform="translate(487.6875,423.25)"/>
<path d="M0 0 C0 7.37153163 -3.25891271 12.16045097 -7.1875 18.14453125 C-9.10419167 20.91021121 -9.10419167 20.91021121 -10 24 C-8.02 24.33 -6.04 24.66 -4 25 C-5.125 27.4375 -5.125 27.4375 -7 30 C-10.125 30.6875 -10.125 30.6875 -13 31 C-13.33 31.66 -13.66 32.32 -14 33 C-14.66 32.67 -15.32 32.34 -16 32 C-16 33.65 -16 35.3 -16 37 C-16.99 36.67 -17.98 36.34 -19 36 C-18.67 34.35 -18.34 32.7 -18 31 C-18.66 31 -19.32 31 -20 31 C-23.11997802 27.69649386 -24 26.67590167 -24 22 C-23.34 22 -22.68 22 -22 22 C-21.34 20.68 -20.68 19.36 -20 18 C-19.34 19.65 -18.68 21.3 -18 23 C-15.89172945 19.83759418 -15.66182535 18.49342531 -15.375 14.8125 C-15.30023438 13.91144531 -15.22546875 13.01039063 -15.1484375 12.08203125 C-15.09945313 11.39496094 -15.05046875 10.70789063 -15 10 C-14.67 10 -14.34 10 -14 10 C-13.67 11.65 -13.34 13.3 -13 15 C-12.52949219 14.16855469 -12.05898438 13.33710938 -11.57421875 12.48046875 C-10.95160156 11.39378906 -10.32898438 10.30710937 -9.6875 9.1875 C-9.07261719 8.10855469 -8.45773437 7.02960938 -7.82421875 5.91796875 C-4.12449799 0 -4.12449799 0 0 0 Z " fill="#C33F5E" transform="translate(472,440)"/>
<path d="M0 0 C-0.38029103 5.60929268 -0.73612319 8.97300524 -5 13 C-8.9488863 15.24125979 -12.5125143 15.41550793 -17 15 C-19 13.9375 -19 13.9375 -20 12 C-19.9375 8.5 -19.9375 8.5 -19 5 C-16.21466781 2.38253382 -13.78656556 1.48386467 -10.0625 0.8125 C-8.81146484 0.57466797 -8.81146484 0.57466797 -7.53515625 0.33203125 C-4.99184871 -0.00106758 -2.56182553 -0.05957734 0 0 Z " fill="#EEEEEE" transform="translate(417,451)"/>
<path d="M0 0 C2.3125 0.0625 2.3125 0.0625 5 1 C8.83293202 5.15234302 9.85606499 9.27703947 10.25390625 14.765625 C10.17011719 15.50296875 10.08632813 16.2403125 10 17 C9.175 17.61875 8.35 18.2375 7.5 18.875 C6.675 19.57625 5.85 20.2775 5 21 C4.84088366 25.0711835 5.36218241 28.98364368 6 33 C3.94862685 29.51783717 3.43181408 26.22724343 2.875 22.25 C2.70742188 21.07953125 2.53984375 19.9090625 2.3671875 18.703125 C2.24601562 17.81109375 2.12484375 16.9190625 2 16 C1.34 16 0.68 16 0 16 C0 19.3 0 22.6 0 26 C-0.33 26 -0.66 26 -1 26 C-1.02886751 21.85418113 -1.04675327 17.70838784 -1.0625 13.5625 C-1.07087891 12.37849609 -1.07925781 11.19449219 -1.08789062 9.97460938 C-1.09111328 8.84990234 -1.09433594 7.72519531 -1.09765625 6.56640625 C-1.10289307 5.52427979 -1.10812988 4.48215332 -1.11352539 3.40844727 C-1 1 -1 1 0 0 Z " fill="#E36B35" transform="translate(444,421)"/>
<path d="M0 0 C2.2890625 1.33203125 2.2890625 1.33203125 4 3 C4.3125 6.125 4.3125 6.125 4 9 C3 10 3 10 1.14233398 10.11352539 C0.35157471 10.10828857 -0.43918457 10.10305176 -1.25390625 10.09765625 C-2.10791016 10.09443359 -2.96191406 10.09121094 -3.84179688 10.08789062 C-4.73962891 10.07951172 -5.63746094 10.07113281 -6.5625 10.0625 C-7.46419922 10.05798828 -8.36589844 10.05347656 -9.29492188 10.04882812 C-11.53001314 10.03700225 -13.76497437 10.0205222 -16 10 C-15.2421875 4.296875 -15.2421875 4.296875 -13.0625 1.625 C-8.79545074 -0.63914859 -4.7445223 -0.85632841 0 0 Z " fill="#EDEDED" transform="translate(520,434)"/>
<path d="M0 0 C2.3125 0.75 2.3125 0.75 3.3125 1.75 C2.944226 6.53756196 2.06247245 9.80438736 -0.6875 13.75 C-3.625 13 -3.625 13 -6.6875 11.75 C-7.5625 9.625 -7.5625 9.625 -7.6875 7.75 C-9.0075 8.08 -10.3275 8.41 -11.6875 8.75 C-4.36282468 -0.40584416 -4.36282468 -0.40584416 0 0 Z " fill="#F49D37" transform="translate(487.6875,423.25)"/>
<path d="M0 0 C0.33 0.99 0.66 1.98 1 3 C3.49759982 4.69882448 3.49759982 4.69882448 6 6 C5.566875 6.8353125 5.566875 6.8353125 5.125 7.6875 C3.9586747 10.08494645 2.9660119 12.51596939 2 15 C1.67 13.68 1.34 12.36 1 11 C-1.832168 10.66551741 -1.832168 10.66551741 -5 11 C-7.37719693 12.87501931 -7.37719693 12.87501931 -9 15 C-8.67 13.02 -8.34 11.04 -8 9 C-8.99 8.67 -9.98 8.34 -11 8 C-9.87811441 6.85111717 -8.75238316 5.70598863 -7.625 4.5625 C-6.99851562 3.92441406 -6.37203125 3.28632813 -5.7265625 2.62890625 C-3.74785826 0.76211967 -2.74097805 0 0 0 Z " fill="#DF6B53" transform="translate(480,431)"/>
<path d="M0 0 C0.33 0 0.66 0 1 0 C2.12405116 5.92681519 2.15787577 8.65590254 -1 14 C-1.65902728 16.15681654 -2 17.75365295 -2 20 C-1.34 20 -0.68 20 0 20 C0.33 19.34 0.66 18.68 1 18 C1 18.66 1 19.32 1 20 C2.32 20.33 3.64 20.66 5 21 C4.01 21 3.02 21 2 21 C1.67 21.66 1.34 22.32 1 23 C0.34 22.67 -0.32 22.34 -1 22 C-1 23.65 -1 25.3 -1 27 C-1.99 26.67 -2.98 26.34 -4 26 C-3.67 24.35 -3.34 22.7 -3 21 C-3.66 21 -4.32 21 -5 21 C-8.11997802 17.69649386 -9 16.67590167 -9 12 C-8.34 12 -7.68 12 -7 12 C-6.34 10.68 -5.68 9.36 -5 8 C-4.34 9.65 -3.68 11.3 -3 13 C-0.89172945 9.83759418 -0.66182535 8.49342531 -0.375 4.8125 C-0.30023438 3.91144531 -0.22546875 3.01039063 -0.1484375 2.08203125 C-0.09945313 1.39496094 -0.05046875 0.70789063 0 0 Z " fill="#AE6092" transform="translate(457,450)"/>
<path d="M0 0 C1.32 0 2.64 0 4 0 C4.50610903 3.22823979 5.00379907 6.45772365 5.5 9.6875 C5.64308594 10.59951172 5.78617187 11.51152344 5.93359375 12.45117188 C6.06894531 13.33740234 6.20429688 14.22363281 6.34375 15.13671875 C6.53227539 16.35427856 6.53227539 16.35427856 6.72460938 17.59643555 C7.00977723 20.08533405 7.04674739 22.49706689 7 25 C4.94862685 21.51783717 4.43181408 18.22724343 3.875 14.25 C3.70742188 13.07953125 3.53984375 11.9090625 3.3671875 10.703125 C3.24601562 9.81109375 3.12484375 8.9190625 3 8 C2.34 8 1.68 8 1 8 C1 11.3 1 14.6 1 18 C0.67 18 0.34 18 0 18 C0 12.06 0 6.12 0 0 Z " fill="#E0725A" transform="translate(443,429)"/>
<path d="M0 0 C3.27642756 0.25866533 4.60820723 0.55416685 6.8125 3.0625 C7.204375 3.701875 7.59625 4.34125 8 5 C7 7 7 7 4.0625 8.1875 C1 9 1 9 -1 8 C-1.04241723 5.66705225 -1.04092937 3.33297433 -1 1 C-0.67 0.67 -0.34 0.34 0 0 Z " fill="#F49930" transform="translate(444,421)"/>
<path d="M0 0 C0 0.66 0 1.32 0 2 C2.64 2 5.28 2 8 2 C7.34 3.65 6.68 5.3 6 7 C2.23312136 7 1.08809695 6.76462683 -2 5 C-2 4.01 -2 3.02 -2 2 C-3.32 2.33 -4.64 2.66 -6 3 C-4.60722783 0.21445565 -3.01148006 0 0 0 Z " fill="#E97A2B" transform="translate(482,429)"/>
<path d="M0 0 C2.31 0.66 4.62 1.32 7 2 C5.9375 4.5 5.9375 4.5 4 7 C0.3125 7.3125 0.3125 7.3125 -3 7 C-1.125 2.25 -1.125 2.25 0 0 Z " fill="#913981" transform="translate(461,463)"/>
<path d="M0 0 C0.33 0.66 0.66 1.32 1 2 C2.65 2 4.3 2 6 2 C4.25 7.75 4.25 7.75 2 10 C2 8.68 2 7.36 2 6 C0.35 5.67 -1.3 5.34 -3 5 C-1.125 1.125 -1.125 1.125 0 0 Z " fill="#D94E3B" transform="translate(479,436)"/>
<path d="M0 0 C2 3 2 3 1.75 5.4375 C1.05282249 7.81952314 0.20252143 9.83546142 -1 12 C-1.66 12 -2.32 12 -3 12 C-3.6875 9.75 -3.6875 9.75 -4 7 C-2.625 4.875 -2.625 4.875 -1 3 C-0.67 2.01 -0.34 1.02 0 0 Z " fill="#8B2A76" transform="translate(458,458)"/>
<path d="M0 0 C0.33 0.66 0.66 1.32 1 2 C3.02463255 2.65213292 3.02463255 2.65213292 5 3 C4.01 3 3.02 3 2 3 C1.67 3.66 1.34 4.32 1 5 C0.34 4.67 -0.32 4.34 -1 4 C-1 5.65 -1 7.3 -1 9 C-1.99 8.67 -2.98 8.34 -4 8 C-3.67 6.02 -3.34 4.04 -3 2 C-2.01 2 -1.02 2 0 2 C0 1.34 0 0.68 0 0 Z " fill="#B189B8" transform="translate(457,468)"/>
<path d="M0 0 C0 0.66 0 1.32 0 2 C2.64 2 5.28 2 8 2 C8 2.33 8 2.66 8 3 C6.72125 3.144375 5.4425 3.28875 4.125 3.4375 C1.74307106 3.70642746 0.15547309 3.92226346 -2 5 C-2 4.01 -2 3.02 -2 2 C-3.32 2.33 -4.64 2.66 -6 3 C-4.60722783 0.21445565 -3.01148006 0 0 0 Z " fill="#EA8640" transform="translate(482,429)"/>
<path d="M0 0 C1.32 0 2.64 0 4 0 C2.25 4.875 2.25 4.875 0 6 C-0.38218767 4.34385343 -0.71395102 2.67542976 -1 1 C-0.67 0.67 -0.34 0.34 0 0 Z " fill="#D74431" transform="translate(473,435)"/>
<path d="M0 0 C0.99 0.33 1.98 0.66 3 1 C3.33 2.65 3.66 4.3 4 6 C3.01 6.66 2.02 7.32 1 8 C0.67 5.36 0.34 2.72 0 0 Z " fill="#DB4F30" transform="translate(447,434)"/>
<path d="M0 0 C-0.375 1.9375 -0.375 1.9375 -1 4 C-1.99 4.495 -1.99 4.495 -3 5 C-3.99 4.34 -4.98 3.68 -6 3 C-2.25 0 -2.25 0 0 0 Z " fill="#E1622D" transform="translate(480,431)"/>
</svg>
