<?xml version="1.0" encoding="UTF-8"?>
<svg version="1.1" xmlns="http://www.w3.org/2000/svg" width="891" height="891">
<path d="M0 0 C294.03 0 588.06 0 891 0 C891 294.03 891 588.06 891 891 C596.97 891 302.94 891 0 891 C0 596.97 0 302.94 0 0 Z " fill="#FEFEFE" transform="translate(0,0)"/>
<path d="M0 0 C1.41154022 1.25940501 2.81660672 2.52605519 4.22119141 3.79321289 C5.59534582 4.96087541 6.97023996 6.1276685 8.34619141 7.29321289 C38.91518579 34.4015664 59.12366506 71.89158637 67.22119141 111.79321289 C67.40810547 112.70377441 67.59501953 113.61433594 67.78759766 114.55249023 C69.64706298 124.88082396 69.61851871 135.20888781 69.59619141 145.66821289 C69.59537567 147.10151947 69.59537567 147.10151947 69.59454346 148.56378174 C69.55676823 162.9893857 68.88404481 176.77276058 65.22119141 190.79321289 C64.99093262 191.7066748 64.76067383 192.62013672 64.5234375 193.5612793 C55.05877413 230.55027556 34.06484688 266.44441966 4.22119141 290.79321289 C3.17925836 291.6822237 2.13761831 292.57157796 1.09619141 293.46118164 C-13.6001364 305.816033 -30.15269104 315.26696883 -47.77880859 322.79321289 C-48.39546387 323.06327148 -49.01211914 323.33333008 -49.64746094 323.61157227 C-67.50512903 331.32814263 -87.71425348 335.85317572 -107.15771484 336.03149414 C-108.03898041 336.04128799 -108.92024597 336.05108185 -109.82821655 336.06117249 C-146.56335237 336.38559936 -146.56335237 336.38559936 -163.77880859 331.79321289 C-164.65456543 331.5629541 -165.53032227 331.33269531 -166.43261719 331.09545898 C-172.28187392 329.519236 -178.0411294 327.73422682 -183.77880859 325.79321289 C-185.52871094 325.20926758 -185.52871094 325.20926758 -187.31396484 324.61352539 C-212.45734423 315.57811025 -234.72283884 299.21574321 -253.77880859 280.79321289 C-254.50326172 280.12032227 -255.22771484 279.44743164 -255.97412109 278.75415039 C-271.19383366 264.27385706 -282.57929029 245.50534622 -291.77880859 226.79321289 C-292.32279297 225.68977539 -292.86677734 224.58633789 -293.42724609 223.44946289 C-300.69093642 207.61538662 -305.30503741 190.0144661 -307.77880859 172.79321289 C-307.87162109 172.15907471 -307.96443359 171.52493652 -308.06005859 170.87158203 C-310.61493965 151.23321503 -309.49879386 130.19112966 -305.77880859 110.79321289 C-305.56200439 109.66254395 -305.56200439 109.66254395 -305.34082031 108.5090332 C-299.3645369 78.58128835 -286.17998745 51.32153857 -266.77880859 27.79321289 C-266.31361816 27.22119141 -265.84842773 26.64916992 -265.36914062 26.05981445 C-236.72934677 -9.01986622 -196.11152161 -31.85424698 -151.77880859 -40.20678711 C-150.21453125 -40.5180957 -150.21453125 -40.5180957 -148.61865234 -40.83569336 C-97.53385663 -49.37970013 -39.12936733 -34.28472182 0 0 Z " fill="#F7F7F7" transform="translate(564.77880859375,298.206787109375)"/>
<path d="M0 0 C1.41154022 1.25940501 2.81660672 2.52605519 4.22119141 3.79321289 C5.59534582 4.96087541 6.97023996 6.1276685 8.34619141 7.29321289 C38.91518579 34.4015664 59.12366506 71.89158637 67.22119141 111.79321289 C67.40810547 112.70377441 67.59501953 113.61433594 67.78759766 114.55249023 C69.64706298 124.88082396 69.61851871 135.20888781 69.59619141 145.66821289 C69.59537567 147.10151947 69.59537567 147.10151947 69.59454346 148.56378174 C69.55676823 162.9893857 68.88404481 176.77276058 65.22119141 190.79321289 C64.99093262 191.7066748 64.76067383 192.62013672 64.5234375 193.5612793 C55.05877413 230.55027556 34.06484688 266.44441966 4.22119141 290.79321289 C3.17925836 291.6822237 2.13761831 292.57157796 1.09619141 293.46118164 C-13.6001364 305.816033 -30.15269104 315.26696883 -47.77880859 322.79321289 C-48.39546387 323.06327148 -49.01211914 323.33333008 -49.64746094 323.61157227 C-67.50512903 331.32814263 -87.71425348 335.85317572 -107.15771484 336.03149414 C-108.03898041 336.04128799 -108.92024597 336.05108185 -109.82821655 336.06117249 C-146.56335237 336.38559936 -146.56335237 336.38559936 -163.77880859 331.79321289 C-164.65456543 331.5629541 -165.53032227 331.33269531 -166.43261719 331.09545898 C-172.28187392 329.519236 -178.0411294 327.73422682 -183.77880859 325.79321289 C-185.52871094 325.20926758 -185.52871094 325.20926758 -187.31396484 324.61352539 C-212.45734423 315.57811025 -234.72283884 299.21574321 -253.77880859 280.79321289 C-254.50326172 280.12032227 -255.22771484 279.44743164 -255.97412109 278.75415039 C-271.19383366 264.27385706 -282.57929029 245.50534622 -291.77880859 226.79321289 C-292.32279297 225.68977539 -292.86677734 224.58633789 -293.42724609 223.44946289 C-300.69093642 207.61538662 -305.30503741 190.0144661 -307.77880859 172.79321289 C-307.87162109 172.15907471 -307.96443359 171.52493652 -308.06005859 170.87158203 C-310.61493965 151.23321503 -309.49879386 130.19112966 -305.77880859 110.79321289 C-305.56200439 109.66254395 -305.56200439 109.66254395 -305.34082031 108.5090332 C-299.3645369 78.58128835 -286.17998745 51.32153857 -266.77880859 27.79321289 C-266.31361816 27.22119141 -265.84842773 26.64916992 -265.36914062 26.05981445 C-236.72934677 -9.01986622 -196.11152161 -31.85424698 -151.77880859 -40.20678711 C-150.21453125 -40.5180957 -150.21453125 -40.5180957 -148.61865234 -40.83569336 C-97.53385663 -49.37970013 -39.12936733 -34.28472182 0 0 Z M-170.77880859 -27.20678711 C-171.49101562 -26.99683105 -172.20322266 -26.786875 -172.93701172 -26.57055664 C-200.32789237 -18.32094101 -224.06789737 -3.888391 -244.77880859 15.79321289 C-245.28412109 16.27129395 -245.78943359 16.749375 -246.31005859 17.24194336 C-271.83772744 41.54999101 -289.30856937 73.36062186 -296.77880859 107.79321289 C-297.21 109.69393555 -297.21 109.69393555 -297.64990234 111.63305664 C-299.45973134 120.024082 -300.52822897 128.21903195 -300.77880859 136.79321289 C-300.81135742 137.73712891 -300.84390625 138.68104492 -300.87744141 139.65356445 C-302.42443085 190.51670212 -284.50263865 236.73645675 -249.68505859 273.78540039 C-225.18312601 299.3905786 -192.59623124 317.80938129 -157.77880859 324.79321289 C-157.1624353 324.91742615 -156.54606201 325.0416394 -155.91101074 325.1696167 C-144.38600751 327.43765867 -133.2610315 328.29051454 -121.52880859 328.16821289 C-120.72653839 328.16356018 -119.92426819 328.15890747 -119.09768677 328.15411377 C-98.66897842 328.01580983 -80.15185214 325.40758679 -60.77880859 318.79321289 C-60.09157715 318.56794922 -59.4043457 318.34268555 -58.69628906 318.1105957 C-40.97488659 312.2747019 -24.47549285 303.24075872 -9.77880859 291.79321289 C-8.89966797 291.13579102 -8.02052734 290.47836914 -7.11474609 289.80102539 C27.60238202 262.84543045 50.61852837 223.72092944 59.22119141 180.79321289 C59.39851807 179.9144751 59.57584473 179.0357373 59.75854492 178.13037109 C61.56724234 167.98269492 61.66223672 157.88152592 61.65869141 147.60571289 C61.65942657 146.67868561 61.66016174 145.75165833 61.66091919 144.79653931 C61.62870039 129.29328846 60.43525589 114.79349483 56.22119141 99.79321289 C55.83568115 98.40634277 55.83568115 98.40634277 55.44238281 96.99145508 C42.40517027 51.61331198 11.24062891 12.40130704 -29.71630859 -10.95678711 C-46.56926308 -20.27938699 -64.13757281 -26.94398701 -82.96630859 -30.95678711 C-84.44478271 -31.27329224 -84.44478271 -31.27329224 -85.953125 -31.59619141 C-113.82981028 -37.25465234 -143.5772753 -35.23639424 -170.77880859 -27.20678711 Z " fill="#C7C7C7" transform="translate(564.77880859375,298.206787109375)"/>
<path d="M0 0 C3.60065689 3.08627733 5.38867861 5.04433368 5.90625 9.875 C6.07830098 15.26593086 6.00140009 17.96279989 2.625 22.25 C3.47571899 25.42086167 4.79594266 27.506414 6.625 30.25 C6.25 32.4375 6.25 32.4375 5.625 34.25 C4.305 34.25 2.985 34.25 1.625 34.25 C-2.375 29.13888889 -2.375 29.13888889 -2.375 26.25 C-3.035 26.58 -3.695 26.91 -4.375 27.25 C-9.3259132 27.79317573 -13.26988185 27.77241949 -17.8125 25.625 C-22.15092298 21.6040226 -23.54111098 18.08048676 -23.8125 12.25 C-23.64170608 7.51046873 -22.67543473 4.80431432 -19.375 1.25 C-13.21365346 -4.00151039 -6.98520602 -3.62195868 0 0 Z " fill="#131313" transform="translate(456.375,431.75)"/>
<path d="M0 0 C1.65 0 3.3 0 5 0 C5.33 5.28 5.66 10.56 6 16 C6.99 15.01 7.98 14.02 9 13 C13.04546585 12.16444767 17.26077591 12.06081899 20.953125 14.0546875 C23.09742488 15.81384614 24.75412482 17.50824963 26 20 C27.03780601 32.3175664 27.03780601 32.3175664 24.25 36.625 C23.5075 37.40875 22.765 38.1925 22 39 C21.443125 39.61875 20.88625 40.2375 20.3125 40.875 C16.63542204 42.66384874 13.0018808 42.69757555 9 42 C6.4375 40 6.4375 40 5 38 C4.67 38.99 4.34 39.98 4 41 C2.68 41 1.36 41 0 41 C0 27.47 0 13.94 0 0 Z " fill="#111111" transform="translate(495,417)"/>
<path d="M0 0 C4.64425866 2.49413891 8.31375022 4.94125067 10 10 C10.56430864 15.69734689 10.28586378 20.12785716 7 25 C2.29864304 29.34875518 -1.47213431 30.36245598 -7.71484375 30.28125 C-11.29592389 29.84050167 -13.33039485 28.35179501 -16 26 C-19.90725381 20.57274053 -19.78059287 15.47278131 -19 9 C-17.23083095 5.12143708 -15.77510222 3.54076899 -12.3125 1.125 C-8.06862764 -0.31631514 -4.43485991 -0.73119554 0 0 Z " fill="#0F0F0F" transform="translate(342,429)"/>
<path d="M0 0 C4.3131022 1.70726962 6.10302069 3.81061472 8 8 C8.36472887 11.61200436 8.28246115 15.18693209 8.1875 18.8125 C8.16719727 20.28106445 8.16719727 20.28106445 8.14648438 21.77929688 C8.11125312 24.18676625 8.06199265 26.59309564 8 29 C5.36 29 2.72 29 0 29 C0 28.34 0 27.68 0 27 C-0.86625 27.495 -1.7325 27.99 -2.625 28.5 C-6.22100908 30.09822626 -8.12882641 30.57655777 -12 30 C-14.69990662 28.20006226 -16.5418865 26.916227 -18 24 C-18.52324105 20.59893316 -18.81170419 18.14503726 -16.75390625 15.2421875 C-12.26737937 10.952529 -8.09876368 10.02765879 -2 10 C-2 9.01 -2 8.02 -2 7 C-8.07252996 6.89031374 -8.07252996 6.89031374 -14 8 C-15 7 -15 7 -15.0625 4.4375 C-15.041875 3.633125 -15.02125 2.82875 -15 2 C-10.21767028 -0.82438767 -5.4014731 -0.51366163 0 0 Z " fill="#131313" transform="translate(402,429)"/>
<path d="M0 0 C2.75326615 2.6844345 4.90668381 5.22879849 5.11352539 9.15478516 C5.10828857 10.02409668 5.10305176 10.8934082 5.09765625 11.7890625 C5.09443359 12.73007812 5.09121094 13.67109375 5.08789062 14.640625 C5.07951172 15.62546875 5.07113281 16.6103125 5.0625 17.625 C5.05798828 18.61757813 5.05347656 19.61015625 5.04882812 20.6328125 C5.03702145 23.0886016 5.020554 25.54427104 5 28 C2.03 28 -0.94 28 -4 28 C-4.04898437 26.65164063 -4.09796875 25.30328125 -4.1484375 23.9140625 C-4.22346057 22.15102041 -4.29900859 20.38800061 -4.375 18.625 C-4.4059375 17.73554688 -4.436875 16.84609375 -4.46875 15.9296875 C-4.50742187 15.07890625 -4.54609375 14.228125 -4.5859375 13.3515625 C-4.63306885 12.17327881 -4.63306885 12.17327881 -4.68115234 10.97119141 C-4.8399465 8.76997061 -4.8399465 8.76997061 -7 7 C-8.65 7 -10.3 7 -12 7 C-12.33 14.26 -12.66 21.52 -13 29 C-15.97 29 -18.94 29 -22 29 C-22 19.43 -22 9.86 -22 0 C-19.69 0 -17.38 0 -15 0 C-15 0.99 -15 1.98 -15 3 C-14.195625 2.319375 -13.39125 1.63875 -12.5625 0.9375 C-8.48284366 -1.77581063 -4.55443139 -1.52391621 0 0 Z " fill="#111111" transform="translate(377,430)"/>
<path d="M0 0 C3.21725013 1.8097032 4.54322539 3.17345547 6.3125 6.375 C7 9 7 9 7 15 C0.4 15 -6.2 15 -13 15 C-12.34 17.64 -11.68 20.28 -11 23 C-7.32612505 23.85298376 -3.9552607 24.10789471 -0.1875 24.0625 C0.78832031 24.05347656 1.76414062 24.04445313 2.76953125 24.03515625 C3.50558594 24.02355469 4.24164062 24.01195312 5 24 C5 25.32 5 26.64 5 28 C-0.4284918 29.80949727 -5.9631261 29.67895797 -11.375 27.875 C-14.74404501 25.46853928 -16.2423733 23.78565751 -18 20 C-18.78439619 14.6212833 -18.69875713 10.39751425 -16.25 5.5 C-11.23312899 -0.07430113 -7.38755797 -1.07760165 0 0 Z " fill="#141414" transform="translate(541,430)"/>
<path d="M0 0 C2.5 1 2.5 1 4 2 C3.67 3.98 3.34 5.96 3 8 C-0.3 7.67 -3.6 7.34 -7 7 C-7 7.99 -7 8.98 -7 10 C-6.13375 10.2475 -5.2675 10.495 -4.375 10.75 C-0.59021732 12.15177136 2.02568348 13.23813466 5 16 C5.81894396 19.15380545 5.79509992 21.84281491 5 25 C2.41889557 27.71695203 -0.16981941 29.84538749 -3.98828125 30.16796875 C-8.45134312 30.20547347 -11.93743705 30.09680669 -16 28 C-15.67 26.02 -15.34 24.04 -15 22 C-14.484375 22.165 -13.96875 22.33 -13.4375 22.5 C-10.26636124 23.15049 -7.22781666 23.0620734 -4 23 C-4 22.01 -4 21.02 -4 20 C-4.54269531 19.74605469 -5.08539063 19.49210937 -5.64453125 19.23046875 C-6.35996094 18.88628906 -7.07539063 18.54210937 -7.8125 18.1875 C-8.52019531 17.85105469 -9.22789062 17.51460938 -9.95703125 17.16796875 C-12.06369889 15.96358323 -13.47795857 14.88733137 -15 13 C-15.5 9.625 -15.5 9.625 -15 6 C-10.43178409 0.47005442 -7.03622707 -0.59794025 0 0 Z " fill="#111111" transform="translate(316,429)"/>
<path d="M0 0 C2.7683655 1.53047849 4.45511041 3.24251782 6 6 C6.77483404 9.08131675 6.52068732 10.7196699 6 14 C3.90419111 17.4431146 1.8734599 19.7468218 -2 21 C-5.02104186 21.45972376 -7.03825508 21.60025379 -9.68359375 19.94921875 C-11.88559657 18.15910135 -13.71983651 16.56032698 -15 14 C-15.37712577 9.00308353 -15.09290612 6.00932275 -12 2 C-7.96348514 -0.69100991 -4.7395872 -0.90277851 0 0 Z " fill="#EFEFEF" transform="translate(452,434)"/>
<path d="M0 0 C1.98 0 3.96 0 6 0 C6.01981934 0.65597168 6.03963867 1.31194336 6.06005859 1.98779297 C6.15512507 4.95061069 6.26487752 7.91270532 6.375 10.875 C6.4059375 11.90753906 6.436875 12.94007813 6.46875 14.00390625 C6.50742187 14.99003906 6.54609375 15.97617187 6.5859375 16.9921875 C6.6173584 17.90339355 6.6487793 18.81459961 6.68115234 19.75341797 C6.79882511 22.19931186 6.79882511 22.19931186 9 24 C12.52894948 23.91256309 12.52894948 23.91256309 16 23 C18.08745045 19.86882433 18.27653996 18.93053776 18.4140625 15.33203125 C18.45273437 14.43935547 18.49140625 13.54667969 18.53125 12.62695312 C18.57765625 11.23379883 18.57765625 11.23379883 18.625 9.8125 C18.66367187 8.87212891 18.70234375 7.93175781 18.7421875 6.96289062 C18.83643187 4.6421229 18.92204025 2.32136252 19 0 C20.65 0 22.3 0 24 0 C24 9.24 24 18.48 24 28 C22.68 28 21.36 28 20 28 C19.67 27.01 19.34 26.02 19 25 C18.566875 25.474375 18.13375 25.94875 17.6875 26.4375 C15.18398593 28.75556859 12.97017861 29.00386574 9.625 29.4375 C5.79521062 28.97528404 5.4238517 28.87159317 3.125 26.125 C0.525726 22.30253824 -0.12491214 20.73541546 -0.09765625 16.2109375 C-0.09443359 15.26992188 -0.09121094 14.32890625 -0.08789062 13.359375 C-0.07951172 12.37453125 -0.07113281 11.3896875 -0.0625 10.375 C-0.05798828 9.38242187 -0.05347656 8.38984375 -0.04882812 7.3671875 C-0.03702145 4.9113984 -0.020554 2.45572896 0 0 Z " fill="#171717" transform="translate(465,430)"/>
<path d="M0 0 C2.31 0 4.62 0 7 0 C7.33 1.32 7.66 2.64 8 4 C8.37125 3.34 8.7425 2.68 9.125 2 C11 0 11 0 14.1875 -0.25 C15.115625 -0.1675 16.04375 -0.085 17 0 C17 2.31 17 4.62 17 7 C13.535 8.485 13.535 8.485 10 10 C9.67 15.94 9.34 21.88 9 28 C6.03 28 3.06 28 0 28 C0 18.76 0 9.52 0 0 Z " fill="#0C0C0C" transform="translate(414,430)"/>
<path d="M0 0 C11.95918184 -1.36821148 24.38675376 3.22839299 33.9921875 10.33203125 C44.62264304 19.16316844 53.73576978 30.95719842 56 45 C56.19858679 48.35288399 56.1925814 51.64765716 56 55 C55.01 55 54.02 55 53 55 C52.86464844 54.07960938 52.72929688 53.15921875 52.58984375 52.2109375 C49.86586684 36.19330081 43.27789169 22.39492263 29.6875 12.6875 C20.27750164 6.93060326 10.92583078 4.18069462 0 3 C0 2.01 0 1.02 0 0 Z " fill="#54A2D4" transform="translate(527,403)"/>
<path d="M0 0 C1.90625 0.46875 1.90625 0.46875 4.40625 2.34375 C6.5429657 6.79524104 6.79527184 10.62164833 5.90625 15.46875 C4.55956221 18.37415728 3.47830236 19.34401109 0.90625 21.46875 C-2.09375 22.15625 -2.09375 22.15625 -5.09375 21.46875 C-7.96875 19.65625 -7.96875 19.65625 -10.09375 16.46875 C-10.97877228 11.33562077 -10.82021116 7.01247996 -8.59375 2.28125 C-5.56557508 0.08582318 -3.68641471 -0.27510558 0 0 Z " fill="#F3F3F3" transform="translate(510.09375,433.53125)"/>
<path d="M0 0 C15.12180718 4.39712124 27.10530049 13.15421989 35 27 C40 37.49492386 40 37.49492386 40 41 C38.68 41 37.36 41 36 41 C35.79246094 40.33355469 35.58492187 39.66710937 35.37109375 38.98046875 C30.64174386 24.83199524 23.13937963 14.41639908 9.6875 7.625 C7.79632393 6.73997904 5.90095358 5.86381972 4 5 C2.6635783 4.33954616 1.32888495 3.67549021 0 3 C0 2.01 0 1.02 0 0 Z " fill="#59A4D5" transform="translate(549,398)"/>
<path d="M0 0 C2.9375 -0.4375 2.9375 -0.4375 6 0 C7.875 1.5 7.875 1.5 9 4 C9.54367526 8.89307732 9.74561602 10.88157597 7 15 C6.34 15.66 5.68 16.32 5 17 C2.625 16.6875 2.625 16.6875 0 16 C-2.15942819 12.76085771 -2.27232978 11.75140267 -2.25 8 C-2.25515625 7.13375 -2.2603125 6.2675 -2.265625 5.375 C-2 3 -2 3 0 0 Z " fill="#EEEEEE" transform="translate(334,436)"/>
<path d="M0 0 C3.4375 1 3.4375 1 5.375 2.8125 C6.4375 5 6.4375 5 6.4375 9 C1.4875 9 -3.4625 9 -8.5625 9 C-7.36679704 3.0214852 -6.48739362 0 0 0 Z " fill="#E1E1E1" transform="translate(536.5625,433)"/>
<path d="M0 0 C7.94055863 1.20201117 14.06229447 9.77168356 18.5625 15.8125 C20.74384041 18.85408733 22.36776558 21.28454016 23 25 C22.01 25 21.02 25 20 25 C18.640625 23.09375 18.640625 23.09375 17.25 20.5 C13.49303772 13.9415498 9.32019953 8.45240109 3.0625 4.125 C2.051875 3.42375 1.04125 2.7225 0 2 C0 1.34 0 0.68 0 0 Z " fill="#62A9D7" transform="translate(569,397)"/>
<path d="M0 0 C-0.33 2.31 -0.66 4.62 -1 7 C-2.9914056 7.38133299 -4.99279077 7.71325582 -7 8 C-8 7 -8 7 -8.25 4.5625 C-8.1675 3.716875 -8.085 2.87125 -8 2 C-4.77208445 -0.1519437 -3.71599191 -0.20086443 0 0 Z " fill="#E3E3E3" transform="translate(401,445)"/>
<path d="M0 0 C3.90829085 0.5647301 5.89920223 2.42131971 8.75 5.0625 C9.54921875 5.79597656 10.3484375 6.52945312 11.171875 7.28515625 C11.77515625 7.85105469 12.3784375 8.41695313 13 9 C12.34 9.66 11.68 10.32 11 11 C10.45730469 10.51789063 9.91460938 10.03578125 9.35546875 9.5390625 C8.64003906 8.90742188 7.92460938 8.27578125 7.1875 7.625 C6.47980469 6.99851562 5.77210938 6.37203125 5.04296875 5.7265625 C2.91196181 3.859401 2.91196181 3.859401 0 2 C0 1.34 0 0.68 0 0 Z " fill="#57A3D5" transform="translate(569,397)"/>
<path d="M0 0 C0.33 0 0.66 0 1 0 C1.33 3.96 1.66 7.92 2 12 C1.01 12 0.02 12 -1 12 C-0.67 8.04 -0.34 4.08 0 0 Z " fill="#A5A5A5" transform="translate(322,440)"/>
<path d="M0 0 C0.99 0 1.98 0 3 0 C3.33 1.65 3.66 3.3 4 5 C2.68 5 1.36 5 0 5 C0 3.35 0 1.7 0 0 Z " fill="#6AADD9" transform="translate(585,434)"/>
</svg>
